<svg width="251" height="207" viewBox="0 0 251 207" fill="none" xmlns="http://www.w3.org/2000/svg">
<path d="M112.616 140.02C112.616 139.811 143.598 139.633 181.804 139.633C220.011 139.633 251 139.811 251 140.02C251 140.228 220.025 140.407 181.804 140.407C143.583 140.407 112.616 140.243 112.616 140.02Z" fill="#263238"/>
<path d="M132.304 185.561L159.446 193.339L185.312 173.921L158.423 168.974L132.304 185.561Z" fill="white"/>
<path d="M132.304 185.59C132.337 185.558 132.374 185.531 132.415 185.509L132.762 185.285L134.145 184.39C135.384 183.604 137.163 182.456 139.426 180.998L158.343 168.887L158.392 168.858H158.454L185.343 173.783L185.677 173.846L185.411 174.047L184.394 174.81L159.533 193.447L159.471 193.487H159.403L139.673 187.748L134.207 186.152L132.781 185.733L132.304 185.59L159.483 193.24H159.359L184.19 174.569L185.206 173.806L185.281 174.064L158.399 169.105H158.504L132.304 185.59Z" fill="#263238"/>
<path d="M169.934 174.937C169.582 174.864 169.234 174.772 168.893 174.661C167.951 174.399 166.995 174.182 166.029 174.013C164.601 173.756 163.142 173.671 161.69 173.76C159.92 173.866 158.198 174.339 156.651 175.143C155.098 175.932 153.833 177.131 153.019 178.587C152.384 179.789 152.11 181.128 152.226 182.461C152.302 183.365 152.583 184.243 153.05 185.039C153.385 185.613 153.67 185.865 153.62 185.882C153.571 185.9 153.546 185.825 153.422 185.699C153.242 185.511 153.08 185.31 152.939 185.096C152.421 184.3 152.099 183.409 151.996 182.484C151.846 181.106 152.108 179.716 152.753 178.467C153.576 176.952 154.872 175.7 156.472 174.874C158.061 174.049 159.834 173.572 161.653 173.479C163.127 173.403 164.605 173.511 166.048 173.8C167.018 173.988 167.972 174.238 168.905 174.547C169.234 174.656 169.488 174.747 169.655 174.816C169.823 174.885 169.94 174.925 169.934 174.937Z" fill="#263238"/>
<path d="M167.584 175.258C167.584 175.321 166.344 174.954 164.305 174.828C163.115 174.761 161.921 174.84 160.754 175.063C159.33 175.345 157.986 175.903 156.811 176.699C155.637 177.489 154.705 178.549 154.109 179.775C153.638 180.784 153.426 181.88 153.489 182.978C153.574 183.995 153.886 184.984 154.407 185.882C154.407 185.882 154.351 185.831 154.258 185.71C154.129 185.543 154.014 185.367 153.917 185.182C153.562 184.496 153.351 183.754 153.297 182.995C153.197 181.859 153.392 180.718 153.867 179.666C154.46 178.367 155.422 177.24 156.65 176.406C157.863 175.583 159.255 175.015 160.729 174.742C161.923 174.525 163.143 174.467 164.355 174.569C165.168 174.636 165.974 174.763 166.766 174.948C167.05 175.023 167.325 175.127 167.584 175.258Z" fill="#455A64"/>
<path d="M164.783 177.68C164.176 177.498 163.554 177.362 162.923 177.273C161.381 177.092 159.824 177.474 158.581 178.337C157.337 179.2 156.505 180.478 156.26 181.899C156.175 182.488 156.142 183.083 156.161 183.678C156.087 183.53 156.043 183.37 156.031 183.207C155.965 182.762 155.965 182.31 156.031 181.864C156.129 181.122 156.388 180.406 156.792 179.758C157.196 179.111 157.738 178.546 158.384 178.097C159.03 177.649 159.767 177.325 160.552 177.147C161.336 176.969 162.151 176.939 162.948 177.06C163.427 177.127 163.893 177.253 164.337 177.433C164.5 177.489 164.652 177.573 164.783 177.68Z" fill="#FFBF9D"/>
<path d="M166.141 176.716C165.28 176.535 164.409 176.399 163.531 176.308C162.585 176.237 161.632 176.297 160.705 176.486C159.574 176.72 158.514 177.187 157.606 177.852C156.693 178.513 155.987 179.387 155.56 180.384C155.226 181.201 155.101 182.079 155.194 182.949C155.305 183.758 155.587 184.538 156.025 185.245C156.025 185.245 155.969 185.205 155.895 185.119C155.784 184.991 155.684 184.854 155.597 184.711C155.271 184.18 155.06 183.595 154.977 182.989C154.841 182.082 154.948 181.158 155.287 180.298C155.715 179.246 156.449 178.324 157.407 177.634C158.356 176.94 159.465 176.458 160.649 176.228C161.608 176.05 162.59 176.009 163.562 176.108C164.212 176.173 164.854 176.298 165.477 176.481C165.71 176.528 165.933 176.608 166.141 176.716Z" fill="#4DC26B"/>
<path d="M158.107 184.017C157.76 183.719 157.311 183.544 156.838 183.522C156.365 183.5 155.899 183.632 155.522 183.897C155.157 184.188 154.905 184.582 154.806 185.019C154.706 185.455 154.764 185.91 154.97 186.313C154.733 186.005 154.392 185.777 154.001 185.666C153.61 185.555 153.19 185.567 152.807 185.699C152.432 185.868 152.138 186.16 151.981 186.518C151.825 186.876 151.816 187.275 151.958 187.639C152.04 187.81 152.161 187.963 152.312 188.087C152.463 188.211 152.642 188.304 152.836 188.358C153.029 188.413 153.233 188.428 153.434 188.403C153.634 188.378 153.826 188.313 153.997 188.213C153.8 188.388 153.684 188.627 153.674 188.88C153.663 189.132 153.759 189.379 153.941 189.567C154.132 189.744 154.361 189.88 154.614 189.966C154.866 190.052 155.136 190.086 155.404 190.067C155.987 190.079 156.553 189.889 156.991 189.533C157.209 189.346 157.364 189.104 157.437 188.838C157.511 188.571 157.5 188.29 157.406 188.029C157.539 188.135 157.694 188.214 157.861 188.263C158.029 188.311 158.205 188.327 158.379 188.31C158.553 188.293 158.722 188.242 158.874 188.163C159.027 188.083 159.16 187.975 159.266 187.845C159.45 187.572 159.52 187.246 159.461 186.929C159.403 186.611 159.221 186.325 158.95 186.124C159.103 186.068 159.241 185.982 159.354 185.871C159.467 185.76 159.551 185.626 159.601 185.481C159.651 185.336 159.665 185.182 159.643 185.031C159.62 184.88 159.561 184.736 159.47 184.608C159.621 184.513 159.745 184.387 159.831 184.238C159.918 184.09 159.965 183.925 159.969 183.756C159.973 183.588 159.933 183.421 159.852 183.269C159.772 183.118 159.654 182.987 159.508 182.886C159.341 182.818 159.158 182.791 158.976 182.806C158.794 182.821 158.62 182.879 158.469 182.973C158.318 183.068 158.195 183.196 158.112 183.347C158.029 183.497 157.989 183.665 157.995 183.833" fill="white"/>
<path d="M157.971 183.811C157.947 183.716 157.947 183.618 157.971 183.524C158.006 183.387 158.07 183.257 158.159 183.143C158.249 183.029 158.361 182.932 158.491 182.858C158.675 182.747 158.892 182.691 159.111 182.697C159.249 182.703 159.383 182.737 159.504 182.799C159.624 182.861 159.727 182.948 159.805 183.053C159.99 183.29 160.07 183.584 160.028 183.874C160.014 184.041 159.957 184.202 159.861 184.344C159.765 184.486 159.633 184.604 159.477 184.689L159.514 184.534C159.614 184.676 159.679 184.837 159.704 185.005C159.729 185.174 159.713 185.345 159.658 185.507C159.603 185.669 159.51 185.817 159.385 185.942C159.261 186.066 159.108 186.164 158.937 186.227L158.981 186.015C159.275 186.221 159.48 186.517 159.559 186.851C159.637 187.185 159.584 187.534 159.409 187.834C159.301 187.994 159.157 188.132 158.987 188.236C158.818 188.341 158.626 188.411 158.424 188.441C158.223 188.472 158.017 188.462 157.82 188.413C157.623 188.363 157.44 188.276 157.283 188.156L157.53 187.995C157.659 188.359 157.644 188.753 157.488 189.108C157.333 189.463 157.047 189.756 156.681 189.935C156.314 190.116 155.907 190.218 155.491 190.233C155.063 190.26 154.635 190.181 154.252 190.004C154.063 189.928 153.898 189.811 153.771 189.662C153.643 189.513 153.558 189.336 153.522 189.149C153.487 188.962 153.502 188.77 153.566 188.589C153.631 188.409 153.743 188.246 153.892 188.115L154.084 188.351C153.762 188.541 153.375 188.614 152.998 188.557C152.62 188.5 152.279 188.316 152.039 188.041C151.834 187.789 151.713 187.487 151.691 187.172C151.669 186.858 151.747 186.544 151.915 186.27C152.083 185.995 152.333 185.772 152.636 185.628C152.939 185.484 153.281 185.425 153.619 185.458C153.907 185.488 154.185 185.573 154.434 185.71C154.683 185.847 154.897 186.031 155.064 186.25L154.853 186.371C154.677 186.021 154.605 185.635 154.645 185.251C154.686 184.867 154.837 184.501 155.082 184.19C155.393 183.813 155.847 183.559 156.352 183.48C156.857 183.401 157.376 183.503 157.803 183.765C157.889 183.813 157.966 183.873 158.033 183.943C158.082 183.989 158.107 184.012 158.101 184.017C158.095 184.023 157.989 183.937 157.766 183.822C157.44 183.656 157.072 183.575 156.7 183.587C156.414 183.594 156.134 183.662 155.882 183.785C155.629 183.909 155.411 184.084 155.243 184.299C155.032 184.583 154.905 184.915 154.876 185.259C154.846 185.604 154.915 185.95 155.076 186.262L154.859 186.382C154.71 186.194 154.52 186.036 154.301 185.921C154.082 185.805 153.839 185.733 153.588 185.711C153.308 185.695 153.029 185.753 152.783 185.879C152.538 186.005 152.336 186.193 152.202 186.422C152.068 186.65 152.007 186.909 152.026 187.169C152.046 187.428 152.145 187.677 152.312 187.886C152.501 188.103 152.768 188.248 153.065 188.296C153.361 188.344 153.666 188.29 153.923 188.144L154.115 188.379C154.007 188.47 153.928 188.587 153.887 188.716C153.847 188.846 153.846 188.984 153.886 189.114C153.918 189.256 153.984 189.389 154.079 189.503C154.175 189.617 154.298 189.71 154.438 189.774C154.776 189.91 155.143 189.975 155.512 189.963C155.881 189.951 156.242 189.863 156.57 189.705C156.87 189.563 157.106 189.327 157.237 189.04C157.369 188.752 157.387 188.431 157.289 188.133L157.047 187.559L157.53 187.96C157.654 188.054 157.798 188.122 157.952 188.16C158.106 188.199 158.267 188.207 158.425 188.184C158.583 188.162 158.734 188.109 158.868 188.029C159.002 187.948 159.117 187.843 159.204 187.719C159.345 187.474 159.39 187.191 159.33 186.918C159.27 186.646 159.109 186.401 158.876 186.227L158.652 186.084L158.913 186.015C159.046 185.964 159.167 185.887 159.265 185.789C159.363 185.69 159.437 185.574 159.481 185.446C159.525 185.319 159.539 185.184 159.521 185.051C159.503 184.918 159.454 184.791 159.378 184.677L159.297 184.58L159.415 184.522C159.645 184.376 159.805 184.151 159.859 183.897C159.914 183.643 159.859 183.379 159.706 183.162C159.579 183.004 159.392 182.896 159.183 182.86C158.973 182.825 158.757 182.865 158.578 182.973C158.33 183.095 158.142 183.301 158.051 183.547C157.977 183.707 157.989 183.811 157.971 183.811Z" fill="#263238"/>
<path d="M166.103 175.884C165.688 175.915 165.304 176.098 165.034 176.391C164.764 176.685 164.632 177.066 164.665 177.451C164.699 177.835 164.896 178.191 165.214 178.441C165.531 178.691 165.942 178.813 166.357 178.782C166.219 178.877 166.124 179.017 166.093 179.173C166.062 179.33 166.097 179.492 166.19 179.626C166.287 179.756 166.415 179.864 166.562 179.942C166.71 180.021 166.875 180.067 167.045 180.079C167.403 180.116 167.764 180.063 168.091 179.926C168.418 179.789 168.7 179.572 168.905 179.299C169.108 179.01 169.228 178.679 169.254 178.335C169.28 177.992 169.211 177.648 169.054 177.336C169.156 177.453 169.283 177.55 169.427 177.62C169.571 177.69 169.729 177.731 169.891 177.742C170.054 177.753 170.217 177.732 170.37 177.682C170.523 177.632 170.664 177.553 170.783 177.451C171.005 177.219 171.12 176.916 171.105 176.606C171.09 176.297 170.946 176.005 170.702 175.792C171.084 175.686 171.408 175.448 171.605 175.128C171.802 174.807 171.859 174.428 171.762 174.07C170.528 173.456 169.338 172.77 168.198 172.015C167.824 172.128 167.51 172.369 167.322 172.689C167.134 173.01 167.086 173.385 167.188 173.737C167.055 173.65 166.903 173.592 166.743 173.565C166.583 173.538 166.419 173.543 166.262 173.581C166.104 173.618 165.958 173.687 165.832 173.783C165.706 173.878 165.604 173.998 165.533 174.133C165.475 174.276 165.45 174.429 165.46 174.582C165.469 174.734 165.512 174.884 165.587 175.02C165.661 175.156 165.765 175.277 165.893 175.374C166.02 175.472 166.168 175.543 166.326 175.585" fill="white"/>
<path d="M166.339 175.614C166.245 175.615 166.153 175.593 166.072 175.551C165.827 175.44 165.632 175.253 165.52 175.023C165.419 174.841 165.376 174.636 165.398 174.432C165.42 174.228 165.506 174.035 165.644 173.875C165.844 173.666 166.119 173.532 166.418 173.497C166.717 173.462 167.019 173.529 167.268 173.686L167.089 173.8C166.982 173.448 167.013 173.073 167.176 172.74C167.339 172.407 167.625 172.138 167.981 171.981C168.199 171.907 168.431 171.878 168.662 171.896C168.893 171.913 169.118 171.976 169.32 172.082C169.522 172.187 169.697 172.331 169.833 172.505C169.969 172.679 170.062 172.878 170.107 173.089L169.921 172.985C170.326 172.888 170.756 172.937 171.124 173.121C171.492 173.305 171.771 173.611 171.905 173.978C172.03 174.379 171.979 174.81 171.763 175.177C171.547 175.543 171.184 175.816 170.752 175.936L170.82 175.677C171.071 175.893 171.232 176.184 171.276 176.498C171.32 176.812 171.245 177.131 171.062 177.399C170.909 177.62 170.676 177.783 170.405 177.858C170.145 177.934 169.866 177.936 169.606 177.863C169.345 177.791 169.113 177.647 168.942 177.451L169.209 177.296C169.343 177.565 169.417 177.856 169.426 178.152C169.434 178.448 169.377 178.743 169.258 179.018C169.148 179.275 168.981 179.507 168.767 179.7C168.554 179.893 168.298 180.042 168.018 180.137C167.755 180.232 167.472 180.269 167.191 180.248C166.909 180.226 166.637 180.145 166.394 180.011C166.275 179.945 166.174 179.853 166.102 179.743C166.029 179.633 165.987 179.508 165.979 179.379C165.971 179.251 165.998 179.122 166.056 179.005C166.114 178.888 166.203 178.786 166.314 178.708L166.394 178.915C166.022 178.946 165.648 178.862 165.332 178.676C165.016 178.49 164.775 178.213 164.647 177.887C164.575 177.69 164.548 177.482 164.566 177.275C164.584 177.068 164.648 176.866 164.753 176.683C164.858 176.499 165.002 176.337 165.176 176.207C165.351 176.076 165.552 175.98 165.768 175.924C165.856 175.906 165.945 175.896 166.035 175.895C166.091 175.895 166.122 175.895 166.122 175.895C166.122 175.895 166.004 175.895 165.787 175.976C165.484 176.079 165.221 176.263 165.031 176.504C164.879 176.687 164.781 176.903 164.745 177.131C164.709 177.359 164.737 177.592 164.826 177.807C164.945 178.086 165.158 178.323 165.434 178.48C165.71 178.638 166.034 178.707 166.357 178.679L166.977 178.599L166.419 178.892C166.345 178.941 166.288 179.009 166.253 179.087C166.218 179.165 166.207 179.25 166.221 179.334C166.231 179.428 166.265 179.518 166.32 179.598C166.375 179.678 166.449 179.745 166.537 179.793C166.744 179.901 166.975 179.965 167.212 179.979C167.449 179.993 167.687 179.957 167.907 179.873C168.15 179.789 168.372 179.659 168.558 179.491C168.743 179.323 168.889 179.121 168.985 178.897C169.085 178.659 169.132 178.404 169.122 178.149C169.113 177.893 169.047 177.642 168.93 177.411L169.202 177.262C169.334 177.402 169.506 177.504 169.698 177.556C169.89 177.608 170.095 177.607 170.287 177.554C170.489 177.489 170.661 177.365 170.779 177.2C170.897 177.035 170.952 176.839 170.938 176.642C170.938 176.504 170.907 176.367 170.847 176.241C170.788 176.114 170.7 176.001 170.591 175.907L170.349 175.718L170.659 175.649C171.004 175.548 171.293 175.327 171.465 175.032C171.638 174.738 171.68 174.393 171.582 174.07C171.477 173.773 171.254 173.524 170.959 173.372C170.664 173.22 170.318 173.176 169.99 173.249L169.828 173.295V173.14C169.792 172.968 169.717 172.805 169.607 172.662C169.497 172.519 169.356 172.399 169.192 172.31C169.029 172.222 168.846 172.166 168.658 172.148C168.469 172.13 168.279 172.149 168.099 172.205C167.797 172.337 167.554 172.562 167.411 172.841C167.269 173.121 167.236 173.438 167.318 173.737L167.417 174.053L167.138 173.846C166.96 173.715 166.738 173.645 166.511 173.647C166.283 173.649 166.063 173.724 165.888 173.859C165.713 173.993 165.593 174.18 165.549 174.387C165.504 174.593 165.538 174.808 165.644 174.994C165.735 175.212 165.901 175.395 166.116 175.517C166.246 175.58 166.339 175.597 166.339 175.614Z" fill="#263238"/>
<path d="M148.24 185.171C147.605 184.799 147.035 184.34 146.547 183.811C145.984 183.351 145.494 182.819 145.091 182.232C145.721 182.611 146.288 183.071 146.777 183.598C147.341 184.057 147.834 184.586 148.24 185.171Z" fill="#263238"/>
<path d="M148.047 182.806C147.667 183.204 147.208 183.531 146.696 183.77C146.238 184.094 145.719 184.335 145.165 184.482C145.549 184.085 146.009 183.758 146.522 183.517C146.98 183.197 147.497 182.956 148.047 182.806Z" fill="#263238"/>
<path d="M146.503 185.504C146.358 184.9 146.335 184.278 146.435 183.667C146.433 183.049 146.553 182.437 146.788 181.859C146.842 183.08 146.747 184.303 146.503 185.504Z" fill="#263238"/>
<path d="M148.413 184.137C147.819 184.083 147.23 183.988 146.652 183.85C146.057 183.809 145.466 183.723 144.886 183.592C145.477 183.431 146.104 183.419 146.702 183.557C147.32 183.598 147.913 183.799 148.413 184.137Z" fill="#263238"/>
<path d="M162.229 172.468C161.719 172.415 161.232 172.245 160.81 171.975C160.072 171.602 159.57 171.2 159.57 171.131C160.06 171.246 160.524 171.44 160.94 171.705C161.659 172.078 162.229 172.388 162.229 172.468Z" fill="#263238"/>
<path d="M161.261 171.114C161.336 171.16 161.076 171.648 160.604 172.153C160.133 172.658 159.637 172.957 159.582 172.899C159.526 172.842 159.904 172.44 160.356 171.958C160.809 171.476 161.187 171.068 161.261 171.114Z" fill="#263238"/>
<path d="M160.785 172.962C160.583 172.608 160.479 172.214 160.481 171.814C160.38 171.437 160.38 171.043 160.481 170.666C160.568 170.666 160.704 171.16 160.785 171.814C160.885 172.191 160.885 172.585 160.785 172.962Z" fill="#263238"/>
<path d="M162.409 171.762C161.991 171.992 161.512 172.105 161.026 172.089C160.55 172.168 160.059 172.117 159.613 171.94C160.537 171.8 161.473 171.741 162.409 171.762Z" fill="#263238"/>
<path d="M164.027 183.615C163.952 183.655 163.636 183.248 163.407 182.674C163.177 182.1 163.097 181.612 163.183 181.589C163.27 181.566 163.475 182.014 163.704 182.571C163.934 183.127 164.089 183.575 164.027 183.615Z" fill="#FFBF9D"/>
<path d="M165.21 182.439C164.742 182.72 164.22 182.915 163.673 183.013C163.158 183.21 162.606 183.312 162.049 183.311C162.516 183.033 163.035 182.838 163.58 182.737C164.097 182.542 164.651 182.44 165.21 182.439Z" fill="#FFBF9D"/>
<path d="M164.999 183.575C164.497 183.457 164.027 183.246 163.617 182.955C162.898 182.542 162.377 182.151 162.377 182.083C162.881 182.198 163.354 182.409 163.765 182.702C164.503 183.116 165.048 183.506 164.999 183.575Z" fill="#FFBF9D"/>
<path d="M164.088 181.698C164.054 182.171 163.915 182.632 163.679 183.053C163.543 183.51 163.302 183.935 162.973 184.298C163.006 183.825 163.145 183.364 163.382 182.944C163.518 182.487 163.759 182.062 164.088 181.698Z" fill="#FFBF9D"/>
<path d="M149.435 178.932C149.392 179 149.07 178.897 148.722 178.702C148.375 178.507 148.134 178.289 148.183 178.214C148.233 178.139 148.549 178.248 148.896 178.444C149.243 178.639 149.485 178.857 149.435 178.932Z" fill="#FFBF9D"/>
<path d="M149.362 177.99C149.424 178.047 149.176 178.386 148.811 178.747C148.445 179.109 148.085 179.356 148.023 179.321C147.961 179.287 148.203 178.925 148.575 178.564C148.947 178.202 149.294 177.932 149.362 177.99Z" fill="#FFBF9D"/>
<path d="M148.835 179.374C148.748 179.374 148.667 179.064 148.649 178.668C148.63 178.272 148.698 177.956 148.791 177.951C148.884 177.945 148.958 178.266 148.971 178.657C148.983 179.047 148.928 179.374 148.835 179.374Z" fill="#FFBF9D"/>
<path d="M149.925 178.759C149.925 178.84 149.399 178.926 148.735 178.943C148.072 178.96 147.539 178.909 147.539 178.828C147.539 178.748 148.066 178.662 148.729 178.645C149.392 178.627 149.925 178.702 149.925 178.759Z" fill="#FFBF9D"/>
<path d="M169.222 33.057L167.586 28.0119C170.082 24.2589 170.971 19.7772 170.08 15.4478C169.188 11.1183 166.58 7.25415 162.768 4.61481C158.957 1.97547 154.217 0.751826 149.48 1.1844C144.743 1.61697 140.353 3.67448 137.171 6.9525C133.989 10.2305 132.247 14.492 132.286 18.8993C132.325 23.3066 134.143 27.541 137.382 30.7702C140.621 33.9994 145.048 35.9899 149.792 36.3504C154.535 36.7109 159.253 35.4153 163.018 32.7184L169.222 33.057Z" fill="#FAFAFA"/>
<path d="M169.221 33.0575H168.837L167.659 33.0058L163.005 32.782C162.994 32.7821 162.983 32.78 162.973 32.7759C162.963 32.7717 162.954 32.7656 162.947 32.7579C162.94 32.7503 162.935 32.7412 162.932 32.7315C162.929 32.7218 162.928 32.7116 162.93 32.7016C162.927 32.6883 162.927 32.6747 162.93 32.6614L163.048 32.7647C160.548 34.5808 157.597 35.7884 154.463 36.2774C152.438 36.5882 150.371 36.5882 148.346 36.2774C143.477 35.5763 139.09 33.1574 136.104 29.5276C133.411 26.2732 132.019 22.2556 132.164 18.158C132.308 14.0604 133.981 10.1357 136.897 7.05106C138.954 4.85842 141.565 3.17065 144.496 2.13791C147.29 1.15391 150.291 0.776888 153.267 1.0359C156.503 1.3304 159.604 2.38365 162.279 4.09623C164.953 5.80881 167.112 8.12423 168.552 10.8239C169.991 13.5236 170.664 16.5185 170.507 19.5259C170.35 22.5333 169.368 25.454 167.653 28.0123V27.9492C168.162 29.6022 168.558 30.8764 168.831 31.7603L169.122 32.7246C169.16 32.8298 169.191 32.9372 169.215 33.046C169.215 33.046 169.166 32.9255 169.091 32.7016L168.757 31.7259L167.517 27.9951C167.512 27.9851 167.51 27.9744 167.51 27.9635C167.51 27.9527 167.512 27.9419 167.517 27.932C169.575 24.8149 170.528 21.1793 170.242 17.5353C169.956 13.8912 168.445 10.4216 165.921 7.61329C163.397 4.80499 159.986 2.79896 156.168 1.87668C152.351 0.954399 148.317 1.16216 144.633 2.47081C141.763 3.48419 139.208 5.13839 137.195 7.28639C134.656 10.0006 133.08 13.372 132.68 16.9436C132.279 20.5152 133.074 24.1145 134.957 27.2536C136.84 30.3928 139.719 32.9201 143.205 34.4932C146.691 36.0662 150.615 36.609 154.445 36.0478C157.549 35.5675 160.476 34.3845 162.967 32.604C162.975 32.5973 162.984 32.5919 162.994 32.5884C163.004 32.5849 163.015 32.5832 163.025 32.5835C163.036 32.5837 163.046 32.586 163.056 32.59C163.066 32.594 163.075 32.5997 163.082 32.6069C163.089 32.6141 163.095 32.6225 163.099 32.6317C163.103 32.6409 163.105 32.6507 163.104 32.6606C163.104 32.6705 163.102 32.6802 163.097 32.6892C163.093 32.6982 163.087 32.7063 163.079 32.7131L163.023 32.5926L167.61 32.9025L168.806 32.9886L169.221 33.0575Z" fill="#263238"/>
<path d="M146.002 18.7488C146.002 19.103 145.889 19.4492 145.677 19.7437C145.464 20.0382 145.162 20.2677 144.809 20.4032C144.455 20.5388 144.066 20.5742 143.691 20.5051C143.316 20.436 142.972 20.2655 142.701 20.015C142.431 19.7646 142.247 19.4455 142.172 19.0981C142.097 18.7508 142.136 18.3907 142.282 18.0635C142.428 17.7363 142.676 17.4566 142.994 17.2598C143.312 17.063 143.686 16.958 144.069 16.958C144.581 16.958 145.073 17.1467 145.436 17.4825C145.799 17.8183 146.002 18.2738 146.002 18.7488Z" fill="#263238"/>
<path d="M153.739 18.7488C153.739 19.1032 153.625 19.4497 153.413 19.7443C153.2 20.0389 152.897 20.2684 152.544 20.4038C152.19 20.5392 151.801 20.5743 151.425 20.5047C151.05 20.4352 150.706 20.264 150.435 20.013C150.165 19.762 149.981 19.4424 149.908 19.0946C149.834 18.7469 149.873 18.3866 150.02 18.0595C150.167 17.7324 150.416 17.4531 150.735 17.257C151.054 17.0609 151.428 16.9569 151.811 16.958C152.323 16.9595 152.813 17.1489 153.175 17.4845C153.536 17.8202 153.739 18.2748 153.739 18.7488Z" fill="#263238"/>
<path d="M161.461 17.853C161.653 18.1597 161.742 18.512 161.717 18.8656C161.693 19.2191 161.555 19.5579 161.322 19.8391C161.09 20.1202 160.772 20.3312 160.41 20.4452C160.048 20.5593 159.657 20.5712 159.287 20.4797C158.918 20.3881 158.586 20.197 158.334 19.9307C158.081 19.6644 157.92 19.3348 157.87 18.9836C157.82 18.6323 157.884 18.2753 158.053 17.9576C158.222 17.6398 158.489 17.3758 158.821 17.1987C159.265 16.9615 159.792 16.8972 160.287 17.0199C160.782 17.1425 161.205 17.4422 161.461 17.853Z" fill="#263238"/>
<path d="M141.648 56.625L143.291 64.9992C143.551 66.3294 144.139 67.5863 145.008 68.6725L146.737 70.8479C146.737 70.8479 155.458 96.6361 157.374 98.5187C162.01 103.082 167.842 99.6265 170.805 97.1642C176.229 92.6471 181.9 82.7175 181.9 82.7175L170.743 70.8019L162.654 83.6358L154.807 56.757L141.648 56.625Z" fill="#FFBF9D"/>
<path d="M229.144 64.6945C227.847 62.039 226.427 59.4351 224.886 56.8829C221.018 50.4946 216.338 44.336 214.541 37.2016C213.549 33.2584 213.487 29.1661 212.514 25.2114C211.541 21.2568 207.109 13.6575 200.415 12.3374L197.88 60.1889C199.509 64.6867 202.052 68.8541 205.374 72.466C207.741 75.0488 210.555 77.3619 213.896 78.7452C217.237 80.1284 221.155 89.4382 224.731 88.692C237.747 85.9657 228.995 75.531 228.995 75.531C232.882 71.2836 230.241 66.933 229.144 64.6945Z" fill="#263238"/>
<path d="M195.612 59.0355C195.199 54.9566 194.769 50.8776 194.323 46.7986L174.488 24.127C173.174 29.7346 171.705 40.5366 173.676 45.9778C174.414 48.0211 175.393 50.0989 175.145 52.2398C174.916 54.2314 173.633 56.0854 173.807 58.077C173.937 59.5693 174.86 60.8837 175.753 62.1235C176.121 62.7857 176.719 63.3135 177.451 63.6215C178.047 63.7469 178.667 63.7312 179.255 63.5756L194.131 60.8091C194.367 60.8217 194.604 60.7799 194.819 60.6874C195.034 60.595 195.221 60.4547 195.363 60.2792C195.505 60.1036 195.599 59.8982 195.635 59.6813C195.67 59.4643 195.648 59.2425 195.569 59.0355H195.612Z" fill="#263238"/>
<path d="M208.399 18.0945C204.34 13.5027 198.885 10.8568 192.476 10.7592C188.862 10.7018 187.362 11.3963 184.759 12.0449C182.147 12.6346 179.843 14.057 178.251 16.0626C176.391 18.4905 174.854 21.2283 174.532 24.1555C174.072 27.1738 173.914 30.225 174.061 33.2701C174.221 36.3365 175.293 39.3023 177.16 41.8394L185.509 43.1825C190.121 43.326 194.807 43.4637 199.288 42.4937C203.769 41.5237 208.145 39.2795 210.55 35.6061C213.848 30.538 212.459 22.6862 208.399 18.0945Z" fill="#263238"/>
<path d="M200.967 18.0429L189.81 13.9448L186.903 14.2605C180.358 14.2605 175.845 20.9644 175.802 25.8718C175.759 31.3245 175.932 37.9825 176.868 42.0003C178.728 50.0817 186.197 50.7533 186.197 50.7533C186.197 50.7533 185.075 62.0776 185.019 64.7925L203.056 56.6594L203.911 20.8382C203.892 20.1142 203.578 19.4238 203.032 18.9054C202.486 18.387 201.748 18.0789 200.967 18.0429Z" fill="#FFBF9D"/>
<path d="M189.977 40.1061C189.933 39.6469 189.78 39.2022 189.531 38.8032C189.19 38.344 188.21 38.9237 187.516 39.3772C186.822 39.8306 185.892 39.9798 185.898 40.0889L185.948 40.3701C186 40.7876 186.201 41.1772 186.519 41.4775C186.836 41.7778 187.252 41.9718 187.702 42.0289C187.805 42.0345 187.909 42.0345 188.012 42.0289C188.532 42.0253 189.032 41.8409 189.413 41.5123C189.615 41.3325 189.771 41.1126 189.869 40.8691C189.967 40.6255 190.004 40.3647 189.977 40.1061Z" fill="#FF9A6C"/>
<path d="M178.913 32.7705C178.928 33.042 179.055 33.2978 179.269 33.4841C179.483 33.6703 179.766 33.7725 180.06 33.7692C180.205 33.7731 180.349 33.7499 180.483 33.7011C180.618 33.6523 180.741 33.5788 180.845 33.4851C180.948 33.3913 181.03 33.2792 181.086 33.1555C181.142 33.0317 181.17 32.8989 181.169 32.7648C181.155 32.4932 181.027 32.2375 180.813 32.0512C180.6 31.865 180.316 31.7627 180.023 31.766C179.878 31.7622 179.734 31.7854 179.599 31.8342C179.464 31.883 179.341 31.9565 179.238 32.0502C179.134 32.144 179.052 32.256 178.996 32.3798C178.94 32.5035 178.912 32.6364 178.913 32.7705Z" fill="#263238"/>
<path d="M177.823 28.5981C177.971 28.7244 178.789 28.093 180.004 28.0241C181.219 27.9553 182.143 28.4833 182.267 28.3398C182.391 28.1963 182.174 28.0356 181.771 27.7658C181.224 27.4714 180.592 27.3392 179.961 27.387C179.329 27.4169 178.723 27.632 178.232 28.0012C177.86 28.2882 177.748 28.535 177.823 28.5981Z" fill="#263238"/>
<path d="M185.632 37.4196C184.98 37.2658 184.309 37.1887 183.636 37.19C183.326 37.19 183.017 37.1326 182.967 36.9375C182.922 36.6426 182.977 36.3421 183.122 36.0765C183.37 35.3706 183.63 34.6244 183.909 33.8438C185 30.664 185.769 28.0582 185.632 28.018C185.496 27.9779 184.498 30.5205 183.407 33.7003C183.147 34.4866 182.893 35.2328 182.657 35.9445C182.479 36.3045 182.446 36.7119 182.564 37.0925C182.614 37.1918 182.688 37.2792 182.781 37.3478C182.873 37.4165 182.981 37.4646 183.097 37.4885C183.272 37.5229 183.451 37.5364 183.63 37.5287C184.3 37.5697 184.972 37.533 185.632 37.4196Z" fill="#263238"/>
<path d="M186.202 50.7418C190.352 50.5925 194.375 49.3783 197.823 47.2349C197.823 47.2349 195.016 53.0434 186.158 52.7277L186.202 50.7418Z" fill="#FF9A6C"/>
<path d="M178.237 24.6557C178.454 24.9197 179.378 24.6902 180.468 24.7189C181.559 24.7476 182.477 24.9657 182.7 24.7189C182.799 24.5926 182.663 24.3285 182.272 24.0703C181.736 23.7528 181.111 23.5854 180.475 23.5881C179.842 23.5683 179.216 23.7221 178.677 24.0301C178.274 24.2712 178.138 24.518 178.237 24.6557Z" fill="#263238"/>
<path d="M192.668 32.4837C192.676 32.757 192.569 33.0224 192.368 33.223C192.168 33.4237 191.89 33.5436 191.595 33.557C191.452 33.5704 191.307 33.5569 191.169 33.5174C191.031 33.4779 190.903 33.4131 190.792 33.3269C190.682 33.2407 190.591 33.1349 190.526 33.0157C190.461 32.8965 190.422 32.7663 190.412 32.6329C190.403 32.3597 190.511 32.0943 190.711 31.8936C190.912 31.693 191.189 31.5731 191.484 31.5597C191.627 31.5471 191.772 31.5611 191.91 31.6009C192.047 31.6408 192.175 31.7056 192.285 31.7916C192.395 31.8777 192.486 31.9832 192.552 32.102C192.617 32.2208 192.657 32.3506 192.668 32.4837Z" fill="#263238"/>
<path d="M194.266 28.1619C194.123 28.2997 193.255 27.7257 192.041 27.7487C190.826 27.7717 189.946 28.3514 189.809 28.2136C189.673 28.0759 189.884 27.9037 190.268 27.6396C190.788 27.2963 191.408 27.1081 192.047 27.1001C192.68 27.0888 193.3 27.2636 193.819 27.5995C194.216 27.852 194.334 28.0988 194.266 28.1619Z" fill="#263238"/>
<path d="M193.535 24.5577C193.3 24.816 192.357 24.5577 191.223 24.5577C190.089 24.5577 189.147 24.7643 188.917 24.5003C188.818 24.374 188.967 24.1157 189.382 23.8632C189.945 23.5558 190.589 23.4007 191.242 23.4155C191.899 23.4085 192.544 23.5758 193.101 23.8976C193.498 24.1674 193.634 24.4314 193.535 24.5577Z" fill="#263238"/>
<path d="M202.398 34.5095C202.361 33.9011 203.018 32.4317 203.675 32.3055C205.392 31.9668 208.516 31.9381 208.782 36.0018C209.154 41.5578 203.055 40.7542 203.03 40.5935C203.005 40.4328 202.516 36.6044 202.398 34.5095Z" fill="#FFBF9D"/>
<path d="M204.555 38.4767C204.555 38.4767 204.661 38.5341 204.847 38.6029C205.101 38.6876 205.381 38.6773 205.628 38.5742C206.247 38.3217 206.718 37.3574 206.681 36.353C206.664 35.8769 206.532 35.4104 206.297 34.9869C206.227 34.8172 206.115 34.6653 205.97 34.5436C205.824 34.4218 205.65 34.3338 205.46 34.2867C205.335 34.259 205.204 34.2739 205.09 34.3288C204.976 34.3836 204.888 34.4746 204.84 34.5851C204.772 34.7458 204.84 34.8549 204.785 34.8664C204.729 34.8779 204.654 34.7803 204.685 34.5507C204.71 34.4118 204.784 34.2845 204.896 34.1891C205.055 34.0654 205.259 34.0018 205.466 34.0112C205.715 34.0439 205.951 34.1349 206.152 34.2754C206.353 34.416 206.511 34.6016 206.613 34.8147C206.904 35.2796 207.063 35.8045 207.078 36.3415C207.115 37.4894 206.57 38.5455 205.714 38.8268C205.556 38.8792 205.387 38.8981 205.22 38.8822C205.052 38.8664 204.891 38.816 204.747 38.7349C204.574 38.6087 204.53 38.4881 204.555 38.4767Z" fill="#FF9A6C"/>
<path d="M203.924 32.3233L202.399 33.7869C195.817 27.9611 182.949 13.3422 183.68 14.2147C186.679 13.1746 189.913 12.849 193.083 13.2676C197.967 14.0367 207.234 16.3096 207.11 21.6475C206.986 26.9854 203.924 32.3233 203.924 32.3233Z" fill="#263238"/>
<path d="M212.639 31.0946C212.625 30.9844 212.596 30.8763 212.552 30.7732C212.438 30.4718 212.302 30.1783 212.143 29.895C211.528 28.87 210.682 27.9794 209.663 27.2835C208.132 26.2738 206.426 25.5129 204.618 25.0336C202.61 24.4309 200.347 23.9602 198.122 23.0763C196.026 22.2665 194.038 21.2361 192.197 20.0056C190.694 18.9946 189.293 17.8592 188.013 16.6135C187.131 15.7747 186.305 14.8872 185.54 13.956L184.92 13.1926C184.777 13.0147 184.703 12.9286 184.69 12.9344C184.737 13.0356 184.795 13.1318 184.864 13.2213C184.988 13.405 185.168 13.6805 185.422 14.0249C186.14 14.9817 186.927 15.8926 187.777 16.7512C189.049 18.0188 190.448 19.1718 191.955 20.195C193.817 21.4714 195.838 22.537 197.973 23.3691C200.111 24.1234 202.289 24.7729 204.5 25.3148C206.285 25.7721 207.976 26.5014 209.502 27.4729C210.525 28.1385 211.388 28.9924 212.037 29.9811C212.477 30.6642 212.608 31.1061 212.639 31.0946Z" fill="#455A64"/>
<path d="M210.897 31.9788C210.91 31.5643 210.83 31.1518 210.661 30.7677C210.21 29.7052 209.424 28.7931 208.405 28.1504C206.886 27.2419 205.185 26.6252 203.403 26.3367C201.271 25.9362 199.193 25.3223 197.205 24.5057C195.222 23.6644 193.359 22.6003 191.657 21.3374C190.272 20.3053 188.998 19.1521 187.851 17.8936C187.086 17.0337 186.378 16.1308 185.732 15.1902C185.527 14.8746 185.36 14.6163 185.223 14.4154C185.17 14.3214 185.105 14.2329 185.031 14.1514C185.063 14.2549 185.111 14.3536 185.174 14.4441C185.292 14.6565 185.447 14.9205 185.632 15.2476C186.239 16.2186 186.925 17.1453 187.684 18.0199C188.812 19.3179 190.083 20.5029 191.477 21.5555C193.182 22.8448 195.057 23.9287 197.056 24.7812C199.069 25.6096 201.178 26.222 203.341 26.6064C205.099 26.8768 206.783 27.4617 208.3 28.3283C209.302 28.9363 210.09 29.8021 210.568 30.8193C210.714 31.1963 210.824 31.5842 210.897 31.9788Z" fill="#455A64"/>
<path d="M187.784 42.0176C188.211 41.9977 188.631 41.9063 189.023 41.7478C189.218 41.6545 189.388 41.5212 189.519 41.3581C189.65 41.195 189.739 41.0063 189.779 40.8065C189.861 40.2955 189.767 39.7738 189.513 39.3142C189.414 39.1018 189.296 38.8952 189.184 38.6943L189.395 38.7632C188.282 39.2946 187.125 39.7456 185.937 40.112C186.998 39.4957 188.109 38.9546 189.259 38.4934L189.395 38.436L189.47 38.5623C189.581 38.7575 189.699 38.9698 189.81 39.1937C190.092 39.7092 190.183 40.2958 190.071 40.8639C190.01 41.0824 189.902 41.287 189.752 41.4649C189.602 41.6428 189.414 41.7902 189.2 41.8979C188.986 42.0056 188.751 42.0713 188.508 42.091C188.265 42.1106 188.021 42.0836 187.79 42.0119L187.784 42.0176Z" fill="#263238"/>
<path d="M185.563 56.9055L203.228 55.1377L206.458 57.864L193.85 64.7286L188.284 67.3976L182.793 65.8536L181.051 62.8173L185.563 56.9055Z" fill="#FFBF9D"/>
<path d="M161.756 76.8232C161.756 76.8232 167.291 66.9854 168.661 64.8331C170.998 61.1711 175.361 59.0934 175.361 59.0934L185.539 56.9066C185.539 56.9066 184.479 61.6418 190.832 61.969C198.89 62.3822 203.923 55.2134 203.923 55.2134C203.923 55.2134 213.14 56.0915 215.7 57.0788C218.26 58.066 225.443 60.8612 226.503 69.706L228.983 84.1757L209.514 85.5475L214.59 105.143C219.89 111.456 224.96 115.417 226.138 126.351C226.138 126.351 167.334 125.656 165.816 126.156C165.103 126.391 175.702 110.033 174.004 102.049L170.793 94.84C169.497 91.957 168.73 88.8939 168.524 85.7771C168.4 83.728 168.462 82.1783 168.462 82.1783C168.462 82.1783 163.454 80.5827 161.756 76.8232Z" fill="#4DC26B"/>
<path d="M177.098 111.6L209.713 102.525L209.478 85.5644L226.101 84.4165C226.101 84.4165 225.872 96.7797 224.347 103.673C222.946 110.033 220.932 113.253 218.682 115.152C216.432 117.052 176.205 119.17 176.205 119.17L177.098 111.6Z" fill="#FFBF9D"/>
<path d="M170.043 93.8694C169.808 93.1404 169.343 92.687 168.804 92.687H145.25L143.713 95.2182L151.926 117.947C152.397 119.302 153.289 120.157 154.269 120.186L177.202 120.949C177.928 120.949 178.399 119.767 178.076 118.751L170.043 93.8694Z" fill="#455A64"/>
<path d="M186.742 110.319L182.98 107.632C182.217 106.756 181.252 106.05 180.156 105.564C179.06 105.078 177.86 104.826 176.645 104.826L173.428 104.315L173.998 106.163C173.998 106.163 163.176 106.685 162.804 107.833V108.407L171.376 108.941C171.376 108.941 164.081 108.941 163.647 108.941C163.213 108.941 161.608 108.826 161.645 109.618C161.645 110.273 162.501 110.766 163.765 110.956C164.279 111.025 170.583 111.53 170.583 111.53L163.629 111.467C162.848 111.467 162.947 112.615 163.405 112.769C163.771 112.884 172.703 115.289 172.703 115.289C172.703 115.289 171.203 116.219 169.982 116.139C168.761 116.058 166.66 114.6 166.226 115.289C165.792 115.978 165.872 116.38 166.139 116.54C167.457 117.228 168.828 117.823 170.242 118.32C171.203 118.567 179.05 119.714 179.05 119.714L185.54 118.957L186.742 110.319Z" fill="#FFBF9D"/>
<path d="M169.789 106.393C170.957 106.285 172.13 106.245 173.304 106.273C174.478 106.235 175.654 106.263 176.824 106.359C175.654 106.467 174.479 106.507 173.304 106.479C172.131 106.521 170.957 106.492 169.789 106.393Z" fill="#FF9A6C"/>
<path d="M169.12 93.4565L145.809 93.29L144.755 94.9316L167.85 94.8914L172.251 106.267L173.72 106.181L169.12 93.4565Z" fill="white"/>
<path d="M173.49 65.9512C173.545 65.9799 173.019 66.8982 172.25 68.425C170.304 72.4035 169.029 76.6351 168.469 80.9719C168.252 82.6364 168.19 83.6753 168.128 83.6695C168.084 83.4288 168.072 83.1841 168.091 82.9406C168.091 82.4642 168.122 81.7927 168.196 80.9432C168.391 78.7541 168.806 76.5866 169.436 74.4688C170.075 72.3499 170.923 70.2902 171.971 68.3159C172.38 67.564 172.733 66.9614 173 66.5596C173.133 66.3376 173.298 66.133 173.49 65.9512Z" fill="#263238"/>
<path d="M192.357 95.9758C192.14 95.9291 191.932 95.8537 191.738 95.752C191.485 95.6554 191.241 95.5423 191.006 95.4133C190.69 95.2555 190.384 95.0811 190.089 94.891C189.308 94.3889 188.587 93.8117 187.938 93.1691C187.149 92.3895 186.458 91.5287 185.88 90.6035C185.318 89.6695 184.871 88.6799 184.548 87.6533C184.291 86.8124 184.133 85.9484 184.077 85.0762C184.055 84.7436 184.055 84.4101 184.077 84.0775C184.075 83.8238 184.095 83.5704 184.138 83.3198C184.149 83.1052 184.191 82.8928 184.262 82.6885C184.343 82.6885 184.213 83.6068 184.368 85.059C184.463 85.905 184.643 86.7409 184.907 87.5557C185.557 89.5605 186.689 91.4031 188.217 92.9453C188.837 93.5789 189.522 94.1555 190.262 94.6672C191.496 95.5454 192.407 95.907 192.357 95.9758Z" fill="#263238"/>
<path d="M214.28 43.314L203.421 41.1616C203.421 50.3795 200.749 57.6057 198.853 62.4615C196.956 67.3172 195.338 72.7929 196.702 77.861C197.198 79.6977 198.227 81.5401 199.844 82.0682C200.419 82.2137 201.022 82.2345 201.607 82.129C202.192 82.0234 202.743 81.7944 203.216 81.4598C205.528 80.0535 207.016 77.3502 208.02 74.5722C209.024 71.7942 209.656 68.8727 210.828 66.2037C211.826 63.9366 213.208 61.8875 213.927 59.4998C214.646 57.1121 215.706 46.2699 214.28 43.314Z" fill="#263238"/>
<path d="M144.521 148.253C144.521 148.253 138.459 149.47 133.048 148.718C127.971 148.012 116.616 148.718 116.616 154.934C116.616 161.822 131.771 160.134 137.69 159.038C143.61 157.942 149.467 156.954 149.467 156.954L144.521 148.253Z" fill="#455A64"/>
<path d="M130.916 157.103C130.584 156.327 130.339 155.521 130.185 154.698C129.938 153.895 129.788 153.069 129.738 152.236C130.07 153.012 130.316 153.818 130.47 154.641C130.713 155.444 130.863 156.27 130.916 157.103Z" fill="#263238"/>
<path d="M132.986 157.196C132.72 156.392 132.548 155.565 132.471 154.728C132.3 153.905 132.225 153.068 132.248 152.231C132.515 153.032 132.688 153.858 132.763 154.693C132.931 155.518 133.006 156.357 132.986 157.196Z" fill="#263238"/>
<path d="M134.994 156.472C134.612 155.052 134.423 153.595 134.43 152.132C134.661 152.832 134.803 153.554 134.851 154.285C134.997 155.005 135.045 155.74 134.994 156.472Z" fill="#263238"/>
<path d="M138.093 155.749C137.701 155.188 137.435 154.559 137.312 153.901C137.096 153.263 137.02 152.592 137.089 151.926C137.305 152.551 137.473 153.19 137.591 153.838C137.804 154.464 137.971 155.102 138.093 155.749Z" fill="#263238"/>
<path d="M138.788 153.223C139.048 153.169 139.315 153.152 139.581 153.171C140.308 153.195 141.026 153.327 141.707 153.562C141.944 153.636 142.166 153.747 142.364 153.889C142.483 153.967 142.581 154.069 142.652 154.187C142.723 154.306 142.764 154.437 142.773 154.572C142.76 154.72 142.712 154.864 142.633 154.993C142.554 155.123 142.446 155.236 142.316 155.323C142.186 155.411 142.038 155.472 141.88 155.501C141.723 155.531 141.56 155.529 141.403 155.496C140.759 155.329 140.198 154.96 139.817 154.451C139.388 153.944 139.083 153.357 138.924 152.729C138.752 152.124 138.723 151.491 138.839 150.874C138.954 150.257 139.212 149.67 139.594 149.153C139.706 149.024 139.864 148.935 140.04 148.901C140.131 148.889 140.224 148.897 140.312 148.922C140.4 148.948 140.481 148.992 140.548 149.05C140.763 149.254 140.896 149.519 140.926 149.802C141.005 150.374 140.947 150.954 140.757 151.503C140.566 152.051 140.247 152.554 139.823 152.976C139.686 153.108 139.539 153.231 139.383 153.343C139.329 153.384 139.268 153.417 139.203 153.441C139.203 153.441 139.414 153.263 139.736 152.907C140.183 152.409 140.496 151.818 140.647 151.185C140.747 150.749 140.76 150.3 140.684 149.859C140.659 149.63 140.55 149.415 140.375 149.251C140.332 149.216 140.282 149.19 140.227 149.176C140.173 149.161 140.115 149.158 140.059 149.167C140.003 149.176 139.95 149.196 139.904 149.227C139.858 149.257 139.819 149.297 139.792 149.343C139.449 149.832 139.22 150.383 139.119 150.959C139.019 151.535 139.05 152.124 139.209 152.689C139.355 153.283 139.641 153.84 140.046 154.319C140.38 154.779 140.874 155.117 141.447 155.278C141.566 155.306 141.691 155.311 141.812 155.292C141.934 155.273 142.049 155.23 142.152 155.167C142.254 155.104 142.341 155.021 142.406 154.924C142.472 154.828 142.515 154.719 142.532 154.606C142.526 154.501 142.495 154.399 142.442 154.307C142.388 154.215 142.313 154.134 142.222 154.072C142.033 153.942 141.824 153.837 141.602 153.762C140.943 153.52 140.25 153.368 139.544 153.309C139.073 153.234 138.788 153.246 138.788 153.223Z" fill="#263238"/>
<path d="M148.879 156.036C148.83 156.059 148.778 156.075 148.724 156.082L148.271 156.191L146.511 156.558C144.986 156.868 142.792 157.304 140.009 157.798C137.226 158.292 133.966 158.848 130.271 159.313C128.34 159.605 126.38 159.696 124.426 159.583C123.384 159.521 122.353 159.34 121.358 159.043C120.849 158.884 120.357 158.68 119.889 158.435C119.398 158.191 118.961 157.864 118.6 157.471C118.397 157.303 118.219 157.11 118.073 156.897C117.791 156.444 117.617 155.939 117.564 155.418C117.51 154.898 117.578 154.372 117.763 153.878C118.132 152.925 118.812 152.102 119.709 151.524C120.552 150.969 121.486 150.54 122.474 150.256C122.957 150.13 123.428 149.975 123.906 149.877C124.383 149.78 124.854 149.671 125.331 149.607C129.131 149.033 132.583 149.332 135.453 149.338C136.897 149.338 138.193 149.338 139.333 149.257C140.307 149.199 141.276 149.086 142.234 148.919L143.282 148.718L144.038 148.517L144.503 148.396C144.555 148.38 144.609 148.371 144.664 148.368L144.509 148.425L144.05 148.569L143.306 148.792L142.259 149.022C141.297 149.204 140.324 149.334 139.346 149.412C138.205 149.487 136.897 149.539 135.453 149.527C132.577 149.527 129.125 149.292 125.375 149.854C124.904 149.912 124.445 150.032 123.968 150.124C123.49 150.216 123.038 150.377 122.561 150.503C121.601 150.78 120.696 151.197 119.877 151.737C119.019 152.276 118.367 153.054 118.017 153.958C117.845 154.415 117.781 154.902 117.829 155.384C117.877 155.866 118.036 156.333 118.296 156.753C118.428 156.949 118.586 157.129 118.767 157.287C119.109 157.642 119.514 157.941 119.964 158.171C120.418 158.401 120.893 158.593 121.383 158.745C122.354 159.035 123.359 159.214 124.377 159.279C126.313 159.39 128.256 159.306 130.172 159.026C133.854 158.573 137.145 158.033 139.904 157.568C142.662 157.103 144.862 156.69 146.424 156.42L148.191 156.099L148.649 156.024L148.879 156.036Z" fill="#263238"/>
<path d="M126.714 159.364C126.622 158.891 126.572 158.411 126.565 157.929C126.497 157.046 126.385 155.823 126.193 154.486C126.001 153.148 125.759 151.943 125.573 151.071C125.447 150.605 125.358 150.131 125.307 149.653C125.518 150.094 125.674 150.556 125.772 151.03C126.38 153.285 126.714 155.595 126.769 157.918C126.808 158.401 126.79 158.886 126.714 159.364Z" fill="#263238"/>
<path opacity="0.4" d="M138.656 148.557L142.499 157.465L145.481 156.954L139.772 148.253L138.656 148.557Z" fill="black"/>
<path d="M225.059 120.994C225.196 122.401 218.062 127.038 213.717 124.88C212.904 120.76 210.457 117.07 206.855 114.535C203.254 112.001 198.759 110.806 194.254 111.185C190.643 111.491 187.215 112.793 184.411 114.922L176.595 120.943L153.079 119.743L149.979 112.683C145.641 111.18 141.568 109.814 137.992 108.895C135.912 108.352 133.731 108.225 131.594 108.521C129.456 108.818 127.412 109.533 125.595 110.617L125.397 110.738C122.763 112.317 120.719 114.61 119.544 117.304C118.37 119.998 118.121 122.963 118.833 125.793C119.757 129.472 122.713 132.066 125.719 134.632C130.994 139.143 140.291 146.949 140.291 146.949L139.374 147.615L145.504 156.953L158.118 153.349C166.653 152.201 184.659 150.054 184.659 150.054L179.508 147.242L180.686 146.903C190.492 154.64 202.485 158.205 217.336 152.201C224.638 149.021 234.431 140.882 225.059 120.994Z" fill="#263238"/>
<path d="M203.267 134.788L203.149 134.891C203.05 134.96 202.932 135.052 202.777 135.172L201.345 136.228L200.304 137.015C199.92 137.296 199.473 137.554 199.009 137.858L197.515 138.805C197.248 138.972 196.982 139.15 196.697 139.322L195.798 139.821C194.558 140.499 193.25 141.273 191.757 141.974C191.013 142.335 190.257 142.726 189.451 143.093L186.972 144.183C183.538 145.636 179.695 147.088 175.579 148.385C167.348 151.014 159.736 152.902 154.288 154.434C152.918 154.807 151.685 155.158 150.606 155.473C149.528 155.789 148.598 156.047 147.842 156.283L146.1 156.811L145.641 156.937L145.486 156.977C145.486 156.977 145.53 156.948 145.635 156.914L146.081 156.759L147.804 156.185C148.554 155.932 149.484 155.651 150.563 155.33C151.641 155.008 152.862 154.635 154.226 154.251C159.662 152.672 167.242 150.755 175.48 148.132C179.596 146.835 183.432 145.394 186.86 143.96L189.339 142.88C190.139 142.519 190.901 142.129 191.645 141.778C193.139 141.084 194.465 140.321 195.693 139.661L196.591 139.167C196.876 139 197.149 138.828 197.416 138.662L198.922 137.732C199.387 137.439 199.839 137.187 200.223 136.911L201.277 136.171L202.74 135.149L203.131 134.891C203.17 134.851 203.216 134.816 203.267 134.788Z" fill="#455A64"/>
<path d="M204.357 139.15C204.357 139.15 204.209 139.248 203.905 139.374C203.601 139.5 203.167 139.667 202.616 139.856C199.728 140.835 196.707 141.436 193.641 141.641C193.021 141.675 192.574 141.693 192.246 141.693C192.075 141.716 191.902 141.716 191.731 141.693C192.347 141.591 192.967 141.521 193.591 141.48C194.75 141.36 196.355 141.153 198.103 140.803C199.851 140.453 201.401 140.04 202.517 139.707C203.632 139.374 204.345 139.116 204.357 139.15Z" fill="#455A64"/>
<path d="M182.608 116.477C182.658 116.541 173.013 123.554 161.069 132.152C149.125 140.75 139.375 147.649 139.375 147.615C139.375 147.581 148.97 140.538 160.914 131.94C172.858 123.342 182.559 116.42 182.608 116.477Z" fill="#455A64"/>
<path d="M180.097 146.457C180.097 146.457 180.141 146.457 180.221 146.543L180.568 146.812C180.872 147.053 181.294 147.427 181.882 147.868C185.991 150.981 190.828 153.16 196.008 154.234C196.442 154.337 196.882 154.412 197.335 154.481C197.787 154.549 198.234 154.636 198.698 154.704C199.622 154.79 200.558 154.94 201.531 154.963C203.528 155.081 205.533 155.025 207.519 154.796L209.037 154.601L210.519 154.32C211.482 154.131 212.434 153.896 213.37 153.614C215.14 153.081 216.847 152.383 218.465 151.53C221.227 150.104 223.595 148.104 225.382 145.687C226.578 144.056 227.442 142.235 227.93 140.315C228.097 139.632 228.184 139.093 228.233 138.731C228.233 138.559 228.271 138.421 228.283 138.312C228.278 138.264 228.278 138.216 228.283 138.168C228.289 138.216 228.289 138.264 228.283 138.312C228.283 138.427 228.283 138.564 228.283 138.737C228.24 139.275 228.16 139.81 228.041 140.338C227.597 142.289 226.756 144.143 225.562 145.802C223.781 148.269 221.398 150.314 218.607 151.771C216.974 152.64 215.248 153.35 213.457 153.889C212.512 154.178 211.552 154.419 210.581 154.613L209.081 154.894L207.55 155.095C205.545 155.325 203.522 155.378 201.506 155.255C200.527 155.227 199.579 155.077 198.643 154.986C198.178 154.917 197.725 154.831 197.273 154.762C196.82 154.693 196.368 154.613 195.934 154.503C192.835 153.84 189.85 152.784 187.064 151.364C185.194 150.396 183.431 149.26 181.802 147.972C181.225 147.513 180.81 147.122 180.519 146.87L180.197 146.577C180.128 146.497 180.091 146.462 180.097 146.457Z" fill="#455A64"/>
<path d="M139.857 115.261C140.155 115.459 140.47 115.633 140.8 115.783C141.419 116.093 142.287 116.587 143.335 117.218C144.382 117.849 145.603 118.664 146.899 119.623C148.194 120.581 149.57 121.701 150.965 122.917C153.742 125.368 156.14 127.704 157.925 129.346C158.818 130.167 159.549 130.827 160.07 131.274C160.325 131.515 160.598 131.737 160.888 131.94C160.665 131.673 160.42 131.422 160.157 131.188L158.087 129.202C156.339 127.521 153.971 125.185 151.182 122.705C149.781 121.483 148.392 120.369 147.085 119.411C145.923 118.562 144.713 117.773 143.459 117.046C142.616 116.552 141.748 116.098 140.855 115.685C140.534 115.522 140.2 115.381 139.857 115.261Z" fill="#455A64"/>
<path d="M187.02 149.217C184.479 147.966 181.622 148.706 179.192 149.464C177.574 149.969 175.888 150.773 174.233 150.342C173.043 150.032 172.163 149.137 171.252 148.362C169.411 146.797 167.251 145.589 164.899 144.809C162.546 144.03 160.049 143.694 157.554 143.822C156.128 143.881 154.782 144.444 153.791 145.395C151.312 147.897 153.171 151.134 155.409 153.264C159.394 157 164.648 159.349 170.285 159.916C174.94 160.369 181.33 159.773 186.047 157.901C188.954 156.753 190.442 153.574 188.917 151.014C188.487 150.257 187.828 149.633 187.02 149.217Z" fill="#455A64"/>
<path opacity="0.4" d="M187.015 151.225C184.474 149.968 181.616 150.708 179.186 151.466C177.569 151.971 175.883 152.775 174.228 152.344C173.038 152.034 172.158 151.145 171.246 150.37C169.406 148.804 167.246 147.595 164.894 146.814C162.541 146.034 160.044 145.697 157.548 145.824C156.123 145.883 154.777 146.446 153.786 147.397C153.282 147.891 152.921 148.495 152.738 149.153C153.218 150.717 154.138 152.135 155.404 153.263C159.388 156.999 164.642 159.348 170.28 159.915C174.934 160.368 181.325 159.771 186.042 157.9C186.877 157.572 187.616 157.065 188.198 156.422C188.781 155.779 189.191 155.016 189.395 154.198C189.295 153.783 189.132 153.383 188.912 153.01C188.482 152.256 187.822 151.635 187.015 151.225Z" fill="black"/>
<path d="M189.426 154.199C189.311 153.704 189.101 153.231 188.806 152.804C188.445 152.316 187.984 151.899 187.448 151.576C186.749 151.136 185.949 150.852 185.112 150.744C183.221 150.543 181.039 151.278 178.61 151.892C177.407 152.184 176.093 152.638 174.661 152.466C173.942 152.379 173.25 152.157 172.628 151.811C172.009 151.453 171.424 151.046 170.88 150.595C168.007 148.105 164.371 146.501 160.473 146.003C159.445 145.869 158.402 145.869 157.374 146.003C156.536 146.121 155.729 146.382 154.994 146.772C154.447 147.082 153.955 147.469 153.538 147.92C153.2 148.32 152.887 148.738 152.602 149.171C152.803 148.689 153.085 148.24 153.438 147.84C153.847 147.362 154.34 146.951 154.895 146.623C155.643 146.2 156.472 145.915 157.337 145.785C158.381 145.643 159.442 145.643 160.486 145.785C161.685 145.916 162.866 146.158 164.013 146.508C165.276 146.896 166.497 147.396 167.657 148C168.272 148.317 168.863 148.674 169.424 149.068C169.988 149.475 170.527 149.929 171.073 150.365C171.601 150.805 172.17 151.202 172.771 151.553C173.35 151.878 173.996 152.087 174.668 152.167C176 152.328 177.277 151.909 178.492 151.593C180.909 151.019 183.134 150.273 185.112 150.514C185.874 150.615 186.605 150.865 187.256 151.247C187.906 151.629 188.462 152.134 188.886 152.73C189.113 153.054 189.273 153.414 189.357 153.792C189.399 153.924 189.422 154.061 189.426 154.199Z" fill="#263238"/>
<path d="M189.426 154.199C189.311 153.704 189.101 153.231 188.806 152.804C188.445 152.316 187.984 151.899 187.448 151.576C186.749 151.136 185.949 150.852 185.112 150.744C183.221 150.543 181.039 151.278 178.61 151.892C177.407 152.184 176.093 152.638 174.661 152.466C173.942 152.379 173.25 152.157 172.628 151.811C172.009 151.453 171.424 151.046 170.88 150.595C168.007 148.105 164.371 146.501 160.473 146.003C159.445 145.869 158.402 145.869 157.374 146.003C156.536 146.121 155.729 146.382 154.994 146.772C154.447 147.082 153.955 147.469 153.538 147.92C153.2 148.32 152.887 148.738 152.602 149.171C152.803 148.689 153.085 148.24 153.438 147.84C153.847 147.362 154.34 146.951 154.895 146.623C155.643 146.2 156.472 145.915 157.337 145.785C158.381 145.643 159.442 145.643 160.486 145.785C161.685 145.916 162.866 146.158 164.013 146.508C165.276 146.896 166.497 147.396 167.657 148C168.272 148.317 168.863 148.674 169.424 149.068C169.988 149.475 170.527 149.929 171.073 150.365C171.601 150.805 172.17 151.202 172.771 151.553C173.35 151.878 173.996 152.087 174.668 152.167C176 152.328 177.277 151.909 178.492 151.593C180.909 151.019 183.134 150.273 185.112 150.514C185.874 150.615 186.605 150.865 187.256 151.247C187.906 151.629 188.462 152.134 188.886 152.73C189.113 153.054 189.273 153.414 189.357 153.792C189.399 153.924 189.422 154.061 189.426 154.199Z" fill="#263238"/>
<path d="M157.9 153.66C158.293 153.329 158.73 153.047 159.202 152.822C161.385 151.605 163.696 150.599 166.101 149.82C166.589 149.628 167.101 149.495 167.626 149.424C167.168 149.667 166.687 149.868 166.188 150.026C165.289 150.371 164.055 150.859 162.71 151.444C161.365 152.03 160.181 152.592 159.32 153.017C158.868 153.269 158.393 153.484 157.9 153.66Z" fill="#263238"/>
<path d="M158.77 155.99C162.026 154.296 165.392 152.79 168.848 151.479C167.247 152.367 165.591 153.168 163.889 153.878C162.231 154.679 160.522 155.384 158.77 155.99Z" fill="#263238"/>
<path d="M169.301 157.011C169.251 157.085 166.542 155.587 163.251 153.665C159.96 151.742 157.338 150.129 157.387 150.054C157.437 149.98 160.146 151.478 163.437 153.401C165.456 154.512 167.413 155.717 169.301 157.011Z" fill="#263238"/>
<path d="M170.824 154.567C170.354 154.335 169.91 154.06 169.498 153.746C168.704 153.212 167.601 152.478 166.399 151.691C165.196 150.905 164.012 150.216 163.225 149.7C162.763 149.453 162.33 149.165 161.93 148.839C162.432 149.01 162.91 149.236 163.355 149.51C164.204 149.97 165.364 150.658 166.597 151.427C167.83 152.197 168.915 152.989 169.696 153.568C170.113 153.859 170.492 154.194 170.824 154.567Z" fill="#263238"/>
<path d="M216.828 136.785C216.721 136.547 216.644 136.299 216.599 136.044C216.463 135.505 216.283 134.822 216.072 134.007C215.62 132.285 214.944 129.932 214.052 127.36C213.159 124.789 212.192 122.51 211.51 120.869L210.661 118.929C210.541 118.697 210.445 118.455 210.376 118.206C210.534 118.417 210.667 118.645 210.773 118.883C211.014 119.325 211.337 119.973 211.721 120.788C212.49 122.413 213.463 124.691 214.361 127.268C215.26 129.846 215.899 132.228 216.295 133.961C216.494 134.828 216.642 135.534 216.723 136.021C216.782 136.272 216.818 136.528 216.828 136.785Z" fill="#455A64"/>
<path d="M154.151 57.0144C154.217 56.2932 154.508 55.6052 154.988 55.0342C155.169 54.7424 155.421 54.4945 155.726 54.311C155.88 54.2219 156.061 54.179 156.243 54.1882C156.425 54.1975 156.599 54.2584 156.742 54.3627C156.879 54.5052 156.974 54.6768 157.021 54.862C157.263 55.5522 157.437 56.261 157.542 56.98" fill="#FFBF9D"/>
<path d="M164.069 57.1646H119.236V104.333H164.069V57.1646Z" fill="white"/>
<path d="M164.069 104.333C164.069 104.333 164.069 104.252 164.069 104.103C164.069 103.954 164.069 103.73 164.069 103.443C164.069 102.869 164.069 102.002 164.069 100.895C164.069 98.6561 164.069 95.4017 164.025 91.2634C164.025 82.9926 163.988 71.2206 163.957 57.1642L164.1 57.2962H119.274L119.435 57.1469C119.435 74.5324 119.435 90.7469 119.435 104.315L119.298 104.189L151.796 104.252L160.895 104.287H163.294H164.131H163.325H160.951H151.877L119.298 104.356H119.162V104.229C119.162 90.6608 119.162 74.4463 119.162 57.0608V56.9116H119.218H164.044H164.187V57.0436C164.187 71.1345 164.131 82.9352 164.112 91.229C164.112 95.3501 164.112 98.5987 164.075 100.826C164.075 101.928 164.075 102.771 164.075 103.351C164.075 103.632 164.075 103.845 164.075 103.994C164.075 104.143 164.069 104.333 164.069 104.333Z" fill="#263238"/>
<path d="M150.29 54.3627C149.441 53.9782 148.505 54.6842 148.505 54.6842C148.453 54.3411 148.281 54.0235 148.014 53.7806C147.747 53.5378 147.401 53.3833 147.03 53.3411C145.61 53.0484 144.823 54.3685 144.823 54.3685C144.689 53.9857 144.425 53.6529 144.072 53.4185C143.718 53.1841 143.293 53.0604 142.858 53.0656C141.352 53.123 141.197 54.6612 141.197 54.6612C140.972 54.3533 140.671 54.0986 140.321 53.9172C139.97 53.7358 139.578 53.6329 139.177 53.6166C138.936 53.6175 138.701 53.6782 138.495 53.7923C138.289 53.9064 138.12 54.0697 138.005 54.2652C137.851 54.5154 137.794 54.8072 137.844 55.0917C138.024 56.0559 138.464 58.3403 138.953 58.9372C139.604 59.7523 141.346 59.5456 141.346 59.5456C141.842 62.2892 144.185 61.0035 144.185 61.0035C144.185 61.0035 144.141 61.2675 145.555 61.2101C146.968 61.1527 147.272 58.4034 147.272 58.4034C147.624 58.6117 148.031 58.7286 148.449 58.7421C149.398 58.8626 150.557 56.9398 150.557 56.9398H152.937C152.937 56.9398 151.146 54.7243 150.29 54.3627Z" fill="#FFBF9D"/>
<path d="M148.634 54.6338C148.634 54.5994 148.368 54.7027 148.058 54.9725C147.663 55.3372 147.368 55.7838 147.196 56.2754C147.022 56.7654 146.977 57.2871 147.066 57.7964C147.141 58.181 147.271 58.3704 147.32 58.3704C147.37 58.3704 147.178 57.4291 147.562 56.373C147.946 55.3169 148.709 54.7142 148.634 54.6338Z" fill="#FF9A6C"/>
<path d="M145.021 54.2827C144.038 56.4009 143.793 58.7506 144.321 61.0039C144.439 61.0039 144.284 59.4771 144.488 57.629C144.693 55.7808 145.133 54.3114 145.021 54.2827Z" fill="#FF9A6C"/>
<path d="M141.197 54.4666C141.091 54.4321 140.701 55.6145 140.843 57.1298C140.864 58.0331 141.075 58.9239 141.463 59.7528C141.575 59.7528 141.358 58.5532 141.228 57.1068C141.098 55.6604 141.296 54.4895 141.197 54.4666Z" fill="#FF9A6C"/>
<path d="M140.938 84.3879L140.832 84.3418L140.938 84.3879Z" fill="#4DC26B"/>
<path d="M141.068 84.4333L140.938 84.3872L141.068 84.4333Z" fill="#4DC26B"/>
<path d="M140.816 84.3362L140.697 84.29L140.816 84.3362Z" fill="#4DC26B"/>
<path d="M160.51 76.0594L147.896 75.8586L141.493 66.2676L138.326 77.4083L124.665 79.5721L137.068 84.4336L135.562 95.3906L143.266 89.054L155.805 95.3906L150.76 82.6027L160.51 76.0594Z" fill="#4DC26B"/>
<path d="M139.042 65.9579L135.534 65.9005L133.755 63.2373L132.874 66.331L129.081 66.9336L132.527 68.2824L132.837 68.403L132.106 71.3302L134.25 69.5681L137.734 71.3302L136.327 67.7774L139.042 65.9579Z" fill="#4DC26B"/>
<path d="M129.558 86.7176L129.918 87.8655L129.081 88.7494L130.376 88.7035L130.996 89.8973L131.145 88.6059V88.4911L132.354 88.4108L131.436 87.8942L131.74 86.5454L130.5 87.4006L129.558 86.7176Z" fill="#4DC26B"/>
<path d="M144.383 96.7795L144.742 97.9274L143.905 98.8056L145.201 98.7597L145.821 99.9535L145.969 98.6621V98.5473L147.178 98.4669L146.267 97.9504L146.564 96.6016L145.325 97.4568L144.383 96.7795Z" fill="#4DC26B"/>
<path d="M155.384 84.02L155.744 85.1679L154.907 86.046L156.203 86.0001L156.822 87.194L157.027 85.9313V85.8165L158.236 85.7418L157.325 85.2195L157.622 83.8765L156.382 84.7259L155.384 84.02Z" fill="#4DC26B"/>
<path d="M147.904 66.2728L148.264 67.4207L147.427 68.3046L148.722 68.2587L149.342 69.4468L149.491 68.1611V68.0463L150.73 67.966L149.813 67.4494L150.117 66.1006L148.877 66.9558L147.904 66.2728Z" fill="#4DC26B"/>
<path d="M157.908 72.1559L156.588 70.0954L157.716 68.0291L155.267 68.7121L153.408 66.7319L153.823 69.2631L153.86 69.487L151.592 70.1987L153.612 70.7727L153.767 73.4818L155.627 71.295L157.908 72.1559Z" fill="#4DC26B"/>
<path d="M133.885 91.3496L132.707 93.0313H130.618L132.075 94.472L131.176 96.5095L133.066 95.2812L133.234 95.1722L134.653 96.4808L134.356 94.868L136.494 93.7545L134.015 93.2724L133.885 91.3496Z" fill="#4DC26B"/>
<path d="M143.752 81.2937C144.118 81.2937 144.415 81.0187 144.415 80.6796C144.415 80.3404 144.118 80.0654 143.752 80.0654C143.386 80.0654 143.089 80.3404 143.089 80.6796C143.089 81.0187 143.386 81.2937 143.752 81.2937Z" fill="#263238"/>
<path d="M148.028 80.6796C148.028 80.801 147.989 80.9198 147.916 81.0208C147.843 81.1218 147.739 81.2005 147.618 81.2469C147.497 81.2934 147.364 81.3056 147.235 81.2819C147.106 81.2582 146.988 81.1997 146.895 81.1138C146.803 81.0279 146.74 80.9185 146.714 80.7994C146.688 80.6802 146.701 80.5568 146.752 80.4445C146.802 80.3323 146.887 80.2364 146.996 80.1689C147.105 80.1014 147.233 80.0654 147.364 80.0654C147.54 80.0654 147.709 80.1301 147.833 80.2453C147.958 80.3605 148.028 80.5167 148.028 80.6796Z" fill="#263238"/>
<path d="M146.075 81.5518C146.372 81.7756 146.434 82.2635 146.031 82.8145C145.752 83.1612 145.388 83.4415 144.969 83.6321C144.549 83.8227 144.087 83.9182 143.62 83.9108C143.153 83.9236 142.688 83.8341 142.265 83.6496C141.842 83.4651 141.472 83.1908 141.184 82.849C140.775 82.3037 140.831 81.8101 141.122 81.5805C141.473 81.3752 141.886 81.2805 142.3 81.3107H143.595H144.897C145.308 81.2677 145.722 81.3525 146.075 81.5518Z" fill="white"/>
<path d="M48.9268 126.396C48.8037 126.373 48.6764 126.377 48.5556 126.409C48.4349 126.441 48.3241 126.5 48.2326 126.579C47.4833 127.078 46.799 127.656 46.1934 128.301L46.5653 134.615C46.5803 134.825 46.6415 135.03 46.745 135.217C46.7976 135.312 46.8793 135.39 46.9798 135.441C47.0802 135.492 47.1949 135.514 47.3091 135.504C47.6438 135.453 47.7801 135.085 47.8545 134.776C48.433 132.296 48.8876 129.795 49.2182 127.274C49.2615 126.918 49.2491 126.539 48.9268 126.396Z" fill="#FFBF9D"/>
<path d="M51.4892 122.188L29.2683 131.848L26.5658 144.843C26.1319 144.235 43.0967 147.839 43.0967 147.839C43.4686 146.691 44.5533 142.57 44.9252 141.434C45.5414 141.44 46.1513 141.319 46.7102 141.079C47.269 140.838 47.7626 140.485 48.1545 140.045C49.0076 139.208 49.6176 138.185 49.9272 137.071C51.3033 131.343 51.4334 127.044 51.4892 122.188Z" fill="#FFBF9D"/>
<path d="M53.5408 118.119C54.1273 117.651 54.5591 117.039 54.7866 116.354C55.014 115.669 55.0278 114.938 54.8263 114.246C54.6249 113.554 54.2164 112.928 53.6479 112.442C53.0795 111.955 52.3741 111.627 51.6132 111.496C51.4409 110.98 51.1581 110.501 50.7816 110.088C50.4051 109.676 49.9427 109.338 49.422 109.095C48.9012 108.852 48.3329 108.708 47.7509 108.673C47.1689 108.638 46.5852 108.711 46.0347 108.89C44.3867 107.692 42.3931 106.971 40.3045 106.819C38.2158 106.667 36.1251 107.09 34.2951 108.035C34.5368 107.415 34.7786 106.8 35.0265 106.181C33.7985 106.579 32.6491 107.161 31.6236 107.903C31.6732 107.179 31.729 106.456 31.7786 105.733C31.2275 106.036 30.7523 106.443 30.3846 106.929C30.017 107.415 29.7653 107.968 29.6464 108.551C28.2374 107.794 26.5944 107.497 24.9813 107.708C23.3681 107.919 21.8785 108.627 20.7518 109.716C20.1372 110.303 19.727 111.047 19.5741 111.851C19.505 112.253 19.5491 112.664 19.7022 113.045C19.8553 113.427 20.1123 113.765 20.4481 114.027C19.562 114.548 18.9259 115.365 18.671 116.308C18.4161 117.251 18.5619 118.248 19.0782 119.095C18.2232 119.709 17.5283 120.494 17.0452 121.391C16.8079 121.842 16.6846 122.338 16.6846 122.84C16.6846 123.342 16.8079 123.838 17.0452 124.289C17.2996 124.734 17.7083 125.086 18.2054 125.289C18.7024 125.492 19.2588 125.534 19.7849 125.408C19.6924 125.872 19.7095 126.348 19.8351 126.805C19.9607 127.262 20.1916 127.688 20.5121 128.054C20.8326 128.42 21.235 128.717 21.6916 128.925C22.1481 129.134 22.648 129.248 23.1567 129.26C22.9708 132.6 25.7414 134.535 28.0286 137.668C28.2145 137.921 34.7847 146.111 43.1339 139.545C44.138 138.759 49.2888 134.575 50.1937 132.153C50.5594 131.177 51.3156 127.687 51.4892 127.096C52.9768 126.304 52.8776 124.714 52.8528 123.107C53.3744 122.92 53.8318 122.607 54.1766 122.199C54.5213 121.792 54.7406 121.305 54.8111 120.792C54.8817 120.278 54.8008 119.756 54.5772 119.282C54.3535 118.807 53.9954 118.398 53.5408 118.096V118.119Z" fill="#263238"/>
<path d="M50.5525 121.529C50.627 121.637 50.6834 121.755 50.7198 121.879C50.8298 122.239 50.8298 122.621 50.7198 122.981C50.6463 123.273 50.5029 123.545 50.3001 123.779C50.0973 124.012 49.8404 124.201 49.5484 124.33C49.154 124.499 48.7169 124.564 48.285 124.519C47.8532 124.473 47.4432 124.318 47.1 124.071L47.2798 123.991C47.2849 124.623 47.0598 125.237 46.6411 125.736C46.2223 126.234 45.6343 126.587 44.972 126.738C44.3098 126.888 43.612 126.828 42.9915 126.566C42.371 126.304 41.864 125.856 41.5525 125.294L41.8191 125.168C42.1264 125.783 42.1588 126.486 41.9093 127.124C41.6597 127.761 41.1483 128.281 40.4864 128.571C39.7721 128.844 38.9824 128.899 38.2323 128.727C37.4821 128.556 36.8104 128.168 36.315 127.619C35.6097 126.831 35.1948 125.856 35.1311 124.835H35.4472C35.4022 125.492 35.095 126.11 34.5852 126.569C34.0754 127.027 33.3995 127.294 32.689 127.317C31.9785 127.34 31.2842 127.117 30.7412 126.693C30.1981 126.268 29.8452 125.671 29.751 125.019H30.0299C29.9829 125.407 29.8256 125.776 29.5741 126.09C29.3226 126.403 28.9858 126.65 28.5981 126.804C27.9208 127.065 27.1933 127.195 26.4597 127.188C25.8271 127.214 25.1933 127.199 24.563 127.142C24.0166 127.092 23.4903 126.925 23.0258 126.654C22.7003 126.458 22.4402 126.182 22.2748 125.856C22.1095 125.531 22.0455 125.169 22.0899 124.812C22.1223 124.627 22.1984 124.45 22.313 124.295C22.3998 124.203 22.4494 124.158 22.4556 124.163C22.3067 124.359 22.211 124.586 22.1766 124.823C22.1499 125.162 22.2228 125.501 22.3876 125.804C22.5525 126.107 22.803 126.363 23.1126 126.545C23.9122 127.033 25.1208 127.05 26.4473 126.993C27.1481 126.993 27.8418 126.863 28.4865 126.608C28.8243 126.467 29.1164 126.247 29.3339 125.969C29.5513 125.691 29.6866 125.365 29.7262 125.024H29.9989C30.1032 125.575 30.4042 126.078 30.8538 126.451C31.3034 126.825 31.8754 127.048 32.4782 127.085C33.1384 127.083 33.7743 126.854 34.2623 126.443C34.7504 126.031 35.0556 125.466 35.1187 124.858H35.4348C35.4954 125.814 35.8842 126.727 36.5443 127.464C36.993 127.965 37.6023 128.322 38.2842 128.482C38.9661 128.642 39.6852 128.597 40.3377 128.353C40.9223 128.096 41.3753 127.638 41.6 127.076C41.8247 126.514 41.8032 125.893 41.5402 125.346L41.8067 125.219C42.1217 125.763 42.6337 126.187 43.2527 126.416C43.8717 126.645 44.558 126.664 45.1909 126.471C45.7281 126.284 46.1924 125.952 46.5239 125.518C46.8554 125.084 47.0388 124.568 47.0504 124.037V123.819L47.2302 123.962C47.5425 124.192 47.9163 124.338 48.3116 124.386C48.707 124.433 49.1088 124.38 49.474 124.232C49.7478 124.116 49.9904 123.945 50.1844 123.732C50.3784 123.518 50.5189 123.268 50.5959 122.998C50.707 122.655 50.722 122.292 50.6393 121.942C50.6021 121.655 50.5339 121.54 50.5525 121.529Z" fill="#455A64"/>
<path d="M44.6283 117.062C44.6137 116.861 44.6137 116.66 44.6283 116.459C44.613 115.919 44.4846 115.387 44.2502 114.893C43.9131 114.16 43.3393 113.543 42.6076 113.125C41.7064 112.626 40.6392 112.451 39.6077 112.631C39.2917 112.688 38.9838 112.779 38.6903 112.901L38.3432 113.044L38.4733 112.717C38.5335 112.519 38.5389 112.31 38.4891 112.11C38.4393 111.909 38.3358 111.723 38.1882 111.569C38.0523 111.419 37.8852 111.295 37.6967 111.205C37.5083 111.116 37.3024 111.062 37.0911 111.047C36.3443 111.014 35.6135 111.255 35.0581 111.719C34.6774 112.032 34.3269 112.376 34.0106 112.746C33.9039 112.889 33.779 113.02 33.6387 113.136C33.7062 112.973 33.8003 112.82 33.9176 112.683C34.2014 112.276 34.5364 111.903 34.9155 111.569C35.2073 111.309 35.5523 111.106 35.9301 110.971C36.3079 110.836 36.7111 110.772 37.1159 110.783C37.3643 110.793 37.608 110.849 37.8326 110.947C38.0573 111.046 38.2583 111.185 38.4238 111.357C38.611 111.548 38.7415 111.78 38.8023 112.032C38.8632 112.283 38.8523 112.545 38.7709 112.792L38.5539 112.608C38.8716 112.476 39.2043 112.378 39.5457 112.315C40.6597 112.127 41.8096 112.332 42.7688 112.889C43.5377 113.349 44.13 114.022 44.4609 114.812C44.6882 115.337 44.7897 115.901 44.7584 116.465C44.7555 116.67 44.7113 116.872 44.6283 117.062Z" fill="#455A64"/>
<path d="M38.1066 119.611C38.0446 119.611 38.1748 119.037 38.15 118.136C38.1327 117.621 37.9657 117.119 37.6665 116.684C37.4953 116.427 37.247 116.222 36.9521 116.094C36.6571 115.965 36.3282 115.919 36.0054 115.961C35.8823 115.98 35.7633 116.017 35.6521 116.07L35.2802 116.248L35.4228 115.886C35.5272 115.617 35.569 115.331 35.5455 115.046C35.522 114.761 35.4337 114.484 35.2864 114.233C35.046 113.818 34.6488 113.499 34.1707 113.338C33.7175 113.2 33.237 113.157 32.7637 113.211C32.9899 113.103 33.2387 113.04 33.4932 113.028C33.7477 113.017 34.002 113.055 34.2389 113.143C34.7887 113.297 35.2543 113.64 35.5405 114.101C35.7149 114.385 35.8218 114.701 35.8538 115.027C35.8859 115.352 35.8425 115.681 35.7265 115.989L35.5033 115.806C35.6412 115.739 35.7898 115.692 35.9434 115.668C36.3271 115.615 36.7193 115.668 37.0702 115.821C37.4211 115.974 37.715 116.221 37.9145 116.529C38.234 117.009 38.3936 117.566 38.3731 118.13C38.3701 118.499 38.3244 118.867 38.2368 119.227C38.2198 119.361 38.1757 119.492 38.1066 119.611Z" fill="#455A64"/>
<path d="M47.4893 183.913L58.4974 170.763L99.9889 171.004L89.8113 184.033L47.4893 183.913Z" fill="#F5F5F5"/>
<path d="M47.4893 183.935H50.6938H59.514H89.8113L89.6873 183.998L99.8091 171.003L99.8773 170.917L100.007 171.153L58.516 170.866L58.609 170.826L47.4893 183.935L47.669 183.711L48.2207 183.039L50.3777 180.416L58.4355 170.716L58.4664 170.676H58.5222L100.014 170.877H100.33L100.144 171.118L100.076 171.199C96.5364 175.733 93.1149 180.106 89.96 184.141L89.9104 184.199H89.8361L59.3962 184.032L50.6008 183.935H48.2764H47.6566C47.6009 183.939 47.5449 183.939 47.4893 183.935Z" fill="#263238"/>
<path d="M55.9932 184.664C55.9932 184.664 75.4559 178.695 78.0716 178.815C80.6873 178.936 83.6873 180.354 84.0034 183.189C84.3195 186.024 85.0881 189.106 81.5241 191.85C77.96 194.594 56.4642 201.567 56.4642 201.567L55.9932 184.664Z" fill="#FFBF9D"/>
<path d="M4.96264 180.607C2.24159 181.29 1.05772 184.51 1.00194 187.122C0.946155 189.733 2.09903 192.287 3.72919 194.394C5.43921 196.474 7.38409 198.379 9.53078 200.076L15.1093 184.768C13.5659 182.582 8.45228 179.735 4.96264 180.607Z" fill="#FFBF9D"/>
<path d="M9.0872 187.656C6.92365 187.79 4.88417 188.64 3.33951 190.049C1.79486 191.458 0.847589 193.334 0.669922 195.335C0.669922 195.559 0.669922 195.771 0.669922 195.961C0.775293 198.222 8.05829 203.158 10.2897 204.834C12.5211 206.51 45.8865 207.239 48.4588 206.608C52.3265 205.655 68.2934 200.03 68.2934 200.03C68.2934 200.03 73.0722 188.092 63.1116 183.609C62.5785 183.374 52.6055 184.648 52.6055 184.648L9.0872 187.656Z" fill="#263238"/>
<path d="M48.3135 168.169C48.3135 168.169 53.768 180.911 54.9767 182.518C56.1853 184.125 61.2865 185.48 63.9766 183.666C66.6666 181.852 75.4062 170.734 75.4062 170.734L70.3856 165.098L61.863 173.438L57.7473 165.098L48.3135 168.169Z" fill="#FFBF9D"/>
<path d="M81.8342 155.496C81.6854 155.413 81.5116 155.378 81.3392 155.396C81.1668 155.413 81.0054 155.483 80.8796 155.593C79.5408 156.776 75.5244 160.306 74.6814 160.661C73.6835 161.098 71.2786 161.654 70.8819 162.211C70.4852 162.768 70.3984 165.121 70.3984 165.121L75.419 170.757C75.419 170.757 79.4913 171.584 80.0925 170.757C80.4526 170.267 80.7014 169.715 80.8239 169.133C81.4014 168.517 81.7927 167.771 81.9582 166.969C82.0789 166.609 82.0498 166.219 81.8767 165.877C81.7036 165.535 81.3988 165.266 81.0222 165.121C81.0222 165.121 82.7577 163.072 81.6916 162.085C81.3682 161.796 80.9713 161.588 80.5379 161.48C80.1045 161.372 79.6485 161.367 79.2123 161.465L78.8776 160.725L82.0511 156.552C82.1147 156.469 82.1592 156.376 82.1818 156.277C82.2044 156.178 82.2047 156.075 82.1826 155.976C82.1605 155.877 82.1164 155.783 82.0533 155.7C81.9901 155.618 81.9092 155.548 81.8156 155.496H81.8342Z" fill="#FFBF9D"/>
<path d="M62.1169 178.345C62.4882 176.574 62.3796 174.746 61.8008 173.024C62.2963 173.827 62.5828 174.726 62.6377 175.65C62.6926 176.573 62.5142 177.496 62.1169 178.345Z" fill="#6F4439"/>
<path d="M75.4072 170.734C75.2615 170.975 75.0913 171.201 74.8989 171.412L73.4423 173.208C72.2026 174.718 70.5601 176.847 68.6138 179.114C67.7091 180.194 66.7429 181.229 65.7192 182.214C64.8803 183.034 63.8786 183.696 62.7688 184.165C62.016 184.483 61.1887 184.619 60.3639 184.561C60.1434 184.54 59.9255 184.499 59.713 184.441C59.6358 184.424 59.5623 184.395 59.4961 184.355C59.4961 184.355 59.8122 184.423 60.3763 184.446C61.1723 184.455 61.9596 184.292 62.6758 183.97C63.7424 183.488 64.7029 182.826 65.5085 182.019C66.4444 181.135 67.368 180.05 68.3535 178.931C70.2936 176.669 71.9671 174.557 73.2501 173.076C73.87 172.336 74.4092 171.739 74.7873 171.354C74.9726 171.13 75.1801 170.923 75.4072 170.734Z" fill="#6F4439"/>
<path d="M26.9067 142.111C25.156 142.084 23.4274 142.476 21.8871 143.246C20.3468 144.017 19.0466 145.142 18.1113 146.513C16.4005 149.073 15.5638 155.989 14.4729 160.46C14.2311 161.448 12.6134 172.514 11.6341 176.422C11.0886 178.546 10.2766 183.608 10.2766 183.608C10.2766 183.608 8.37375 182.713 8.23739 184.441C8.10103 186.168 11.4357 200.994 21.9108 201.568C32.386 202.142 49.3817 194.514 51.6131 189.044C52.3849 187.881 52.6838 186.501 52.4561 185.152C52.0346 182.994 51.7557 182.133 51.7557 182.133C52.1014 181.959 52.4028 181.719 52.6391 181.428C52.8755 181.137 53.0414 180.802 53.1255 180.446C53.2061 179.906 50.8941 177.788 50.8941 177.788L52.0408 162.865L51.7991 145.738L43.8218 143.81C43.8218 143.81 41.8756 144.429 33.9046 144.045C31.4386 143.927 29.039 143.264 26.9067 142.111Z" fill="#4DC26B"/>
<path d="M47.799 145.726C44.9354 145.675 43.9561 151.007 44.6627 155.96L47.7433 170.918C47.7433 170.918 55.4663 172.094 60.0097 165.752C59.9787 165.758 51.8155 145.801 47.799 145.726Z" fill="#4DC26B"/>
<path d="M46.8881 146.513C46.8881 146.513 46.5658 146.72 46.1009 147.196C45.4645 147.886 45.016 148.706 44.793 149.59C44.503 150.911 44.4195 152.264 44.5451 153.607C44.6071 155.134 44.7434 156.816 44.979 158.566C45.3769 161.563 46.0171 164.527 46.8943 167.434C47.229 168.553 47.5141 169.449 47.7372 170.063C47.8643 170.379 47.9659 170.703 48.041 171.033C47.8753 170.733 47.7344 170.422 47.6195 170.103C47.3777 169.495 47.0368 168.605 46.6773 167.492C45.7253 164.591 45.0451 161.621 44.6443 158.612C44.4149 156.85 44.2848 155.169 44.2352 153.625C44.124 152.255 44.2348 150.877 44.5637 149.538C44.8106 148.631 45.3059 147.799 46.0017 147.122C46.1882 146.94 46.3961 146.778 46.6215 146.639C46.7008 146.582 46.7913 146.539 46.8881 146.513Z" fill="#263238"/>
<path d="M26.9112 143.213C26.6137 143.368 22.4298 145.704 21.0848 148.511C19.7398 151.317 16.0332 164.622 16.0332 166.809L20.2914 168.255L26.9112 143.213Z" fill="#4DC26B"/>
<path d="M12.9159 169.225L51.3144 172.278L50.8929 177.788C51.8183 178.529 52.5766 179.433 53.1243 180.446L11.4531 177.392L12.9159 169.225Z" fill="#E0E0E0"/>
<path d="M50.541 188.16C50.4757 188.251 50.3987 188.334 50.3116 188.407L49.5988 189.101C49.2315 189.46 48.8425 189.799 48.4335 190.117C47.9563 190.496 47.4356 190.95 46.7972 191.38L45.8178 192.075C45.4707 192.316 45.0926 192.534 44.7083 192.775C43.9521 193.274 43.0906 193.722 42.1918 194.21C40.2069 195.221 38.1335 196.075 35.9935 196.764C33.8524 197.413 31.6569 197.897 29.4295 198.21C28.3944 198.325 27.4088 198.457 26.4853 198.492C26.0204 198.492 25.5741 198.555 25.1465 198.56H23.9068C23.1196 198.56 22.413 198.515 21.787 198.486C21.2536 198.464 20.7219 198.416 20.194 198.342L19.1899 198.21C19.0715 198.205 18.9546 198.183 18.8428 198.147C18.9601 198.135 19.0787 198.135 19.1961 198.147L20.2064 198.222C20.6403 198.262 21.1733 198.308 21.7994 198.314C22.4254 198.319 23.1258 198.377 23.9068 198.348H25.1465C25.5679 198.348 26.0142 198.291 26.4729 198.262C27.3903 198.216 28.3634 198.078 29.3861 197.952C33.8332 197.312 38.1239 195.952 42.0617 193.934C42.9542 193.458 43.822 193.016 44.5782 192.534C44.9563 192.298 45.3406 192.086 45.6877 191.851L46.6732 191.173C47.293 190.76 47.8447 190.318 48.3282 189.957C48.8116 189.595 49.2083 189.262 49.5306 188.987L50.2744 188.355C50.3537 188.28 50.4433 188.214 50.541 188.16Z" fill="#263238"/>
<path d="M30.6992 186.771C30.9778 186.73 31.2603 186.714 31.5422 186.726C32.0814 186.726 32.8624 186.691 33.8294 186.639C38.8607 186.378 43.8142 185.37 48.5007 183.655C49.3995 183.328 50.1247 183.046 50.6144 182.84C50.8674 182.725 51.1308 182.631 51.4016 182.559C51.1726 182.711 50.9275 182.842 50.6701 182.949C50.1929 183.184 49.4801 183.523 48.5875 183.85C43.9156 185.688 38.9154 186.706 33.8418 186.852C32.8686 186.852 32.0814 186.852 31.5422 186.852C31.2589 186.854 30.9761 186.827 30.6992 186.771Z" fill="#263238"/>
<path d="M38.0078 177.811C40.0726 177.714 42.1413 177.714 44.2061 177.811C46.276 177.808 48.3448 177.902 50.4044 178.092C48.3398 178.194 46.2707 178.194 44.2061 178.092C42.1361 178.101 40.067 178.007 38.0078 177.811Z" fill="#263238"/>
<path d="M21.5804 149.102C21.5808 149.221 21.5684 149.34 21.5432 149.457C21.4999 149.721 21.4379 150.031 21.3697 150.468C21.2147 151.38 20.9916 152.631 20.7499 154.17C20.1982 157.327 19.442 161.631 18.6115 166.378C17.7809 171.125 16.9813 175.464 16.3801 178.58C16.0763 180.142 15.816 181.399 15.6301 182.265C15.5371 182.673 15.4627 183.006 15.4007 183.264C15.3791 183.381 15.3459 183.497 15.3016 183.608C15.2974 183.489 15.3099 183.369 15.3387 183.253L15.5061 182.248C15.6672 181.335 15.8842 180.079 16.1259 178.546C16.6838 175.383 17.4338 171.084 18.2705 166.332C19.1073 161.58 19.8945 157.252 20.5019 154.13C20.7995 152.574 21.0598 151.311 21.2457 150.445C21.3387 150.037 21.4193 149.704 21.4751 149.446C21.4951 149.328 21.5305 149.212 21.5804 149.102Z" fill="#263238"/>
</svg>
