<svg width="250" height="207" viewBox="0 0 250 207" fill="none" xmlns="http://www.w3.org/2000/svg">
<path d="M-4.57764e-05 168.25C-4.57764e-05 168.324 55.9681 168.388 124.994 168.388C194.02 168.388 250 168.324 250 168.25C250 168.177 194.043 168.113 125 168.113C55.9567 168.113 -4.57764e-05 168.171 -4.57764e-05 168.25Z" fill="#263238"/>
<path d="M93.2476 168.424H157.24C158.316 165.786 158.424 163.337 157.24 161.094H93.2476C92.5217 162.198 92.1378 163.466 92.1378 164.759C92.1378 166.052 92.5217 167.32 93.2476 168.424Z" fill="#455A64"/>
<path d="M135.709 163.147H135.031V165.359H133.556V165.886H135.709V163.147Z" fill="#F5F5F5"/>
<path d="M131.199 164.678V165.87H131.808V165.606C131.883 165.709 131.987 165.79 132.109 165.842C132.23 165.894 132.364 165.915 132.497 165.902C133.027 165.902 133.34 165.627 133.34 165.269C133.34 164.91 133.061 164.641 132.372 164.641H131.854C131.854 164.382 132.019 164.229 132.372 164.229C132.605 164.226 132.834 164.295 133.021 164.424L133.26 163.997C132.97 163.825 132.631 163.737 132.286 163.743C131.597 163.743 131.199 164.039 131.199 164.678ZM131.854 165.205V164.989H132.298C132.605 164.989 132.702 165.094 132.702 165.232C132.702 165.369 132.565 165.485 132.332 165.485C132.231 165.493 132.13 165.47 132.044 165.421C131.958 165.371 131.891 165.298 131.854 165.211V165.205Z" fill="#F5F5F5"/>
<path d="M128.265 164.673V165.87H128.948V164.768C128.948 164.425 129.119 164.271 129.41 164.271C129.7 164.271 129.951 164.451 129.951 164.836V165.892H130.605V163.781H129.973V164.029C129.877 163.936 129.761 163.863 129.633 163.815C129.504 163.767 129.366 163.744 129.227 163.749C129.095 163.738 128.961 163.754 128.837 163.797C128.712 163.84 128.6 163.908 128.507 163.997C128.415 164.086 128.345 164.192 128.303 164.309C128.261 164.426 128.248 164.55 128.265 164.673Z" fill="#F5F5F5"/>
<path d="M125.35 163.775V165.522C125.33 165.679 125.349 165.839 125.406 165.988C125.463 166.137 125.557 166.272 125.68 166.382C125.803 166.492 125.952 166.574 126.116 166.622C126.279 166.669 126.451 166.681 126.62 166.656C127.013 166.671 127.399 166.569 127.725 166.366L127.463 165.933C127.231 166.088 126.952 166.171 126.666 166.171C126.205 166.171 126.005 165.976 126.005 165.596V165.506C126.097 165.594 126.208 165.663 126.331 165.709C126.453 165.754 126.585 165.775 126.717 165.77C126.861 165.77 127.003 165.744 127.136 165.693C127.268 165.642 127.389 165.567 127.49 165.473C127.592 165.379 127.672 165.267 127.727 165.144C127.782 165.021 127.811 164.89 127.811 164.757C127.811 164.624 127.782 164.492 127.727 164.369C127.672 164.246 127.592 164.134 127.49 164.04C127.389 163.946 127.268 163.871 127.136 163.82C127.003 163.77 126.861 163.743 126.717 163.743C126.576 163.736 126.435 163.76 126.306 163.812C126.176 163.865 126.062 163.944 125.971 164.044V163.775H125.35ZM125.988 164.757C125.988 164.652 126.022 164.55 126.084 164.463C126.147 164.377 126.236 164.309 126.34 164.269C126.444 164.229 126.558 164.219 126.669 164.239C126.779 164.259 126.881 164.31 126.96 164.383C127.04 164.457 127.094 164.551 127.116 164.654C127.138 164.756 127.127 164.862 127.084 164.959C127.041 165.055 126.968 165.137 126.874 165.195C126.78 165.253 126.67 165.284 126.558 165.284C126.407 165.284 126.262 165.229 126.155 165.13C126.048 165.031 125.988 164.897 125.988 164.757Z" fill="#F5F5F5"/>
<path d="M122.468 163.776V165.887H123.088V165.639C123.177 165.729 123.285 165.801 123.406 165.849C123.527 165.897 123.657 165.921 123.789 165.918C123.923 165.928 124.058 165.91 124.183 165.865C124.309 165.821 124.422 165.75 124.514 165.66C124.607 165.569 124.676 165.46 124.717 165.342C124.758 165.223 124.77 165.097 124.751 164.974V163.792H124.096V164.884C124.096 165.238 123.931 165.412 123.641 165.412C123.35 165.412 123.123 165.232 123.123 164.847V163.792L122.468 163.776Z" fill="#F5F5F5"/>
<path d="M119.86 164.678V165.87H120.469V165.606C120.544 165.709 120.648 165.79 120.77 165.842C120.891 165.894 121.025 165.915 121.158 165.902C121.688 165.902 122.001 165.627 122.001 165.269C122.001 164.91 121.722 164.641 121.033 164.641H120.515C120.515 164.382 120.68 164.229 121.033 164.229C121.267 164.226 121.495 164.295 121.682 164.424L121.921 163.997C121.631 163.825 121.292 163.737 120.947 163.743C120.258 163.743 119.86 164.039 119.86 164.678ZM120.515 165.205V164.989H120.964C121.266 164.989 121.363 165.094 121.363 165.232C121.363 165.369 121.226 165.485 120.999 165.485C120.897 165.493 120.795 165.471 120.708 165.421C120.621 165.372 120.553 165.298 120.515 165.211V165.205Z" fill="#F5F5F5"/>
<path d="M116.909 163.775V165.522C116.889 165.679 116.908 165.839 116.965 165.988C117.022 166.137 117.116 166.272 117.239 166.382C117.362 166.492 117.511 166.574 117.674 166.622C117.837 166.67 118.01 166.681 118.179 166.657C118.573 166.67 118.961 166.568 119.29 166.366L119.028 165.934C118.795 166.088 118.516 166.171 118.23 166.171C117.769 166.171 117.564 165.976 117.564 165.596V165.506C117.657 165.594 117.769 165.664 117.892 165.709C118.016 165.754 118.149 165.775 118.282 165.77C118.425 165.77 118.567 165.744 118.7 165.693C118.833 165.642 118.953 165.567 119.055 165.473C119.156 165.379 119.237 165.267 119.292 165.144C119.347 165.022 119.375 164.89 119.375 164.757C119.375 164.624 119.347 164.492 119.292 164.369C119.237 164.246 119.156 164.134 119.055 164.04C118.953 163.946 118.833 163.872 118.7 163.821C118.567 163.77 118.425 163.743 118.282 163.743C118.141 163.736 118 163.76 117.87 163.812C117.741 163.864 117.626 163.944 117.536 164.044V163.775H116.909ZM117.558 164.757C117.558 164.617 117.618 164.483 117.725 164.384C117.832 164.285 117.977 164.229 118.128 164.229C118.212 164.209 118.299 164.208 118.384 164.225C118.469 164.241 118.548 164.275 118.617 164.325C118.685 164.374 118.74 164.437 118.778 164.509C118.816 164.581 118.836 164.661 118.836 164.741C118.836 164.821 118.816 164.9 118.778 164.972C118.74 165.044 118.685 165.108 118.617 165.157C118.548 165.206 118.469 165.241 118.384 165.257C118.299 165.274 118.212 165.272 118.128 165.253C117.983 165.253 117.843 165.202 117.737 165.11C117.631 165.017 117.567 164.891 117.558 164.757Z" fill="#F5F5F5"/>
<path d="M114.103 164.994H115.811C115.776 165.124 115.692 165.239 115.574 165.316C115.456 165.394 115.312 165.429 115.168 165.417C115.063 165.42 114.958 165.403 114.86 165.368C114.762 165.332 114.673 165.279 114.598 165.211L114.251 165.564C114.428 165.72 114.649 165.828 114.888 165.874C115.128 165.921 115.376 165.905 115.607 165.829C115.837 165.752 116.04 165.618 116.193 165.441C116.345 165.263 116.442 165.05 116.472 164.825C116.472 164.681 116.44 164.539 116.379 164.406C116.317 164.274 116.227 164.155 116.114 164.056C116.001 163.957 115.867 163.881 115.721 163.831C115.575 163.782 115.42 163.761 115.264 163.77C115.109 163.766 114.954 163.791 114.81 163.844C114.665 163.897 114.534 163.977 114.424 164.079C114.314 164.18 114.228 164.302 114.171 164.436C114.114 164.57 114.087 164.713 114.091 164.857C114.091 164.878 114.103 164.947 114.103 164.994ZM115.811 164.641H114.672C114.695 164.517 114.765 164.405 114.87 164.324C114.974 164.244 115.106 164.201 115.242 164.203C115.381 164.191 115.52 164.23 115.628 164.312C115.737 164.394 115.807 164.512 115.822 164.641H115.811Z" fill="#F5F5F5"/>
<path d="M152.906 164.667H149.973V165.295H152.365V165.823H152.935L152.906 164.667Z" fill="#F5F5F5"/>
<path d="M148.48 161.094L145.445 168.424H141.465L143.993 161.094H148.48Z" fill="#263238"/>
<path d="M113.188 161.094L110.152 168.424H106.171L108.7 161.094H113.188Z" fill="#263238"/>
<path d="M93.2476 161.031H157.24C158.316 157.337 158.424 153.886 157.24 150.741H93.2476C92.5151 152.371 92.138 154.12 92.138 155.886C92.138 157.652 92.5151 159.401 93.2476 161.031Z" fill="#4DC26B"/>
<path d="M138.276 153.965L138.97 157.194H139.221L138.651 154.45L140.576 156.767H140.679L141.664 154.419L142.233 157.194H142.501L141.801 153.965H141.596L140.553 156.461L138.515 153.965H138.276Z" fill="#F5F5F5"/>
<path d="M135.001 154.788L135.519 157.194H135.758L135.661 156.725C135.788 156.881 135.954 157.007 136.144 157.093C136.334 157.178 136.543 157.22 136.755 157.215C136.903 157.23 137.054 157.215 137.195 157.17C137.337 157.126 137.466 157.054 137.574 156.958C137.683 156.863 137.767 156.747 137.823 156.618C137.878 156.489 137.902 156.351 137.894 156.213C137.906 156.027 137.877 155.841 137.809 155.666C137.741 155.491 137.635 155.33 137.497 155.195C137.359 155.059 137.193 154.952 137.009 154.878C136.824 154.804 136.625 154.766 136.424 154.767C136.203 154.744 135.979 154.793 135.792 154.905C135.606 155.018 135.467 155.187 135.399 155.384L135.268 154.788H135.001ZM135.485 155.78C135.476 155.668 135.495 155.555 135.539 155.45C135.583 155.346 135.651 155.251 135.74 155.174C135.828 155.097 135.934 155.038 136.049 155.004C136.165 154.969 136.287 154.958 136.407 154.973C136.576 154.974 136.742 155.008 136.895 155.071C137.049 155.135 137.187 155.227 137.302 155.341C137.416 155.456 137.503 155.591 137.559 155.738C137.615 155.885 137.638 156.041 137.626 156.197C137.639 156.311 137.624 156.427 137.582 156.535C137.54 156.643 137.472 156.741 137.383 156.821C137.294 156.902 137.187 156.962 137.069 156.998C136.952 157.035 136.826 157.046 136.703 157.031C136.532 157.03 136.363 156.996 136.207 156.931C136.051 156.867 135.911 156.772 135.796 156.655C135.681 156.537 135.594 156.398 135.541 156.248C135.487 156.097 135.468 155.938 135.485 155.78Z" fill="#F5F5F5"/>
<path d="M134.023 156.503C134.03 156.56 134.03 156.616 134.023 156.672C134.023 156.899 133.892 157.021 133.624 157.021C133.47 157.021 133.32 156.974 133.197 156.889L133.123 157.058C133.287 157.171 133.488 157.229 133.693 157.221C133.769 157.228 133.846 157.218 133.919 157.194C133.991 157.17 134.056 157.131 134.111 157.081C134.165 157.031 134.207 156.97 134.233 156.903C134.259 156.836 134.269 156.764 134.262 156.693C134.267 156.632 134.267 156.57 134.262 156.509L133.926 154.978H134.41L134.37 154.783H133.886L133.772 154.255H133.522L133.636 154.783H132.821L132.861 154.978H133.698L134.023 156.503Z" fill="#F5F5F5"/>
<path d="M129.835 155.537C129.828 155.625 129.828 155.713 129.835 155.801L130.137 157.194H130.382L130.086 155.801C130.075 155.724 130.075 155.646 130.086 155.569C130.086 155.194 130.325 154.973 130.815 154.973C131.095 154.962 131.368 155.05 131.58 155.22C131.791 155.39 131.925 155.628 131.954 155.886L132.239 157.194H132.489L131.749 153.77H131.504L131.817 155.231C131.694 155.079 131.533 154.957 131.347 154.876C131.162 154.795 130.957 154.758 130.752 154.767C130.16 154.767 129.835 155.062 129.835 155.537Z" fill="#F5F5F5"/>
<path d="M128.924 156.039C128.924 156.092 128.924 156.144 128.924 156.192C128.924 156.72 128.594 157.005 127.962 157.005C127.798 157.01 127.634 156.985 127.482 156.929C127.329 156.874 127.19 156.79 127.074 156.683L126.96 156.846C127.095 156.968 127.256 157.064 127.432 157.127C127.608 157.191 127.796 157.221 127.985 157.216C128.137 157.234 128.292 157.22 128.438 157.177C128.584 157.133 128.719 157.061 128.831 156.964C128.944 156.868 129.033 156.75 129.091 156.618C129.15 156.486 129.176 156.345 129.169 156.202C129.183 156.021 129.157 155.838 129.092 155.666C129.028 155.495 128.926 155.337 128.793 155.202C128.661 155.068 128.5 154.96 128.321 154.885C128.141 154.81 127.948 154.77 127.751 154.767C127.602 154.75 127.45 154.764 127.307 154.809C127.164 154.853 127.034 154.925 126.925 155.022C126.816 155.118 126.731 155.236 126.677 155.366C126.623 155.496 126.601 155.636 126.612 155.775C126.614 155.864 126.626 155.952 126.647 156.039H128.924ZM128.924 155.859H126.92C126.917 155.821 126.917 155.782 126.92 155.743C126.913 155.637 126.932 155.53 126.975 155.431C127.017 155.332 127.082 155.242 127.165 155.168C127.249 155.094 127.348 155.038 127.457 155.004C127.566 154.969 127.682 154.957 127.797 154.968C128.064 154.973 128.32 155.066 128.521 155.229C128.722 155.392 128.855 155.615 128.896 155.859H128.924Z" fill="#F5F5F5"/>
<path d="M121.557 155.527C121.548 155.619 121.548 155.711 121.557 155.802L121.864 157.195H122.109L121.807 155.802C121.799 155.723 121.799 155.643 121.807 155.564C121.807 155.195 122.041 154.973 122.508 154.973C122.773 154.962 123.032 155.044 123.235 155.202C123.438 155.361 123.568 155.584 123.601 155.828L123.897 157.195H124.148L123.84 155.802C123.832 155.723 123.832 155.643 123.84 155.564C123.84 155.195 124.074 154.973 124.541 154.973C124.815 154.967 125.083 155.058 125.288 155.227C125.493 155.397 125.621 155.633 125.645 155.886L125.93 157.195H126.181L125.662 154.789H125.418L125.52 155.237C125.402 155.085 125.245 154.962 125.063 154.88C124.881 154.798 124.68 154.759 124.478 154.768C124.289 154.744 124.098 154.785 123.939 154.882C123.78 154.979 123.664 155.126 123.612 155.295C123.487 155.125 123.316 154.987 123.117 154.895C122.917 154.802 122.696 154.758 122.473 154.768C121.87 154.768 121.557 155.058 121.557 155.527Z" fill="#F5F5F5"/>
<path d="M118.013 154.788L118.532 157.194H118.771L118.674 156.725C118.802 156.881 118.967 157.006 119.157 157.092C119.347 157.177 119.556 157.219 119.767 157.215C119.916 157.23 120.066 157.215 120.208 157.17C120.349 157.126 120.479 157.054 120.587 156.958C120.695 156.863 120.78 156.747 120.835 156.618C120.89 156.489 120.915 156.351 120.906 156.213C120.919 156.027 120.89 155.841 120.822 155.666C120.754 155.491 120.647 155.33 120.51 155.195C120.372 155.059 120.206 154.952 120.021 154.878C119.837 154.804 119.638 154.766 119.437 154.767C119.215 154.744 118.992 154.793 118.805 154.905C118.618 155.018 118.479 155.187 118.412 155.384L118.281 154.788H118.013ZM118.497 155.78C118.489 155.668 118.507 155.555 118.551 155.45C118.595 155.346 118.664 155.251 118.752 155.174C118.841 155.097 118.946 155.038 119.062 155.004C119.177 154.969 119.3 154.958 119.42 154.973C119.588 154.974 119.754 155.008 119.908 155.071C120.062 155.135 120.2 155.227 120.314 155.341C120.428 155.456 120.516 155.591 120.572 155.738C120.628 155.885 120.65 156.041 120.639 156.197C120.652 156.311 120.637 156.426 120.595 156.534C120.553 156.641 120.486 156.739 120.398 156.819C120.309 156.899 120.203 156.96 120.086 156.996C119.969 157.033 119.844 157.045 119.722 157.031C119.551 157.029 119.383 156.995 119.227 156.93C119.072 156.865 118.932 156.77 118.818 156.653C118.704 156.535 118.618 156.397 118.564 156.247C118.511 156.096 118.492 155.937 118.509 155.78H118.497Z" fill="#F5F5F5"/>
<path d="M117.047 156.503C117.054 156.56 117.054 156.616 117.047 156.672C117.047 156.899 116.916 157.021 116.648 157.021C116.496 157.021 116.348 156.974 116.227 156.889L116.147 157.058C116.311 157.17 116.512 157.228 116.716 157.221C116.793 157.228 116.87 157.218 116.942 157.194C117.015 157.17 117.08 157.131 117.135 157.081C117.189 157.031 117.231 156.97 117.257 156.903C117.283 156.836 117.293 156.764 117.286 156.693C117.294 156.632 117.294 156.57 117.286 156.509L116.95 154.978H117.445L117.405 154.783H116.921L116.808 154.255H116.563L116.677 154.783H115.845L115.885 154.978H116.716L117.047 156.503Z" fill="#F5F5F5"/>
<path d="M115.001 154.789H114.751L115.269 157.195H115.52L115.001 154.789ZM114.916 154.029C114.917 154.002 114.912 153.976 114.901 153.951C114.89 153.926 114.874 153.904 114.854 153.885C114.834 153.867 114.81 153.852 114.783 153.842C114.757 153.832 114.728 153.827 114.699 153.828C114.675 153.828 114.65 153.831 114.627 153.839C114.604 153.848 114.583 153.86 114.565 153.875C114.547 153.891 114.532 153.91 114.522 153.931C114.512 153.952 114.507 153.974 114.506 153.997C114.505 154.024 114.51 154.051 114.521 154.077C114.532 154.102 114.548 154.125 114.569 154.144C114.59 154.163 114.615 154.179 114.642 154.189C114.669 154.199 114.699 154.204 114.728 154.203C114.778 154.203 114.826 154.185 114.861 154.152C114.896 154.119 114.916 154.075 114.916 154.029Z" fill="#F5F5F5"/>
<path d="M114.261 156.213C114.273 156.026 114.243 155.838 114.173 155.662C114.103 155.486 113.995 155.325 113.855 155.19C113.715 155.054 113.546 154.946 113.359 154.874C113.173 154.801 112.972 154.765 112.769 154.767C112.575 154.751 112.379 154.784 112.204 154.864C112.029 154.944 111.882 155.068 111.778 155.221L111.983 155.337C112.067 155.214 112.186 155.115 112.326 155.051C112.467 154.987 112.624 154.96 112.781 154.973C112.95 154.974 113.117 155.006 113.272 155.069C113.427 155.132 113.567 155.223 113.682 155.338C113.798 155.453 113.886 155.588 113.943 155.736C113.999 155.884 114.022 156.041 114.011 156.198C114.019 156.311 113.999 156.425 113.954 156.53C113.908 156.636 113.838 156.731 113.748 156.808C113.658 156.886 113.551 156.943 113.433 156.977C113.316 157.011 113.193 157.021 113.071 157.005C112.909 157.01 112.747 156.981 112.599 156.921C112.45 156.86 112.318 156.77 112.211 156.657L112.035 156.783C112.163 156.924 112.325 157.037 112.508 157.112C112.69 157.187 112.889 157.222 113.088 157.216C113.239 157.232 113.391 157.218 113.535 157.174C113.679 157.131 113.811 157.059 113.923 156.964C114.034 156.869 114.122 156.752 114.18 156.623C114.239 156.493 114.266 156.354 114.261 156.213Z" fill="#F5F5F5"/>
<path d="M112.669 154.788L113.187 157.194H113.426L113.324 156.725C113.452 156.881 113.618 157.008 113.809 157.093C114 157.178 114.211 157.22 114.423 157.216C114.571 157.23 114.722 157.215 114.863 157.17C115.005 157.126 115.134 157.054 115.242 156.958C115.351 156.863 115.435 156.747 115.491 156.618C115.546 156.489 115.57 156.351 115.562 156.213C115.574 156.027 115.545 155.841 115.477 155.666C115.409 155.491 115.303 155.331 115.165 155.195C115.027 155.06 114.861 154.952 114.677 154.878C114.492 154.804 114.293 154.767 114.092 154.767C113.87 154.744 113.646 154.792 113.458 154.905C113.27 155.018 113.13 155.187 113.062 155.384L112.936 154.788H112.669ZM113.153 155.78C113.144 155.668 113.163 155.555 113.207 155.45C113.251 155.346 113.319 155.251 113.408 155.174C113.496 155.097 113.602 155.039 113.717 155.004C113.833 154.969 113.955 154.958 114.075 154.973C114.244 154.975 114.41 155.008 114.563 155.072C114.717 155.135 114.855 155.227 114.97 155.341C115.084 155.456 115.171 155.591 115.227 155.738C115.283 155.885 115.306 156.041 115.294 156.197C115.303 156.309 115.284 156.422 115.24 156.527C115.196 156.631 115.127 156.726 115.039 156.803C114.951 156.88 114.845 156.939 114.73 156.973C114.614 157.008 114.492 157.019 114.371 157.004C114.203 157.003 114.036 156.97 113.882 156.907C113.728 156.844 113.59 156.752 113.475 156.637C113.361 156.523 113.273 156.387 113.218 156.24C113.162 156.092 113.14 155.936 113.153 155.78Z" fill="#F5F5F5"/>
<path d="M111.405 153.77H111.154L111.895 157.194H112.14L111.405 153.77Z" fill="#F5F5F5"/>
<path d="M154.559 154.962L151.045 155.606V155.844L154.302 155.237V156.028L154.53 155.986L154.559 154.962Z" fill="#F5F5F5"/>
<path d="M146.345 150.741C146.271 150.741 147.052 153.094 148.094 155.944C148.676 157.681 149.353 159.389 150.121 161.063C150.195 161.037 149.415 158.709 148.373 155.854C147.792 154.119 147.115 152.412 146.345 150.741Z" fill="white"/>
<path d="M143.737 150.741C143.663 150.741 144.443 153.094 145.485 155.944C146.068 157.681 146.745 159.389 147.513 161.063C147.587 161.037 146.807 158.709 145.764 155.854C145.184 154.119 144.507 152.412 143.737 150.741Z" fill="white"/>
<path d="M104.991 150.741C104.917 150.741 105.697 153.094 106.739 155.944C107.322 157.681 107.999 159.389 108.767 161.063C108.841 161.037 108.06 158.709 107.018 155.854C106.438 154.119 105.761 152.412 104.991 150.741Z" fill="white"/>
<path d="M102.385 150.741C102.31 150.741 103.091 153.094 104.133 155.944C104.715 157.681 105.392 159.389 106.16 161.063C105.673 159.301 105.089 157.562 104.412 155.854C103.831 154.119 103.154 152.412 102.385 150.741Z" fill="white"/>
<path d="M108.633 16.6574C103.308 22.2935 100.979 29.8505 99.9711 37.2966C98.9632 44.7427 99.1226 52.2733 98.0064 59.6931C97.437 63.5718 96.4916 67.4558 96.8219 71.3557C97.1522 75.2556 99.0258 79.3084 102.716 81.2135C104.886 82.3376 107.932 82.4748 109.612 80.7755C110.797 79.5723 110.996 77.815 111.133 76.1896L116.372 14.8579" fill="#263238"/>
<path d="M135.333 69.5878L131.409 68.6009L107.15 67.4399L101.757 68.4954C101.757 68.4954 111.506 78.7016 119.769 78.7333C134.883 78.8124 135.333 69.5878 135.333 69.5878Z" fill="#FFBE9D"/>
<path d="M145.722 45.978C147.487 41.028 150.135 32.4631 149.139 27.3284C148.142 22.1936 145.352 17.27 140.876 14.1353C134.748 9.79744 126.371 9.23278 118.751 10.3252C113.529 11.0692 108.171 12.6524 104.6 16.2515C102.322 18.5629 100.921 21.5287 100.147 24.5947C99.4611 27.6675 99.0592 30.7889 98.9451 33.9249C98.8198 35.8141 99.3494 39.7931 100.5 41.6454" fill="#4DC26B"/>
<path d="M100.983 40.3737C100.983 40.3737 98.7732 22.7689 111.102 15.9824C123.17 9.34897 135.766 11.8609 140.237 17.1962C148.87 27.5078 146.723 34.7007 146.723 34.7007L103.585 44.0519L100.983 40.3737Z" fill="#263238"/>
<path d="M146.677 34.3099C146.677 34.2149 146.677 34.1146 146.677 34.0144C146.575 23.8399 137.645 15.4808 126.666 15.5705C126.136 15.5705 125.589 15.5705 125.037 15.6128C124.175 15.6498 123.316 15.7291 122.463 15.8502C112.93 17.2329 106.016 25.022 105.88 33.9616C105.772 41.2389 105.703 50.9278 106.068 53.8092C106.671 58.6009 106.512 60.3107 106.512 60.3107V71.4667C106.505 74.6207 107.808 77.6562 110.151 79.9436C112.494 82.231 115.698 83.5948 119.097 83.7521C120.86 83.8343 122.623 83.589 124.283 83.0308C125.942 82.4726 127.464 81.6127 128.76 80.5016C130.055 79.3905 131.098 78.0506 131.827 76.5607C132.556 75.0707 132.956 73.4608 133.004 71.8256L133.175 66.0787C141.369 65.2977 145.339 58.0837 146.125 49.3605C146.512 44.7113 146.751 44.363 146.677 34.3099Z" fill="#FFBE9D"/>
<path d="M110.245 40.2359C110.029 40.1409 101.538 37.5498 101.521 45.6714C101.504 53.7931 110.308 52.1255 110.319 51.8933C110.331 51.6611 110.245 40.2359 110.245 40.2359Z" fill="#FFBE9D"/>
<path d="M107.647 48.8114C107.613 48.7851 107.499 48.9117 107.237 49.0225C106.872 49.1587 106.464 49.1587 106.098 49.0225C105.17 48.7059 104.39 47.3391 104.356 45.8562C104.334 45.1608 104.482 44.4699 104.789 43.835C104.87 43.5821 105.016 43.3512 105.214 43.1619C105.412 42.9726 105.657 42.8306 105.928 42.7479C106.103 42.706 106.289 42.722 106.453 42.7933C106.617 42.8645 106.75 42.9866 106.827 43.1384C106.941 43.3653 106.884 43.5289 106.93 43.5395C106.975 43.55 107.124 43.4075 107.05 43.0698C107.006 42.8621 106.885 42.6751 106.708 42.5421C106.467 42.3726 106.164 42.2986 105.865 42.3363C105.505 42.4014 105.168 42.551 104.888 42.7709C104.608 42.9908 104.393 43.2736 104.265 43.5922C103.893 44.2961 103.712 45.073 103.735 45.8562C103.786 47.4921 104.686 49.0225 105.956 49.3656C106.191 49.429 106.439 49.4425 106.68 49.4051C106.922 49.3676 107.151 49.2802 107.351 49.1492C107.636 49.012 107.682 48.8484 107.647 48.8114Z" fill="#EB996E"/>
<path d="M142.834 36.991C142.589 37.2127 141.183 36.1783 139.133 36.1203C137.082 36.0622 135.539 36.9646 135.328 36.7271C135.22 36.6163 135.477 36.1994 136.149 35.7878C137.056 35.2453 138.122 34.9762 139.201 35.0173C140.268 35.0467 141.297 35.3906 142.139 35.9989C142.754 36.4686 142.954 36.8907 142.834 36.991Z" fill="#263238"/>
<path d="M123.67 37.2386C123.425 37.4602 122.013 36.4259 119.963 36.3678C117.912 36.3098 116.375 37.2122 116.158 36.9694C116.056 36.8639 116.307 36.4417 116.984 36.0353C117.892 35.4928 118.958 35.2237 120.037 35.2648C121.103 35.2961 122.132 35.6398 122.975 36.2464C123.584 36.7108 123.761 37.133 123.67 37.2386Z" fill="#263238"/>
<path d="M123.438 31.3018C123.256 31.782 121.536 31.7557 119.634 32.1567C117.732 32.5578 116.217 33.1647 115.768 32.8111C115.563 32.637 115.716 32.1937 116.286 31.6923C117.081 31.0455 118.048 30.6065 119.088 30.4205C120.155 30.1997 121.265 30.2287 122.317 30.5049C123.12 30.7371 123.512 31.0749 123.438 31.3018Z" fill="#263238"/>
<path d="M135.482 30.3782C136.052 29.8927 138.039 29.8505 139.97 30.2463C141.9 30.6421 143.028 31.3914 142.481 31.8769C141.935 32.3625 139.924 32.4047 137.994 32.0036C136.063 31.6025 134.936 30.8426 135.482 30.3782Z" fill="#263238"/>
<path d="M127.179 53.4397C127.179 53.5505 126.922 53.751 126.376 53.8038C125.649 53.8525 124.929 53.6452 124.36 53.2233C123.788 52.8023 123.413 52.194 123.312 51.524C123.249 51.0227 123.392 50.7218 123.517 50.7271C123.773 50.7271 123.955 51.809 124.952 52.5372C125.949 53.2655 127.179 53.2075 127.179 53.4397Z" fill="#263238"/>
<path d="M133.147 66.0787C133.147 66.0787 122.646 65.9837 120.215 64.2422C120.215 64.2422 121.923 68.9917 133.068 68.7648L133.147 66.0787Z" fill="#EB996E"/>
<path d="M137.246 40.9594C137.194 41.3816 137.321 41.806 137.601 42.1429C137.88 42.4797 138.29 42.7026 138.744 42.7642C139.189 42.8348 139.645 42.7396 140.015 42.4994C140.384 42.2591 140.635 41.8934 140.714 41.4819C140.768 41.0594 140.642 40.6343 140.362 40.2971C140.082 39.96 139.671 39.7374 139.217 39.677C138.772 39.6065 138.316 39.7017 137.946 39.9419C137.577 40.1821 137.326 40.5479 137.246 40.9594Z" fill="#263238"/>
<path d="M119.308 41.1595C119.254 41.5813 119.381 42.0058 119.661 42.3422C119.941 42.6785 120.352 42.8999 120.806 42.9591C121.026 42.9984 121.252 42.9964 121.472 42.9532C121.691 42.9099 121.899 42.8262 122.082 42.7071C122.266 42.5879 122.422 42.4358 122.541 42.2597C122.661 42.0836 122.74 41.8872 122.776 41.682C122.83 41.2603 122.704 40.8359 122.425 40.4989C122.147 40.1618 121.737 39.9388 121.284 39.8771C120.838 39.805 120.38 39.8995 120.01 40.1399C119.639 40.3803 119.387 40.7469 119.308 41.1595Z" fill="#263238"/>
<path d="M129.195 47.6078C129.229 47.4917 129.81 47.6078 130.681 47.497C130.917 47.4681 131.149 47.4204 131.376 47.3545C131.617 47.2903 131.849 47.1981 132.065 47.0801C132.139 47.0221 132.133 47.0062 132.133 46.9851C132.116 46.8954 132.085 46.8084 132.042 46.7265L131.626 45.8294C130.516 43.3702 129.793 41.3068 130.009 41.2224C130.226 41.138 131.302 43.0641 132.418 45.5233C132.555 45.8347 132.686 46.1355 132.817 46.4257C132.914 46.6243 132.959 46.8413 132.948 47.059C132.929 47.1866 132.881 47.3088 132.805 47.4165C132.729 47.5243 132.628 47.6149 132.509 47.6817C132.35 47.77 132.18 47.8391 132.002 47.8875C131.849 47.9297 131.695 47.9667 131.547 47.9931C131.273 48.0415 130.994 48.0627 130.715 48.0564C129.696 48.03 129.155 47.6923 129.195 47.6078Z" fill="#263238"/>
<path d="M90.4878 20.9954C91.6268 18.5626 93.227 16.1615 93.0904 13.5229C93.022 12.3355 92.7259 10.8843 93.7851 10.1982C94.1628 9.99514 94.5854 9.87424 95.0209 9.84467C101.031 9.05403 107.141 9.17881 113.107 10.2141C113.1 9.94907 113.132 9.68439 113.204 9.42778C113.386 8.88122 113.73 8.39321 114.197 8.01981C114.665 7.64642 115.237 7.40278 115.847 7.3169C116.351 7.25945 116.863 7.29615 117.352 7.42485C117.841 7.55354 118.297 7.77163 118.694 8.06626C122.918 3.90139 128.499 1.13546 134.582 0.192668C136.291 -0.0711927 138.181 -0.166182 139.708 0.588458C142.099 1.74944 142.965 4.46193 143.597 6.9211C143.848 7.871 144.081 8.937 143.546 9.78135C142.811 10.9318 141.086 11.0426 139.645 11.0162C133.111 10.8931 126.583 10.6908 120.061 10.4093L119.964 10.3355C119.952 10.4904 119.918 10.6431 119.861 10.7893L119.918 10.2985C119.809 10.8424 119.564 11.3549 119.202 11.7949C118.84 12.2348 118.371 12.5899 117.834 12.8316C117.274 13.0686 116.656 13.1632 116.044 13.1057C115.431 13.0482 114.846 12.8407 114.349 12.5044C114.236 12.4236 114.129 12.3354 114.03 12.2405C107.885 16.837 101.257 20.9426 93.9161 23.6287C92.6917 24.0773 90.9947 24.3517 90.317 23.3015C89.8728 22.5891 90.1632 21.7237 90.4878 20.9954Z" fill="#4DC26B"/>
<path d="M140.908 16.2039C136.051 12.742 127.503 11.0955 121.546 12.3673C115.589 13.6391 109.9 19.2963 107.361 24.4363C104.667 29.9088 104.992 36.2467 106.222 42.1572C106.421 43.1388 106.791 44.2681 107.833 44.5636C108.212 44.6349 108.606 44.6054 108.967 44.4784C109.329 44.3514 109.645 44.1321 109.878 43.8459C110.33 43.265 110.659 42.6095 110.846 41.9144C111.802 39.1386 112.752 36.3611 113.693 33.5817C114.166 32.2044 114.69 30.7584 115.857 29.8032C116.56 29.2975 117.324 28.8706 118.135 28.5314C120.626 27.2856 122.755 25.5007 124.341 23.3287C125.927 21.1567 126.924 18.6618 127.247 16.0561C127.534 17.7368 128.253 19.3289 129.343 20.6982C130.433 22.0676 131.863 23.1741 133.511 23.9244C135.464 24.8004 137.736 25.1804 139.325 26.563C141.363 28.3708 142.922 30.5905 143.881 33.0487C144.741 35.4973 146.159 39.0859 146.694 42.3999C146.928 40.2099 147.731 35.2335 147.964 33.0487C147.959 33.0171 149.388 22.2357 140.908 16.2039Z" fill="#263238"/>
<path d="M113.346 10.8951C113.345 11.0368 113.382 11.1765 113.454 11.3015C113.612 11.6594 113.848 11.9829 114.149 12.2514C114.594 12.6573 115.155 12.9373 115.766 13.0588C116.527 13.2025 117.319 13.0843 117.993 12.7263C118.674 12.3798 119.197 11.8179 119.468 11.1432C119.68 10.5966 119.719 10.0053 119.582 9.43862C119.494 9.05893 119.323 8.69981 119.08 8.38317C118.904 8.16153 118.773 8.07182 118.762 8.08237C119.056 8.50475 119.264 8.9733 119.377 9.46501C119.476 9.99649 119.421 10.5429 119.217 11.0482C118.947 11.6558 118.461 12.16 117.84 12.4775C117.219 12.795 116.499 12.907 115.8 12.7949C115.233 12.6913 114.706 12.449 114.274 12.0931C113.889 11.7492 113.574 11.3433 113.346 10.8951Z" fill="#263238"/>
<path d="M114.473 12.04C114.563 11.7875 114.628 11.5278 114.666 11.2643C114.83 10.6538 115.116 10.0773 115.509 9.565C115.908 9.0578 116.404 8.62307 116.973 8.28263C117.417 8.02404 117.724 7.90794 117.707 7.86572C117.41 7.88053 117.122 7.96594 116.87 8.11375C116.233 8.42043 115.685 8.86372 115.27 9.40669C114.849 9.94603 114.572 10.5699 114.461 11.2273C114.392 11.4949 114.396 11.7743 114.473 12.04Z" fill="#263238"/>
<path d="M113.473 8.92661C113.473 9.00577 113.974 8.96355 114.515 9.14825C115.056 9.33295 115.403 9.64431 115.472 9.59682C115.54 9.54932 115.25 9.10076 114.617 8.88967C113.985 8.67858 113.444 8.858 113.473 8.92661Z" fill="#263238"/>
<path d="M106.589 11.9928C107.117 11.9313 107.64 11.8379 108.155 11.7131C109.411 11.4756 110.684 11.3239 111.965 11.2592C113.242 11.1974 114.523 11.2203 115.797 11.3278C116.325 11.3978 116.858 11.4384 117.392 11.4492C116.886 11.2833 116.36 11.1769 115.826 11.1326C114.541 10.9668 113.242 10.9173 111.947 10.9848C110.652 11.0435 109.367 11.2203 108.109 11.5125C107.582 11.6115 107.071 11.7729 106.589 11.9928Z" fill="#263238"/>
<path d="M108.399 14.1875C108.849 14.0422 109.287 13.8658 109.708 13.6598C111.792 12.7743 113.992 12.1445 116.252 11.7863C116.729 11.739 117.201 11.6578 117.664 11.5436C117.183 11.5045 116.699 11.5223 116.223 11.5964C115.065 11.7212 113.921 11.9437 112.806 12.2613C111.697 12.5776 110.622 12.9893 109.595 13.4909C109.165 13.6734 108.763 13.9076 108.399 14.1875Z" fill="#263238"/>
<path d="M119.542 10.6942C119.648 10.7041 119.755 10.7041 119.861 10.6942H120.772L124.115 10.6467C126.963 10.6467 130.841 10.6467 135.14 10.8683L138.284 11.0372C139.263 11.1459 140.251 11.16 141.234 11.0794C141.694 11.0483 142.142 10.928 142.55 10.7262C142.957 10.5244 143.313 10.2456 143.597 9.90786C143.83 9.57804 143.956 9.19363 143.961 8.79965C143.971 8.44509 143.935 8.09076 143.853 7.7442C143.624 6.72951 143.335 5.72712 142.988 4.74148C142.862 4.39318 142.754 4.12404 142.674 3.9499C142.641 3.8562 142.593 3.76738 142.532 3.68604C142.548 3.78219 142.577 3.87614 142.617 3.96573C142.68 4.15043 142.771 4.42485 142.874 4.77314C143.084 5.47501 143.392 6.50406 143.648 7.78115C143.848 8.44974 143.756 9.1645 143.392 9.77065C143.125 10.0777 142.793 10.3301 142.415 10.5118C142.038 10.6935 141.624 10.8005 141.199 10.8261C140.233 10.8935 139.262 10.8723 138.301 10.7628C137.287 10.6994 136.234 10.6414 135.157 10.5886C130.846 10.3828 126.94 10.3775 124.115 10.4514C122.697 10.4831 121.558 10.5411 120.767 10.5833L119.861 10.6467C119.753 10.6479 119.645 10.6639 119.542 10.6942Z" fill="#263238"/>
<path d="M103.189 21.4445C103.419 21.3825 103.64 21.2975 103.85 21.1911C104.271 21.017 104.869 20.7479 105.598 20.3996C107.056 19.703 109.015 18.6739 111.139 17.4074C113.263 16.1408 115.063 14.8796 116.338 13.9244C116.982 13.4495 117.477 13.0537 117.83 12.7687C118.016 12.6301 118.187 12.4765 118.343 12.3096C118.138 12.4135 117.947 12.5392 117.773 12.6843L116.23 13.7714C114.92 14.6843 113.087 15.9139 110.997 17.1752C108.907 18.4364 106.948 19.4919 105.513 20.2307L103.804 21.0962C103.584 21.1882 103.378 21.3052 103.189 21.4445Z" fill="#263238"/>
<path d="M129.906 6.86288C129.374 6.75324 128.828 6.70713 128.283 6.72567C126.966 6.72455 125.654 6.87342 124.377 7.16895C123.099 7.46885 121.867 7.91561 120.709 8.49882C120.217 8.71578 119.761 8.99653 119.354 9.33262C119.354 9.36956 119.923 9.06876 120.806 8.66769C121.974 8.14643 123.195 7.73452 124.451 7.43809C125.708 7.14272 126.994 6.96591 128.289 6.91037C128.829 6.9237 129.369 6.90785 129.906 6.86288Z" fill="#263238"/>
<path opacity="0.3" d="M119.417 9.06863C120.294 7.96568 121.649 7.28492 122.971 6.66748C123.998 6.14996 125.087 5.74612 126.217 5.46426C127.352 5.17931 128.555 5.22537 129.662 5.59619C129.766 5.62301 129.863 5.66911 129.947 5.7317C130.031 5.79429 130.101 5.87207 130.152 5.96033C130.195 6.08784 130.184 6.22574 130.122 6.34621C130.059 6.46668 129.95 6.56075 129.816 6.60943C129.549 6.71011 129.261 6.75341 128.973 6.73608C125.646 6.80908 122.396 7.68197 119.542 9.26916" fill="black"/>
<path opacity="0.3" d="M117.46 11.5444C115.173 11.4027 112.875 11.5394 110.626 11.9507C109.803 12.0689 109.009 12.3208 108.28 12.6948C107.917 12.8866 107.604 13.1485 107.36 13.4627C107.116 13.7768 106.948 14.1359 106.868 14.5155C106.852 14.5707 106.85 14.6287 106.863 14.6846C106.876 14.7405 106.903 14.7929 106.942 14.8374C107.078 14.964 107.306 14.8743 107.471 14.7899C110.51 13.1539 113.861 12.0787 117.34 11.6235" fill="black"/>
<path d="M153.197 179.259L135.543 184.509C135.543 184.509 135.373 202.916 132.206 204.183L119.991 172.799L147.11 163.575L153.197 179.259Z" fill="#455A64"/>
<path d="M133.215 174.319C132.999 174.05 132.684 173.865 132.329 173.799C131.975 173.733 131.607 173.79 131.296 173.96C130.997 174.15 130.789 174.439 130.714 174.767C130.639 175.095 130.702 175.437 130.891 175.723C131.122 176.007 131.458 176.201 131.834 176.27C132.211 176.338 132.601 176.275 132.93 176.092C133.499 175.67 133.665 174.662 133.129 174.214" fill="#E0E0E0"/>
<path opacity="0.6" d="M119.974 172.8L122.753 171.971L133.442 202.368C133.442 202.368 133.334 203.983 132.207 204.183L119.974 172.8Z" fill="white"/>
<path d="M135.898 184.964C135.733 185.012 135.357 184.273 134.531 183.698C133.705 183.122 132.857 182.948 132.868 182.785C132.88 182.621 133.922 182.531 134.907 183.249C135.892 183.967 136.063 184.943 135.898 184.964Z" fill="#263238"/>
<path d="M135.722 188.742C135.579 188.832 135.038 188.262 134.133 187.977C133.228 187.692 132.425 187.787 132.385 187.634C132.345 187.481 133.228 187.069 134.344 187.444C135.46 187.819 135.87 188.695 135.722 188.742Z" fill="#263238"/>
<path d="M132.191 192.035C132.1 191.909 132.84 191.418 133.899 191.507C134.958 191.597 135.607 192.194 135.488 192.304C135.368 192.415 134.719 192.135 133.848 192.072C132.976 192.009 132.265 192.183 132.191 192.035Z" fill="#263238"/>
<path d="M139.78 183.349C139.603 183.349 139.558 182.557 139.159 181.713C138.761 180.868 138.203 180.293 138.311 180.166C138.419 180.04 139.262 180.488 139.723 181.491C140.184 182.494 139.939 183.38 139.78 183.349Z" fill="#263238"/>
<path d="M91.3161 181.274L108.97 186.525C108.97 186.525 109.146 204.932 112.307 206.198L124.551 174.815L97.3811 165.59L91.3161 181.274Z" fill="#455A64"/>
<path d="M111.305 176.335C111.521 176.066 111.838 175.881 112.193 175.814C112.548 175.748 112.917 175.806 113.229 175.977C113.526 176.168 113.732 176.457 113.806 176.785C113.88 177.112 113.816 177.454 113.628 177.739C113.398 178.024 113.062 178.219 112.685 178.288C112.309 178.356 111.918 178.292 111.589 178.109C111.02 177.686 110.855 176.678 111.39 176.23" fill="#E0E0E0"/>
<path opacity="0.6" d="M120.549 174.816L117.77 173.987L107.092 204.384C107.092 204.384 107.206 205.999 108.328 206.199L120.549 174.816Z" fill="white"/>
<path d="M108.622 186.98C108.793 187.027 109.163 186.288 109.989 185.713C110.814 185.138 111.663 184.964 111.657 184.8C111.652 184.637 110.598 184.547 109.613 185.265C108.628 185.982 108.457 186.959 108.622 186.98Z" fill="#263238"/>
<path d="M108.811 190.758C108.959 190.848 109.5 190.278 110.4 189.993C111.299 189.708 112.108 189.803 112.154 189.65C112.199 189.497 111.305 189.085 110.195 189.46C109.084 189.834 108.657 190.705 108.811 190.758Z" fill="#263238"/>
<path d="M112.335 194.051C112.421 193.924 111.68 193.433 110.627 193.523C109.573 193.613 108.918 194.209 109.044 194.32C109.169 194.431 109.812 194.151 110.678 194.088C111.544 194.024 112.255 194.199 112.335 194.051Z" fill="#263238"/>
<path d="M104.738 185.365C104.914 185.365 104.96 184.573 105.358 183.729C105.757 182.884 106.321 182.309 106.207 182.183C106.093 182.056 105.256 182.504 104.8 183.507C104.345 184.51 104.578 185.396 104.738 185.365Z" fill="#263238"/>
<path d="M145.521 143.247C146.176 143.247 184.046 135.859 187.845 135.69C191.643 135.522 201.285 138.698 201.939 146.43C202.594 154.161 202.469 159.623 196.416 163.274C190.362 166.926 142.788 188.42 142.788 188.42L136.586 170.478L126.905 173.839L117.862 144.92L145.521 143.247Z" fill="#263238"/>
<path d="M148.688 162.361C148.821 162.306 148.95 162.245 149.075 162.177L150.169 161.607C151.108 161.079 152.447 160.361 154.127 159.422C158.494 157.019 162.608 154.241 166.416 151.126C168.631 149.295 170.818 147.633 172.817 146.134C173.819 145.385 174.759 144.662 175.664 144.023C176.515 143.438 177.41 142.909 178.341 142.44C179.684 141.76 181.124 141.259 182.617 140.952C183.147 140.846 183.568 140.788 183.853 140.756C183.997 140.748 184.14 140.727 184.28 140.693C184.134 140.684 183.988 140.684 183.842 140.693C183.425 140.715 183.01 140.763 182.6 140.836C181.08 141.104 179.611 141.583 178.244 142.255C177.298 142.712 176.388 143.23 175.522 143.807C174.582 144.429 173.642 145.147 172.634 145.886C170.624 147.379 168.426 149.052 166.211 150.873C162.411 153.974 158.328 156.764 154.007 159.211L150.095 161.464L149.035 162.082C148.907 162.161 148.791 162.255 148.688 162.361Z" fill="#455A64"/>
<path d="M176.724 139.464C176.278 139.666 175.864 139.923 175.493 140.229C174.551 140.92 173.726 141.739 173.045 142.657C172.365 143.579 171.867 144.607 171.575 145.691C171.432 146.134 171.363 146.595 171.37 147.058C171.479 147.089 171.712 144.947 173.29 142.836C174.867 140.725 176.798 139.543 176.724 139.464Z" fill="#455A64"/>
<path d="M112.569 143.559C111.914 143.559 74.0442 136.171 70.2515 135.996C66.4588 135.822 56.8062 139.01 56.1513 146.741C55.4964 154.472 55.6273 159.934 61.6752 163.586C67.723 167.238 115.308 188.726 115.308 188.726L121.51 170.784L131.191 174.145L140.234 145.226L112.569 143.559Z" fill="#263238"/>
<path d="M109.413 162.672C109.303 162.584 109.182 162.506 109.054 162.44L107.989 161.823L104.077 159.564C99.7539 157.121 95.6703 154.331 91.8732 151.226C89.6522 149.384 87.4541 147.727 85.4495 146.239C84.4415 145.5 83.4962 144.777 82.5623 144.155C81.6917 143.583 80.7803 143.066 79.8345 142.608C78.4689 141.936 77.0023 141.458 75.4837 141.189C75.0717 141.116 74.6551 141.069 74.2365 141.046C74.0907 141.033 73.9438 141.033 73.798 141.046C73.9397 141.08 74.0847 141.102 74.2308 141.11C74.5155 141.141 74.9313 141.199 75.4609 141.305C76.9542 141.612 78.3937 142.111 79.7377 142.788C80.6673 143.259 81.5616 143.788 82.4142 144.371C83.3367 144.994 84.2707 145.722 85.2616 146.482C87.2547 147.986 89.4472 149.648 91.6568 151.474C95.463 154.592 99.5776 157.372 103.946 159.775C105.603 160.715 106.964 161.453 107.932 161.955L109.02 162.53C109.147 162.586 109.279 162.633 109.413 162.672Z" fill="#455A64"/>
<path d="M81.3718 139.775C81.2921 139.854 83.2454 141.01 84.7886 143.121C86.3319 145.232 86.5996 147.401 86.7078 147.342C86.719 146.882 86.6518 146.422 86.5085 145.981C86.2127 144.898 85.7156 143.871 85.0392 142.947C84.3567 142.03 83.5315 141.212 82.5905 140.519C82.2243 140.219 81.814 139.968 81.3718 139.775Z" fill="#455A64"/>
<path d="M154.747 77.2347L174.633 105.637C174.633 105.637 185.601 110.84 186.939 117.774C188.277 124.708 188.545 129.674 184.798 131.907C184.118 132.286 183.384 132.573 182.617 132.762C179.502 133.567 176.19 133.424 173.17 132.353C170.149 131.282 167.58 129.34 165.84 126.814L151.632 106.518L146.996 73.4668C146.996 73.4668 151.034 73.4721 154.747 77.2347Z" fill="#4DC26B"/>
<path d="M173.425 119.642H176.779C176.779 119.642 184.137 122.217 183.613 128.159C183.613 128.159 182.542 132.202 175.572 131.489L166.591 129.109L165.481 120.26L173.425 119.642Z" fill="#FFBE9D"/>
<path d="M86.9106 75.4349L102.691 67.4399C102.691 67.4399 111.073 75.8835 122.127 75.6407C133.18 75.398 135.322 69.5878 135.322 69.5878L149.433 73.9362L151.62 106.523C151.62 106.523 151.552 144.281 151.022 144.281C150.493 144.281 92.537 145.421 92.537 145.421L93.3228 120.196L86.9106 75.4349Z" fill="#4DC26B"/>
<path d="M96.644 75.0605C96.644 75.0605 89.3946 77.7994 84.9128 89.3671C83.1588 93.8896 73.8023 111.816 69.9697 119.115C68.423 121.985 67.8285 125.215 68.2613 128.397C68.4777 129.859 68.9162 131.231 69.7647 132.091C71.5757 133.896 90.5905 140.007 90.5905 140.007L98.2214 128.835L92.1964 124.746L100.915 110.497C100.915 110.497 100.442 93.9002 100.038 89.2668C99.6337 84.6334 96.644 75.0605 96.644 75.0605Z" fill="#4DC26B"/>
<path d="M152.851 85.1768C152.771 85.1768 152.321 92.5649 151.843 101.679C151.364 110.792 151.051 118.186 151.131 118.191C151.211 118.196 151.666 110.803 152.139 101.689C152.611 92.5754 152.936 85.182 152.851 85.1768Z" fill="#263238"/>
<path d="M96.6457 83.9634C96.566 83.9634 97.7847 91.9162 99.3109 101.695C100.837 111.473 102.187 119.395 102.272 119.384C102.358 119.373 101.133 111.437 99.607 101.653C98.0808 91.8687 96.7312 83.9528 96.6457 83.9634Z" fill="#263238"/>
<path d="M166.774 113.167C166.848 113.22 168.09 111.668 170.043 110.154C171.997 108.639 173.842 107.758 173.796 107.679C173.36 107.805 172.942 107.982 172.555 108.206C171.596 108.708 170.691 109.291 169.85 109.948C169.009 110.604 168.236 111.332 167.543 112.122C167.237 112.437 166.979 112.788 166.774 113.167Z" fill="#263238"/>
<path d="M78.7755 121.036C78.7755 121.083 79.5899 120.967 80.894 120.962C82.5955 120.951 84.2902 121.163 85.9282 121.59C87.5618 122.028 89.1219 122.675 90.5637 123.511C91.6685 124.154 92.2722 124.645 92.3234 124.608C92.3747 124.571 92.1924 124.461 91.9134 124.234C91.5244 123.912 91.1115 123.615 90.6776 123.347C87.7985 121.534 84.3659 120.63 80.8883 120.766C80.3669 120.78 79.8472 120.83 79.3336 120.914C79.1419 120.927 78.9536 120.968 78.7755 121.036Z" fill="#263238"/>
<path d="M81.5086 116.397C81.5086 116.445 82.2888 116.609 83.5017 117.052C84.2066 117.313 84.8916 117.618 85.5518 117.965C86.3513 118.398 87.1129 118.888 87.8297 119.432C89.1373 120.428 90.2723 121.605 91.1953 122.92C91.9015 123.933 92.2261 124.625 92.2773 124.604C92.2367 124.429 92.1716 124.261 92.0837 124.102C91.8811 123.659 91.6431 123.23 91.3719 122.82C90.9779 122.203 90.5303 121.617 90.0336 121.068C89.4194 120.399 88.745 119.779 88.0177 119.215C87.2805 118.665 86.4936 118.174 85.6657 117.748C84.9887 117.403 84.282 117.11 83.553 116.872C83.065 116.705 82.5644 116.571 82.0553 116.471C81.8773 116.425 81.6935 116.4 81.5086 116.397Z" fill="#263238"/>
<path opacity="0.3" d="M101.02 110.518C98.4113 108.302 97.1812 104.961 96.9477 101.689C96.7142 98.4174 97.3805 95.1561 98.0411 91.937" fill="black"/>
<path opacity="0.3" d="M92.2871 124.518C90.7993 122.49 88.5912 121.01 86.0471 120.335C83.503 119.66 80.784 119.833 78.3635 120.824C83.2888 120.282 88.2452 121.572 92.1447 124.413" fill="black"/>
<path opacity="0.3" d="M166.474 113.258C166.673 112.081 167.186 110.969 167.967 110.022C168.748 109.076 169.771 108.325 170.944 107.838C171.61 107.569 172.51 107.437 172.96 107.97C170.389 109.358 168.175 111.249 166.474 113.511" fill="black"/>
<path d="M184.445 122.878C184.433 122.722 184.388 122.57 184.314 122.429C184.144 122.036 183.91 121.669 183.62 121.342C182.626 120.272 181.275 119.54 179.781 119.263C178.309 119.011 176.801 118.995 175.322 119.215C174.753 119.289 174.303 119.363 173.99 119.421C173.825 119.441 173.664 119.482 173.511 119.542C174.125 119.534 174.738 119.488 175.345 119.405C176.802 119.248 178.275 119.29 179.719 119.532C181.154 119.799 182.462 120.477 183.46 121.469C183.842 121.904 184.172 122.377 184.445 122.878Z" fill="#263238"/>
<path d="M120.806 98.7016C120.957 97.001 121.511 95.3523 122.43 93.8735C123.348 92.3946 124.608 91.1222 126.119 90.1472C127.246 89.3747 128.579 88.9037 129.975 88.7857C130.672 88.7318 131.373 88.8318 132.021 89.0777C132.668 89.3235 133.243 89.7082 133.699 90.2C134.975 91.7093 134.565 94.0418 133.215 95.4772C131.865 96.9126 129.798 97.6725 127.794 98.0841C125.789 98.4957 123.676 98.6382 121.695 99.1976C123.933 99.6884 126.216 100.2 128.147 101.351C130.077 102.501 131.626 104.438 131.598 106.57C131.569 108.702 129.496 110.792 127.219 110.507C125.476 110.29 124.195 108.887 123.329 107.467C121.629 104.81 120.756 101.769 120.806 98.6804" fill="#FAFAFA"/>
<path d="M120.807 98.7021C120.732 99.5683 120.766 100.44 120.909 101.298C121.279 103.654 122.16 105.916 123.5 107.948C123.943 108.631 124.5 109.244 125.152 109.763C125.873 110.345 126.798 110.664 127.754 110.66C128.781 110.604 129.741 110.173 130.425 109.462C131.176 108.735 131.632 107.79 131.718 106.787C131.77 105.737 131.482 104.697 130.892 103.8C130.292 102.868 129.484 102.066 128.523 101.446C126.558 100.174 124.132 99.6098 121.729 99.082V99.3512C122.054 99.2615 122.407 99.1665 122.771 99.0926C125.226 98.5649 127.766 98.4593 130.044 97.6255C131.173 97.2379 132.2 96.6316 133.056 95.8471C133.869 95.069 134.391 94.0704 134.548 92.9974C134.638 92.4871 134.614 91.9651 134.477 91.4639C134.34 90.9627 134.093 90.4931 133.751 90.0844C133.064 89.3421 132.108 88.8579 131.063 88.7229C130.103 88.6009 129.124 88.7006 128.216 89.0131C127.383 89.296 126.598 89.6888 125.886 90.1794C124.66 91.0031 123.606 92.0279 122.777 93.2032C122.154 94.0903 121.662 95.0505 121.314 96.0582C121.095 96.6945 120.941 97.3482 120.852 98.0108C120.824 98.2377 120.812 98.4118 120.807 98.5385C120.798 98.5962 120.798 98.6549 120.807 98.7126C120.826 98.6562 120.838 98.5977 120.841 98.5385C120.841 98.4118 120.886 98.243 120.915 98.0108C121.031 97.359 121.203 96.7168 121.427 96.0898C121.793 95.1003 122.294 94.1585 122.919 93.2876C123.75 92.1352 124.8 91.1321 126.017 90.3271C126.716 89.8561 127.483 89.4794 128.295 89.2084C129.17 88.9104 130.112 88.8197 131.034 88.9445C132.018 89.0757 132.916 89.5332 133.563 90.2321C133.878 90.617 134.106 91.0575 134.231 91.5266C134.356 91.9958 134.377 92.4837 134.292 92.9605C134.137 93.9774 133.637 94.9222 132.862 95.6571C132.034 96.4142 131.04 96.9973 129.947 97.3669C127.726 98.1849 125.209 98.2904 122.714 98.8182C122.344 98.8973 121.986 98.987 121.65 99.082L121.114 99.2245L121.684 99.3459C124.087 99.8736 126.473 100.433 128.381 101.663C129.303 102.26 130.08 103.032 130.659 103.927C131.221 104.779 131.497 105.767 131.45 106.766C131.308 108.687 129.605 110.365 127.749 110.433C126.849 110.439 125.979 110.14 125.3 109.594C124.661 109.094 124.115 108.5 123.683 107.837C122.341 105.833 121.437 103.604 121.023 101.277C120.922 100.644 120.859 100.007 120.835 99.367C120.835 99.1612 120.835 98.9976 120.835 98.8709C120.83 98.8141 120.821 98.7576 120.807 98.7021Z" fill="#263238"/>
<path d="M119.497 98.7016C119.346 97.001 118.792 95.3523 117.873 93.8735C116.955 92.3946 115.695 91.1222 114.184 90.1472C113.057 89.3747 111.724 88.9037 110.328 88.7857C109.631 88.7318 108.93 88.8318 108.283 89.0777C107.635 89.3235 107.06 89.7082 106.604 90.2C105.328 91.7093 105.738 94.0418 107.088 95.4772C108.438 96.9126 110.505 97.6725 112.509 98.0841C114.514 98.4957 116.627 98.6382 118.609 99.1976C116.371 99.6884 114.087 100.2 112.156 101.351C110.226 102.501 108.677 104.438 108.705 106.57C108.734 108.702 110.807 110.792 113.085 110.507C114.827 110.29 116.109 108.887 116.974 107.467C118.674 104.81 119.548 101.769 119.497 98.6804" fill="#FAFAFA"/>
<path d="M119.497 98.7027C119.492 98.7606 119.492 98.8188 119.497 98.8768C119.497 99.0034 119.497 99.167 119.497 99.3729C119.473 100.013 119.408 100.651 119.303 101.283C118.894 103.611 117.992 105.84 116.649 107.843C116.217 108.506 115.671 109.1 115.032 109.6C114.353 110.146 113.482 110.444 112.583 110.439C110.727 110.371 109.018 108.692 108.882 106.772C108.835 105.773 109.11 104.785 109.673 103.932C110.252 103.038 111.028 102.266 111.951 101.668C113.859 100.439 116.245 99.8742 118.648 99.3518L119.218 99.2304L118.682 99.0879C118.346 98.9929 117.987 98.9032 117.617 98.824C115.123 98.2963 112.606 98.1908 110.385 97.3728C109.291 97.0045 108.297 96.4212 107.469 95.663C106.695 94.928 106.194 93.9833 106.04 92.9663C105.955 92.4895 105.975 92.0016 106.101 91.5325C106.226 91.0634 106.453 90.6229 106.769 90.238C107.415 89.5391 108.314 89.0815 109.297 88.9504C110.22 88.8256 111.161 88.9163 112.036 89.2142C112.849 89.4852 113.616 89.8619 114.314 90.333C115.532 91.138 116.581 92.1411 117.412 93.2935C118.037 94.1644 118.539 95.1062 118.904 96.0957C119.129 96.7226 119.3 97.3649 119.417 98.0166C119.445 98.233 119.474 98.4019 119.491 98.5443C119.494 98.6035 119.506 98.6621 119.525 98.7185C119.534 98.6607 119.534 98.6021 119.525 98.5443C119.525 98.4282 119.525 98.2541 119.479 98.0166C119.391 97.354 119.236 96.7004 119.018 96.064C118.67 95.0563 118.177 94.0962 117.555 93.2091C116.725 92.0325 115.669 91.0074 114.44 90.1852C113.73 89.6939 112.948 89.301 112.116 89.019C111.207 88.7065 110.229 88.6068 109.269 88.7287C108.224 88.8637 107.268 89.3479 106.581 90.0902C106.239 90.499 105.992 90.9686 105.855 91.4698C105.718 91.971 105.693 92.493 105.784 93.0033C105.94 94.0763 106.463 95.0748 107.276 95.853C108.132 96.6375 109.159 97.2438 110.288 97.6314C112.566 98.4652 115.106 98.5707 117.56 99.0984C117.925 99.1723 118.278 99.2673 118.603 99.357V99.0879C116.199 99.6156 113.773 100.18 111.809 101.452C110.847 102.073 110.038 102.875 109.434 103.806C108.848 104.704 108.563 105.744 108.614 106.793C108.699 107.796 109.156 108.741 109.907 109.468C110.591 110.179 111.551 110.61 112.577 110.666C113.534 110.67 114.459 110.351 115.18 109.769C115.831 109.251 116.387 108.638 116.826 107.954C118.169 105.924 119.053 103.661 119.423 101.304C119.557 100.443 119.582 99.5696 119.497 98.7027Z" fill="#263238"/>
<path d="M120.15 107.732C120.321 107.73 120.483 107.667 120.604 107.555C120.724 107.444 120.792 107.293 120.794 107.135V95.6573C120.794 95.4986 120.726 95.3464 120.606 95.2337C120.485 95.121 120.322 95.0571 120.15 95.0557C119.979 95.0571 119.816 95.121 119.695 95.2337C119.575 95.3464 119.507 95.4986 119.507 95.6573V107.135C119.508 107.293 119.577 107.444 119.697 107.555C119.817 107.667 119.98 107.73 120.15 107.732Z" fill="#263238"/>
<path d="M120.152 107.742C120.326 107.742 120.493 107.679 120.617 107.565C120.741 107.451 120.811 107.297 120.812 107.136V95.6576C120.812 95.4952 120.743 95.3395 120.619 95.2247C120.495 95.1099 120.327 95.0454 120.152 95.0454C119.977 95.0454 119.809 95.1099 119.685 95.2247C119.561 95.3395 119.491 95.4952 119.491 95.6576V107.136C119.493 107.297 119.563 107.451 119.687 107.565C119.811 107.679 119.978 107.742 120.152 107.742ZM120.152 95.0771C120.32 95.0771 120.48 95.1388 120.599 95.2486C120.717 95.3585 120.784 95.5075 120.784 95.6628V107.141C120.784 107.296 120.717 107.445 120.599 107.555C120.48 107.665 120.32 107.727 120.152 107.727C119.984 107.727 119.823 107.665 119.705 107.555C119.586 107.445 119.52 107.296 119.52 107.141V95.6576C119.52 95.5022 119.586 95.3532 119.705 95.2434C119.823 95.1335 119.984 95.0718 120.152 95.0718V95.0771Z" fill="#263238"/>
<path d="M123.692 88.9238C123.332 89.1781 123.019 89.4846 122.764 89.8315C122.095 90.6357 121.552 91.5242 121.153 92.4701C120.751 93.4087 120.492 94.3944 120.384 95.399C120.313 95.8115 120.313 96.2319 120.384 96.6444C120.65 93.8325 121.798 91.1543 123.687 88.9397L123.692 88.9238Z" fill="#263238"/>
<path d="M116.649 88.9814C117.457 90.0368 118.169 91.1524 118.779 92.3167C119.293 93.5147 119.699 94.7503 119.992 96.0107C120.032 95.6258 120.005 95.2374 119.912 94.8603C119.578 93.016 118.752 91.2782 117.509 89.8047C117.272 89.4888 116.982 89.2107 116.649 88.9814Z" fill="#263238"/>
<path d="M120.492 99.8368C120.538 99.8368 120.834 99.3091 121.426 98.4858C122.985 96.3439 125.153 94.6435 127.69 93.5727C128.664 93.1664 129.302 92.9922 129.285 92.9447C129.268 92.8972 129.12 92.9447 128.824 93.0239C128.411 93.1222 128.006 93.2456 127.611 93.3933C124.97 94.3841 122.741 96.1316 121.25 98.3803C121.025 98.7193 120.825 99.0719 120.652 99.4357C120.577 99.5611 120.523 99.6964 120.492 99.8368Z" fill="#263238"/>
<path d="M120.448 98.7183C120.656 99.2059 120.924 99.6698 121.246 100.101C121.956 101.175 122.742 102.204 123.598 103.183C124.451 104.165 125.373 105.095 126.359 105.964C126.749 106.343 127.18 106.682 127.646 106.977C127.3 106.567 126.919 106.182 126.508 105.827C125.79 105.13 124.828 104.154 123.831 103.014C122.834 101.874 122.003 100.792 121.422 99.9954C121.131 99.5489 120.805 99.1221 120.448 98.7183Z" fill="#263238"/>
<path d="M113.135 93.5732C113.529 93.868 113.943 94.1377 114.376 94.3807C115.383 95.0143 116.335 95.7201 117.224 96.4915C118.11 97.261 118.934 98.09 119.689 98.9718C119.978 99.3568 120.294 99.7235 120.635 100.069C120.434 99.6345 120.172 99.2263 119.855 98.8557C119.14 97.928 118.327 97.0688 117.429 96.291C116.53 95.51 115.547 94.8168 114.496 94.2223C114.073 93.9539 113.616 93.7358 113.135 93.5732Z" fill="#263238"/>
<path d="M113.209 106.739C113.686 106.527 114.13 106.257 114.531 105.937C116.537 104.468 118.139 102.58 119.206 100.428C119.453 99.9938 119.633 99.5302 119.741 99.0503C119.472 99.4675 119.231 99.8992 119.018 100.343C117.856 102.415 116.279 104.264 114.371 105.789C113.964 106.085 113.576 106.402 113.209 106.739Z" fill="#263238"/>
<path d="M104.815 114.059C104.815 114.138 111.393 114.196 119.508 114.196C127.623 114.196 134.2 114.138 134.2 114.059C134.2 113.98 127.623 113.922 119.508 113.922C111.393 113.922 104.815 113.985 104.815 114.059Z" fill="#263238"/>
<path d="M146.359 46.6372C149.656 52.1202 143.83 59.4397 146.871 65.0494C147.737 66.6325 149.314 68.0415 149.303 69.8305C149.291 71.6195 147.743 73.1129 147.999 74.828C148.198 76.1473 149.4 77.1131 150.163 78.2424C151.672 80.4588 151.427 83.4615 149.998 85.7255C149.091 87.1809 147.761 88.371 146.16 89.1603C144.559 89.9495 142.751 90.3062 140.942 90.1896C139.133 90.0729 137.395 89.4878 135.927 88.5007C134.46 87.5137 133.321 86.1644 132.64 84.6067C131.387 81.7834 132.304 78.6435 132.446 75.5932C132.589 72.4586 133.067 68.7645 133.147 66.0943C133.147 66.0943 142.378 65.1919 144.946 55.3815C145.523 53.2277 145.925 51.0368 146.148 48.8273C146.342 47.128 146.359 46.6372 146.359 46.6372Z" fill="#263238"/>
<path d="M98.0926 129.004L110.279 132.925L108.383 136.783L103.73 142.392L91.219 139.104L98.0926 129.004Z" fill="#FFBE9D"/>
<path d="M116.033 137.072L130.68 119.985H171.363L135.56 162.039L97.6276 158.825L116.033 137.072Z" fill="#455A64"/>
<path d="M171.109 120.286L173.66 123.416L136.997 165.913L102.083 162.789L99.5144 158.984L135.562 162.039L171.109 120.286Z" fill="#E0E0E0"/>
<path d="M126.222 124.877C126.015 124.564 125.854 124.227 125.744 123.874C125.639 123.493 125.639 123.094 125.744 122.713C125.896 122.261 126.197 121.865 126.606 121.58C127.015 121.296 127.51 121.139 128.021 121.13C128.445 121.129 128.862 121.227 129.234 121.415C129.57 121.613 129.878 121.849 130.151 122.117C130.18 122.117 130.009 121.658 129.337 121.251C128.899 120.988 128.383 120.858 127.862 120.879C127.34 120.899 126.839 121.07 126.427 121.368C125.963 121.689 125.63 122.147 125.482 122.666C125.372 123.085 125.386 123.525 125.521 123.938C125.621 124.321 125.87 124.655 126.222 124.877Z" fill="#263238"/>
<path d="M124.212 126.745C124.005 126.429 123.843 126.091 123.728 125.737C123.623 125.358 123.623 124.96 123.728 124.581C123.874 124.125 124.173 123.724 124.582 123.436C124.992 123.148 125.491 122.987 126.006 122.977C126.428 122.98 126.842 123.08 127.213 123.267C127.55 123.464 127.858 123.7 128.13 123.969C127.987 123.595 127.699 123.285 127.321 123.098C126.935 122.877 126.494 122.75 126.04 122.729C125.635 122.721 125.234 122.802 124.869 122.966C124.505 123.129 124.187 123.37 123.943 123.67C123.698 123.969 123.534 124.317 123.463 124.687C123.392 125.056 123.416 125.436 123.534 125.795C123.625 126.179 123.867 126.517 124.212 126.745Z" fill="#263238"/>
<path d="M122.196 128.613C121.991 128.297 121.829 127.958 121.712 127.605C121.61 127.226 121.61 126.829 121.712 126.449C121.865 125.998 122.167 125.602 122.576 125.318C122.984 125.034 123.479 124.876 123.99 124.866C124.412 124.869 124.827 124.969 125.197 125.157C125.536 125.351 125.844 125.587 126.114 125.858C126.143 125.858 125.972 125.394 125.306 124.988C124.964 124.789 124.576 124.668 124.174 124.634C123.772 124.6 123.367 124.654 122.992 124.791C122.617 124.929 122.282 125.147 122.014 125.426C121.746 125.706 121.553 126.04 121.45 126.402C121.338 126.823 121.352 127.265 121.49 127.679C121.592 128.061 121.844 128.394 122.196 128.613Z" fill="#263238"/>
<path d="M120.18 130.477C119.972 130.163 119.81 129.826 119.696 129.474C119.591 129.093 119.591 128.694 119.696 128.313C119.848 127.861 120.15 127.465 120.558 127.18C120.967 126.896 121.463 126.739 121.974 126.73C122.397 126.729 122.814 126.827 123.187 127.015C123.522 127.213 123.83 127.449 124.103 127.717C124.132 127.717 123.961 127.258 123.289 126.851C122.947 126.654 122.559 126.534 122.158 126.5C121.756 126.467 121.352 126.521 120.977 126.659C120.602 126.796 120.267 127.013 119.999 127.292C119.731 127.571 119.538 127.905 119.434 128.266C119.325 128.685 119.338 129.124 119.474 129.538C119.574 129.921 119.826 130.256 120.18 130.477Z" fill="#263238"/>
<path d="M127.856 167.095C127.856 166.752 150.327 141.384 157.873 131.7L156.689 129.004L120.185 125.837L117.042 126.735L90.4015 163.094L127.856 167.095Z" fill="#263238"/>
<path d="M173.96 121.901C173.96 121.901 173.926 121.758 173.875 121.521C173.561 120.154 172.474 115.552 171.819 115.083C171.05 114.529 168.311 113.737 168.311 113.737H166.944C166.944 113.737 162.326 110.645 161.386 110.645C160.446 110.645 158.299 111.109 158.129 112.138C158.021 112.617 157.998 113.109 158.06 113.595C158.06 113.595 155.053 113.098 154.455 114.449C154.455 114.449 152.138 115.004 151.608 116.824C151.078 118.645 151.01 123.484 151.01 123.484C151.01 123.484 152.149 124.513 152.981 123.959C153.023 124.096 153.094 124.223 153.191 124.334C153.287 124.444 153.407 124.535 153.543 124.602C153.678 124.668 153.827 124.709 153.98 124.721C154.133 124.733 154.287 124.716 154.433 124.671C155.082 124.502 155.666 124.168 156.12 123.706C156.574 123.244 156.879 122.674 157.001 122.059C157.086 120.946 157.428 119.046 157.428 119.046L158.111 119.442C158.111 119.442 157.941 121.104 159.564 121.183C161.187 121.262 161.238 120.281 161.238 120.281L171.113 120.233L172.491 121.816L173.96 121.901Z" fill="#FFBE9D"/>
<path d="M157.998 112.766C157.873 113.944 157.844 115.13 157.913 116.312C157.885 117.496 157.958 118.68 158.129 119.853C158.255 118.675 158.283 117.49 158.215 116.307C158.242 115.123 158.17 113.939 157.998 112.766Z" fill="#EB996E"/>
<path d="M154.746 114.059C154.746 114.059 154.626 114.159 154.467 114.376C154.244 114.682 154.053 115.007 153.897 115.347C153.408 116.471 153.088 117.651 152.946 118.856C152.787 120.055 152.749 121.265 152.832 122.471C152.844 122.973 152.924 123.471 153.072 123.954C153.094 123.456 153.085 122.957 153.043 122.46C153.019 121.268 153.086 120.076 153.242 118.893C153.382 117.708 153.667 116.541 154.091 115.415C154.438 114.56 154.786 114.091 154.746 114.059Z" fill="#EB996E"/>
<path d="M163.397 116.323C162.879 115.737 162.308 115.193 161.689 114.697L161.427 114.47L161.467 114.803C161.518 115.299 161.558 115.858 161.575 116.47C161.643 118.645 161.29 120.397 161.381 120.407C161.544 120.046 161.644 119.663 161.678 119.273C161.836 118.342 161.901 117.401 161.871 116.46C161.856 115.895 161.809 115.331 161.729 114.771L161.507 114.877C162.091 115.408 162.724 115.892 163.397 116.323Z" fill="#EB996E"/>
<path d="M169.319 117.136C169.319 117.136 169.319 117.083 169.268 116.993C169.221 116.933 169.161 116.882 169.091 116.845C169.021 116.808 168.944 116.785 168.864 116.777C168.736 116.761 168.607 116.773 168.485 116.812C168.364 116.85 168.254 116.914 168.163 116.999C167.952 117.237 167.833 117.534 167.827 117.843C167.799 118.17 167.827 118.518 167.827 118.898C167.831 119.273 167.714 119.641 167.491 119.954C167.361 120.11 167.182 120.226 166.978 120.285C166.774 120.345 166.556 120.345 166.352 120.286C166.129 120.242 165.925 120.135 165.77 119.979C165.615 119.823 165.516 119.626 165.487 119.416C165.35 117.537 164.849 115.653 165.726 114.64C165.874 114.442 166.072 114.281 166.302 114.17C166.532 114.059 166.788 114.001 167.047 114.001C167.241 114.012 167.432 114.046 167.617 114.101C167.617 114.101 167.582 114.054 167.491 114.012C167.356 113.945 167.206 113.905 167.053 113.896C166.767 113.875 166.48 113.921 166.218 114.029C165.956 114.138 165.728 114.306 165.555 114.518C165.074 115.158 164.86 115.938 164.951 116.714C165.008 117.574 165.082 118.471 165.196 119.463C165.234 119.73 165.362 119.979 165.561 120.175C165.755 120.356 165.999 120.484 166.265 120.546C166.532 120.609 166.812 120.603 167.076 120.529C167.327 120.452 167.546 120.304 167.702 120.107C167.95 119.749 168.075 119.329 168.061 118.904C168.061 118.518 168.027 118.17 168.061 117.848C168.055 117.578 168.143 117.314 168.311 117.094C168.383 117.02 168.471 116.963 168.57 116.927C168.668 116.89 168.775 116.875 168.881 116.883C168.97 116.89 169.057 116.916 169.133 116.96C169.209 117.004 169.273 117.065 169.319 117.136Z" fill="#EB996E"/>
<path d="M138.511 186.499C140.219 185.301 141.774 183.782 143.784 183.037C145.948 182.235 152.833 182.04 155.02 181.291C159.074 179.903 158.038 176.452 156.056 171.829C154.462 168.108 152.281 164.578 148.687 162.361L153.727 155.448C157.559 161.116 160.815 167.102 163.454 173.327C164.644 176.119 165.732 179.132 164.969 182.061C164.553 183.565 163.682 184.927 162.458 185.986C161.234 187.046 159.708 187.758 158.061 188.04C154.513 188.568 150.732 187.059 147.349 188.183C145.68 188.71 144.331 189.866 142.884 190.821C138.747 193.495 133.699 194.677 128.687 194.146C126.819 193.94 124.598 193.117 124.422 191.381C129.359 190.357 134.467 189.302 138.511 186.499Z" fill="#4DC26B"/>
<path opacity="0.3" d="M148.818 182.204C149.536 182.172 150.851 181.961 152.286 181.808C155.134 181.512 157.218 180.753 157.674 178.716C158.403 175.401 154.257 168.261 154.257 168.261C154.257 168.261 150.14 162.794 148.562 162.456L152.845 158.087C155.907 162.241 158.324 166.772 160.026 171.549C160.658 173.142 161.042 174.811 161.165 176.504C161.279 178.21 160.776 179.902 159.735 181.312C157.901 183.613 154.473 183.771 151.444 184.283C148.887 184.716 147.856 184.515 144.804 185.724C141.888 186.879 139.394 188.964 136.603 190.315C136.603 190.315 130.39 193.703 125.47 193.027C125.47 193.027 124.371 192.151 124.439 191.37C124.439 191.37 131.968 189.787 133.579 189.027C135.191 188.267 137.566 187.275 139.433 185.861C141.301 184.447 142.622 182.457 148.818 182.204Z" fill="black"/>
<path d="M125.47 193.001C125.672 193.064 125.879 193.108 126.091 193.133C126.694 193.202 127.304 193.202 127.907 193.133C130.115 192.815 132.271 192.243 134.325 191.428C135.755 190.881 137.118 190.195 138.391 189.381C139.798 188.552 141.273 187.634 142.867 186.742C143.266 186.515 143.676 186.293 144.092 186.082C144.519 185.887 144.963 185.725 145.419 185.597C146.347 185.328 147.321 185.111 148.317 184.916C150.31 184.531 152.4 184.209 154.542 183.929L155.561 183.702C156.656 183.486 157.705 183.103 158.665 182.568C159.134 182.286 159.545 181.928 159.878 181.512C160.196 181.104 160.462 180.663 160.669 180.198C161.411 178.411 161.535 176.454 161.022 174.599C160.291 171.488 159.185 168.463 157.725 165.58C156.736 163.639 155.594 161.767 154.308 159.981C153.847 159.353 153.488 158.873 153.226 158.551L152.93 158.192C152.901 158.147 152.865 158.106 152.822 158.071L152.907 158.208L153.175 158.583C153.42 158.915 153.744 159.406 154.211 160.039C155.447 161.843 156.549 163.722 157.509 165.665C158.935 168.536 160.016 171.545 160.732 174.636C161.226 176.44 161.103 178.341 160.379 180.077C160.181 180.522 159.926 180.943 159.621 181.333C159.307 181.72 158.922 182.052 158.482 182.314C157.55 182.83 156.532 183.201 155.47 183.412L154.456 183.634C152.298 183.913 150.208 184.241 148.192 184.636C147.195 184.832 146.216 185.053 145.271 185.328C144.797 185.466 144.338 185.642 143.898 185.855C143.471 186.066 143.061 186.293 142.662 186.52C141.068 187.439 139.599 188.362 138.198 189.196C136.942 190.012 135.596 190.702 134.183 191.254C132.149 192.08 130.015 192.677 127.827 193.032C127.234 193.114 126.632 193.136 126.034 193.096C125.669 193.038 125.47 192.985 125.47 193.001Z" fill="#263238"/>
<path d="M117.682 132.518C117.682 132.518 124.596 128.429 129.897 129.927C135.717 131.574 141.532 135.695 142.386 145.015C143.058 152.403 140.307 159.585 140.307 159.585L158.195 146.102C158.195 146.102 159.18 153.991 156.743 158.197C156.173 159.205 152.585 162.54 147.694 166.393C137.443 174.462 122.46 185.428 122.46 185.428C122.46 185.428 95.6207 200.299 90.074 201.133C84.5273 201.967 55.2847 190.578 55.2847 190.578C55.2847 190.578 50.0341 180.293 50.484 177.238C50.9338 174.182 90.0854 147.289 94.0261 145.237C97.9669 143.184 117.682 132.518 117.682 132.518Z" fill="#4DC26B"/>
<path d="M92.6025 188.421C92.5626 188.421 93.0011 189.028 93.5763 190.004C94.324 191.31 94.8721 192.706 95.205 194.152C95.378 194.947 95.4846 195.753 95.5239 196.563C95.5455 197.226 95.5208 197.888 95.4499 198.548C95.3246 199.677 95.131 200.363 95.1822 200.374C95.2687 200.227 95.3284 200.068 95.3588 199.904C95.4938 199.466 95.5927 199.02 95.6549 198.569C95.7607 197.901 95.8083 197.227 95.7973 196.553C95.7724 195.727 95.6714 194.904 95.4955 194.094C95.1605 192.624 94.5741 191.213 93.7585 189.914C93.5172 189.52 93.249 189.141 92.9556 188.78C92.7449 188.542 92.6196 188.405 92.6025 188.421Z" fill="#263238"/>
<path d="M118.454 174.662C118.73 174.508 118.991 174.331 119.234 174.134C119.723 173.791 120.418 173.285 121.267 172.641C122.975 171.359 125.253 169.517 127.668 167.39C130.082 165.263 132.223 163.306 133.812 161.886L135.657 160.203C135.89 160.004 136.107 159.791 136.307 159.564C136.045 159.73 135.801 159.919 135.578 160.129C135.116 160.503 134.467 161.057 133.664 161.749L127.463 167.19C125.037 169.3 122.787 171.174 121.13 172.467L119.16 174.05C118.907 174.237 118.671 174.441 118.454 174.662Z" fill="#263238"/>
<path d="M111.439 167.422C111.612 167.604 111.802 167.77 112.009 167.918C112.202 168.066 112.424 168.256 112.686 168.483C112.948 168.71 113.256 168.958 113.569 169.248C115.247 170.755 116.763 172.409 118.096 174.188C119.438 175.958 120.545 177.872 121.394 179.887C122.026 181.444 122.242 182.457 122.305 182.447C122.284 182.204 122.24 181.964 122.174 181.729C122.119 181.449 122.045 181.172 121.952 180.9C121.849 180.543 121.728 180.191 121.587 179.845C120.793 177.783 119.702 175.83 118.341 174.04C117.001 172.247 115.45 170.598 113.717 169.122C113.387 168.831 113.073 168.594 112.8 168.378C112.527 168.161 112.282 167.982 112.077 167.85C111.88 167.688 111.666 167.545 111.439 167.422Z" fill="#263238"/>
<path d="M56.5433 176.688C56.5148 176.762 64.5672 179.443 74.5216 182.683C84.4761 185.924 92.5797 188.488 92.6025 188.42C92.6253 188.351 84.5843 185.665 74.6241 182.425C64.664 179.184 56.5717 176.62 56.5433 176.688Z" fill="#263238"/>
<path d="M90.9126 149.786C90.9912 149.757 91.0657 149.72 91.1347 149.675L91.7554 149.337L94.1643 148.007L102.911 143.068L105.804 141.427C106.812 140.857 107.866 140.266 108.925 139.606C111.044 138.308 113.236 136.809 115.662 135.421C118.141 133.888 120.945 132.863 123.885 132.413C125.438 132.208 127.017 132.26 128.549 132.566C130.118 132.91 131.591 133.558 132.872 134.466C135.372 136.325 137.129 138.905 137.866 141.796C138.525 144.491 138.395 147.3 137.49 149.933C136.684 152.319 135.45 154.561 133.84 156.567C133.094 157.511 132.291 158.366 131.505 159.205C130.719 160.045 129.956 160.789 129.227 161.533C126.294 164.477 123.777 166.731 121.983 168.224C121.083 168.974 120.372 169.544 119.888 169.923L119.318 170.361C119.252 170.407 119.191 170.458 119.136 170.515C119.207 170.477 119.274 170.433 119.335 170.383L119.905 169.966C120.4 169.602 121.123 169.042 122.035 168.309C123.857 166.831 126.402 164.615 129.358 161.665C130.093 160.931 130.861 160.161 131.636 159.348C132.471 158.506 133.26 157.625 133.999 156.709C135.635 154.689 136.891 152.426 137.712 150.018C138.637 147.342 138.775 144.485 138.111 141.743C137.361 138.79 135.567 136.154 133.014 134.255C131.697 133.324 130.184 132.661 128.572 132.307C127.005 131.996 125.391 131.945 123.806 132.16C120.824 132.613 117.983 133.655 115.474 135.215C113.042 136.619 110.856 138.123 108.749 139.437C107.695 140.102 106.653 140.688 105.645 141.263L102.763 142.92L94.0675 147.933L91.7099 149.311L91.1005 149.675L90.9126 149.786Z" fill="#263238"/>
<path d="M90.9112 147.227C91.0522 147.163 91.1875 147.089 91.3155 147.005L92.4545 146.345C93.434 145.77 94.8577 144.947 96.6287 143.96C100.177 141.97 105.171 139.358 110.592 136.366C111.948 135.606 113.263 134.862 114.544 134.15C115.826 133.437 117.079 132.799 118.292 132.223C119.505 131.648 120.689 131.136 121.811 130.704C122.834 130.277 123.911 129.972 125.017 129.796C126.621 129.527 128.269 129.587 129.846 129.97C130.427 130.129 130.997 130.317 131.555 130.535C131.039 130.243 130.484 130.018 129.903 129.865C128.313 129.437 126.638 129.349 125.006 129.606C123.88 129.774 122.782 130.071 121.737 130.492C120.598 130.92 119.419 131.427 118.195 131.997C116.97 132.566 115.7 133.21 114.413 133.917L110.461 136.129C105.029 139.121 100.063 141.765 96.5433 143.791C94.7836 144.804 93.3713 145.649 92.4146 146.256C91.9306 146.551 91.5661 146.783 91.3155 146.963C91.1719 147.038 91.0365 147.127 90.9112 147.227Z" fill="#263238"/>
<path d="M111.008 130.867L119.858 134.033C119.858 134.033 120.239 134.809 118.946 135.59C117.654 136.371 115.461 135.87 115.461 135.87L117.17 141.949C117.17 141.949 117.141 143.574 115.461 143.574C114.99 143.59 114.521 143.503 114.092 143.319C113.664 143.136 113.288 142.862 112.995 142.519C113.087 143.051 112.996 143.597 112.736 144.078C112.475 144.56 112.058 144.954 111.543 145.205C111.338 145.338 111.1 145.422 110.852 145.45C110.603 145.478 110.351 145.448 110.117 145.364C109.884 145.28 109.676 145.144 109.512 144.968C109.349 144.792 109.235 144.582 109.18 144.355C109.18 144.355 108.041 145.585 107.272 145.463C106.503 145.342 102.716 140.255 102.716 140.255L101.424 140.962L98.7528 142.376C98.0981 141.056 97.8084 139.605 97.91 138.155C98.1435 135.938 100.353 133.743 102.95 134.096C102.95 134.096 104.852 132.471 106.23 132.26C107.608 132.049 108.212 132.613 108.212 132.613C108.439 132.099 108.826 131.658 109.324 131.347C109.822 131.036 110.408 130.869 111.008 130.867Z" fill="#FFBE9D"/>
<path d="M107.261 145.479H107.415C107.567 145.473 107.716 145.439 107.853 145.379C108.371 145.132 108.833 144.795 109.214 144.387H109.112C109.235 144.778 109.498 145.118 109.858 145.353C110.088 145.472 110.348 145.535 110.612 145.535C110.877 145.535 111.136 145.472 111.367 145.353C111.921 145.139 112.389 144.77 112.705 144.297C113.053 143.754 113.187 143.117 113.087 142.492L112.893 142.566C113.178 142.901 113.539 143.174 113.951 143.365C114.362 143.557 114.814 143.662 115.274 143.675C115.527 143.701 115.784 143.679 116.027 143.61C116.271 143.541 116.497 143.426 116.692 143.273C117.071 142.921 117.292 142.447 117.307 141.949V141.917C116.783 140.06 116.208 138.002 115.598 135.833L115.427 135.996C116.364 136.199 117.338 136.199 118.275 135.996C118.757 135.871 119.198 135.635 119.556 135.31C119.766 135.149 119.921 134.936 120.004 134.695C120.087 134.455 120.093 134.198 120.023 133.954V133.906H119.96L117.916 133.173L111.111 130.73H111.082H111.054C110.407 130.727 109.776 130.912 109.249 131.257C108.741 131.596 108.346 132.061 108.11 132.598L108.337 132.55C107.887 132.231 107.325 132.077 106.76 132.117C106.493 132.126 106.227 132.162 105.968 132.223C105.721 132.292 105.481 132.382 105.251 132.492C104.397 132.914 103.604 133.435 102.893 134.044L102.996 134.012C102.093 133.903 101.176 134.077 100.393 134.508C99.6999 134.884 99.1141 135.409 98.6847 136.038C98.2995 136.584 98.0379 137.196 97.916 137.838C97.8298 138.378 97.8164 138.926 97.8761 139.469C97.9629 140.222 98.1544 140.961 98.4456 141.669C98.5481 141.917 98.6335 142.097 98.6961 142.197C98.724 142.261 98.7604 142.321 98.8043 142.376C98.7863 142.311 98.7615 142.247 98.7303 142.186C98.679 142.06 98.605 141.875 98.5139 141.627C98.2624 140.917 98.1 140.182 98.0299 139.437C97.9842 138.909 98.0071 138.377 98.0982 137.854C98.239 137.197 98.5279 136.576 98.946 136.03C99.3641 135.485 99.9019 135.027 100.524 134.687C101.266 134.29 102.129 134.132 102.979 134.239H103.036L103.081 134.202C103.779 133.613 104.553 133.107 105.387 132.698C105.82 132.486 106.299 132.37 106.788 132.36C107.28 132.328 107.767 132.457 108.167 132.724L108.315 132.84L108.394 132.677C108.612 132.191 108.973 131.772 109.436 131.468C109.92 131.158 110.495 130.994 111.082 130.999H111.031L117.836 133.447L119.79 134.176L119.71 134.107C119.756 134.3 119.743 134.502 119.671 134.688C119.6 134.875 119.473 135.039 119.306 135.162C118.988 135.454 118.596 135.666 118.167 135.78C117.288 135.97 116.374 135.97 115.496 135.78L115.262 135.738L115.325 135.943C115.946 138.107 116.532 140.165 117.067 142.017V141.986C117.056 142.422 116.869 142.838 116.544 143.152C116.195 143.415 115.749 143.54 115.302 143.5C114.877 143.492 114.458 143.398 114.075 143.225C113.693 143.052 113.356 142.804 113.087 142.498L112.836 142.192L112.899 142.572C112.991 143.15 112.872 143.74 112.563 144.25C112.268 144.695 111.833 145.045 111.316 145.252C111.107 145.362 110.872 145.419 110.632 145.419C110.393 145.419 110.158 145.362 109.949 145.252C109.613 145.039 109.364 144.727 109.243 144.366L109.209 144.276L109.14 144.345C108.779 144.752 108.341 145.096 107.848 145.358C107.666 145.444 107.465 145.486 107.261 145.479Z" fill="#EB996E"/>
<path d="M108.969 133.31C110.156 133.803 111.382 134.21 112.636 134.529L114.082 134.94C114.467 135.014 114.828 135.169 115.136 135.394C115.289 135.593 115.401 135.817 115.466 136.054C115.529 136.228 115.575 136.323 115.597 136.318C115.62 136.312 115.597 136.212 115.597 136.033C115.568 135.76 115.471 135.498 115.313 135.267C114.995 134.987 114.601 134.792 114.174 134.703L112.727 134.265C111.503 133.857 110.246 133.538 108.969 133.31Z" fill="#EB996E"/>
<path d="M106.515 135.337C107.028 135.502 107.551 135.64 108.081 135.749C108.64 135.891 109.18 136.089 109.693 136.34C110.309 136.646 110.838 137.084 111.236 137.617C111.418 137.903 111.547 138.215 111.618 138.54L111.88 139.474C112.045 140.071 112.204 140.609 112.347 141.057C112.473 141.549 112.664 142.024 112.916 142.472C112.819 141.977 112.693 141.487 112.54 141.005C112.415 140.524 112.284 139.991 112.136 139.421C112.056 139.115 111.976 138.799 111.891 138.477C111.813 138.124 111.672 137.785 111.475 137.474C111.051 136.903 110.479 136.438 109.812 136.123C109.271 135.871 108.697 135.683 108.104 135.564C107.586 135.43 107.053 135.354 106.515 135.337Z" fill="#EB996E"/>
<path d="M103.844 137.401C103.844 137.443 104.413 137.538 105.273 137.786C105.777 137.927 106.251 138.149 106.674 138.44C107.179 138.813 107.571 139.3 107.813 139.855C108.337 141.037 108.428 142.24 108.696 143.063C108.783 143.524 108.978 143.961 109.265 144.346C109.311 144.346 109.06 143.85 108.878 143.021C108.781 142.604 108.701 142.103 108.593 141.543C108.488 140.929 108.31 140.327 108.063 139.749C107.809 139.153 107.386 138.632 106.839 138.24C106.386 137.938 105.873 137.721 105.33 137.601C104.849 137.463 104.347 137.395 103.844 137.401Z" fill="#EB996E"/>
<path d="M87.3457 150.614C89.3388 149.231 92.0951 148.403 94.6463 149.305C100.523 151.385 113.046 158.393 117.995 161.765C119.413 162.731 120.421 164.128 120.842 165.712L121.161 166.936C121.161 166.936 95.0336 184.293 91.5484 184.583C88.0632 184.874 61.1668 173.95 61.1668 173.95C61.1668 173.95 59.5381 170.103 62.0894 168.071C72.8525 159.517 79.84 155.823 87.3457 150.614Z" fill="#E0E0E0"/>
<path d="M92.095 179.196C92.1358 179.48 92.2142 179.758 92.3285 180.024C92.55 180.667 92.6727 181.335 92.693 182.009C92.6899 182.678 92.4932 183.334 92.1235 183.908C91.9429 184.138 91.781 184.379 91.6394 184.631C91.6394 184.631 91.9527 184.452 92.3 184.014C92.7457 183.427 92.9844 182.726 92.9834 182.009C92.9699 181.305 92.8134 180.611 92.5221 179.961C92.4353 179.682 92.2901 179.422 92.095 179.196Z" fill="#263238"/>
<path d="M92.0938 179.196C92.0009 179.144 91.9014 179.103 91.7976 179.075L90.9263 178.779L87.7202 177.724C85.0095 176.811 81.2851 175.507 77.1849 174.029L66.7008 170.256L63.5117 169.122L62.6404 168.826C62.5421 168.786 62.4388 168.758 62.3329 168.742C62.4219 168.797 62.5174 168.843 62.6177 168.879L63.4719 169.222L66.6211 170.436C69.2919 171.449 72.9935 172.816 77.0994 174.278C81.2054 175.739 84.9411 177.011 87.6689 177.882C89.0357 178.315 90.1404 178.658 90.9149 178.874L91.8033 179.122C91.8968 179.157 91.9943 179.181 92.0938 179.196Z" fill="#263238"/>
<path d="M87.5445 179.196C87.6545 179.184 87.762 179.158 87.8634 179.117C88.0627 179.048 88.3702 178.969 88.746 178.821C89.8147 178.423 90.8584 177.97 91.8725 177.465C94.4579 176.209 97.8349 174.177 101.554 171.924C105.272 169.67 108.757 167.823 111.161 166.288C112.362 165.517 113.29 164.842 113.911 164.356C114.23 164.119 114.481 163.923 114.623 163.792C114.765 163.66 114.868 163.586 114.857 163.58C114.845 163.575 114.76 163.628 114.589 163.749L113.843 164.277C113.194 164.736 112.254 165.385 111.041 166.129C108.626 167.617 105.101 169.422 101.394 171.697C97.6868 173.971 94.3326 176.003 91.7814 177.296C90.5114 177.95 89.4579 178.425 88.7119 178.726C87.9659 179.027 87.5388 179.196 87.5445 179.196Z" fill="#263238"/>
<path d="M104.191 164.482C104.409 164.219 104.68 163.997 104.989 163.828L107.158 162.466L107.938 162.994C107.37 163.778 106.717 164.506 105.991 165.168C105.743 165.411 105.434 165.592 105.091 165.696C104.92 165.742 104.738 165.74 104.568 165.691C104.398 165.643 104.247 165.549 104.134 165.422C104.044 165.277 104.002 165.111 104.012 164.944C104.022 164.777 104.084 164.617 104.191 164.482Z" fill="#4DC26B"/>
<path d="M82.9261 150.239C83.0171 150.305 83.1165 150.36 83.2222 150.403L84.0992 150.809L87.3281 152.282C90.0502 153.527 93.8145 155.258 97.8692 157.337C99.8908 158.393 101.793 159.448 103.501 160.398C105.21 161.348 106.719 162.298 107.96 163.105C108.592 163.501 109.145 163.881 109.635 164.208C110.124 164.535 110.546 164.815 110.882 165.052L111.668 165.58C111.85 165.696 111.947 165.76 111.958 165.749C111.882 165.67 111.798 165.597 111.707 165.533L110.95 164.952C110.625 164.704 110.215 164.424 109.731 164.066C109.247 163.707 108.706 163.337 108.086 162.931C106.856 162.102 105.346 161.168 103.649 160.166C101.952 159.163 100.039 158.129 98.0115 157.079C93.9455 154.999 90.1698 153.289 87.4193 152.086C86.0411 151.49 84.925 151.031 84.1448 150.693L83.2507 150.329C83.1453 150.291 83.0367 150.261 82.9261 150.239Z" fill="#263238"/>
<path d="M89.0382 188.568C89.1553 188.583 89.2742 188.583 89.3913 188.568C89.7256 188.544 90.0583 188.503 90.3879 188.446C91.6061 188.24 92.7895 187.885 93.9072 187.391C95.5623 186.653 97.1294 185.756 98.5826 184.715C100.246 183.575 101.999 182.214 103.907 180.937C105.749 179.774 107.666 178.717 109.648 177.77C111.274 176.981 112.816 176.052 114.255 174.995C115.221 174.273 116.072 173.43 116.783 172.488C116.977 172.233 117.154 171.966 117.313 171.691C117.374 171.599 117.421 171.499 117.455 171.396C117.455 171.396 117.21 171.781 116.692 172.425C115.951 173.329 115.088 174.141 114.124 174.842C112.679 175.87 111.137 176.777 109.517 177.549C107.515 178.486 105.583 179.544 103.731 180.715C101.789 182.003 100.063 183.354 98.4232 184.515C96.9885 185.553 95.4473 186.458 93.8218 187.217C92.7231 187.723 91.5625 188.104 90.3651 188.351C89.5052 188.51 89.0382 188.541 89.0382 188.568Z" fill="#263238"/>
<path d="M144.302 165.913C144.486 165.826 144.656 165.716 144.809 165.586L146.113 164.626C147.563 163.574 148.949 162.448 150.264 161.254C151.625 160.081 152.712 158.662 153.459 157.085C153.583 156.81 153.678 156.526 153.744 156.235C153.811 156.02 153.855 155.799 153.875 155.575C153.899 155.386 153.899 155.195 153.875 155.005C153.726 155.689 153.515 156.36 153.243 157.011C152.453 158.535 151.363 159.909 150.031 161.064C148.522 162.467 147.012 163.618 145.959 164.478C145.424 164.905 144.996 165.254 144.706 165.507C144.555 165.628 144.419 165.764 144.302 165.913Z" fill="#263238"/>
<path d="M88.2075 160.425C88.3714 160.291 88.5652 160.193 88.775 160.137C88.9848 160.082 89.2052 160.07 89.4205 160.103C89.8932 160.103 90.2975 160.778 90.3317 161.216C90.3994 161.936 90.2433 162.66 89.8818 163.301C90.4332 162.951 91.0404 162.684 91.6813 162.509C92.222 162.338 92.8029 162.307 93.3613 162.419C93.6409 162.481 93.8973 162.611 94.1029 162.797C94.3086 162.983 94.4558 163.217 94.5287 163.475C94.5648 163.738 94.5271 164.005 94.4194 164.251C94.3117 164.497 94.1375 164.713 93.9137 164.879C93.4597 165.203 92.9467 165.45 92.3989 165.607C89.8021 166.504 87.1654 167.301 84.5287 168.098C84.9273 165.2 86.0208 162.514 88.2075 160.425Z" fill="#4DC26B"/>
<path d="M128.249 190.567C128.249 190.567 117.287 191.992 114.787 190.567C112.457 189.243 112.287 188.784 112.287 188.784L109.775 190.124C111.226 191.725 113.245 192.796 115.47 193.143C121.165 193.982 128.989 192.826 128.989 192.826L128.249 190.567Z" fill="#263238"/>
<path d="M119.449 192.421C119.449 192.421 119.381 192.548 119.347 192.801C119.326 192.958 119.338 193.117 119.381 193.271C119.443 193.492 119.597 193.681 119.808 193.798C120.049 193.922 120.311 194.005 120.583 194.046C120.896 194.128 121.227 194.128 121.539 194.046C121.718 193.986 121.873 193.878 121.984 193.735C122.094 193.578 122.156 193.395 122.16 193.207C122.16 192.869 122.16 192.553 122.16 192.21C122.186 191.868 122.155 191.525 122.069 191.191C122.006 191.027 121.899 190.879 121.759 190.762C121.619 190.645 121.449 190.562 121.266 190.521C120.951 190.445 120.619 190.454 120.309 190.547C120.166 190.579 120.028 190.629 119.899 190.695C119.779 190.768 119.681 190.868 119.615 190.985C119.541 191.185 119.499 191.393 119.489 191.603C119.489 191.761 119.461 191.909 119.444 192.051C119.421 192.181 119.421 192.313 119.444 192.442C119.444 192.442 119.506 192.31 119.563 192.067C119.597 191.93 119.626 191.782 119.66 191.624C119.688 191.444 119.737 191.266 119.808 191.096C119.87 191.007 119.954 190.932 120.053 190.878C120.152 190.824 120.263 190.792 120.378 190.785C120.643 190.711 120.926 190.711 121.192 190.785C121.333 190.818 121.463 190.884 121.57 190.976C121.676 191.069 121.756 191.184 121.801 191.313C121.869 191.62 121.892 191.934 121.87 192.247C121.836 192.906 122.029 193.666 121.431 193.83C121.168 193.909 120.886 193.92 120.617 193.862C120.371 193.837 120.132 193.773 119.911 193.672C119.76 193.592 119.637 193.475 119.556 193.332C119.475 193.19 119.44 193.03 119.455 192.869C119.479 192.721 119.477 192.569 119.449 192.421Z" fill="#263238"/>
<path opacity="0.3" d="M63.6728 185.338C64.1018 185.119 64.6061 185.062 65.0794 185.18C73.1659 186.288 83.9632 188.837 87.9268 193.486C81.1536 190.191 73.7181 188.229 66.0874 187.724C65.3117 187.746 64.5451 187.563 63.8778 187.196C63.2855 186.747 63.0521 185.766 63.6728 185.338Z" fill="black"/>
</svg>
