<svg width="166" height="164" viewBox="0 0 166 164" fill="none" xmlns="http://www.w3.org/2000/svg">
<g clip-path="url(#clip0_335_579)">
<path d="M25.7399 38.2266C25.7355 38.2266 25.7305 38.2266 25.726 38.2266C24.1655 38.2266 22.6977 38.8312 21.5893 39.9301C20.4688 41.0411 19.8516 42.5204 19.8516 44.0952V132.095C19.8516 135.322 22.5032 137.954 25.7632 137.962C39.5066 137.995 62.5323 140.842 78.4168 157.364V65.2695C78.4168 64.1756 78.1357 63.148 77.6051 62.2976C64.5678 41.4293 39.5144 38.2586 25.7399 38.2266Z" fill="#EEEEEE" fill-opacity="0.5"/>
<path d="M146.15 132.095V44.0948C146.15 42.5199 145.532 41.0406 144.412 39.9296C143.303 38.8307 141.835 38.2261 140.276 38.2261C140.271 38.2261 140.266 38.2261 140.261 38.2261C126.487 38.2587 101.434 41.4293 88.3961 62.2977C87.8655 63.1481 87.585 64.1757 87.585 65.2696V157.363C103.469 140.841 126.495 137.994 140.238 137.962C143.498 137.953 146.15 135.322 146.15 132.095Z" fill="#EEEEEE" fill-opacity="0.5"/>
<path d="M159.596 58.5205H155.315V132.095C155.315 140.334 148.561 147.053 140.259 147.073C128.602 147.101 109.38 149.366 95.7676 162.172C119.311 156.443 144.13 160.167 158.274 163.371C160.041 163.771 161.866 163.358 163.281 162.237C164.691 161.119 165.499 159.447 165.499 157.653V64.3881C165.5 61.1528 162.851 58.5205 159.596 58.5205Z" fill="#EEEEEE" fill-opacity="0.5"/>
<path d="M10.6845 132.095V58.5205H6.40335C3.1489 58.5205 0.5 61.1528 0.5 64.3881V157.651C0.5 159.446 1.30889 161.117 2.7189 162.235C4.13279 163.356 5.95613 163.77 7.72502 163.369C21.8695 160.165 46.689 156.441 70.2313 162.171C56.6191 149.365 37.3979 147.1 25.7406 147.073C17.4389 147.053 10.6845 140.334 10.6845 132.095Z" fill="#EEEEEE" fill-opacity="0.5"/>
</g>
<g clip-path="url(#clip1_335_579)">
<path d="M13.9617 87.2671C13.9594 87.2671 13.9567 87.2671 13.9543 87.2671C13.122 87.2671 12.3392 87.5878 11.7481 88.1708C11.1505 88.7602 10.8213 89.5449 10.8213 90.3804V137.063C10.8213 138.775 12.2355 140.171 13.9742 140.176C21.304 140.193 33.5843 141.703 42.0561 150.468V101.613C42.0561 101.033 41.9061 100.488 41.6232 100.037C34.67 88.9661 21.3081 87.2841 13.9617 87.2671Z" fill="#CCCCCC"/>
<path d="M78.1798 137.063V90.3799C78.1798 89.5444 77.8506 88.7597 77.253 88.1703C76.6619 87.5874 75.8784 87.2666 75.047 87.2666C75.0444 87.2666 75.0417 87.2666 75.0393 87.2666C67.6932 87.2839 54.3314 88.9659 47.3779 100.036C47.0949 100.487 46.9453 101.033 46.9453 101.613V150.467C55.417 141.703 67.6974 140.192 75.0272 140.175C76.7656 140.171 78.1798 138.775 78.1798 137.063Z" fill="#CCCCCC"/>
<path d="M85.3514 98.0327H83.0682V137.063C83.0682 141.434 79.4661 144.998 75.0382 145.009C68.821 145.023 58.5697 146.225 51.3096 153.019C63.866 149.979 77.1028 151.955 84.6465 153.655C85.5885 153.867 86.5618 153.648 87.3165 153.053C88.0685 152.46 88.4999 151.573 88.4999 150.621V101.145C88.5002 99.4291 87.0874 98.0327 85.3514 98.0327Z" fill="#CCCCCC"/>
<path d="M5.93172 137.063V98.0327H3.64846C1.91275 98.0327 0.5 99.4291 0.5 101.145V150.62C0.5 151.572 0.931409 152.459 1.68341 153.052C2.43749 153.646 3.40994 153.866 4.35335 153.654C11.8971 151.954 25.1342 149.978 37.6901 153.018C30.4302 146.225 20.1789 145.023 13.9617 145.008C9.5341 144.998 5.93172 141.434 5.93172 137.063Z" fill="#CCCCCC"/>
</g>
<defs>
<clipPath id="clip0_335_579">
<rect width="165" height="164" fill="white" transform="translate(0.5)"/>
</clipPath>
<clipPath id="clip1_335_579">
<rect width="88" height="87" fill="white" transform="translate(0.5 77)"/>
</clipPath>
</defs>
</svg>
