<svg width="126" height="126" viewBox="0 0 126 126" fill="none" xmlns="http://www.w3.org/2000/svg">
<path d="M119.821 46.7526C118.944 43.1812 117.067 39.9337 114.41 37.391C111.753 34.8483 108.427 33.1157 104.82 32.3964C101.402 31.7415 97.8711 32.0085 94.5903 33.1701V12.7103C94.5903 10.4304 93.6846 8.2438 92.0725 6.63164C90.4603 5.01947 88.2737 4.11377 85.9938 4.11377H57.7971C56.9417 4.11716 56.1068 4.37571 55.3992 4.85632C54.6915 5.33694 54.1434 6.01776 53.8249 6.81167C53.5064 7.60558 53.4321 8.47646 53.6114 9.31287C53.7906 10.1493 54.2154 10.9132 54.8313 11.5068C55.8551 12.5001 56.6682 13.6895 57.222 15.0041C57.7759 16.3186 58.0592 17.7313 58.055 19.1577C58.0519 20.796 57.6758 22.412 56.9551 23.8833C56.2344 25.3545 55.1881 26.6423 53.8956 27.649C52.6031 28.6556 51.0983 29.3547 49.4954 29.6932C47.8925 30.0317 46.2336 30.0007 44.6444 29.6025C42.6761 29.1191 40.8883 28.0801 39.4937 26.6094C38.0992 25.1386 37.1567 23.2981 36.7786 21.3069C36.424 19.552 36.5135 17.7364 37.039 16.0249C37.5644 14.3134 38.5091 12.7604 39.7873 11.5068C40.4033 10.9132 40.828 10.1493 41.0073 9.31287C41.1866 8.47646 41.1122 7.60558 40.7937 6.81167C40.4753 6.01776 39.9271 5.33694 39.2195 4.85632C38.5119 4.37571 37.6769 4.11716 36.8215 4.11377H8.62487C6.34492 4.11377 4.15836 5.01947 2.54619 6.63164C0.934025 8.2438 0.0283203 10.4304 0.0283203 12.7103V40.907C0.0317128 41.7624 0.29026 42.5973 0.770876 43.305C1.25149 44.0126 1.93231 44.5607 2.72622 44.8792C3.52013 45.1977 4.39101 45.272 5.22742 45.0928C6.06383 44.9135 6.82773 44.4887 7.42135 43.8728C8.5085 42.8247 9.79976 42.0116 11.2147 41.4841C12.6297 40.9566 14.1381 40.726 15.6461 40.8066C17.154 40.8872 18.6292 41.2774 19.9799 41.9528C21.3305 42.6282 22.5277 43.5744 23.4969 44.7325C25.1492 46.8928 25.9209 49.5993 25.6564 52.3061C25.3918 55.013 24.1106 57.5189 22.0712 59.3183C20.0318 61.1178 17.386 62.077 14.6672 62.0025C11.9485 61.9279 9.3591 60.8252 7.42135 58.9168C6.82773 58.3009 6.06383 57.8761 5.22742 57.6968C4.39101 57.5175 3.52013 57.5919 2.72622 57.9104C1.93231 58.2289 1.25149 58.777 0.770876 59.4846C0.29026 60.1922 0.0317128 61.0272 0.0283203 61.8826V90.0792C0.0283203 92.3592 0.934025 94.5458 2.54619 96.1579C4.15836 97.7701 6.34492 98.6758 8.62487 98.6758H29.0847C27.921 101.956 27.6539 105.488 28.311 108.906C29.0303 112.512 30.7629 115.839 33.3056 118.496C35.8483 121.153 39.0957 123.03 42.6672 123.907C45.5171 124.611 48.4899 124.658 51.3605 124.043C54.2311 123.428 56.924 122.168 59.2353 120.358C61.5465 118.548 63.4154 116.235 64.7004 113.596C65.9853 110.956 66.6525 108.059 66.6516 105.123C66.648 102.93 66.285 100.752 65.577 98.6758H85.9938C88.2737 98.6758 90.4603 97.7701 92.0725 96.1579C93.6846 94.5458 94.5903 92.3592 94.5903 90.0792V69.6624C96.6663 70.3705 98.8443 70.7335 101.038 70.737C103.973 70.738 106.871 70.0707 109.51 68.7858C112.15 67.5009 114.462 65.632 116.272 63.3207C118.082 61.0095 119.343 58.3165 119.958 55.4459C120.572 52.5754 120.526 49.6025 119.821 46.7526Z" fill="#EEEEEE" fill-opacity="0.5"/>
<g clip-path="url(#clip0_335_642)">
<path d="M63.4807 73.8606C63.0143 71.9614 62.0163 70.2346 60.6035 68.8825C59.1907 67.5305 57.4217 66.6092 55.5039 66.2267C53.6863 65.8784 51.8088 66.0204 50.0642 66.6381V55.7587C50.0642 54.5463 49.5826 53.3836 48.7254 52.5264C47.8681 51.6691 46.7054 51.1875 45.4931 51.1875H30.4996C30.0447 51.1893 29.6008 51.3268 29.2245 51.5824C28.8482 51.8379 28.5567 52.1999 28.3874 52.6221C28.218 53.0443 28.1785 53.5073 28.2738 53.9521C28.3692 54.3969 28.595 54.8031 28.9225 55.1187C29.4669 55.6469 29.8993 56.2794 30.1938 56.9784C30.4883 57.6774 30.639 58.4286 30.6367 59.1871C30.6351 60.0582 30.4351 60.9175 30.0518 61.6999C29.6686 62.4822 29.1123 63.167 28.425 63.7023C27.7377 64.2375 26.9375 64.6093 26.0852 64.7893C25.2329 64.9692 24.3507 64.9528 23.5057 64.741C22.4591 64.484 21.5084 63.9315 20.7668 63.1494C20.0253 62.3674 19.5241 61.3887 19.323 60.3299C19.1345 59.3967 19.1821 58.4313 19.4615 57.5212C19.7409 56.6111 20.2433 55.7853 20.923 55.1187C21.2505 54.8031 21.4763 54.3969 21.5717 53.9521C21.667 53.5073 21.6275 53.0443 21.4581 52.6221C21.2888 52.1999 20.9973 51.8379 20.621 51.5824C20.2447 51.3268 19.8008 51.1893 19.3459 51.1875H4.35243C3.14008 51.1875 1.97738 51.6691 1.12012 52.5264C0.262855 53.3836 -0.21875 54.5463 -0.21875 55.7587V70.7522C-0.216946 71.207 -0.0794646 71.651 0.176101 72.0273C0.431667 72.4035 0.793692 72.695 1.21585 72.8644C1.63801 73.0337 2.10109 73.0732 2.54585 72.9779C2.99061 72.8826 3.39681 72.6567 3.71247 72.3292C4.29056 71.7719 4.97717 71.3395 5.72958 71.059C6.48199 70.7785 7.28408 70.6559 8.08593 70.6988C8.88778 70.7416 9.67222 70.9491 10.3904 71.3083C11.1086 71.6674 11.7452 72.1705 12.2606 72.7863C13.1392 73.9351 13.5496 75.3742 13.4089 76.8136C13.2682 78.253 12.5869 79.5854 11.5025 80.5423C10.418 81.4992 9.01111 82.0092 7.56542 81.9696C6.11974 81.93 4.74286 81.3436 3.71247 80.3288C3.39681 80.0013 2.99061 79.7754 2.54585 79.6801C2.10109 79.5847 1.63801 79.6243 1.21585 79.7936C0.793692 79.963 0.431667 80.2544 0.176101 80.6307C-0.0794646 81.007 -0.216946 81.451 -0.21875 81.9058V96.8993C-0.21875 98.1117 0.262855 99.2743 1.12012 100.132C1.97738 100.989 3.14008 101.47 4.35243 101.47H15.2318C14.6131 103.215 14.4711 105.093 14.8204 106.91C15.2029 108.828 16.1242 110.597 17.4763 112.01C18.8284 113.423 20.5552 114.421 22.4543 114.887C23.9697 115.262 25.5505 115.286 27.0769 114.959C28.6034 114.632 30.0353 113.962 31.2643 113C32.4933 112.037 33.4871 110.808 34.1704 109.404C34.8536 108.001 35.2084 106.46 35.2079 104.899C35.206 103.733 35.013 102.574 34.6365 101.47H45.4931C46.7054 101.47 47.8681 100.989 48.7254 100.132C49.5826 99.2743 50.0642 98.1117 50.0642 96.8993V86.0427C51.1681 86.4192 52.3263 86.6123 53.4926 86.6141C55.0537 86.6147 56.5943 86.2599 57.9979 85.5766C59.4015 84.8933 60.6311 83.8996 61.5936 82.6706C62.5561 81.4416 63.2262 80.0096 63.5531 78.4832C63.8801 76.9568 63.8553 75.376 63.4807 73.8606Z" fill="#CCCCCC"/>
</g>
<defs>
<clipPath id="clip0_335_642">
<rect width="66.5518" height="67" fill="white" transform="translate(0 49)"/>
</clipPath>
</defs>
</svg>
