<svg width="127" height="126" viewBox="0 0 127 126" fill="none" xmlns="http://www.w3.org/2000/svg">
<g clip-path="url(#clip0_335_633)">
<path d="M126.466 54.8565C125.615 27.9137 101.485 0 63.8015 0C45.9954 0 29.7232 7.14952 17.9822 20.0478C6.0984 33.1048 0.17872 50.527 1.76637 69.1031C4.48072 100.869 31.3074 126 62.5283 126H62.6499C72.6851 125.977 77.0874 116.073 71.4546 108.873C67.138 103.354 68.3433 99.2543 69.6272 96.8317C71.8052 92.7257 75.2134 90.8079 80.3596 90.7973C84.9309 90.7973 89.6365 90.8657 94.1426 90.5738C113.977 89.3013 127.11 75.2818 126.466 54.8565ZM16.3587 48.4544C16.3587 42.3478 21.2869 37.3802 27.345 37.3802C33.4031 37.3802 38.3313 42.3478 38.3313 48.4544C38.3313 54.561 33.4031 59.5286 27.345 59.5286C21.2869 59.5286 16.3587 54.561 16.3587 48.4544ZM31.0071 89.0599C24.949 89.0599 20.0208 84.0922 20.0208 77.9856C20.0208 71.8791 24.949 66.9114 31.0071 66.9114C37.0652 66.9114 41.9934 71.8791 41.9934 77.9856C41.9934 84.0922 37.0652 89.0599 31.0071 89.0599ZM49.3176 37.3802C43.2595 37.3802 38.3313 32.4125 38.3313 26.3059C38.3313 20.1994 43.2595 15.2317 49.3176 15.2317C55.3757 15.2317 60.304 20.1994 60.304 26.3059C60.304 32.4125 55.3757 37.3802 49.3176 37.3802ZM78.6145 37.3802C72.5564 37.3802 67.6282 32.4125 67.6282 26.3059C67.6282 20.1994 72.5564 15.2317 78.6145 15.2317C84.6726 15.2317 89.6008 20.1994 89.6008 26.3059C89.6008 32.4125 84.6726 37.3802 78.6145 37.3802ZM100.587 59.5286C94.5291 59.5286 89.6008 54.561 89.6008 48.4544C89.6008 42.3478 94.5291 37.3802 100.587 37.3802C106.645 37.3802 111.574 42.3478 111.574 48.4544C111.574 54.561 106.645 59.5286 100.587 59.5286Z" fill="#EEEEEE" fill-opacity="0.5"/>
</g>
<g clip-path="url(#clip1_335_633)">
<path d="M66.4821 78.1697C66.0329 63.843 53.2922 49 33.3953 49C23.9937 49 15.402 52.8017 9.20273 59.6603C2.92809 66.6033 -0.197503 75.8675 0.640774 85.7453C2.07395 102.637 16.2384 116 32.7231 116H32.7873C38.0859 115.988 40.4103 110.721 37.4362 106.893C35.157 103.958 35.7934 101.778 36.4713 100.49C37.6213 98.3065 39.4208 97.2867 42.138 97.2811C44.5517 97.2811 47.0362 97.3175 49.4154 97.1623C59.8878 96.4856 66.822 89.0308 66.4821 78.1697ZM8.3455 74.7654C8.3455 71.5183 10.9476 68.8768 14.1463 68.8768C17.345 68.8768 19.9471 71.5183 19.9471 74.7654C19.9471 78.0126 17.345 80.6541 14.1463 80.6541C10.9476 80.6541 8.3455 78.0126 8.3455 74.7654ZM16.0799 96.3572C12.8812 96.3572 10.2791 93.7157 10.2791 90.4686C10.2791 87.2214 12.8812 84.5799 16.0799 84.5799C19.2786 84.5799 21.8807 87.2214 21.8807 90.4686C21.8807 93.7157 19.2786 96.3572 16.0799 96.3572ZM25.7478 68.8768C22.5492 68.8768 19.9471 66.2352 19.9471 62.9881C19.9471 59.7409 22.5492 57.0994 25.7478 57.0994C28.9465 57.0994 31.5486 59.7409 31.5486 62.9881C31.5486 66.2352 28.9465 68.8768 25.7478 68.8768ZM41.2166 68.8768C38.0179 68.8768 35.4158 66.2352 35.4158 62.9881C35.4158 59.7409 38.0179 57.0994 41.2166 57.0994C44.4153 57.0994 47.0174 59.7409 47.0174 62.9881C47.0174 66.2352 44.4153 68.8768 41.2166 68.8768ZM52.8182 80.6541C49.6195 80.6541 47.0174 78.0126 47.0174 74.7654C47.0174 71.5183 49.6195 68.8768 52.8182 68.8768C56.0168 68.8768 58.6189 71.5183 58.6189 74.7654C58.6189 78.0126 56.0168 80.6541 52.8182 80.6541Z" fill="#CCCCCC"/>
</g>
<defs>
<clipPath id="clip0_335_633">
<rect width="125" height="126" fill="white" transform="translate(1.5)"/>
</clipPath>
<clipPath id="clip1_335_633">
<rect width="66" height="67" fill="white" transform="translate(0.5 49)"/>
</clipPath>
</defs>
</svg>
