<svg width="127" height="132" viewBox="0 0 127 132" fill="none" xmlns="http://www.w3.org/2000/svg">
<g clip-path="url(#clip0_335_595)">
<path d="M52.3011 2.08105L40.7882 2.08518C30.2977 2.08518 21.7614 10.6491 21.7614 21.1758C21.7614 22.5377 21.9176 23.9212 22.2258 25.3016C11.8544 28.5809 4.69291 38.3118 4.69291 49.3035C4.69291 53.4097 5.706 57.453 7.60581 61.0602C3.39418 65.2478 0.780273 71.0519 0.780273 77.4581C0.780273 87.9137 7.74041 96.7642 17.2559 99.6013C16.9209 100.907 16.7442 102.25 16.7442 103.611C16.7442 112.479 23.9345 119.692 32.7718 119.692C33.7757 119.692 34.7877 119.591 35.7988 119.394C36.1748 125.706 41.4098 130.726 47.7946 130.726C54.3848 130.726 59.812 125.377 59.812 118.782C59.812 118.77 59.812 118.759 59.812 118.749V9.61711C59.811 5.46145 56.4439 2.08105 52.3011 2.08105Z" fill="#EEEEEE" fill-opacity="0.5"/>
<path d="M126.78 77.2364C126.78 70.8313 124.167 65.0272 119.953 60.8375C121.855 57.2324 122.869 53.188 122.869 49.0829C122.869 38.0912 115.706 28.3593 105.334 25.0809C105.644 23.7005 105.799 22.316 105.799 20.9552C105.799 10.4284 97.2625 1.8635 86.7699 1.8635L75.257 1.85938C71.1153 1.85938 67.7472 5.23977 67.7472 9.39749V97.0281C67.7472 97.125 67.6855 97.2219 67.6855 97.3291C67.6855 97.7198 67.7472 98.1044 67.7472 98.4827V118.445V118.527V118.643H67.7513C67.8859 125.691 73.2185 130.48 79.7625 130.48C86.1473 130.48 91.3854 125.471 91.7614 119.16C92.7714 119.358 93.7855 119.465 94.7873 119.465C103.626 119.465 110.815 112.254 110.815 103.388C110.815 102.026 110.638 100.685 110.305 99.3807C119.82 96.5425 126.78 87.692 126.78 77.2364Z" fill="#EEEEEE" fill-opacity="0.5"/>
</g>
<g clip-path="url(#clip1_335_595)">
<path d="M28.4563 51.1191L22.243 51.1214C16.5814 51.1214 11.9745 55.7277 11.9745 61.3898C11.9745 62.1223 12.0588 62.8665 12.2251 63.609C6.6279 65.3729 2.76295 70.6069 2.76295 76.5191C2.76295 78.7277 3.3097 80.9025 4.33499 82.8428C2.06205 85.0952 0.651367 88.2171 0.651367 91.6628C0.651367 97.2867 4.40763 102.047 9.54297 103.573C9.3622 104.276 9.26682 104.998 9.26682 105.73C9.26682 110.5 13.1473 114.38 17.9167 114.38C18.4584 114.38 19.0046 114.325 19.5503 114.219C19.7532 117.615 22.5784 120.314 26.0242 120.314C29.5808 120.314 32.5098 117.438 32.5098 113.89C32.5098 113.884 32.5098 113.878 32.5098 113.872V55.1726C32.5092 52.9374 30.6921 51.1191 28.4563 51.1191Z" fill="#CCCCCC"/>
<path d="M68.651 91.5437C68.651 88.0985 67.2409 84.9766 64.9668 82.7231C65.9932 80.784 66.5405 78.6086 66.5405 76.4005C66.5405 70.4883 62.6745 65.2537 57.0772 63.4904C57.2441 62.7479 57.3279 62.0032 57.3279 61.2712C57.3279 55.6091 52.721 51.0022 47.0583 51.0022L40.845 51C38.6098 51 36.7921 52.8182 36.7921 55.0546V102.189C36.7921 102.241 36.7588 102.293 36.7588 102.351C36.7588 102.561 36.7921 102.768 36.7921 102.972V113.709V113.753V113.816H36.7943C36.8669 117.606 39.7448 120.182 43.2765 120.182C46.7223 120.182 49.5492 117.488 49.7521 114.093C50.2972 114.2 50.8445 114.258 51.3852 114.258C56.1551 114.258 60.035 110.379 60.035 105.61C60.035 104.878 59.9396 104.156 59.76 103.455C64.8947 101.928 68.651 97.1676 68.651 91.5437Z" fill="#CCCCCC"/>
</g>
<defs>
<clipPath id="clip0_335_595">
<rect width="126" height="132" fill="white" transform="translate(0.5)"/>
</clipPath>
<clipPath id="clip1_335_595">
<rect width="68" height="71" fill="white" transform="translate(0.5 50)"/>
</clipPath>
</defs>
</svg>
