<svg width="126" height="171" viewBox="0 0 126 171" fill="none" xmlns="http://www.w3.org/2000/svg">
<path d="M115.711 0.588051C88.4198 2.98272 68.2812 16.5452 56.5415 36.1519C48.6738 45.9717 32.9575 75.9516 27.2418 91.6458C16.8781 111.162 7.84074 134.383 0.7683 155.315C-3.55497 168.116 15.8571 176.467 20.2051 163.609C25.4943 147.948 31.8843 131.015 39.1053 115.302C46.2714 131.27 53.5529 147.186 61.3712 162.85C67.4309 175.01 85.6651 164.346 79.6274 152.228C71.578 136.103 64.1011 119.721 56.7342 103.285C56.8277 102.967 56.9461 102.657 57.0451 102.342C58.2725 102.69 59.6264 102.797 61.118 102.515C72.3899 100.408 83.6617 98.3064 94.9419 96.1995C99.7605 95.298 101.607 90.0484 100.847 85.8454C98.5689 73.2501 91.3616 64.4879 82.3903 56.197C81.0584 51.6871 76.6168 47.6978 71.6881 43.7332C81.6803 27.65 97.9938 18.9207 119.228 17.0576C130.065 16.1123 126.454 -0.351734 115.711 0.588051ZM74.6409 72.1788C77.4286 75.0667 79.8008 78.1052 81.5923 81.6232C76.138 82.6425 70.6809 83.659 65.2266 84.6782C67.9785 80.267 71.146 76.1023 74.6409 72.1788Z" fill="#EEEEEE" fill-opacity="0.5"/>
<path d="M97.9783 57.8408C105.996 57.8408 112.495 51.37 112.495 43.3879C112.495 35.4058 105.996 28.9351 97.9783 28.9351C89.9611 28.9351 83.4619 35.4058 83.4619 43.3879C83.4619 51.37 89.9611 57.8408 97.9783 57.8408Z" fill="#EEEEEE" fill-opacity="0.5"/>
<path d="M61.5963 70.6656C47.0845 71.939 36.3759 79.1508 30.1334 89.5765C25.9498 94.7982 17.5927 110.74 14.5534 119.085C9.04251 129.463 4.23696 141.81 0.476218 152.941C-1.82266 159.748 8.49962 164.189 10.8117 157.351C13.6242 149.024 17.022 140.02 20.8618 131.664C24.6723 140.155 28.5442 148.618 32.7015 156.948C35.9238 163.414 45.6197 157.743 42.4092 151.299C38.129 142.725 34.1531 134.014 30.2358 125.274C30.2856 125.105 30.3485 124.941 30.4012 124.773C31.0538 124.958 31.7738 125.015 32.5669 124.865C38.5607 123.744 44.5544 122.627 50.5526 121.507C53.1149 121.027 54.0968 118.236 53.6929 116.001C52.4813 109.303 48.6488 104.644 43.8784 100.235C43.1701 97.8373 40.8083 95.716 38.1875 93.6078C43.5009 85.0557 52.1754 80.4139 63.4664 79.4232C69.229 78.9206 67.3091 70.1659 61.5963 70.6656ZM39.7577 108.734C41.24 110.269 42.5014 111.885 43.454 113.756C40.5537 114.298 37.652 114.838 34.7516 115.38C36.215 113.035 37.8993 110.82 39.7577 108.734Z" fill="#CCCCCC"/>
<path d="M52.1673 101.109C56.4304 101.109 59.8864 97.6685 59.8864 93.4241C59.8864 89.1796 56.4304 85.7388 52.1673 85.7388C47.9042 85.7388 44.4482 89.1796 44.4482 93.4241C44.4482 97.6685 47.9042 101.109 52.1673 101.109Z" fill="#CCCCCC"/>
</svg>
