<svg width="127" height="126" viewBox="0 0 127 126" fill="none" xmlns="http://www.w3.org/2000/svg">
<g clip-path="url(#clip0_335_617)">
<path d="M17.6256 67.6389C22.7486 61.5264 30.2195 58.2135 37.825 58.2135C49.9092 58.2135 54.6763 65.8178 59.5551 65.4117C65.4756 35.8096 64.7304 40.4477 64.7304 37.1602C64.7304 22.9113 53.1394 11.3203 38.8906 11.3203C24.6418 11.3203 13.0508 22.9113 13.0508 37.1602C13.0508 40.4079 12.356 35.1968 17.6256 67.6389ZM38.8906 18.7031C48.5005 18.7031 56.4149 26.0859 57.2664 35.4769H20.5148C21.3663 26.0859 29.2806 18.7031 38.8906 18.7031Z" fill="#EEEEEE" fill-opacity="0.5"/>
<path d="M98.0956 64.2255L110.125 74.8272L112.736 63.2387C114.377 55.9592 109.788 48.7019 102.508 47.0605L97.7068 45.9777L105.877 9.72809L109.477 10.5377C111.464 10.9854 113.442 9.73941 113.89 7.7495C114.338 5.76106 113.09 3.78493 111.099 3.33704L96.6953 0.0910656C94.7069 -0.356825 92.7307 0.89087 92.2828 2.87931C91.835 4.86774 93.0827 6.84387 95.0736 7.29177L98.6739 8.10388L90.5036 44.3559L85.7023 43.2731C78.4147 41.6304 71.1724 46.1881 69.5241 53.5008L67.8408 60.9648C77.5741 55.5438 89.7225 56.8494 98.0956 64.2255Z" fill="#EEEEEE" fill-opacity="0.5"/>
<path d="M93.2131 69.7653C86.7704 64.0854 77.2786 63.4456 70.1295 68.21L66.6941 70.5011C62.3554 73.3927 56.8454 73.5846 52.3173 70.9957L47.2453 68.0992C39.0597 63.4195 28.7137 65.4724 22.9115 72.8365L10.3115 88.84H114.855L93.2131 69.7653Z" fill="#EEEEEE" fill-opacity="0.5"/>
<path d="M0.5 96.2227V122.309C0.5 124.346 2.15375 126 4.19141 126H122.809C124.846 126 126.5 124.346 126.5 122.309V96.2227H0.5Z" fill="#EEEEEE" fill-opacity="0.5"/>
</g>
<g clip-path="url(#clip1_335_617)">
<path d="M9.60696 84.9667C12.3311 81.7164 16.3037 79.9548 20.3479 79.9548C26.7736 79.9548 29.3085 83.9983 31.9028 83.7824C35.051 68.0416 34.6547 70.5079 34.6547 68.7598C34.6547 61.183 28.4913 55.0195 20.9145 55.0195C13.3378 55.0195 7.17429 61.183 7.17429 68.7598C7.17429 70.4867 6.80487 67.7158 9.60696 84.9667ZM20.9145 58.9453C26.0246 58.9453 30.233 62.8711 30.6858 67.8647H11.1433C11.596 62.8711 15.8045 58.9453 20.9145 58.9453Z" fill="#CCCCCC"/>
<path d="M52.3964 83.1517L58.7928 88.7891L60.1813 82.6269C61.0541 78.7561 58.6136 74.8971 54.7428 74.0242L52.1897 73.4485L56.5342 54.1729L58.4487 54.6034C59.5052 54.8414 60.5567 54.1789 60.795 53.1208C61.0332 52.0634 60.3697 51.0126 59.3111 50.7745L51.6519 49.0484C50.5945 48.8103 49.5437 49.4737 49.3055 50.5311C49.0674 51.5884 49.7308 52.6392 50.7895 52.8774L52.704 53.3092L48.3594 72.5861L45.8064 72.0103C41.9312 71.1368 38.0802 73.5603 37.2037 77.4488L36.3086 81.4178C41.4842 78.5352 47.9441 79.2294 52.3964 83.1517Z" fill="#CCCCCC"/>
<path d="M49.8004 86.0972C46.3745 83.077 41.3272 82.7368 37.5258 85.2702L35.699 86.4885C33.3919 88.0261 30.462 88.1282 28.0542 86.7515L25.3572 85.2113C21.0045 82.7229 15.503 83.8145 12.4178 87.7304L5.71777 96.2401H61.3082L49.8004 86.0972Z" fill="#CCCCCC"/>
<path d="M0.5 100.166V114.037C0.5 115.121 1.37938 116 2.46289 116H65.5371C66.6206 116 67.5 115.121 67.5 114.037V100.166H0.5Z" fill="#CCCCCC"/>
</g>
<defs>
<clipPath id="clip0_335_617">
<rect width="126" height="126" fill="white" transform="translate(0.5)"/>
</clipPath>
<clipPath id="clip1_335_617">
<rect width="67" height="67" fill="white" transform="translate(0.5 49)"/>
</clipPath>
</defs>
</svg>
