<svg width="287" height="43" viewBox="0 0 287 43" fill="none" xmlns="http://www.w3.org/2000/svg">
<rect width="287" height="43" rx="21.5" fill="#4DC26B"/>
<path d="M43.1621 19.3438C43.1621 20.0137 42.9229 20.5537 42.4443 20.9639C41.9658 21.374 41.3597 21.6315 40.626 21.7363V21.7773C41.5374 21.8685 42.2393 22.1214 42.7314 22.5361C43.2236 22.9508 43.4697 23.4909 43.4697 24.1562C43.4697 24.7396 43.3102 25.2568 42.9912 25.708C42.6722 26.1546 42.2005 26.5055 41.5762 26.7607C40.9518 27.0114 40.1794 27.1367 39.2588 27.1367C38.5023 27.1367 37.8301 27.0911 37.2422 27C36.6589 26.9043 36.153 26.7699 35.7246 26.5967V24.8193C36.0163 24.9561 36.3421 25.0745 36.7021 25.1748C37.0667 25.2705 37.4359 25.3457 37.8096 25.4004C38.1833 25.4505 38.5296 25.4756 38.8486 25.4756C39.7327 25.4756 40.373 25.348 40.7695 25.0928C41.1706 24.8376 41.3711 24.4753 41.3711 24.0059C41.3711 23.5273 41.0817 23.1787 40.5029 22.96C39.9242 22.7412 39.1449 22.6318 38.165 22.6318H37.2285V20.9775H38.0693C38.8623 20.9775 39.4775 20.9274 39.915 20.8271C40.3571 20.7223 40.6647 20.5742 40.8379 20.3828C41.0156 20.1868 41.1045 19.9521 41.1045 19.6787C41.1045 19.3369 40.9518 19.0658 40.6465 18.8652C40.3411 18.6602 39.8877 18.5576 39.2861 18.5576C38.7666 18.5576 38.2812 18.6328 37.8301 18.7832C37.3789 18.929 36.9574 19.125 36.5654 19.3711L35.6426 17.9561C35.9844 17.7327 36.349 17.5391 36.7363 17.375C37.1283 17.2109 37.5566 17.0856 38.0215 16.999C38.4863 16.9079 39.0059 16.8623 39.5801 16.8623C40.332 16.8623 40.9746 16.9694 41.5078 17.1836C42.041 17.3978 42.4489 17.6917 42.7314 18.0654C43.0186 18.4346 43.1621 18.8607 43.1621 19.3438ZM48.3027 19.2002C49.3281 19.2002 50.1143 19.4235 50.6611 19.8701C51.208 20.3167 51.4814 20.9958 51.4814 21.9072V27H50.0254L49.6221 25.9609H49.5674C49.3486 26.2344 49.1253 26.4577 48.8975 26.6309C48.6696 26.804 48.4076 26.9316 48.1113 27.0137C47.8151 27.0957 47.4551 27.1367 47.0312 27.1367C46.5801 27.1367 46.1745 27.0501 45.8145 26.877C45.459 26.7038 45.1787 26.4395 44.9736 26.084C44.7686 25.724 44.666 25.2682 44.666 24.7168C44.666 23.9056 44.9508 23.3086 45.5205 22.9258C46.0902 22.5384 46.9447 22.3242 48.084 22.2832L49.4102 22.2422V21.9072C49.4102 21.5062 49.3053 21.2122 49.0957 21.0254C48.8861 20.8385 48.5944 20.7451 48.2207 20.7451C47.8516 20.7451 47.4893 20.7975 47.1338 20.9023C46.7783 21.0072 46.4229 21.1393 46.0674 21.2988L45.377 19.8906C45.7826 19.6764 46.236 19.5078 46.7373 19.3848C47.2432 19.2617 47.765 19.2002 48.3027 19.2002ZM49.4102 23.459L48.6035 23.4863C47.929 23.5046 47.4596 23.6253 47.1953 23.8486C46.9355 24.0719 46.8057 24.3659 46.8057 24.7305C46.8057 25.0495 46.8991 25.2773 47.0859 25.4141C47.2728 25.5462 47.5166 25.6123 47.8174 25.6123C48.264 25.6123 48.64 25.4801 48.9453 25.2158C49.2552 24.9515 49.4102 24.5755 49.4102 24.0879V23.459ZM60.5801 19.3574V27H58.4883V20.9229H55.7197V27H53.6348V19.3574H60.5801ZM64.7842 19.3574V22.3789C64.7842 22.5339 64.7773 22.7298 64.7637 22.9668C64.7546 23.1992 64.7409 23.4362 64.7227 23.6777C64.7044 23.9193 64.6862 24.1357 64.668 24.3271C64.6497 24.5186 64.6361 24.6484 64.627 24.7168L68.1543 19.3574H70.6631V27H68.6465V23.9512C68.6465 23.7005 68.6556 23.4248 68.6738 23.124C68.6921 22.8187 68.7126 22.5316 68.7354 22.2627C68.7581 21.9938 68.7741 21.791 68.7832 21.6543L65.2695 27H62.7676V19.3574H64.7842ZM75.9609 27.1367C75.2044 27.1367 74.5596 27 74.0264 26.7266C73.4932 26.4486 73.0876 26.0202 72.8096 25.4414C72.5316 24.8626 72.3926 24.1221 72.3926 23.2197C72.3926 22.2855 72.5498 21.5244 72.8643 20.9365C73.1833 20.3441 73.623 19.9089 74.1836 19.6309C74.7487 19.3529 75.4027 19.2139 76.1455 19.2139C76.6742 19.2139 77.1299 19.2663 77.5127 19.3711C77.9001 19.4714 78.2373 19.5921 78.5244 19.7334L77.9092 21.3467C77.5811 21.2145 77.2757 21.1074 76.9932 21.0254C76.7106 20.9388 76.4281 20.8955 76.1455 20.8955C75.7809 20.8955 75.4779 20.9821 75.2363 21.1553C74.9948 21.3239 74.8148 21.5791 74.6963 21.9209C74.5778 22.2627 74.5186 22.6911 74.5186 23.2061C74.5186 23.7119 74.5824 24.1312 74.71 24.4639C74.8376 24.7965 75.0221 25.0449 75.2637 25.209C75.5052 25.3685 75.7992 25.4482 76.1455 25.4482C76.5785 25.4482 76.9635 25.3913 77.3008 25.2773C77.638 25.1589 77.9661 24.9948 78.2852 24.7852V26.5693C77.9661 26.7699 77.6312 26.9134 77.2803 27C76.9339 27.0911 76.4941 27.1367 75.9609 27.1367ZM83.1934 19.2002C84.2188 19.2002 85.0049 19.4235 85.5518 19.8701C86.0986 20.3167 86.3721 20.9958 86.3721 21.9072V27H84.916L84.5127 25.9609H84.458C84.2393 26.2344 84.016 26.4577 83.7881 26.6309C83.5602 26.804 83.2982 26.9316 83.002 27.0137C82.7057 27.0957 82.3457 27.1367 81.9219 27.1367C81.4707 27.1367 81.0651 27.0501 80.7051 26.877C80.3496 26.7038 80.0693 26.4395 79.8643 26.084C79.6592 25.724 79.5566 25.2682 79.5566 24.7168C79.5566 23.9056 79.8415 23.3086 80.4111 22.9258C80.9808 22.5384 81.8353 22.3242 82.9746 22.2832L84.3008 22.2422V21.9072C84.3008 21.5062 84.196 21.2122 83.9863 21.0254C83.7767 20.8385 83.485 20.7451 83.1113 20.7451C82.7422 20.7451 82.3799 20.7975 82.0244 20.9023C81.6689 21.0072 81.3135 21.1393 80.958 21.2988L80.2676 19.8906C80.6732 19.6764 81.1266 19.5078 81.6279 19.3848C82.1338 19.2617 82.6556 19.2002 83.1934 19.2002ZM84.3008 23.459L83.4941 23.4863C82.8197 23.5046 82.3503 23.6253 82.0859 23.8486C81.8262 24.0719 81.6963 24.3659 81.6963 24.7305C81.6963 25.0495 81.7897 25.2773 81.9766 25.4141C82.1634 25.5462 82.4072 25.6123 82.708 25.6123C83.1546 25.6123 83.5306 25.4801 83.8359 25.2158C84.1458 24.9515 84.3008 24.5755 84.3008 24.0879V23.459ZM94.8486 20.9229H92.3467V27H90.2617V20.9229H87.7529V19.3574H94.8486V20.9229ZM98.3623 22.3105H99.832C100.616 22.3105 101.263 22.3926 101.773 22.5566C102.284 22.7207 102.664 22.9714 102.915 23.3086C103.166 23.6413 103.291 24.0605 103.291 24.5664C103.291 25.0586 103.177 25.487 102.949 25.8516C102.721 26.2161 102.359 26.4987 101.862 26.6992C101.366 26.8997 100.716 27 99.9141 27H96.2773V19.3574H98.3623V22.3105ZM101.206 24.5938C101.206 24.2975 101.088 24.0833 100.851 23.9512C100.614 23.819 100.26 23.7529 99.791 23.7529H98.3623V25.5576H99.8184C100.224 25.5576 100.557 25.4847 100.816 25.3389C101.076 25.1885 101.206 24.9401 101.206 24.5938ZM107.98 27.1367C107.224 27.1367 106.579 27 106.046 26.7266C105.513 26.4486 105.107 26.0202 104.829 25.4414C104.551 24.8626 104.412 24.1221 104.412 23.2197C104.412 22.2855 104.569 21.5244 104.884 20.9365C105.203 20.3441 105.643 19.9089 106.203 19.6309C106.768 19.3529 107.422 19.2139 108.165 19.2139C108.694 19.2139 109.149 19.2663 109.532 19.3711C109.92 19.4714 110.257 19.5921 110.544 19.7334L109.929 21.3467C109.601 21.2145 109.295 21.1074 109.013 21.0254C108.73 20.9388 108.448 20.8955 108.165 20.8955C107.8 20.8955 107.497 20.9821 107.256 21.1553C107.014 21.3239 106.834 21.5791 106.716 21.9209C106.597 22.2627 106.538 22.6911 106.538 23.2061C106.538 23.7119 106.602 24.1312 106.729 24.4639C106.857 24.7965 107.042 25.0449 107.283 25.209C107.525 25.3685 107.819 25.4482 108.165 25.4482C108.598 25.4482 108.983 25.3913 109.32 25.2773C109.658 25.1589 109.986 24.9948 110.305 24.7852V26.5693C109.986 26.7699 109.651 26.9134 109.3 27C108.953 27.0911 108.514 27.1367 107.98 27.1367ZM113.244 27H110.988L113.046 23.9785C112.786 23.8691 112.542 23.7188 112.314 23.5273C112.087 23.3314 111.902 23.0853 111.761 22.7891C111.619 22.4928 111.549 22.1374 111.549 21.7227C111.549 20.9616 111.836 20.3783 112.41 19.9727C112.989 19.5625 113.734 19.3574 114.646 19.3574H118.2V27H116.115V24.1562H114.967L113.244 27ZM113.593 21.7363C113.593 22.0553 113.718 22.306 113.969 22.4883C114.224 22.666 114.552 22.7549 114.953 22.7549H116.115V20.8271H114.687C114.313 20.8271 114.037 20.9183 113.859 21.1006C113.682 21.2783 113.593 21.4902 113.593 21.7363ZM126.103 19.3574V22.2969H129.015V19.3574H131.1V27H129.015V23.8486H126.103V27H124.018V19.3574H126.103ZM136.418 19.2002C137.443 19.2002 138.229 19.4235 138.776 19.8701C139.323 20.3167 139.597 20.9958 139.597 21.9072V27H138.141L137.737 25.9609H137.683C137.464 26.2344 137.241 26.4577 137.013 26.6309C136.785 26.804 136.523 26.9316 136.227 27.0137C135.93 27.0957 135.57 27.1367 135.146 27.1367C134.695 27.1367 134.29 27.0501 133.93 26.877C133.574 26.7038 133.294 26.4395 133.089 26.084C132.884 25.724 132.781 25.2682 132.781 24.7168C132.781 23.9056 133.066 23.3086 133.636 22.9258C134.205 22.5384 135.06 22.3242 136.199 22.2832L137.525 22.2422V21.9072C137.525 21.5062 137.421 21.2122 137.211 21.0254C137.001 20.8385 136.71 20.7451 136.336 20.7451C135.967 20.7451 135.604 20.7975 135.249 20.9023C134.894 21.0072 134.538 21.1393 134.183 21.2988L133.492 19.8906C133.898 19.6764 134.351 19.5078 134.853 19.3848C135.358 19.2617 135.88 19.2002 136.418 19.2002ZM137.525 23.459L136.719 23.4863C136.044 23.5046 135.575 23.6253 135.311 23.8486C135.051 24.0719 134.921 24.3659 134.921 24.7305C134.921 25.0495 135.014 25.2773 135.201 25.4141C135.388 25.5462 135.632 25.6123 135.933 25.6123C136.379 25.6123 136.755 25.4801 137.061 25.2158C137.37 24.9515 137.525 24.5755 137.525 24.0879V23.459ZM150.397 19.3574H152.694L149.666 23.0215L152.961 27H150.596L147.472 23.124V27H145.387V19.3574H147.472V23.0693L150.397 19.3574ZM161 23.165C161 23.8031 160.913 24.3682 160.74 24.8604C160.572 25.3525 160.323 25.7695 159.995 26.1113C159.672 26.4486 159.28 26.7038 158.819 26.877C158.364 27.0501 157.849 27.1367 157.274 27.1367C156.737 27.1367 156.242 27.0501 155.791 26.877C155.344 26.7038 154.955 26.4486 154.622 26.1113C154.294 25.7695 154.039 25.3525 153.856 24.8604C153.679 24.3682 153.59 23.8031 153.59 23.165C153.59 22.3174 153.74 21.5996 154.041 21.0117C154.342 20.4238 154.77 19.9772 155.326 19.6719C155.882 19.3665 156.545 19.2139 157.315 19.2139C158.031 19.2139 158.664 19.3665 159.216 19.6719C159.772 19.9772 160.207 20.4238 160.521 21.0117C160.84 21.5996 161 22.3174 161 23.165ZM155.716 23.165C155.716 23.6663 155.771 24.0879 155.88 24.4297C155.989 24.7715 156.16 25.029 156.393 25.2021C156.625 25.3753 156.928 25.4619 157.302 25.4619C157.671 25.4619 157.969 25.3753 158.197 25.2021C158.43 25.029 158.598 24.7715 158.703 24.4297C158.812 24.0879 158.867 23.6663 158.867 23.165C158.867 22.6592 158.812 22.2399 158.703 21.9072C158.598 21.57 158.43 21.3171 158.197 21.1484C157.965 20.9798 157.662 20.8955 157.288 20.8955C156.737 20.8955 156.336 21.0846 156.085 21.4629C155.839 21.8411 155.716 22.4085 155.716 23.165ZM164.808 19.3574V22.2969H167.72V19.3574H169.805V27H167.72V23.8486H164.808V27H162.723V19.3574H164.808ZM175.096 27.1367C174.339 27.1367 173.694 27 173.161 26.7266C172.628 26.4486 172.222 26.0202 171.944 25.4414C171.666 24.8626 171.527 24.1221 171.527 23.2197C171.527 22.2855 171.685 21.5244 171.999 20.9365C172.318 20.3441 172.758 19.9089 173.318 19.6309C173.883 19.3529 174.537 19.2139 175.28 19.2139C175.809 19.2139 176.265 19.2663 176.647 19.3711C177.035 19.4714 177.372 19.5921 177.659 19.7334L177.044 21.3467C176.716 21.2145 176.41 21.1074 176.128 21.0254C175.845 20.9388 175.563 20.8955 175.28 20.8955C174.916 20.8955 174.613 20.9821 174.371 21.1553C174.13 21.3239 173.95 21.5791 173.831 21.9209C173.713 22.2627 173.653 22.6911 173.653 23.2061C173.653 23.7119 173.717 24.1312 173.845 24.4639C173.972 24.7965 174.157 25.0449 174.398 25.209C174.64 25.3685 174.934 25.4482 175.28 25.4482C175.713 25.4482 176.098 25.3913 176.436 25.2773C176.773 25.1589 177.101 24.9948 177.42 24.7852V26.5693C177.101 26.7699 176.766 26.9134 176.415 27C176.069 27.0911 175.629 27.1367 175.096 27.1367ZM178.104 19.3574H180.387L181.829 23.6572C181.875 23.7939 181.913 23.9329 181.945 24.0742C181.977 24.2155 182.005 24.3613 182.027 24.5117C182.05 24.6621 182.068 24.8193 182.082 24.9834H182.123C182.15 24.7373 182.187 24.5072 182.232 24.293C182.283 24.0788 182.344 23.8669 182.417 23.6572L183.832 19.3574H186.067L182.834 27.9775C182.638 28.5062 182.383 28.946 182.068 29.2969C181.754 29.6523 181.392 29.9189 180.981 30.0967C180.576 30.2744 180.129 30.3633 179.642 30.3633C179.405 30.3633 179.2 30.3496 179.026 30.3223C178.853 30.2995 178.705 30.2744 178.582 30.2471V28.5928C178.678 28.6156 178.799 28.6361 178.944 28.6543C179.09 28.6725 179.243 28.6816 179.402 28.6816C179.694 28.6816 179.945 28.6201 180.154 28.4971C180.364 28.374 180.539 28.2077 180.681 27.998C180.822 27.793 180.934 27.5674 181.016 27.3213L181.139 26.9453L178.104 19.3574ZM194.011 27H191.926V20.9229H190.005C189.909 22.0439 189.795 22.9987 189.663 23.7871C189.531 24.5755 189.362 25.2181 189.157 25.7148C188.952 26.207 188.697 26.5671 188.392 26.7949C188.086 27.0228 187.71 27.1367 187.264 27.1367C187.018 27.1367 186.797 27.1185 186.601 27.082C186.409 27.0456 186.234 26.9909 186.074 26.918V25.25C186.174 25.291 186.282 25.3252 186.396 25.3525C186.509 25.3753 186.626 25.3867 186.744 25.3867C186.876 25.3867 187.002 25.3343 187.12 25.2295C187.239 25.1247 187.35 24.9447 187.455 24.6895C187.56 24.4297 187.658 24.0719 187.749 23.6162C187.845 23.1605 187.931 22.584 188.009 21.8867C188.086 21.1895 188.159 20.3464 188.228 19.3574H194.011V27ZM198.29 22.3105H199.76C200.544 22.3105 201.191 22.3926 201.701 22.5566C202.212 22.7207 202.592 22.9714 202.843 23.3086C203.093 23.6413 203.219 24.0605 203.219 24.5664C203.219 25.0586 203.105 25.487 202.877 25.8516C202.649 26.2161 202.287 26.4987 201.79 26.6992C201.293 26.8997 200.644 27 199.842 27H196.205V19.3574H198.29V22.3105ZM201.134 24.5938C201.134 24.2975 201.015 24.0833 200.778 23.9512C200.541 23.819 200.188 23.7529 199.719 23.7529H198.29V25.5576H199.746C200.152 25.5576 200.484 25.4847 200.744 25.3389C201.004 25.1885 201.134 24.9401 201.134 24.5938ZM211.128 20.9229H208.626V27H206.541V20.9229H204.032V19.3574H211.128V20.9229ZM215.688 19.2002C216.713 19.2002 217.499 19.4235 218.046 19.8701C218.593 20.3167 218.866 20.9958 218.866 21.9072V27H217.41L217.007 25.9609H216.952C216.733 26.2344 216.51 26.4577 216.282 26.6309C216.054 26.804 215.792 26.9316 215.496 27.0137C215.2 27.0957 214.84 27.1367 214.416 27.1367C213.965 27.1367 213.559 27.0501 213.199 26.877C212.844 26.7038 212.563 26.4395 212.358 26.084C212.153 25.724 212.051 25.2682 212.051 24.7168C212.051 23.9056 212.336 23.3086 212.905 22.9258C213.475 22.5384 214.329 22.3242 215.469 22.2832L216.795 22.2422V21.9072C216.795 21.5062 216.69 21.2122 216.48 21.0254C216.271 20.8385 215.979 20.7451 215.605 20.7451C215.236 20.7451 214.874 20.7975 214.519 20.9023C214.163 21.0072 213.808 21.1393 213.452 21.2988L212.762 19.8906C213.167 19.6764 213.621 19.5078 214.122 19.3848C214.628 19.2617 215.15 19.2002 215.688 19.2002ZM216.795 23.459L215.988 23.4863C215.314 23.5046 214.844 23.6253 214.58 23.8486C214.32 24.0719 214.19 24.3659 214.19 24.7305C214.19 25.0495 214.284 25.2773 214.471 25.4141C214.658 25.5462 214.901 25.6123 215.202 25.6123C215.649 25.6123 216.025 25.4801 216.33 25.2158C216.64 24.9515 216.795 24.5755 216.795 24.0879V23.459ZM229.359 29.7412H227.486V27H221.02V19.3574H223.104V25.4346H226.153V19.3574H228.245V25.4756H229.359V29.7412ZM232.675 19.3574V22.3789C232.675 22.5339 232.668 22.7298 232.654 22.9668C232.645 23.1992 232.632 23.4362 232.613 23.6777C232.595 23.9193 232.577 24.1357 232.559 24.3271C232.54 24.5186 232.527 24.6484 232.518 24.7168L236.045 19.3574H238.554V27H236.537V23.9512C236.537 23.7005 236.546 23.4248 236.564 23.124C236.583 22.8187 236.603 22.5316 236.626 22.2627C236.649 21.9938 236.665 21.791 236.674 21.6543L233.16 27H230.658V19.3574H232.675ZM251.303 23.165C251.303 24.0127 251.157 24.7327 250.865 25.3252C250.578 25.9176 250.166 26.3688 249.628 26.6787C249.095 26.984 248.459 27.1367 247.721 27.1367C247.092 27.1367 246.529 27.0182 246.032 26.7812C245.535 26.5443 245.13 26.1842 244.815 25.7012C244.501 25.2135 244.298 24.596 244.207 23.8486H242.833V27H240.748V19.3574H242.833V22.2969H244.234C244.33 21.6315 244.533 21.071 244.843 20.6152C245.157 20.1549 245.563 19.8063 246.06 19.5693C246.556 19.3324 247.124 19.2139 247.762 19.2139C248.45 19.2139 249.058 19.3665 249.587 19.6719C250.12 19.9772 250.539 20.4238 250.845 21.0117C251.15 21.5996 251.303 22.3174 251.303 23.165ZM246.306 23.165C246.306 23.6663 246.354 24.0879 246.449 24.4297C246.549 24.7715 246.704 25.029 246.914 25.2021C247.128 25.3753 247.406 25.4619 247.748 25.4619C248.085 25.4619 248.359 25.3753 248.568 25.2021C248.778 25.029 248.931 24.7715 249.026 24.4297C249.127 24.0879 249.177 23.6663 249.177 23.165C249.177 22.6592 249.127 22.2399 249.026 21.9072C248.931 21.57 248.776 21.3171 248.562 21.1484C248.352 20.9798 248.076 20.8955 247.734 20.8955C247.397 20.8955 247.124 20.9798 246.914 21.1484C246.704 21.3171 246.549 21.57 246.449 21.9072C246.354 22.2399 246.306 22.6592 246.306 23.165Z" fill="#FAFAFA"/>
</svg>
