<svg width="214" height="44" viewBox="0 0 214 44" fill="none" xmlns="http://www.w3.org/2000/svg">
<rect width="214" height="44" rx="22" fill="#4DC26B"/>
<path d="M36.2578 27.5V17.5059H44.167V27.5H42.0547V19.2695H38.377V27.5H36.2578ZM53.4707 23.665C53.4707 24.3031 53.3841 24.8682 53.2109 25.3604C53.0423 25.8525 52.7939 26.2695 52.4658 26.6113C52.1423 26.9486 51.7503 27.2038 51.29 27.377C50.8343 27.5501 50.3193 27.6367 49.7451 27.6367C49.2074 27.6367 48.7129 27.5501 48.2617 27.377C47.8151 27.2038 47.4255 26.9486 47.0928 26.6113C46.7646 26.2695 46.5094 25.8525 46.3271 25.3604C46.1494 24.8682 46.0605 24.3031 46.0605 23.665C46.0605 22.8174 46.2109 22.0996 46.5117 21.5117C46.8125 20.9238 47.2409 20.4772 47.7969 20.1719C48.3529 19.8665 49.016 19.7139 49.7861 19.7139C50.5016 19.7139 51.1351 19.8665 51.6865 20.1719C52.2425 20.4772 52.6777 20.9238 52.9922 21.5117C53.3112 22.0996 53.4707 22.8174 53.4707 23.665ZM48.1865 23.665C48.1865 24.1663 48.2412 24.5879 48.3506 24.9297C48.46 25.2715 48.6309 25.529 48.8633 25.7021C49.0957 25.8753 49.3988 25.9619 49.7725 25.9619C50.1416 25.9619 50.4401 25.8753 50.668 25.7021C50.9004 25.529 51.069 25.2715 51.1738 24.9297C51.2832 24.5879 51.3379 24.1663 51.3379 23.665C51.3379 23.1592 51.2832 22.7399 51.1738 22.4072C51.069 22.07 50.9004 21.8171 50.668 21.6484C50.4355 21.4798 50.1325 21.3955 49.7588 21.3955C49.2074 21.3955 48.8063 21.5846 48.5557 21.9629C48.3096 22.3411 48.1865 22.9085 48.1865 23.665ZM62.0635 19.8574V25.9756H63.1846V30.2412H61.3115V27.5H56.1709V30.2412H54.2979V25.9756H54.9404C55.2777 25.4606 55.5602 24.8727 55.7881 24.2119C56.0205 23.5511 56.2074 22.8516 56.3486 22.1133C56.4945 21.3704 56.5993 20.6185 56.6631 19.8574H62.0635ZM59.9785 21.4229H58.4131C58.3402 21.988 58.2467 22.5348 58.1328 23.0635C58.0234 23.5876 57.8867 24.0934 57.7227 24.5811C57.5586 25.0641 57.3581 25.529 57.1211 25.9756H59.9785V21.4229ZM68.7422 19.7139C69.6035 19.7139 70.2985 20.0488 70.8271 20.7188C71.3604 21.3887 71.627 22.3708 71.627 23.665C71.627 24.5309 71.5016 25.2601 71.251 25.8525C71.0003 26.4404 70.654 26.8848 70.2119 27.1855C69.7699 27.4863 69.2617 27.6367 68.6875 27.6367C68.3184 27.6367 68.0016 27.5911 67.7373 27.5C67.473 27.4043 67.2474 27.2835 67.0605 27.1377C66.8737 26.9873 66.7119 26.8278 66.5752 26.6592H66.4658C66.5023 26.8415 66.5296 27.0283 66.5479 27.2197C66.5661 27.4111 66.5752 27.598 66.5752 27.7803V30.8633H64.4902V19.8574H66.1855L66.4795 20.8486H66.5752C66.7119 20.6436 66.8783 20.4544 67.0742 20.2812C67.2702 20.1081 67.5049 19.9714 67.7783 19.8711C68.0563 19.7663 68.3776 19.7139 68.7422 19.7139ZM68.0723 21.3818C67.7077 21.3818 67.4183 21.457 67.2041 21.6074C66.9899 21.7578 66.8327 21.9834 66.7324 22.2842C66.6367 22.585 66.5843 22.9655 66.5752 23.4258V23.6514C66.5752 24.1436 66.6208 24.5605 66.7119 24.9023C66.8076 25.2441 66.9648 25.5039 67.1836 25.6816C67.4069 25.8594 67.7122 25.9482 68.0996 25.9482C68.4186 25.9482 68.6807 25.8594 68.8857 25.6816C69.0908 25.5039 69.2435 25.2441 69.3438 24.9023C69.4486 24.556 69.501 24.1344 69.501 23.6377C69.501 22.8903 69.3848 22.3275 69.1523 21.9492C68.9199 21.571 68.5599 21.3818 68.0723 21.3818ZM80.2949 23.665C80.2949 24.3031 80.2083 24.8682 80.0352 25.3604C79.8665 25.8525 79.6182 26.2695 79.29 26.6113C78.9665 26.9486 78.5745 27.2038 78.1143 27.377C77.6585 27.5501 77.1436 27.6367 76.5693 27.6367C76.0316 27.6367 75.5371 27.5501 75.0859 27.377C74.6393 27.2038 74.2497 26.9486 73.917 26.6113C73.5889 26.2695 73.3337 25.8525 73.1514 25.3604C72.9736 24.8682 72.8848 24.3031 72.8848 23.665C72.8848 22.8174 73.0352 22.0996 73.3359 21.5117C73.6367 20.9238 74.0651 20.4772 74.6211 20.1719C75.1771 19.8665 75.8402 19.7139 76.6104 19.7139C77.3258 19.7139 77.9593 19.8665 78.5107 20.1719C79.0667 20.4772 79.502 20.9238 79.8164 21.5117C80.1354 22.0996 80.2949 22.8174 80.2949 23.665ZM75.0107 23.665C75.0107 24.1663 75.0654 24.5879 75.1748 24.9297C75.2842 25.2715 75.4551 25.529 75.6875 25.7021C75.9199 25.8753 76.223 25.9619 76.5967 25.9619C76.9658 25.9619 77.2643 25.8753 77.4922 25.7021C77.7246 25.529 77.8932 25.2715 77.998 24.9297C78.1074 24.5879 78.1621 24.1663 78.1621 23.665C78.1621 23.1592 78.1074 22.7399 77.998 22.4072C77.8932 22.07 77.7246 21.8171 77.4922 21.6484C77.2598 21.4798 76.9567 21.3955 76.583 21.3955C76.0316 21.3955 75.6305 21.5846 75.3799 21.9629C75.1338 22.3411 75.0107 22.9085 75.0107 23.665ZM81.5527 22.9199C81.5527 21.7943 81.6917 20.8372 81.9697 20.0488C82.2477 19.2604 82.6898 18.6315 83.2959 18.1621C83.902 17.6882 84.6973 17.3669 85.6816 17.1982C86.1738 17.1117 86.6729 17.041 87.1787 16.9863C87.6891 16.9271 88.2178 16.861 88.7646 16.7881L89.0039 18.6133C88.7669 18.6406 88.5094 18.6702 88.2314 18.7021C87.9535 18.734 87.6732 18.7682 87.3906 18.8047C87.1081 18.8366 86.8346 18.8708 86.5703 18.9072C86.306 18.9391 86.0667 18.971 85.8525 19.0029C85.3877 19.0758 85.0003 19.1898 84.6904 19.3447C84.3805 19.4997 84.1436 19.7458 83.9795 20.083C83.8154 20.4202 83.7152 20.9056 83.6787 21.5391H83.7812C83.8906 21.3659 84.0456 21.1904 84.2461 21.0127C84.4466 20.8304 84.695 20.68 84.9912 20.5615C85.2874 20.4385 85.6292 20.377 86.0166 20.377C86.6273 20.377 87.1559 20.5023 87.6025 20.7529C88.0492 21.0036 88.3932 21.3773 88.6348 21.874C88.8809 22.3662 89.0039 22.9814 89.0039 23.7197C89.0039 24.5856 88.8444 25.3102 88.5254 25.8936C88.2109 26.4723 87.7734 26.9076 87.2129 27.1992C86.6523 27.4909 86.0029 27.6367 85.2646 27.6367C84.6995 27.6367 84.1891 27.5342 83.7334 27.3291C83.2777 27.124 82.8857 26.821 82.5576 26.4199C82.234 26.0189 81.9857 25.5267 81.8125 24.9434C81.6393 24.3555 81.5527 23.681 81.5527 22.9199ZM85.3877 25.9482C85.6839 25.9482 85.9414 25.8844 86.1602 25.7568C86.3835 25.6247 86.5566 25.4105 86.6797 25.1143C86.8073 24.8135 86.8711 24.4102 86.8711 23.9043C86.8711 23.2936 86.7686 22.8105 86.5635 22.4551C86.363 22.0951 86.0189 21.915 85.5312 21.915C85.235 21.915 84.957 21.988 84.6973 22.1338C84.4421 22.2751 84.2256 22.4391 84.0479 22.626C83.8701 22.8083 83.7471 22.9632 83.6787 23.0908C83.6787 23.4508 83.7061 23.8018 83.7607 24.1436C83.82 24.4808 83.9134 24.7861 84.041 25.0596C84.1686 25.333 84.3418 25.5495 84.5605 25.709C84.7839 25.8685 85.0596 25.9482 85.3877 25.9482ZM92.8115 19.8574V22.7969H95.7236V19.8574H97.8086V27.5H95.7236V24.3486H92.8115V27.5H90.7266V19.8574H92.8115ZM103.147 19.7139C103.854 19.7139 104.462 19.8506 104.973 20.124C105.483 20.3929 105.877 20.7848 106.155 21.2998C106.433 21.8148 106.572 22.4437 106.572 23.1865V24.1982H101.644C101.666 24.7861 101.842 25.2487 102.17 25.5859C102.503 25.9186 102.963 26.085 103.551 26.085C104.038 26.085 104.485 26.0348 104.891 25.9346C105.296 25.8343 105.713 25.6839 106.142 25.4834V27.0967C105.763 27.2835 105.367 27.4202 104.952 27.5068C104.542 27.5934 104.043 27.6367 103.455 27.6367C102.689 27.6367 102.01 27.4954 101.418 27.2129C100.83 26.9303 100.368 26.4997 100.03 25.9209C99.6976 25.3421 99.5312 24.613 99.5312 23.7334C99.5312 22.8402 99.6816 22.0973 99.9824 21.5049C100.288 20.9079 100.712 20.4613 101.254 20.165C101.796 19.8643 102.427 19.7139 103.147 19.7139ZM103.161 21.1973C102.756 21.1973 102.418 21.3271 102.149 21.5869C101.885 21.8467 101.732 22.2546 101.691 22.8105H104.617C104.613 22.5007 104.556 22.2249 104.446 21.9834C104.341 21.7419 104.182 21.5505 103.968 21.4092C103.758 21.2679 103.489 21.1973 103.161 21.1973ZM111.419 19.7139C112.125 19.7139 112.734 19.8506 113.244 20.124C113.755 20.3929 114.149 20.7848 114.427 21.2998C114.705 21.8148 114.844 22.4437 114.844 23.1865V24.1982H109.915C109.938 24.7861 110.113 25.2487 110.441 25.5859C110.774 25.9186 111.234 26.085 111.822 26.085C112.31 26.085 112.757 26.0348 113.162 25.9346C113.568 25.8343 113.985 25.6839 114.413 25.4834V27.0967C114.035 27.2835 113.638 27.4202 113.224 27.5068C112.813 27.5934 112.314 27.6367 111.727 27.6367C110.961 27.6367 110.282 27.4954 109.689 27.2129C109.102 26.9303 108.639 26.4997 108.302 25.9209C107.969 25.3421 107.803 24.613 107.803 23.7334C107.803 22.8402 107.953 22.0973 108.254 21.5049C108.559 20.9079 108.983 20.4613 109.525 20.165C110.068 19.8643 110.699 19.7139 111.419 19.7139ZM111.433 21.1973C111.027 21.1973 110.69 21.3271 110.421 21.5869C110.157 21.8467 110.004 22.2546 109.963 22.8105H112.889C112.884 22.5007 112.827 22.2249 112.718 21.9834C112.613 21.7419 112.453 21.5505 112.239 21.4092C112.03 21.2679 111.761 21.1973 111.433 21.1973ZM127.121 23.665C127.121 24.3031 127.035 24.8682 126.861 25.3604C126.693 25.8525 126.444 26.2695 126.116 26.6113C125.793 26.9486 125.401 27.2038 124.94 27.377C124.485 27.5501 123.97 27.6367 123.396 27.6367C122.858 27.6367 122.363 27.5501 121.912 27.377C121.465 27.2038 121.076 26.9486 120.743 26.6113C120.415 26.2695 120.16 25.8525 119.978 25.3604C119.8 24.8682 119.711 24.3031 119.711 23.665C119.711 22.8174 119.861 22.0996 120.162 21.5117C120.463 20.9238 120.891 20.4772 121.447 20.1719C122.003 19.8665 122.666 19.7139 123.437 19.7139C124.152 19.7139 124.785 19.8665 125.337 20.1719C125.893 20.4772 126.328 20.9238 126.643 21.5117C126.962 22.0996 127.121 22.8174 127.121 23.665ZM121.837 23.665C121.837 24.1663 121.892 24.5879 122.001 24.9297C122.11 25.2715 122.281 25.529 122.514 25.7021C122.746 25.8753 123.049 25.9619 123.423 25.9619C123.792 25.9619 124.09 25.8753 124.318 25.7021C124.551 25.529 124.719 25.2715 124.824 24.9297C124.934 24.5879 124.988 24.1663 124.988 23.665C124.988 23.1592 124.934 22.7399 124.824 22.4072C124.719 22.07 124.551 21.8171 124.318 21.6484C124.086 21.4798 123.783 21.3955 123.409 21.3955C122.858 21.3955 122.457 21.5846 122.206 21.9629C121.96 22.3411 121.837 22.9085 121.837 23.665ZM128.379 22.9199C128.379 21.7943 128.518 20.8372 128.796 20.0488C129.074 19.2604 129.516 18.6315 130.122 18.1621C130.728 17.6882 131.523 17.3669 132.508 17.1982C133 17.1117 133.499 17.041 134.005 16.9863C134.515 16.9271 135.044 16.861 135.591 16.7881L135.83 18.6133C135.593 18.6406 135.336 18.6702 135.058 18.7021C134.78 18.734 134.499 18.7682 134.217 18.8047C133.934 18.8366 133.661 18.8708 133.396 18.9072C133.132 18.9391 132.893 18.971 132.679 19.0029C132.214 19.0758 131.826 19.1898 131.517 19.3447C131.207 19.4997 130.97 19.7458 130.806 20.083C130.642 20.4202 130.541 20.9056 130.505 21.5391H130.607C130.717 21.3659 130.872 21.1904 131.072 21.0127C131.273 20.8304 131.521 20.68 131.817 20.5615C132.114 20.4385 132.455 20.377 132.843 20.377C133.453 20.377 133.982 20.5023 134.429 20.7529C134.875 21.0036 135.219 21.3773 135.461 21.874C135.707 22.3662 135.83 22.9814 135.83 23.7197C135.83 24.5856 135.671 25.3102 135.352 25.8936C135.037 26.4723 134.6 26.9076 134.039 27.1992C133.479 27.4909 132.829 27.6367 132.091 27.6367C131.526 27.6367 131.015 27.5342 130.56 27.3291C130.104 27.124 129.712 26.821 129.384 26.4199C129.06 26.0189 128.812 25.5267 128.639 24.9434C128.465 24.3555 128.379 23.681 128.379 22.9199ZM132.214 25.9482C132.51 25.9482 132.768 25.8844 132.986 25.7568C133.21 25.6247 133.383 25.4105 133.506 25.1143C133.633 24.8135 133.697 24.4102 133.697 23.9043C133.697 23.2936 133.595 22.8105 133.39 22.4551C133.189 22.0951 132.845 21.915 132.357 21.915C132.061 21.915 131.783 21.988 131.523 22.1338C131.268 22.2751 131.052 22.4391 130.874 22.626C130.696 22.8083 130.573 22.9632 130.505 23.0908C130.505 23.4508 130.532 23.8018 130.587 24.1436C130.646 24.4808 130.74 24.7861 130.867 25.0596C130.995 25.333 131.168 25.5495 131.387 25.709C131.61 25.8685 131.886 25.9482 132.214 25.9482ZM144.498 23.665C144.498 24.3031 144.411 24.8682 144.238 25.3604C144.07 25.8525 143.821 26.2695 143.493 26.6113C143.17 26.9486 142.778 27.2038 142.317 27.377C141.862 27.5501 141.347 27.6367 140.772 27.6367C140.235 27.6367 139.74 27.5501 139.289 27.377C138.842 27.2038 138.453 26.9486 138.12 26.6113C137.792 26.2695 137.537 25.8525 137.354 25.3604C137.177 24.8682 137.088 24.3031 137.088 23.665C137.088 22.8174 137.238 22.0996 137.539 21.5117C137.84 20.9238 138.268 20.4772 138.824 20.1719C139.38 19.8665 140.043 19.7139 140.813 19.7139C141.529 19.7139 142.162 19.8665 142.714 20.1719C143.27 20.4772 143.705 20.9238 144.02 21.5117C144.339 22.0996 144.498 22.8174 144.498 23.665ZM139.214 23.665C139.214 24.1663 139.269 24.5879 139.378 24.9297C139.487 25.2715 139.658 25.529 139.891 25.7021C140.123 25.8753 140.426 25.9619 140.8 25.9619C141.169 25.9619 141.467 25.8753 141.695 25.7021C141.928 25.529 142.096 25.2715 142.201 24.9297C142.311 24.5879 142.365 24.1663 142.365 23.665C142.365 23.1592 142.311 22.7399 142.201 22.4072C142.096 22.07 141.928 21.8171 141.695 21.6484C141.463 21.4798 141.16 21.3955 140.786 21.3955C140.235 21.3955 139.834 21.5846 139.583 21.9629C139.337 22.3411 139.214 22.9085 139.214 23.665ZM159.489 19.8574V27.5H157.541V23.7471C157.541 23.3779 157.548 23.0156 157.562 22.6602C157.575 22.3047 157.596 21.9766 157.623 21.6758H157.582L155.47 27.5H153.904L151.758 21.6621H151.703C151.74 21.9674 151.765 22.2956 151.778 22.6465C151.792 22.9974 151.799 23.3825 151.799 23.8018V27.5H149.857V19.8574H152.811L154.711 25.0391L156.646 19.8574H159.489ZM163.769 19.8574V22.7969H166.681V19.8574H168.766V27.5H166.681V24.3486H163.769V27.5H161.684V19.8574H163.769ZM174.104 19.7139C174.811 19.7139 175.419 19.8506 175.93 20.124C176.44 20.3929 176.834 20.7848 177.112 21.2998C177.39 21.8148 177.529 22.4437 177.529 23.1865V24.1982H172.601C172.623 24.7861 172.799 25.2487 173.127 25.5859C173.46 25.9186 173.92 26.085 174.508 26.085C174.995 26.085 175.442 26.0348 175.848 25.9346C176.253 25.8343 176.67 25.6839 177.099 25.4834V27.0967C176.72 27.2835 176.324 27.4202 175.909 27.5068C175.499 27.5934 175 27.6367 174.412 27.6367C173.646 27.6367 172.967 27.4954 172.375 27.2129C171.787 26.9303 171.325 26.4997 170.987 25.9209C170.655 25.3421 170.488 24.613 170.488 23.7334C170.488 22.8402 170.639 22.0973 170.939 21.5049C171.245 20.9079 171.669 20.4613 172.211 20.165C172.753 19.8643 173.384 19.7139 174.104 19.7139ZM174.118 21.1973C173.713 21.1973 173.375 21.3271 173.106 21.5869C172.842 21.8467 172.689 22.2546 172.648 22.8105H175.574C175.57 22.5007 175.513 22.2249 175.403 21.9834C175.299 21.7419 175.139 21.5505 174.925 21.4092C174.715 21.2679 174.446 21.1973 174.118 21.1973Z" fill="#FAFAFA"/>
</svg>
