<svg width="285" height="46" viewBox="0 0 285 46" fill="none" xmlns="http://www.w3.org/2000/svg">
<path d="M59.4053 24H56.0859V11.0664H52.2402C52.1543 11.7396 52.0612 12.4736 51.9609 13.2686C51.8607 14.0635 51.7568 14.8656 51.6494 15.6748C51.542 16.484 51.4274 17.2539 51.3057 17.9844C51.1911 18.7148 51.0765 19.3558 50.9619 19.9072C50.7757 20.8239 50.5215 21.6045 50.1992 22.249C49.8841 22.8864 49.4508 23.3734 48.8994 23.71C48.3551 24.0465 47.6426 24.2148 46.7617 24.2148C46.4681 24.2148 46.1852 24.1934 45.9131 24.1504C45.6481 24.1074 45.401 24.0501 45.1719 23.9785V21.25C45.3581 21.3145 45.5443 21.3682 45.7305 21.4111C45.9167 21.4469 46.1208 21.4648 46.3428 21.4648C46.6292 21.4648 46.8656 21.3717 47.0518 21.1855C47.2451 20.9922 47.417 20.6663 47.5674 20.208C47.7178 19.7425 47.8682 19.1016 48.0186 18.2852C48.083 17.9271 48.1689 17.4222 48.2764 16.7705C48.3838 16.1117 48.5055 15.3418 48.6416 14.4609C48.7777 13.5729 48.9173 12.6061 49.0605 11.5605C49.2109 10.515 49.3542 9.42643 49.4902 8.29492H59.4053V24ZM76.854 16.126C76.854 17.3363 76.7036 18.4391 76.4029 19.4346C76.1021 20.4229 75.6437 21.2751 75.0279 21.9912C74.4191 22.7074 73.6457 23.2588 72.7075 23.6455C71.7694 24.0251 70.6594 24.2148 69.3775 24.2148C68.0956 24.2148 66.9855 24.0251 66.0474 23.6455C65.1092 23.2588 64.3322 22.7074 63.7163 21.9912C63.1076 21.2751 62.6529 20.4193 62.3521 19.4238C62.0513 18.4284 61.9009 17.3219 61.9009 16.1045C61.9009 14.4788 62.1659 13.0645 62.6958 11.8613C63.2329 10.651 64.0565 9.71289 65.1665 9.04688C66.2765 8.38086 67.6874 8.04785 69.3989 8.04785C71.1034 8.04785 72.5034 8.38086 73.5991 9.04688C74.702 9.71289 75.5184 10.651 76.0484 11.8613C76.5855 13.0716 76.854 14.4932 76.854 16.126ZM65.3921 16.126C65.3921 17.2217 65.5282 18.167 65.8003 18.9619C66.0796 19.7497 66.5129 20.3584 67.1001 20.7881C67.6874 21.2106 68.4465 21.4219 69.3775 21.4219C70.3228 21.4219 71.089 21.2106 71.6763 20.7881C72.2635 20.3584 72.6896 19.7497 72.9546 18.9619C73.2267 18.167 73.3628 17.2217 73.3628 16.126C73.3628 14.4788 73.0549 13.1826 72.439 12.2373C71.8231 11.292 70.8098 10.8193 69.3989 10.8193C68.4608 10.8193 67.6945 11.0342 67.1001 11.4639C66.5129 11.8864 66.0796 12.4951 65.8003 13.29C65.5282 14.0778 65.3921 15.0231 65.3921 16.126ZM89.2647 8.29492V11.0449H82.669V24H79.3389V8.29492H89.2647ZM90.9224 8.29492H93.9195V15.8789C93.9195 16.2513 93.9123 16.6631 93.898 17.1143C93.8908 17.5654 93.8765 18.0094 93.855 18.4463C93.8407 18.876 93.8264 19.252 93.8121 19.5742C93.7977 19.8965 93.7834 20.1113 93.7691 20.2188H93.8336L101.085 8.29492H105.07V24H102.105V16.459C102.105 16.0579 102.112 15.6211 102.127 15.1484C102.141 14.6758 102.159 14.2174 102.18 13.7734C102.209 13.3294 102.234 12.9463 102.255 12.624C102.277 12.2946 102.291 12.0762 102.298 11.9688H102.212L94.9293 24H90.9224V8.29492ZM121.133 24H117.814V17.2217H111.594V24H108.264V8.29492H111.594V14.4502H117.814V8.29492H121.133V24ZM138.592 16.126C138.592 17.3363 138.442 18.4391 138.141 19.4346C137.84 20.4229 137.382 21.2751 136.766 21.9912C136.157 22.7074 135.384 23.2588 134.446 23.6455C133.508 24.0251 132.398 24.2148 131.116 24.2148C129.834 24.2148 128.724 24.0251 127.786 23.6455C126.848 23.2588 126.071 22.7074 125.455 21.9912C124.846 21.2751 124.391 20.4193 124.09 19.4238C123.79 18.4284 123.639 17.3219 123.639 16.1045C123.639 14.4788 123.904 13.0645 124.434 11.8613C124.971 10.651 125.795 9.71289 126.905 9.04688C128.015 8.38086 129.426 8.04785 131.137 8.04785C132.842 8.04785 134.242 8.38086 135.338 9.04688C136.44 9.71289 137.257 10.651 137.787 11.8613C138.324 13.0716 138.592 14.4932 138.592 16.126ZM127.13 16.126C127.13 17.2217 127.267 18.167 127.539 18.9619C127.818 19.7497 128.251 20.3584 128.838 20.7881C129.426 21.2106 130.185 21.4219 131.116 21.4219C132.061 21.4219 132.827 21.2106 133.415 20.7881C134.002 20.3584 134.428 19.7497 134.693 18.9619C134.965 18.167 135.101 17.2217 135.101 16.126C135.101 14.4788 134.793 13.1826 134.177 12.2373C133.561 11.292 132.548 10.8193 131.137 10.8193C130.199 10.8193 129.433 11.0342 128.838 11.4639C128.251 11.8864 127.818 12.4951 127.539 13.29C127.267 14.0778 127.13 15.0231 127.13 16.126ZM141.077 8.29492H145.965C148.056 8.29492 149.639 8.58854 150.713 9.17578C151.787 9.76302 152.324 10.7943 152.324 12.2695C152.324 12.8639 152.228 13.401 152.034 13.8809C151.848 14.3607 151.576 14.7546 151.218 15.0625C150.86 15.3704 150.423 15.571 149.907 15.6641V15.7715C150.43 15.8789 150.903 16.0651 151.325 16.3301C151.748 16.5879 152.084 16.9674 152.335 17.4688C152.593 17.9629 152.722 18.6217 152.722 19.4453C152.722 20.3978 152.489 21.2142 152.024 21.8945C151.558 22.5749 150.892 23.0977 150.026 23.4629C149.166 23.821 148.142 24 146.953 24H141.077V8.29492ZM144.407 14.5146H146.341C147.308 14.5146 147.977 14.3643 148.35 14.0635C148.722 13.7555 148.908 13.3044 148.908 12.71C148.908 12.1084 148.686 11.6787 148.242 11.4209C147.805 11.1559 147.111 11.0234 146.158 11.0234H144.407V14.5146ZM144.407 17.1572V21.25H146.577C147.58 21.25 148.278 21.0566 148.672 20.6699C149.066 20.2832 149.263 19.764 149.263 19.1123C149.263 18.7256 149.177 18.3854 149.005 18.0918C148.833 17.7982 148.543 17.569 148.135 17.4043C147.734 17.2396 147.179 17.1572 146.47 17.1572H144.407ZM164.703 24L163.564 20.2617H157.839L156.7 24H153.112L158.655 8.23047H162.726L168.291 24H164.703ZM162.769 17.4688L161.631 13.8164C161.559 13.5729 161.462 13.2614 161.34 12.8818C161.226 12.4951 161.108 12.1048 160.986 11.7109C160.871 11.3099 160.778 10.9626 160.707 10.6689C160.635 10.9626 160.535 11.3278 160.406 11.7646C160.284 12.1943 160.166 12.6025 160.051 12.9893C159.937 13.376 159.854 13.6517 159.804 13.8164L158.676 17.4688H162.769ZM181.124 10.8408C180.486 10.8408 179.921 10.9661 179.426 11.2168C178.939 11.4603 178.528 11.8148 178.191 12.2803C177.862 12.7458 177.611 13.3079 177.439 13.9668C177.267 14.6257 177.181 15.3669 177.181 16.1904C177.181 17.3005 177.317 18.2493 177.59 19.0371C177.869 19.8177 178.299 20.4157 178.879 20.8311C179.459 21.2393 180.207 21.4434 181.124 21.4434C181.761 21.4434 182.398 21.3717 183.036 21.2285C183.68 21.0853 184.379 20.8812 185.131 20.6162V23.4092C184.436 23.6956 183.752 23.8997 183.079 24.0215C182.406 24.1504 181.65 24.2148 180.812 24.2148C179.194 24.2148 177.862 23.8818 176.816 23.2158C175.778 22.5426 175.008 21.6045 174.507 20.4014C174.005 19.1911 173.755 17.7803 173.755 16.1689C173.755 14.9801 173.916 13.8916 174.238 12.9033C174.56 11.915 175.033 11.0592 175.656 10.3359C176.279 9.61263 177.049 9.05404 177.966 8.66016C178.882 8.26628 179.935 8.06934 181.124 8.06934C181.904 8.06934 182.685 8.1696 183.466 8.37012C184.253 8.56348 185.005 8.83203 185.721 9.17578L184.647 11.8828C184.06 11.6035 183.469 11.36 182.875 11.1523C182.28 10.9447 181.697 10.8408 181.124 10.8408ZM187.712 8.29492H192.6C194.691 8.29492 196.274 8.58854 197.348 9.17578C198.422 9.76302 198.959 10.7943 198.959 12.2695C198.959 12.8639 198.863 13.401 198.669 13.8809C198.483 14.3607 198.211 14.7546 197.853 15.0625C197.495 15.3704 197.058 15.571 196.542 15.6641V15.7715C197.065 15.8789 197.538 16.0651 197.96 16.3301C198.383 16.5879 198.719 16.9674 198.97 17.4688C199.228 17.9629 199.357 18.6217 199.357 19.4453C199.357 20.3978 199.124 21.2142 198.658 21.8945C198.193 22.5749 197.527 23.0977 196.66 23.4629C195.801 23.821 194.777 24 193.588 24H187.712V8.29492ZM191.042 14.5146H192.976C193.943 14.5146 194.612 14.3643 194.985 14.0635C195.357 13.7555 195.543 13.3044 195.543 12.71C195.543 12.1084 195.321 11.6787 194.877 11.4209C194.44 11.1559 193.746 11.0234 192.793 11.0234H191.042V14.5146ZM191.042 17.1572V21.25H193.212C194.215 21.25 194.913 21.0566 195.307 20.6699C195.701 20.2832 195.898 19.764 195.898 19.1123C195.898 18.7256 195.812 18.3854 195.64 18.0918C195.468 17.7982 195.178 17.569 194.77 17.4043C194.369 17.2396 193.814 17.1572 193.105 17.1572H191.042ZM210.768 24H201.723V8.29492H210.768V11.0234H205.053V14.4717H210.371V17.2002H205.053V21.25H210.768V24ZM219.344 24H216.014V11.0664H211.749V8.29492H223.609V11.0664H219.344V24ZM237.684 24H234.365V11.0664H230.519C230.433 11.7396 230.34 12.4736 230.24 13.2686C230.14 14.0635 230.036 14.8656 229.928 15.6748C229.821 16.484 229.706 17.2539 229.585 17.9844C229.47 18.7148 229.356 19.3558 229.241 19.9072C229.055 20.8239 228.801 21.6045 228.478 22.249C228.163 22.8864 227.73 23.3734 227.178 23.71C226.634 24.0465 225.922 24.2148 225.041 24.2148C224.747 24.2148 224.464 24.1934 224.192 24.1504C223.927 24.1074 223.68 24.0501 223.451 23.9785V21.25C223.637 21.3145 223.823 21.3682 224.01 21.4111C224.196 21.4469 224.4 21.4648 224.622 21.4648C224.908 21.4648 225.145 21.3717 225.331 21.1855C225.524 20.9922 225.696 20.6663 225.846 20.208C225.997 19.7425 226.147 19.1016 226.298 18.2852C226.362 17.9271 226.448 17.4222 226.555 16.7705C226.663 16.1117 226.785 15.3418 226.921 14.4609C227.057 13.5729 227.196 12.6061 227.34 11.5605C227.49 10.515 227.633 9.42643 227.769 8.29492H237.684V24ZM250.492 24L249.354 20.2617H243.628L242.49 24H238.902L244.445 8.23047H248.516L254.08 24H250.492ZM248.559 17.4688L247.42 13.8164C247.349 13.5729 247.252 13.2614 247.13 12.8818C247.016 12.4951 246.897 12.1048 246.776 11.7109C246.661 11.3099 246.568 10.9626 246.496 10.6689C246.425 10.9626 246.324 11.3278 246.196 11.7646C246.074 12.1943 245.956 12.6025 245.841 12.9893C245.727 13.376 245.644 13.6517 245.594 13.8164L244.466 17.4688H248.559ZM268.167 24H264.847V17.2217H258.628V24H255.298V8.29492H258.628V14.4502H264.847V8.29492H268.167V24ZM280.986 24L279.847 20.2617H274.121L272.983 24H269.395L274.938 8.23047H279.009L284.574 24H280.986ZM279.052 17.4688L277.913 13.8164C277.842 13.5729 277.745 13.2614 277.623 12.8818C277.509 12.4951 277.391 12.1048 277.269 11.7109C277.154 11.3099 277.061 10.9626 276.99 10.6689C276.918 10.9626 276.818 11.3278 276.689 11.7646C276.567 12.1943 276.449 12.6025 276.334 12.9893C276.22 13.376 276.137 13.6517 276.087 13.8164L274.959 17.4688H279.052Z" fill="white"/>
<path d="M53.0254 32.0059V40.9609H54.2559V44.6113H53.1416V42H46.1963V44.6113H45.082V40.9609H45.8477C46.1895 40.3776 46.5085 39.7236 46.8047 38.999C47.1055 38.2699 47.3721 37.5088 47.6045 36.7158C47.8415 35.9183 48.0329 35.1185 48.1787 34.3164C48.3291 33.5143 48.4248 32.7441 48.4658 32.0059H53.0254ZM51.8701 33.0518H49.4912C49.4502 33.6169 49.359 34.248 49.2178 34.9453C49.0765 35.638 48.8942 36.349 48.6709 37.0781C48.4521 37.8073 48.2061 38.5068 47.9326 39.1768C47.6637 39.8467 47.3789 40.4414 47.0781 40.9609H51.8701V33.0518ZM58.805 34.3711C59.4431 34.3711 59.9899 34.5124 60.4457 34.7949C60.9014 35.0775 61.25 35.474 61.4916 35.9844C61.7331 36.4902 61.8539 37.0827 61.8539 37.7617V38.4658H56.6791C56.6927 39.3454 56.9115 40.0153 57.3353 40.4756C57.7591 40.9359 58.3561 41.166 59.1263 41.166C59.6003 41.166 60.0196 41.1227 60.3841 41.0361C60.7487 40.9495 61.127 40.8219 61.5189 40.6533V41.6514C61.1407 41.82 60.7647 41.943 60.391 42.0205C60.0218 42.098 59.5843 42.1367 59.0785 42.1367C58.3584 42.1367 57.7295 41.9909 57.1918 41.6992C56.6586 41.403 56.2438 40.9701 55.9476 40.4004C55.6514 39.8307 55.5033 39.1335 55.5033 38.3086C55.5033 37.502 55.6377 36.8047 55.9066 36.2168C56.18 35.6243 56.5629 35.1686 57.055 34.8496C57.5518 34.5306 58.1351 34.3711 58.805 34.3711ZM58.7914 35.3008C58.1852 35.3008 57.7022 35.499 57.3421 35.8955C56.9821 36.292 56.7679 36.8457 56.6996 37.5566H60.6644C60.6599 37.11 60.5892 36.7181 60.4525 36.3809C60.3203 36.0391 60.1175 35.7747 59.8441 35.5879C59.5707 35.3965 59.2198 35.3008 58.7914 35.3008ZM69.028 35.4717H66.5603V42H65.4392V35.4717H63.0056V34.5078H69.028V35.4717ZM73.6524 42.1367C72.9779 42.1367 72.3832 41.9977 71.8682 41.7197C71.3533 41.4417 70.9522 41.0179 70.6651 40.4482C70.378 39.8786 70.2345 39.1608 70.2345 38.2949C70.2345 37.388 70.3848 36.6475 70.6856 36.0732C70.991 35.4945 71.4102 35.0661 71.9434 34.7881C72.4766 34.5101 73.0828 34.3711 73.7618 34.3711C74.1355 34.3711 74.4955 34.4098 74.8419 34.4873C75.1928 34.5602 75.4799 34.6536 75.7032 34.7676L75.3614 35.7178C75.1335 35.6266 74.8692 35.5446 74.5684 35.4717C74.2722 35.3988 73.9942 35.3623 73.7345 35.3623C73.2149 35.3623 72.782 35.474 72.4356 35.6973C72.0938 35.9206 71.8363 36.2487 71.6632 36.6816C71.4945 37.1146 71.4102 37.6478 71.4102 38.2812C71.4102 38.8874 71.4923 39.4046 71.6563 39.833C71.8249 40.2614 72.0733 40.5895 72.4014 40.8174C72.7341 41.0407 73.1488 41.1523 73.6456 41.1523C74.0421 41.1523 74.3998 41.1113 74.7188 41.0293C75.0378 40.9427 75.3272 40.8424 75.587 40.7285V41.7402C75.3363 41.8678 75.0561 41.9658 74.7462 42.0342C74.4408 42.1025 74.0763 42.1367 73.6524 42.1367ZM81.8725 34.5078H83.1235L79.8901 38.124L83.3832 42H82.0502L78.6459 38.1992V42H77.5043V34.5078H78.6459V38.1445L81.8725 34.5078ZM85.9568 34.5078V39.2178C85.9568 39.3089 85.9546 39.4274 85.95 39.5732C85.9454 39.7145 85.9386 39.8672 85.9295 40.0312C85.9204 40.1908 85.9113 40.3457 85.9021 40.4961C85.8976 40.6419 85.8908 40.7627 85.8816 40.8584L89.9695 34.5078H91.3641V42H90.3045V37.4062C90.3045 37.2604 90.3068 37.0736 90.3113 36.8457C90.3159 36.6178 90.3227 36.3945 90.3318 36.1758C90.341 35.9525 90.3478 35.7793 90.3523 35.6562L86.2781 42H84.8768V34.5078H85.9568ZM94.9972 34.5078V39.2178C94.9972 39.3089 94.9949 39.4274 94.9904 39.5732C94.9858 39.7145 94.979 39.8672 94.9699 40.0312C94.9608 40.1908 94.9517 40.3457 94.9425 40.4961C94.938 40.6419 94.9311 40.7627 94.922 40.8584L99.0099 34.5078H100.404V42H99.3449V37.4062C99.3449 37.2604 99.3472 37.0736 99.3517 36.8457C99.3563 36.6178 99.3631 36.3945 99.3722 36.1758C99.3813 35.9525 99.3882 35.7793 99.3927 35.6562L95.3185 42H93.9171V34.5078H94.9972ZM99.8439 31.4248C99.8029 31.8851 99.6867 32.2702 99.4953 32.5801C99.3084 32.89 99.0327 33.1247 98.6681 33.2842C98.3035 33.4391 97.8364 33.5166 97.2668 33.5166C96.6789 33.5166 96.2049 33.4414 95.8449 33.291C95.4894 33.1361 95.2251 32.9036 95.0519 32.5938C94.8833 32.2839 94.783 31.8942 94.7511 31.4248H95.8175C95.8677 31.9261 96.0021 32.2679 96.2209 32.4502C96.4396 32.6325 96.7951 32.7236 97.2873 32.7236C97.7248 32.7236 98.0688 32.6279 98.3195 32.4365C98.5701 32.2451 98.7205 31.9079 98.7707 31.4248H99.8439ZM113.01 34.5078V42H111.868V35.4854H107.876V42H106.734V34.5078H113.01ZM118.557 42.1367C117.882 42.1367 117.288 41.9977 116.773 41.7197C116.258 41.4417 115.857 41.0179 115.57 40.4482C115.282 39.8786 115.139 39.1608 115.139 38.2949C115.139 37.388 115.289 36.6475 115.59 36.0732C115.895 35.4945 116.315 35.0661 116.848 34.7881C117.381 34.5101 117.987 34.3711 118.666 34.3711C119.04 34.3711 119.4 34.4098 119.746 34.4873C120.097 34.5602 120.384 34.6536 120.608 34.7676L120.266 35.7178C120.038 35.6266 119.774 35.5446 119.473 35.4717C119.177 35.3988 118.899 35.3623 118.639 35.3623C118.119 35.3623 117.686 35.474 117.34 35.6973C116.998 35.9206 116.741 36.2487 116.568 36.6816C116.399 37.1146 116.315 37.6478 116.315 38.2812C116.315 38.8874 116.397 39.4046 116.561 39.833C116.729 40.2614 116.978 40.5895 117.306 40.8174C117.639 41.0407 118.053 41.1523 118.55 41.1523C118.947 41.1523 119.304 41.1113 119.623 41.0293C119.942 40.9427 120.232 40.8424 120.491 40.7285V41.7402C120.241 41.8678 119.961 41.9658 119.651 42.0342C119.345 42.1025 118.981 42.1367 118.557 42.1367ZM123.489 34.5078V39.2178C123.489 39.3089 123.487 39.4274 123.482 39.5732C123.477 39.7145 123.471 39.8672 123.462 40.0312C123.452 40.1908 123.443 40.3457 123.434 40.4961C123.43 40.6419 123.423 40.7627 123.414 40.8584L127.502 34.5078H128.896V42H127.837V37.4062C127.837 37.2604 127.839 37.0736 127.843 36.8457C127.848 36.6178 127.855 36.3945 127.864 36.1758C127.873 35.9525 127.88 35.7793 127.884 35.6562L123.81 42H122.409V34.5078H123.489ZM133.233 38.165L130.643 34.5078H131.941L133.917 37.3926L135.886 34.5078H137.171L134.58 38.165L137.314 42H136.016L133.917 38.9443L131.805 42H130.519L133.233 38.165ZM145.377 38.2402C145.377 38.8555 145.298 39.4046 145.138 39.8877C144.979 40.3708 144.748 40.7786 144.448 41.1113C144.147 41.444 143.782 41.6992 143.354 41.877C142.93 42.0501 142.449 42.1367 141.911 42.1367C141.41 42.1367 140.95 42.0501 140.531 41.877C140.116 41.6992 139.756 41.444 139.451 41.1113C139.15 40.7786 138.915 40.3708 138.746 39.8877C138.582 39.4046 138.5 38.8555 138.5 38.2402C138.5 37.4199 138.639 36.7227 138.917 36.1484C139.195 35.5697 139.592 35.1299 140.107 34.8291C140.626 34.5238 141.244 34.3711 141.959 34.3711C142.643 34.3711 143.24 34.5238 143.75 34.8291C144.265 35.1344 144.664 35.5765 144.947 36.1553C145.234 36.7295 145.377 37.4245 145.377 38.2402ZM139.676 38.2402C139.676 38.8418 139.756 39.3636 139.915 39.8057C140.075 40.2477 140.321 40.5895 140.654 40.8311C140.986 41.0726 141.415 41.1934 141.939 41.1934C142.458 41.1934 142.884 41.0726 143.217 40.8311C143.554 40.5895 143.803 40.2477 143.962 39.8057C144.122 39.3636 144.201 38.8418 144.201 38.2402C144.201 37.6432 144.122 37.1283 143.962 36.6953C143.803 36.2578 143.557 35.9206 143.224 35.6836C142.891 35.4466 142.461 35.3281 141.932 35.3281C141.153 35.3281 140.581 35.5856 140.216 36.1006C139.856 36.6156 139.676 37.3288 139.676 38.2402ZM153.098 42H151.943V35.458H149.667C149.576 36.6383 149.459 37.6501 149.318 38.4932C149.181 39.3317 149.008 40.0176 148.799 40.5508C148.593 41.0794 148.343 41.4691 148.047 41.7197C147.755 41.9658 147.406 42.0889 147.001 42.0889C146.878 42.0889 146.761 42.082 146.652 42.0684C146.543 42.0547 146.449 42.0319 146.372 42V41.1387C146.431 41.1569 146.493 41.1706 146.556 41.1797C146.625 41.1888 146.695 41.1934 146.768 41.1934C146.973 41.1934 147.16 41.109 147.329 40.9404C147.502 40.7673 147.657 40.5075 147.794 40.1611C147.935 39.8148 148.06 39.3773 148.17 38.8486C148.279 38.3154 148.375 37.6888 148.457 36.9688C148.543 36.2441 148.619 35.4238 148.682 34.5078H153.098V42ZM162.091 38.2402C162.091 38.8555 162.011 39.4046 161.852 39.8877C161.692 40.3708 161.462 40.7786 161.161 41.1113C160.86 41.444 160.496 41.6992 160.067 41.877C159.644 42.0501 159.163 42.1367 158.625 42.1367C158.124 42.1367 157.663 42.0501 157.244 41.877C156.829 41.6992 156.469 41.444 156.164 41.1113C155.863 40.7786 155.629 40.3708 155.46 39.8877C155.296 39.4046 155.214 38.8555 155.214 38.2402C155.214 37.4199 155.353 36.7227 155.631 36.1484C155.909 35.5697 156.305 35.1299 156.82 34.8291C157.34 34.5238 157.957 34.3711 158.673 34.3711C159.356 34.3711 159.953 34.5238 160.464 34.8291C160.979 35.1344 161.378 35.5765 161.66 36.1553C161.947 36.7295 162.091 37.4245 162.091 38.2402ZM156.39 38.2402C156.39 38.8418 156.469 39.3636 156.629 39.8057C156.788 40.2477 157.035 40.5895 157.367 40.8311C157.7 41.0726 158.128 41.1934 158.652 41.1934C159.172 41.1934 159.598 41.0726 159.931 40.8311C160.268 40.5895 160.516 40.2477 160.676 39.8057C160.835 39.3636 160.915 38.8418 160.915 38.2402C160.915 37.6432 160.835 37.1283 160.676 36.6953C160.516 36.2578 160.27 35.9206 159.938 35.6836C159.605 35.4466 159.174 35.3281 158.646 35.3281C157.866 35.3281 157.294 35.5856 156.93 36.1006C156.57 36.6156 156.39 37.3288 156.39 38.2402ZM168.739 34.5078V35.4717H165.334V42H164.193V34.5078H168.739ZM180.107 36.3877C180.107 36.8571 179.97 37.224 179.696 37.4883C179.423 37.748 179.07 37.9235 178.637 38.0146V38.0693C179.106 38.1331 179.51 38.3018 179.847 38.5752C180.189 38.8441 180.359 39.2565 180.359 39.8125C180.359 40.2409 180.257 40.6191 180.052 40.9473C179.847 41.2754 179.526 41.5329 179.088 41.7197C178.651 41.9066 178.081 42 177.379 42H174.152V34.5078H177.352C177.889 34.5078 178.363 34.5693 178.774 34.6924C179.188 34.8109 179.514 35.0068 179.751 35.2803C179.988 35.5537 180.107 35.9229 180.107 36.3877ZM179.177 39.8125C179.177 39.3704 179.008 39.0514 178.671 38.8555C178.338 38.6595 177.853 38.5615 177.215 38.5615H175.294V41.0771H177.242C177.871 41.0771 178.35 40.9814 178.678 40.79C179.011 40.5941 179.177 40.2682 179.177 39.8125ZM178.951 36.5176C178.951 36.1621 178.821 35.8978 178.562 35.7246C178.302 35.5469 177.876 35.458 177.283 35.458H175.294V37.6113H177.085C177.7 37.6113 178.165 37.5225 178.48 37.3447C178.794 37.167 178.951 36.8913 178.951 36.5176ZM193.853 42H192.691V37.29H187.441V42H186.279V32.0059H187.441V36.2646H192.691V32.0059H193.853V42ZM203.03 38.2402C203.03 38.8555 202.951 39.4046 202.791 39.8877C202.632 40.3708 202.402 40.7786 202.101 41.1113C201.8 41.444 201.435 41.6992 201.007 41.877C200.583 42.0501 200.102 42.1367 199.565 42.1367C199.063 42.1367 198.603 42.0501 198.184 41.877C197.769 41.6992 197.409 41.444 197.104 41.1113C196.803 40.7786 196.568 40.3708 196.4 39.8877C196.236 39.4046 196.154 38.8555 196.154 38.2402C196.154 37.4199 196.293 36.7227 196.571 36.1484C196.849 35.5697 197.245 35.1299 197.76 34.8291C198.279 34.5238 198.897 34.3711 199.613 34.3711C200.296 34.3711 200.893 34.5238 201.404 34.8291C201.918 35.1344 202.317 35.5765 202.6 36.1553C202.887 36.7295 203.03 37.4245 203.03 38.2402ZM197.329 38.2402C197.329 38.8418 197.409 39.3636 197.569 39.8057C197.728 40.2477 197.974 40.5895 198.307 40.8311C198.64 41.0726 199.068 41.1934 199.592 41.1934C200.112 41.1934 200.538 41.0726 200.87 40.8311C201.208 40.5895 201.456 40.2477 201.615 39.8057C201.775 39.3636 201.855 38.8418 201.855 38.2402C201.855 37.6432 201.775 37.1283 201.615 36.6953C201.456 36.2578 201.21 35.9206 200.877 35.6836C200.544 35.4466 200.114 35.3281 199.585 35.3281C198.806 35.3281 198.234 35.5856 197.869 36.1006C197.509 36.6156 197.329 37.3288 197.329 38.2402ZM211.086 36.3877C211.086 36.8571 210.95 37.224 210.676 37.4883C210.403 37.748 210.05 37.9235 209.617 38.0146V38.0693C210.086 38.1331 210.489 38.3018 210.827 38.5752C211.169 38.8441 211.339 39.2565 211.339 39.8125C211.339 40.2409 211.237 40.6191 211.032 40.9473C210.827 41.2754 210.505 41.5329 210.068 41.7197C209.63 41.9066 209.061 42 208.359 42H205.132V34.5078H208.332C208.869 34.5078 209.343 34.5693 209.753 34.6924C210.168 34.8109 210.494 35.0068 210.731 35.2803C210.968 35.5537 211.086 35.9229 211.086 36.3877ZM210.157 39.8125C210.157 39.3704 209.988 39.0514 209.651 38.8555C209.318 38.6595 208.833 38.5615 208.195 38.5615H206.274V41.0771H208.222C208.851 41.0771 209.33 40.9814 209.658 40.79C209.99 40.5941 210.157 40.2682 210.157 39.8125ZM209.931 36.5176C209.931 36.1621 209.801 35.8978 209.542 35.7246C209.282 35.5469 208.856 35.458 208.263 35.458H206.274V37.6113H208.065C208.68 37.6113 209.145 37.5225 209.46 37.3447C209.774 37.167 209.931 36.8913 209.931 36.5176ZM219.771 38.2402C219.771 38.8555 219.692 39.4046 219.532 39.8877C219.373 40.3708 219.143 40.7786 218.842 41.1113C218.541 41.444 218.176 41.6992 217.748 41.877C217.324 42.0501 216.843 42.1367 216.306 42.1367C215.804 42.1367 215.344 42.0501 214.925 41.877C214.51 41.6992 214.15 41.444 213.845 41.1113C213.544 40.7786 213.309 40.3708 213.141 39.8877C212.976 39.4046 212.894 38.8555 212.894 38.2402C212.894 37.4199 213.033 36.7227 213.311 36.1484C213.589 35.5697 213.986 35.1299 214.501 34.8291C215.02 34.5238 215.638 34.3711 216.353 34.3711C217.037 34.3711 217.634 34.5238 218.144 34.8291C218.659 35.1344 219.058 35.5765 219.341 36.1553C219.628 36.7295 219.771 37.4245 219.771 38.2402ZM214.07 38.2402C214.07 38.8418 214.15 39.3636 214.309 39.8057C214.469 40.2477 214.715 40.5895 215.048 40.8311C215.38 41.0726 215.809 41.1934 216.333 41.1934C216.852 41.1934 217.279 41.0726 217.611 40.8311C217.948 40.5895 218.197 40.2477 218.356 39.8057C218.516 39.3636 218.596 38.8418 218.596 38.2402C218.596 37.6432 218.516 37.1283 218.356 36.6953C218.197 36.2578 217.951 35.9206 217.618 35.6836C217.285 35.4466 216.855 35.3281 216.326 35.3281C215.547 35.3281 214.975 35.5856 214.61 36.1006C214.25 36.6156 214.07 37.3288 214.07 38.2402ZM224.874 42.1367C224.2 42.1367 223.605 41.9977 223.09 41.7197C222.575 41.4417 222.174 41.0179 221.887 40.4482C221.6 39.8786 221.456 39.1608 221.456 38.2949C221.456 37.388 221.607 36.6475 221.908 36.0732C222.213 35.4945 222.632 35.0661 223.165 34.7881C223.699 34.5101 224.305 34.3711 224.984 34.3711C225.357 34.3711 225.717 34.4098 226.064 34.4873C226.415 34.5602 226.702 34.6536 226.925 34.7676L226.583 35.7178C226.355 35.6266 226.091 35.5446 225.79 35.4717C225.494 35.3988 225.216 35.3623 224.956 35.3623C224.437 35.3623 224.004 35.474 223.658 35.6973C223.316 35.9206 223.058 36.2487 222.885 36.6816C222.716 37.1146 222.632 37.6478 222.632 38.2812C222.632 38.8874 222.714 39.4046 222.878 39.833C223.047 40.2614 223.295 40.5895 223.623 40.8174C223.956 41.0407 224.371 41.1523 224.867 41.1523C225.264 41.1523 225.622 41.1113 225.941 41.0293C226.26 40.9427 226.549 40.8424 226.809 40.7285V41.7402C226.558 41.8678 226.278 41.9658 225.968 42.0342C225.663 42.1025 225.298 42.1367 224.874 42.1367ZM229.806 34.5078V39.2178C229.806 39.3089 229.804 39.4274 229.799 39.5732C229.795 39.7145 229.788 39.8672 229.779 40.0312C229.77 40.1908 229.761 40.3457 229.752 40.4961C229.747 40.6419 229.74 40.7627 229.731 40.8584L233.819 34.5078H235.214V42H234.154V37.4062C234.154 37.2604 234.156 37.0736 234.161 36.8457C234.165 36.6178 234.172 36.3945 234.181 36.1758C234.19 35.9525 234.197 35.7793 234.202 35.6562L230.128 42H228.726V34.5078H229.806ZM237.377 37.502C237.377 36.4355 237.479 35.5264 237.685 34.7744C237.89 34.0179 238.206 33.4118 238.635 32.9561C239.068 32.4958 239.624 32.1813 240.303 32.0127C240.886 31.8532 241.479 31.7165 242.08 31.6025C242.682 31.484 243.267 31.3815 243.837 31.2949L244.035 32.293C243.748 32.334 243.447 32.3818 243.133 32.4365C242.818 32.4867 242.504 32.5413 242.189 32.6006C241.875 32.6553 241.579 32.7145 241.301 32.7783C241.023 32.8376 240.777 32.8991 240.562 32.9629C240.175 33.0677 239.84 33.25 239.558 33.5098C239.28 33.7695 239.059 34.1273 238.895 34.583C238.735 35.0387 238.639 35.613 238.607 36.3057H238.689C238.826 36.1051 239.013 35.9069 239.25 35.7109C239.487 35.515 239.77 35.3532 240.098 35.2256C240.426 35.0934 240.795 35.0273 241.205 35.0273C241.852 35.0273 242.392 35.1686 242.825 35.4512C243.258 35.7292 243.584 36.1211 243.803 36.627C244.021 37.1328 244.131 37.7253 244.131 38.4043C244.131 39.2201 243.99 39.9059 243.707 40.4619C243.429 41.0179 243.037 41.4372 242.531 41.7197C242.025 41.9977 241.431 42.1367 240.747 42.1367C240.218 42.1367 239.744 42.0342 239.325 41.8291C238.91 41.624 238.557 41.3232 238.266 40.9268C237.979 40.5303 237.757 40.0449 237.603 39.4707C237.452 38.8965 237.377 38.2402 237.377 37.502ZM240.836 41.1934C241.269 41.1934 241.64 41.1022 241.95 40.9199C242.265 40.7376 242.506 40.4505 242.675 40.0586C242.848 39.6621 242.935 39.1471 242.935 38.5137C242.935 37.7207 242.782 37.1009 242.477 36.6543C242.176 36.2031 241.693 35.9775 241.027 35.9775C240.613 35.9775 240.237 36.0664 239.899 36.2441C239.562 36.4173 239.277 36.6247 239.045 36.8662C238.812 37.1077 238.644 37.3242 238.539 37.5156C238.539 37.9805 238.573 38.4316 238.642 38.8691C238.71 39.3066 238.828 39.7008 238.997 40.0518C239.166 40.4027 239.398 40.6807 239.694 40.8857C239.995 41.0908 240.376 41.1934 240.836 41.1934ZM247.313 34.5078V39.2178C247.313 39.3089 247.311 39.4274 247.306 39.5732C247.301 39.7145 247.295 39.8672 247.286 40.0312C247.276 40.1908 247.267 40.3457 247.258 40.4961C247.254 40.6419 247.247 40.7627 247.238 40.8584L251.326 34.5078H252.72V42H251.661V37.4062C251.661 37.2604 251.663 37.0736 251.667 36.8457C251.672 36.6178 251.679 36.3945 251.688 36.1758C251.697 35.9525 251.704 35.7793 251.708 35.6562L247.634 42H246.233V34.5078H247.313ZM258.794 34.3711C259.728 34.3711 260.473 34.6924 261.029 35.335C261.585 35.9775 261.863 36.9437 261.863 38.2334C261.863 39.0856 261.735 39.8011 261.48 40.3799C261.225 40.9587 260.865 41.3962 260.4 41.6924C259.94 41.9886 259.395 42.1367 258.766 42.1367C258.37 42.1367 258.021 42.0843 257.72 41.9795C257.42 41.8747 257.162 41.7334 256.948 41.5557C256.734 41.3779 256.556 41.1842 256.415 40.9746H256.333C256.346 41.1523 256.362 41.3665 256.381 41.6172C256.403 41.8678 256.415 42.0866 256.415 42.2734V45.3496H255.273V34.5078H256.21L256.36 35.6152H256.415C256.561 35.3874 256.738 35.18 256.948 34.9932C257.158 34.8018 257.413 34.6514 257.714 34.542C258.019 34.4281 258.379 34.3711 258.794 34.3711ZM258.595 35.3281C258.076 35.3281 257.657 35.4284 257.338 35.6289C257.023 35.8294 256.793 36.1302 256.647 36.5312C256.501 36.9277 256.424 37.4268 256.415 38.0283V38.2471C256.415 38.8805 256.483 39.416 256.62 39.8535C256.761 40.291 256.991 40.6237 257.31 40.8516C257.634 41.0794 258.067 41.1934 258.609 41.1934C259.074 41.1934 259.461 41.068 259.771 40.8174C260.081 40.5667 260.311 40.2181 260.462 39.7715C260.617 39.3203 260.694 38.8031 260.694 38.2197C260.694 37.3356 260.521 36.6338 260.175 36.1143C259.833 35.5902 259.306 35.3281 258.595 35.3281ZM266.986 42.1367C266.312 42.1367 265.717 41.9977 265.202 41.7197C264.687 41.4417 264.286 41.0179 263.999 40.4482C263.712 39.8786 263.568 39.1608 263.568 38.2949C263.568 37.388 263.719 36.6475 264.02 36.0732C264.325 35.4945 264.744 35.0661 265.277 34.7881C265.811 34.5101 266.417 34.3711 267.096 34.3711C267.469 34.3711 267.83 34.4098 268.176 34.4873C268.527 34.5602 268.814 34.6536 269.037 34.7676L268.695 35.7178C268.468 35.6266 268.203 35.5446 267.902 35.4717C267.606 35.3988 267.328 35.3623 267.068 35.3623C266.549 35.3623 266.116 35.474 265.77 35.6973C265.428 35.9206 265.17 36.2487 264.997 36.6816C264.829 37.1146 264.744 37.6478 264.744 38.2812C264.744 38.8874 264.826 39.4046 264.99 39.833C265.159 40.2614 265.407 40.5895 265.735 40.8174C266.068 41.0407 266.483 41.1523 266.98 41.1523C267.376 41.1523 267.734 41.1113 268.053 41.0293C268.372 40.9427 268.661 40.8424 268.921 40.7285V41.7402C268.67 41.8678 268.39 41.9658 268.08 42.0342C267.775 42.1025 267.41 42.1367 266.986 42.1367ZM275.206 34.5078H276.457L273.224 38.124L276.717 42H275.384L271.98 38.1992V42H270.838V34.5078H271.98V38.1445L275.206 34.5078ZM281.096 34.3711C281.734 34.3711 282.28 34.5124 282.736 34.7949C283.192 35.0775 283.54 35.474 283.782 35.9844C284.024 36.4902 284.144 37.0827 284.144 37.7617V38.4658H278.97C278.983 39.3454 279.202 40.0153 279.626 40.4756C280.05 40.9359 280.647 41.166 281.417 41.166C281.891 41.166 282.31 41.1227 282.675 41.0361C283.039 40.9495 283.417 40.8219 283.809 40.6533V41.6514C283.431 41.82 283.055 41.943 282.681 42.0205C282.312 42.098 281.875 42.1367 281.369 42.1367C280.649 42.1367 280.02 41.9909 279.482 41.6992C278.949 41.403 278.534 40.9701 278.238 40.4004C277.942 39.8307 277.794 39.1335 277.794 38.3086C277.794 37.502 277.928 36.8047 278.197 36.2168C278.471 35.6243 278.853 35.1686 279.346 34.8496C279.842 34.5306 280.426 34.3711 281.096 34.3711ZM281.082 35.3008C280.476 35.3008 279.993 35.499 279.633 35.8955C279.273 36.292 279.058 36.8457 278.99 37.5566H282.955C282.95 37.11 282.88 36.7181 282.743 36.3809C282.611 36.0391 282.408 35.7747 282.135 35.5879C281.861 35.3965 281.51 35.3008 281.082 35.3008Z" fill="white"/>
<path d="M32.6641 8C29.6755 8 27.2441 10.4313 27.2441 13.4199V18.8398C27.2441 22.0969 24.8642 24.8083 21.752 25.3268V13.4199C21.752 11.6268 23.2108 10.168 25.0039 10.168V8H18.5L16.332 26.5L18.5 45H25.0039V42.832C23.2108 42.832 21.752 41.3732 21.752 39.5801V31.8756C28.4591 31.3226 33.748 25.6873 33.748 18.8398V13.4199C33.748 11.6268 35.2069 10.168 37 10.168V8L32.6641 8Z" fill="#4DC26B"/>
<path d="M11.9961 8V10.168C13.7892 10.168 15.248 11.6268 15.248 13.4199V25.3268C12.1358 24.8083 9.75586 22.0969 9.75586 18.8398V13.4199C9.75586 10.4313 7.32452 8 4.33594 8H0V10.168C1.79309 10.168 3.25195 11.6268 3.25195 13.4199V18.8398C3.25195 25.6873 8.54089 31.3226 15.248 31.8756V39.5801C15.248 41.3732 13.7892 42.832 11.9961 42.832V45H18.5V8H11.9961Z" fill="#4DC26B"/>
</svg>
