<svg width="430" height="91" viewBox="0 0 430 91" fill="none" xmlns="http://www.w3.org/2000/svg">
<path d="M7.614 14.594L5.328 10.076L0.918 7.88V7.79L5.328 5.594L7.614 1.076H7.758L10.044 5.594L14.436 7.79V7.88L10.044 10.076L7.758 14.594H7.614ZM7.614 50.594L5.328 46.076L0.918 43.88V43.79L5.328 41.594L7.614 37.076H7.758L10.044 41.594L14.436 43.79V43.88L10.044 46.076L7.758 50.594H7.614ZM7.614 86.594L5.328 82.076L0.918 79.88V79.79L5.328 77.594L7.614 73.076H7.758L10.044 77.594L14.436 79.79V79.88L10.044 82.076L7.758 86.594H7.614Z" fill="#4DC26B"/>
<path d="M27.3456 14H25.8427V2.46875H21.7997V1.15039H31.371V2.46875H27.3456V14ZM38.43 4.19141C39.6312 4.19141 40.5892 4.60449 41.304 5.43066C42.0189 6.25684 42.3763 7.49902 42.3763 9.15723C42.3763 10.2529 42.2122 11.1729 41.8841 11.917C41.556 12.6611 41.0931 13.2236 40.4954 13.6045C39.9036 13.9854 39.2034 14.1758 38.3948 14.1758C37.8851 14.1758 37.4368 14.1084 37.0501 13.9736C36.6634 13.8389 36.3323 13.6572 36.057 13.4287C35.7816 13.2002 35.553 12.9512 35.3714 12.6816H35.2659C35.2835 12.9102 35.304 13.1855 35.3275 13.5078C35.3568 13.8301 35.3714 14.1113 35.3714 14.3516V18.3066H33.9036V4.36719H35.1077L35.3011 5.79102H35.3714C35.5589 5.49805 35.7874 5.23145 36.057 4.99121C36.3265 4.74512 36.6546 4.55176 37.0413 4.41113C37.4339 4.26465 37.8968 4.19141 38.43 4.19141ZM38.1751 5.42188C37.5071 5.42188 36.9681 5.55078 36.5579 5.80859C36.1536 6.06641 35.8577 6.45312 35.6702 6.96875C35.4827 7.47852 35.3831 8.12012 35.3714 8.89355V9.1748C35.3714 9.98926 35.4593 10.6777 35.6351 11.2402C35.8167 11.8027 36.1126 12.2305 36.5228 12.5234C36.9388 12.8164 37.4954 12.9629 38.1927 12.9629C38.7904 12.9629 39.2884 12.8018 39.6868 12.4795C40.0853 12.1572 40.3812 11.709 40.5745 11.1348C40.7738 10.5547 40.8734 9.88965 40.8734 9.13965C40.8734 8.00293 40.6507 7.10059 40.2054 6.43262C39.7659 5.75879 39.0892 5.42188 38.1751 5.42188ZM49.4441 4.19141C50.2644 4.19141 50.9675 4.37305 51.5535 4.73633C52.1394 5.09961 52.5877 5.60938 52.8982 6.26562C53.2088 6.91602 53.364 7.67773 53.364 8.55078V9.45605H46.7107C46.7283 10.5869 47.0095 11.4482 47.5545 12.04C48.0994 12.6318 48.867 12.9277 49.8572 12.9277C50.4666 12.9277 51.0056 12.8721 51.4744 12.7607C51.9431 12.6494 52.4295 12.4854 52.9334 12.2686V13.5518C52.447 13.7686 51.9636 13.9268 51.4832 14.0264C51.0086 14.126 50.4461 14.1758 49.7957 14.1758C48.8699 14.1758 48.0613 13.9883 47.3699 13.6133C46.6843 13.2324 46.1511 12.6758 45.7703 11.9434C45.3894 11.2109 45.199 10.3145 45.199 9.25391C45.199 8.2168 45.3718 7.32031 45.7175 6.56445C46.0691 5.80273 46.5613 5.2168 47.1941 4.80664C47.8328 4.39648 48.5828 4.19141 49.4441 4.19141ZM49.4265 5.38672C48.6472 5.38672 48.0261 5.6416 47.5632 6.15137C47.1004 6.66113 46.825 7.37305 46.7371 8.28711H51.8347C51.8289 7.71289 51.738 7.20898 51.5623 6.77539C51.3923 6.33594 51.1316 5.99609 50.78 5.75586C50.4285 5.50977 49.9773 5.38672 49.4265 5.38672ZM64.3078 6.78418C64.3078 7.3877 64.132 7.85938 63.7805 8.19922C63.4289 8.5332 62.9748 8.75879 62.4182 8.87598V8.94629C63.0217 9.02832 63.5402 9.24512 63.9738 9.59668C64.4133 9.94238 64.633 10.4727 64.633 11.1875C64.633 11.7383 64.5012 12.2246 64.2375 12.6465C63.9738 13.0684 63.5607 13.3994 62.9982 13.6396C62.4357 13.8799 61.7033 14 60.801 14H56.6525V4.36719H60.7658C61.4572 4.36719 62.0666 4.44629 62.5939 4.60449C63.1271 4.75684 63.5461 5.00879 63.8508 5.36035C64.1555 5.71191 64.3078 6.18652 64.3078 6.78418ZM63.1125 11.1875C63.1125 10.6191 62.8957 10.209 62.4621 9.95703C62.0344 9.70508 61.4104 9.5791 60.59 9.5791H58.1203V12.8135H60.6252C61.4338 12.8135 62.049 12.6904 62.4709 12.4443C62.8986 12.1924 63.1125 11.7734 63.1125 11.1875ZM62.8225 6.95117C62.8225 6.49414 62.6555 6.1543 62.3215 5.93164C61.9875 5.70312 61.4396 5.58887 60.6779 5.58887H58.1203V8.35742H60.423C61.2141 8.35742 61.8117 8.24316 62.216 8.01465C62.6203 7.78613 62.8225 7.43164 62.8225 6.95117ZM76.1041 9.16602C76.1041 9.95703 76.0016 10.6631 75.7965 11.2842C75.5914 11.9053 75.2955 12.4297 74.9088 12.8574C74.5221 13.2852 74.0534 13.6133 73.5026 13.8418C72.9577 14.0645 72.3395 14.1758 71.6481 14.1758C71.0036 14.1758 70.4118 14.0645 69.8727 13.8418C69.3395 13.6133 68.8766 13.2852 68.484 12.8574C68.0973 12.4297 67.7955 11.9053 67.5788 11.2842C67.3678 10.6631 67.2623 9.95703 67.2623 9.16602C67.2623 8.11133 67.4411 7.21484 67.7985 6.47656C68.1559 5.73242 68.6657 5.16699 69.3278 4.78027C69.9957 4.3877 70.7897 4.19141 71.7096 4.19141C72.5885 4.19141 73.3561 4.3877 74.0123 4.78027C74.6745 5.17285 75.1871 5.74121 75.5504 6.48535C75.9196 7.22363 76.1041 8.11719 76.1041 9.16602ZM68.7741 9.16602C68.7741 9.93945 68.8766 10.6104 69.0817 11.1787C69.2868 11.7471 69.6032 12.1865 70.0309 12.4971C70.4586 12.8076 71.0094 12.9629 71.6832 12.9629C72.3512 12.9629 72.8991 12.8076 73.3268 12.4971C73.7604 12.1865 74.0797 11.7471 74.2848 11.1787C74.4899 10.6104 74.5924 9.93945 74.5924 9.16602C74.5924 8.39844 74.4899 7.73633 74.2848 7.17969C74.0797 6.61719 73.7633 6.18359 73.3356 5.87891C72.9079 5.57422 72.3541 5.42188 71.6745 5.42188C70.6725 5.42188 69.9371 5.75293 69.4684 6.41504C69.0055 7.07715 68.7741 7.99414 68.7741 9.16602ZM90.7218 4.36719L86.7139 9.05176L91.0645 14H89.3946L85.1759 9.11328V14H83.8136V9.11328L79.6036 14H77.9337L82.2843 9.05176L78.2677 4.36719H79.8761L83.8136 9.04297V4.36719H85.1759V9.04297L89.1309 4.36719H90.7218ZM94.9507 4.36719V8.41016H100.321V4.36719H101.78V14H100.321V9.64941H94.9507V14H93.4829V4.36719H94.9507ZM113.989 9.16602C113.989 9.95703 113.887 10.6631 113.682 11.2842C113.477 11.9053 113.181 12.4297 112.794 12.8574C112.407 13.2852 111.938 13.6133 111.388 13.8418C110.843 14.0645 110.225 14.1758 109.533 14.1758C108.889 14.1758 108.297 14.0645 107.758 13.8418C107.225 13.6133 106.762 13.2852 106.369 12.8574C105.982 12.4297 105.681 11.9053 105.464 11.2842C105.253 10.6631 105.147 9.95703 105.147 9.16602C105.147 8.11133 105.326 7.21484 105.684 6.47656C106.041 5.73242 106.551 5.16699 107.213 4.78027C107.881 4.3877 108.675 4.19141 109.595 4.19141C110.474 4.19141 111.241 4.3877 111.897 4.78027C112.56 5.17285 113.072 5.74121 113.436 6.48535C113.805 7.22363 113.989 8.11719 113.989 9.16602ZM106.659 9.16602C106.659 9.93945 106.762 10.6104 106.967 11.1787C107.172 11.7471 107.488 12.1865 107.916 12.4971C108.344 12.8076 108.894 12.9629 109.568 12.9629C110.236 12.9629 110.784 12.8076 111.212 12.4971C111.645 12.1865 111.965 11.7471 112.17 11.1787C112.375 10.6104 112.478 9.93945 112.478 9.16602C112.478 8.39844 112.375 7.73633 112.17 7.17969C111.965 6.61719 111.648 6.18359 111.221 5.87891C110.793 5.57422 110.239 5.42188 109.56 5.42188C108.558 5.42188 107.822 5.75293 107.353 6.41504C106.891 7.07715 106.659 7.99414 106.659 9.16602ZM121.18 14.1758C120.313 14.1758 119.548 13.9971 118.886 13.6396C118.224 13.2822 117.708 12.7373 117.339 12.0049C116.97 11.2725 116.786 10.3496 116.786 9.23633C116.786 8.07031 116.979 7.11816 117.366 6.37988C117.758 5.63574 118.297 5.08496 118.983 4.72754C119.668 4.37012 120.448 4.19141 121.321 4.19141C121.801 4.19141 122.264 4.24121 122.709 4.34082C123.161 4.43457 123.53 4.55469 123.817 4.70117L123.377 5.92285C123.084 5.80566 122.745 5.7002 122.358 5.60645C121.977 5.5127 121.62 5.46582 121.286 5.46582C120.618 5.46582 120.061 5.60938 119.616 5.89648C119.176 6.18359 118.845 6.60547 118.622 7.16211C118.406 7.71875 118.297 8.4043 118.297 9.21875C118.297 9.99805 118.403 10.6631 118.614 11.2139C118.83 11.7646 119.15 12.1865 119.572 12.4795C119.999 12.7666 120.533 12.9102 121.171 12.9102C121.681 12.9102 122.141 12.8574 122.551 12.752C122.961 12.6406 123.333 12.5117 123.667 12.3652V13.666C123.345 13.8301 122.985 13.9561 122.586 14.0439C122.194 14.1318 121.725 14.1758 121.18 14.1758ZM133.328 5.60645H130.155V14H128.714V5.60645H125.585V4.36719H133.328V5.60645ZM137.513 8.33984H140.466C141.286 8.33984 141.969 8.44238 142.514 8.64746C143.059 8.85254 143.466 9.15723 143.736 9.56152C144.011 9.96582 144.149 10.4668 144.149 11.0645C144.149 11.6621 144.014 12.1807 143.744 12.6201C143.481 13.0596 143.071 13.3994 142.514 13.6396C141.963 13.8799 141.251 14 140.378 14H136.045V4.36719H137.513V8.33984ZM142.681 11.1348C142.681 10.543 142.47 10.1328 142.048 9.9043C141.632 9.66992 141.049 9.55273 140.299 9.55273H137.513V12.8135H140.308C141.011 12.8135 141.582 12.6846 142.022 12.4268C142.461 12.1631 142.681 11.7324 142.681 11.1348ZM149.142 11.9082L149.257 12.1104C149.151 12.5381 149.016 12.9951 148.852 13.4814C148.694 13.9678 148.518 14.4541 148.325 14.9404C148.137 15.4326 147.947 15.8926 147.754 16.3203H146.664C146.787 15.8516 146.907 15.3564 147.024 14.835C147.141 14.3193 147.247 13.8096 147.341 13.3057C147.44 12.7959 147.519 12.3301 147.578 11.9082H149.142ZM160.905 4.19141C161.626 4.19141 162.25 4.29102 162.777 4.49023C163.304 4.68359 163.712 4.96777 163.999 5.34277C164.286 5.71777 164.429 6.1748 164.429 6.71387C164.429 7.29395 164.271 7.75684 163.955 8.10254C163.638 8.44824 163.202 8.69727 162.645 8.84961V8.91992C163.038 9.02539 163.392 9.17773 163.709 9.37695C164.031 9.57031 164.286 9.82812 164.473 10.1504C164.667 10.4668 164.763 10.8623 164.763 11.3369C164.763 11.876 164.617 12.3623 164.324 12.7959C164.031 13.2236 163.586 13.5605 162.988 13.8066C162.39 14.0527 161.634 14.1758 160.72 14.1758C160.269 14.1758 159.841 14.1494 159.437 14.0967C159.033 14.0498 158.667 13.9795 158.338 13.8857C158.01 13.792 157.723 13.6807 157.477 13.5518V12.2246C157.887 12.4238 158.368 12.5996 158.919 12.752C159.469 12.9043 160.064 12.9805 160.703 12.9805C161.195 12.9805 161.637 12.9248 162.03 12.8135C162.422 12.6963 162.733 12.5117 162.962 12.2598C163.196 12.002 163.313 11.665 163.313 11.249C163.313 10.8682 163.211 10.5547 163.005 10.3086C162.8 10.0566 162.493 9.87207 162.083 9.75488C161.678 9.63184 161.166 9.57031 160.545 9.57031H159.253V8.375H160.316C161.142 8.375 161.801 8.25781 162.294 8.02344C162.786 7.78906 163.032 7.39355 163.032 6.83691C163.032 6.35645 162.841 5.99902 162.461 5.76465C162.08 5.52441 161.535 5.4043 160.826 5.4043C160.298 5.4043 159.833 5.45996 159.428 5.57129C159.024 5.67676 158.587 5.8291 158.119 6.02832L157.6 4.85938C158.104 4.63672 158.631 4.46973 159.182 4.3584C159.733 4.24707 160.307 4.19141 160.905 4.19141ZM171.541 4.20898C172.689 4.20898 173.542 4.4668 174.099 4.98242C174.655 5.49805 174.934 6.32129 174.934 7.45215V14H173.87L173.589 12.5762H173.519C173.249 12.9277 172.968 13.2236 172.675 13.4639C172.382 13.6982 172.042 13.877 171.655 14C171.274 14.1172 170.806 14.1758 170.249 14.1758C169.663 14.1758 169.142 14.0732 168.685 13.8682C168.233 13.6631 167.876 13.3525 167.612 12.9365C167.355 12.5205 167.226 11.9932 167.226 11.3545C167.226 10.3936 167.606 9.65527 168.368 9.13965C169.13 8.62402 170.29 8.34277 171.849 8.2959L173.51 8.22559V7.63672C173.51 6.80469 173.331 6.22168 172.974 5.8877C172.616 5.55371 172.112 5.38672 171.462 5.38672C170.958 5.38672 170.478 5.45996 170.021 5.60645C169.564 5.75293 169.13 5.92578 168.72 6.125L168.272 5.01758C168.705 4.79492 169.203 4.60449 169.766 4.44629C170.328 4.28809 170.92 4.20898 171.541 4.20898ZM173.492 9.25391L172.024 9.31543C170.823 9.3623 169.977 9.55859 169.484 9.9043C168.992 10.25 168.746 10.7393 168.746 11.3721C168.746 11.9229 168.913 12.3301 169.247 12.5938C169.581 12.8574 170.023 12.9893 170.574 12.9893C171.43 12.9893 172.13 12.752 172.675 12.2773C173.22 11.8027 173.492 11.0908 173.492 10.1416V9.25391ZM182.608 14.1758C181.741 14.1758 180.976 13.9971 180.314 13.6396C179.652 13.2822 179.136 12.7373 178.767 12.0049C178.398 11.2725 178.213 10.3496 178.213 9.23633C178.213 8.07031 178.407 7.11816 178.793 6.37988C179.186 5.63574 179.725 5.08496 180.411 4.72754C181.096 4.37012 181.875 4.19141 182.749 4.19141C183.229 4.19141 183.692 4.24121 184.137 4.34082C184.588 4.43457 184.958 4.55469 185.245 4.70117L184.805 5.92285C184.512 5.80566 184.172 5.7002 183.786 5.60645C183.405 5.5127 183.047 5.46582 182.713 5.46582C182.045 5.46582 181.489 5.60938 181.043 5.89648C180.604 6.18359 180.273 6.60547 180.05 7.16211C179.833 7.71875 179.725 8.4043 179.725 9.21875C179.725 9.99805 179.831 10.6631 180.041 11.2139C180.258 11.7646 180.578 12.1865 180.999 12.4795C181.427 12.7666 181.96 12.9102 182.599 12.9102C183.109 12.9102 183.569 12.8574 183.979 12.752C184.389 12.6406 184.761 12.5117 185.095 12.3652V13.666C184.773 13.8301 184.413 13.9561 184.014 14.0439C183.622 14.1318 183.153 14.1758 182.608 14.1758ZM194.756 5.60645H191.583V14H190.142V5.60645H187.013V4.36719H194.756V5.60645ZM201.182 4.19141C202.002 4.19141 202.705 4.37305 203.291 4.73633C203.877 5.09961 204.326 5.60938 204.636 6.26562C204.947 6.91602 205.102 7.67773 205.102 8.55078V9.45605H198.449C198.466 10.5869 198.747 11.4482 199.292 12.04C199.837 12.6318 200.605 12.9277 201.595 12.9277C202.204 12.9277 202.744 12.8721 203.212 12.7607C203.681 12.6494 204.167 12.4854 204.671 12.2686V13.5518C204.185 13.7686 203.702 13.9268 203.221 14.0264C202.746 14.126 202.184 14.1758 201.534 14.1758C200.608 14.1758 199.799 13.9883 199.108 13.6133C198.422 13.2324 197.889 12.6758 197.508 11.9434C197.127 11.2109 196.937 10.3145 196.937 9.25391C196.937 8.2168 197.11 7.32031 197.455 6.56445C197.807 5.80273 198.299 5.2168 198.932 4.80664C199.571 4.39648 200.321 4.19141 201.182 4.19141ZM201.164 5.38672C200.385 5.38672 199.764 5.6416 199.301 6.15137C198.838 6.66113 198.563 7.37305 198.475 8.28711H203.573C203.567 7.71289 203.476 7.20898 203.3 6.77539C203.13 6.33594 202.869 5.99609 202.518 5.75586C202.166 5.50977 201.715 5.38672 201.164 5.38672ZM209.858 4.36719V8.41016H215.228V4.36719H216.687V14H215.228V9.64941H209.858V14H208.39V4.36719H209.858ZM221.865 4.36719V7.83008C221.865 8.43359 222.03 8.87891 222.358 9.16602C222.692 9.45312 223.175 9.59668 223.808 9.59668C224.417 9.59668 224.971 9.50293 225.469 9.31543C225.967 9.12793 226.471 8.87305 226.981 8.55078V4.36719H228.44V14H226.981V9.68457C226.442 10.0303 225.911 10.3027 225.39 10.502C224.868 10.7012 224.244 10.8008 223.518 10.8008C222.528 10.8008 221.76 10.543 221.215 10.0273C220.676 9.51172 220.406 8.81445 220.406 7.93555V4.36719H221.865ZM233.723 4.36719V10.4229C233.723 10.54 233.72 10.6924 233.715 10.8799C233.709 11.0615 233.7 11.2578 233.688 11.4688C233.676 11.6738 233.665 11.873 233.653 12.0664C233.647 12.2539 233.638 12.4092 233.627 12.5322L238.883 4.36719H240.675V14H239.313V8.09375C239.313 7.90625 239.316 7.66602 239.322 7.37305C239.328 7.08008 239.337 6.79297 239.348 6.51172C239.36 6.22461 239.369 6.00195 239.375 5.84375L234.136 14H232.335V4.36719H233.723ZM252.243 6.78418C252.243 7.3877 252.068 7.85938 251.716 8.19922C251.364 8.5332 250.91 8.75879 250.354 8.87598V8.94629C250.957 9.02832 251.476 9.24512 251.909 9.59668C252.349 9.94238 252.568 10.4727 252.568 11.1875C252.568 11.7383 252.437 12.2246 252.173 12.6465C251.909 13.0684 251.496 13.3994 250.934 13.6396C250.371 13.8799 249.639 14 248.736 14H244.588V4.36719H248.701C249.393 4.36719 250.002 4.44629 250.529 4.60449C251.063 4.75684 251.482 5.00879 251.786 5.36035C252.091 5.71191 252.243 6.18652 252.243 6.78418ZM251.048 11.1875C251.048 10.6191 250.831 10.209 250.398 9.95703C249.97 9.70508 249.346 9.5791 248.526 9.5791H246.056V12.8135H248.561C249.369 12.8135 249.984 12.6904 250.406 12.4443C250.834 12.1924 251.048 11.7734 251.048 11.1875ZM250.758 6.95117C250.758 6.49414 250.591 6.1543 250.257 5.93164C249.923 5.70312 249.375 5.58887 248.613 5.58887H246.056V8.35742H248.359C249.15 8.35742 249.747 8.24316 250.151 8.01465C250.556 7.78613 250.758 7.43164 250.758 6.95117ZM264.04 9.16602C264.04 9.95703 263.937 10.6631 263.732 11.2842C263.527 11.9053 263.231 12.4297 262.844 12.8574C262.458 13.2852 261.989 13.6133 261.438 13.8418C260.893 14.0645 260.275 14.1758 259.584 14.1758C258.939 14.1758 258.347 14.0645 257.808 13.8418C257.275 13.6133 256.812 13.2852 256.419 12.8574C256.033 12.4297 255.731 11.9053 255.514 11.2842C255.303 10.6631 255.198 9.95703 255.198 9.16602C255.198 8.11133 255.377 7.21484 255.734 6.47656C256.091 5.73242 256.601 5.16699 257.263 4.78027C257.931 4.3877 258.725 4.19141 259.645 4.19141C260.524 4.19141 261.292 4.3877 261.948 4.78027C262.61 5.17285 263.123 5.74121 263.486 6.48535C263.855 7.22363 264.04 8.11719 264.04 9.16602ZM256.71 9.16602C256.71 9.93945 256.812 10.6104 257.017 11.1787C257.222 11.7471 257.539 12.1865 257.966 12.4971C258.394 12.8076 258.945 12.9629 259.619 12.9629C260.287 12.9629 260.835 12.8076 261.262 12.4971C261.696 12.1865 262.015 11.7471 262.22 11.1787C262.425 10.6104 262.528 9.93945 262.528 9.16602C262.528 8.39844 262.425 7.73633 262.22 7.17969C262.015 6.61719 261.699 6.18359 261.271 5.87891C260.843 5.57422 260.29 5.42188 259.61 5.42188C258.608 5.42188 257.873 5.75293 257.404 6.41504C256.941 7.07715 256.71 7.99414 256.71 9.16602ZM271.23 14.1758C270.363 14.1758 269.599 13.9971 268.937 13.6396C268.274 13.2822 267.759 12.7373 267.39 12.0049C267.021 11.2725 266.836 10.3496 266.836 9.23633C266.836 8.07031 267.029 7.11816 267.416 6.37988C267.809 5.63574 268.348 5.08496 269.033 4.72754C269.719 4.37012 270.498 4.19141 271.371 4.19141C271.852 4.19141 272.314 4.24121 272.76 4.34082C273.211 4.43457 273.58 4.55469 273.867 4.70117L273.428 5.92285C273.135 5.80566 272.795 5.7002 272.408 5.60645C272.027 5.5127 271.67 5.46582 271.336 5.46582C270.668 5.46582 270.111 5.60938 269.666 5.89648C269.227 6.18359 268.896 6.60547 268.673 7.16211C268.456 7.71875 268.348 8.4043 268.348 9.21875C268.348 9.99805 268.453 10.6631 268.664 11.2139C268.881 11.7646 269.2 12.1865 269.622 12.4795C270.05 12.7666 270.583 12.9102 271.222 12.9102C271.731 12.9102 272.191 12.8574 272.602 12.752C273.012 12.6406 273.384 12.5117 273.718 12.3652V13.666C273.396 13.8301 273.035 13.9561 272.637 14.0439C272.244 14.1318 271.775 14.1758 271.23 14.1758ZM283.378 5.60645H280.206V14H278.764V5.60645H275.635V4.36719H283.378V5.60645ZM287.563 8.33984H290.516C291.337 8.33984 292.019 8.44238 292.564 8.64746C293.109 8.85254 293.516 9.15723 293.786 9.56152C294.061 9.96582 294.199 10.4668 294.199 11.0645C294.199 11.6621 294.064 12.1807 293.795 12.6201C293.531 13.0596 293.121 13.3994 292.564 13.6396C292.014 13.8799 291.302 14 290.429 14H286.096V4.36719H287.563V8.33984ZM292.731 11.1348C292.731 10.543 292.52 10.1328 292.099 9.9043C291.682 9.66992 291.099 9.55273 290.349 9.55273H287.563V12.8135H290.358C291.061 12.8135 291.633 12.6846 292.072 12.4268C292.512 12.1631 292.731 11.7324 292.731 11.1348ZM299.193 11.9082L299.307 12.1104C299.201 12.5381 299.067 12.9951 298.903 13.4814C298.744 13.9678 298.569 14.4541 298.375 14.9404C298.188 15.4326 297.997 15.8926 297.804 16.3203H296.714C296.837 15.8516 296.957 15.3564 297.075 14.835C297.192 14.3193 297.297 13.8096 297.391 13.3057C297.491 12.7959 297.57 12.3301 297.628 11.9082H299.193ZM307.976 8.2168C307.976 6.8457 308.108 5.67676 308.371 4.70996C308.635 3.7373 309.042 2.95801 309.593 2.37207C310.15 1.78027 310.864 1.37598 311.737 1.15918C312.487 0.954102 313.249 0.77832 314.023 0.631836C314.796 0.479492 315.549 0.347656 316.281 0.236328L316.536 1.51953C316.167 1.57227 315.78 1.63379 315.376 1.7041C314.972 1.76855 314.568 1.83887 314.163 1.91504C313.759 1.98535 313.378 2.06152 313.021 2.14355C312.663 2.21973 312.347 2.29883 312.071 2.38086C311.573 2.51562 311.143 2.75 310.779 3.08398C310.422 3.41797 310.138 3.87793 309.927 4.46387C309.722 5.0498 309.599 5.78809 309.558 6.67871H309.663C309.839 6.4209 310.079 6.16602 310.384 5.91406C310.689 5.66211 311.052 5.4541 311.474 5.29004C311.896 5.12012 312.37 5.03516 312.898 5.03516C313.73 5.03516 314.424 5.2168 314.981 5.58008C315.537 5.9375 315.956 6.44141 316.237 7.0918C316.519 7.74219 316.659 8.50391 316.659 9.37695C316.659 10.4258 316.478 11.3076 316.114 12.0225C315.757 12.7373 315.253 13.2764 314.603 13.6396C313.952 13.9971 313.188 14.1758 312.309 14.1758C311.629 14.1758 311.02 14.0439 310.481 13.7803C309.947 13.5166 309.493 13.1299 309.118 12.6201C308.749 12.1104 308.465 11.4863 308.266 10.748C308.072 10.0098 307.976 9.16602 307.976 8.2168ZM312.423 12.9629C312.98 12.9629 313.457 12.8457 313.856 12.6113C314.26 12.377 314.57 12.0078 314.787 11.5039C315.01 10.9941 315.121 10.332 315.121 9.51758C315.121 8.49805 314.925 7.70117 314.532 7.12695C314.146 6.54688 313.525 6.25684 312.669 6.25684C312.136 6.25684 311.653 6.37109 311.219 6.59961C310.785 6.82227 310.419 7.08887 310.12 7.39941C309.821 7.70996 309.605 7.98828 309.47 8.23438C309.47 8.83203 309.514 9.41211 309.602 9.97461C309.69 10.5371 309.842 11.0439 310.059 11.4951C310.276 11.9463 310.574 12.3037 310.955 12.5674C311.342 12.8311 311.831 12.9629 312.423 12.9629ZM328.297 9.16602C328.297 9.95703 328.195 10.6631 327.99 11.2842C327.785 11.9053 327.489 12.4297 327.102 12.8574C326.715 13.2852 326.247 13.6133 325.696 13.8418C325.151 14.0645 324.533 14.1758 323.841 14.1758C323.197 14.1758 322.605 14.0645 322.066 13.8418C321.533 13.6133 321.07 13.2852 320.677 12.8574C320.291 12.4297 319.989 11.9053 319.772 11.2842C319.561 10.6631 319.456 9.95703 319.456 9.16602C319.456 8.11133 319.634 7.21484 319.992 6.47656C320.349 5.73242 320.859 5.16699 321.521 4.78027C322.189 4.3877 322.983 4.19141 323.903 4.19141C324.782 4.19141 325.549 4.3877 326.206 4.78027C326.868 5.17285 327.38 5.74121 327.744 6.48535C328.113 7.22363 328.297 8.11719 328.297 9.16602ZM320.967 9.16602C320.967 9.93945 321.07 10.6104 321.275 11.1787C321.48 11.7471 321.797 12.1865 322.224 12.4971C322.652 12.8076 323.203 12.9629 323.877 12.9629C324.545 12.9629 325.092 12.8076 325.52 12.4971C325.954 12.1865 326.273 11.7471 326.478 11.1787C326.683 10.6104 326.786 9.93945 326.786 9.16602C326.786 8.39844 326.683 7.73633 326.478 7.17969C326.273 6.61719 325.957 6.18359 325.529 5.87891C325.101 5.57422 324.547 5.42188 323.868 5.42188C322.866 5.42188 322.13 5.75293 321.662 6.41504C321.199 7.07715 320.967 7.99414 320.967 9.16602ZM332.096 14H330.391L333.168 9.93945C332.764 9.85156 332.389 9.70215 332.043 9.49121C331.697 9.27441 331.416 8.97852 331.199 8.60352C330.988 8.22852 330.883 7.7627 330.883 7.20605C330.883 6.28027 331.191 5.57715 331.806 5.09668C332.427 4.61035 333.244 4.36719 334.258 4.36719H338.521V14H337.062V10.1328H334.618L332.096 14ZM332.298 7.21484C332.298 7.78906 332.503 8.2168 332.913 8.49805C333.323 8.77344 333.909 8.91113 334.671 8.91113H337.062V5.58887H334.416C333.666 5.58887 333.124 5.74121 332.79 6.0459C332.462 6.34473 332.298 6.73438 332.298 7.21484ZM344.885 4.19141C345.606 4.19141 346.23 4.29102 346.757 4.49023C347.285 4.68359 347.692 4.96777 347.979 5.34277C348.266 5.71777 348.41 6.1748 348.41 6.71387C348.41 7.29395 348.251 7.75684 347.935 8.10254C347.619 8.44824 347.182 8.69727 346.626 8.84961V8.91992C347.018 9.02539 347.373 9.17773 347.689 9.37695C348.011 9.57031 348.266 9.82812 348.454 10.1504C348.647 10.4668 348.744 10.8623 348.744 11.3369C348.744 11.876 348.597 12.3623 348.304 12.7959C348.011 13.2236 347.566 13.5605 346.968 13.8066C346.371 14.0527 345.615 14.1758 344.701 14.1758C344.25 14.1758 343.822 14.1494 343.418 14.0967C343.013 14.0498 342.647 13.9795 342.319 13.8857C341.991 13.792 341.704 13.6807 341.458 13.5518V12.2246C341.868 12.4238 342.348 12.5996 342.899 12.752C343.45 12.9043 344.044 12.9805 344.683 12.9805C345.175 12.9805 345.618 12.9248 346.01 12.8135C346.403 12.6963 346.713 12.5117 346.942 12.2598C347.176 12.002 347.293 11.665 347.293 11.249C347.293 10.8682 347.191 10.5547 346.986 10.3086C346.781 10.0566 346.473 9.87207 346.063 9.75488C345.659 9.63184 345.146 9.57031 344.525 9.57031H343.233V8.375H344.296C345.123 8.375 345.782 8.25781 346.274 8.02344C346.766 7.78906 347.012 7.39355 347.012 6.83691C347.012 6.35645 346.822 5.99902 346.441 5.76465C346.06 5.52441 345.515 5.4043 344.806 5.4043C344.279 5.4043 343.813 5.45996 343.409 5.57129C343.004 5.67676 342.568 5.8291 342.099 6.02832L341.581 4.85938C342.085 4.63672 342.612 4.46973 343.163 4.3584C343.713 4.24707 344.288 4.19141 344.885 4.19141ZM359.143 14H357.657V5.58887H354.73C354.613 7.10645 354.464 8.40723 354.282 9.49121C354.106 10.5693 353.884 11.4512 353.614 12.1367C353.351 12.8164 353.028 13.3174 352.647 13.6396C352.272 13.9561 351.824 14.1143 351.303 14.1143C351.145 14.1143 350.995 14.1055 350.854 14.0879C350.714 14.0703 350.594 14.041 350.494 14V12.8926C350.57 12.916 350.649 12.9336 350.731 12.9453C350.819 12.957 350.91 12.9629 351.004 12.9629C351.268 12.9629 351.508 12.8545 351.725 12.6377C351.947 12.415 352.146 12.0811 352.322 11.6357C352.504 11.1904 352.665 10.6279 352.806 9.94824C352.946 9.2627 353.069 8.45703 353.175 7.53125C353.286 6.59961 353.383 5.54492 353.465 4.36719H359.143V14ZM364.417 4.36719V10.4229C364.417 10.54 364.414 10.6924 364.409 10.8799C364.403 11.0615 364.394 11.2578 364.382 11.4688C364.371 11.6738 364.359 11.873 364.347 12.0664C364.341 12.2539 364.332 12.4092 364.321 12.5322L369.577 4.36719H371.37V14H370.007V8.09375C370.007 7.90625 370.01 7.66602 370.016 7.37305C370.022 7.08008 370.031 6.79297 370.042 6.51172C370.054 6.22461 370.063 6.00195 370.069 5.84375L364.83 14H363.029V4.36719H364.417ZM382.937 6.78418C382.937 7.3877 382.762 7.85938 382.41 8.19922C382.058 8.5332 381.604 8.75879 381.048 8.87598V8.94629C381.651 9.02832 382.17 9.24512 382.603 9.59668C383.043 9.94238 383.263 10.4727 383.263 11.1875C383.263 11.7383 383.131 12.2246 382.867 12.6465C382.603 13.0684 382.19 13.3994 381.628 13.6396C381.065 13.8799 380.333 14 379.431 14H375.282V4.36719H379.395C380.087 4.36719 380.696 4.44629 381.223 4.60449C381.757 4.75684 382.176 5.00879 382.48 5.36035C382.785 5.71191 382.937 6.18652 382.937 6.78418ZM381.742 11.1875C381.742 10.6191 381.525 10.209 381.092 9.95703C380.664 9.70508 380.04 9.5791 379.22 9.5791H376.75V12.8135H379.255C380.063 12.8135 380.679 12.6904 381.1 12.4443C381.528 12.1924 381.742 11.7734 381.742 11.1875ZM381.452 6.95117C381.452 6.49414 381.285 6.1543 380.951 5.93164C380.617 5.70312 380.069 5.58887 379.307 5.58887H376.75V8.35742H379.053C379.844 8.35742 380.441 8.24316 380.846 8.01465C381.25 7.78613 381.452 7.43164 381.452 6.95117ZM394.734 9.16602C394.734 9.95703 394.631 10.6631 394.426 11.2842C394.221 11.9053 393.925 12.4297 393.538 12.8574C393.152 13.2852 392.683 13.6133 392.132 13.8418C391.587 14.0645 390.969 14.1758 390.278 14.1758C389.633 14.1758 389.041 14.0645 388.502 13.8418C387.969 13.6133 387.506 13.2852 387.114 12.8574C386.727 12.4297 386.425 11.9053 386.208 11.2842C385.997 10.6631 385.892 9.95703 385.892 9.16602C385.892 8.11133 386.071 7.21484 386.428 6.47656C386.785 5.73242 387.295 5.16699 387.957 4.78027C388.625 4.3877 389.419 4.19141 390.339 4.19141C391.218 4.19141 391.986 4.3877 392.642 4.78027C393.304 5.17285 393.817 5.74121 394.18 6.48535C394.549 7.22363 394.734 8.11719 394.734 9.16602ZM387.404 9.16602C387.404 9.93945 387.506 10.6104 387.711 11.1787C387.916 11.7471 388.233 12.1865 388.66 12.4971C389.088 12.8076 389.639 12.9629 390.313 12.9629C390.981 12.9629 391.529 12.8076 391.956 12.4971C392.39 12.1865 392.709 11.7471 392.914 11.1787C393.119 10.6104 393.222 9.93945 393.222 9.16602C393.222 8.39844 393.119 7.73633 392.914 7.17969C392.709 6.61719 392.393 6.18359 391.965 5.87891C391.537 5.57422 390.984 5.42188 390.304 5.42188C389.302 5.42188 388.567 5.75293 388.098 6.41504C387.635 7.07715 387.404 7.99414 387.404 9.16602ZM401.925 14.1758C401.057 14.1758 400.293 13.9971 399.631 13.6396C398.968 13.2822 398.453 12.7373 398.084 12.0049C397.715 11.2725 397.53 10.3496 397.53 9.23633C397.53 8.07031 397.723 7.11816 398.11 6.37988C398.503 5.63574 399.042 5.08496 399.727 4.72754C400.413 4.37012 401.192 4.19141 402.065 4.19141C402.546 4.19141 403.009 4.24121 403.454 4.34082C403.905 4.43457 404.274 4.55469 404.561 4.70117L404.122 5.92285C403.829 5.80566 403.489 5.7002 403.102 5.60645C402.721 5.5127 402.364 5.46582 402.03 5.46582C401.362 5.46582 400.805 5.60938 400.36 5.89648C399.921 6.18359 399.59 6.60547 399.367 7.16211C399.15 7.71875 399.042 8.4043 399.042 9.21875C399.042 9.99805 399.147 10.6631 399.358 11.2139C399.575 11.7646 399.894 12.1865 400.316 12.4795C400.744 12.7666 401.277 12.9102 401.916 12.9102C402.426 12.9102 402.885 12.8574 403.296 12.752C403.706 12.6406 404.078 12.5117 404.412 12.3652V13.666C404.09 13.8301 403.729 13.9561 403.331 14.0439C402.938 14.1318 402.469 14.1758 401.925 14.1758ZM414.072 5.60645H410.9V14H409.458V5.60645H406.329V4.36719H414.072V5.60645ZM418.257 8.33984H421.211C422.031 8.33984 422.713 8.44238 423.258 8.64746C423.803 8.85254 424.211 9.15723 424.48 9.56152C424.755 9.96582 424.893 10.4668 424.893 11.0645C424.893 11.6621 424.758 12.1807 424.489 12.6201C424.225 13.0596 423.815 13.3994 423.258 13.6396C422.708 13.8799 421.996 14 421.123 14H416.79V4.36719H418.257V8.33984ZM423.425 11.1348C423.425 10.543 423.214 10.1328 422.793 9.9043C422.377 9.66992 421.794 9.55273 421.044 9.55273H418.257V12.8135H421.052C421.755 12.8135 422.327 12.6846 422.766 12.4268C423.206 12.1631 423.425 11.7324 423.425 11.1348ZM31.4589 50L29.8768 45.9219H24.7264L23.1532 50H21.6415L26.6688 37.0977H28.0136L33.0057 50H31.4589ZM29.4286 44.5947L27.9257 40.543C27.8905 40.4375 27.8319 40.2646 27.7499 40.0244C27.6737 39.7842 27.5946 39.5352 27.5126 39.2773C27.4305 39.0195 27.3632 38.8115 27.3104 38.6533C27.2518 38.8936 27.1874 39.1338 27.1171 39.374C27.0526 39.6084 26.9882 39.8281 26.9237 40.0332C26.8593 40.2324 26.8036 40.4023 26.7567 40.543L25.2274 44.5947H29.4286ZM41.2249 40.3672V41.6064H36.848V50H35.3802V40.3672H41.2249ZM48.4861 40.1914C49.6873 40.1914 50.6453 40.6045 51.3601 41.4307C52.075 42.2568 52.4324 43.499 52.4324 45.1572C52.4324 46.2529 52.2683 47.1729 51.9402 47.917C51.6121 48.6611 51.1492 49.2236 50.5515 49.6045C49.9597 49.9854 49.2595 50.1758 48.4509 50.1758C47.9412 50.1758 47.4929 50.1084 47.1062 49.9736C46.7195 49.8389 46.3884 49.6572 46.113 49.4287C45.8377 49.2002 45.6091 48.9512 45.4275 48.6816H45.322C45.3396 48.9102 45.3601 49.1855 45.3836 49.5078C45.4129 49.8301 45.4275 50.1113 45.4275 50.3516V54.3066H43.9597V40.3672H45.1638L45.3572 41.791H45.4275C45.615 41.498 45.8435 41.2314 46.113 40.9912C46.3826 40.7451 46.7107 40.5518 47.0974 40.4111C47.49 40.2646 47.9529 40.1914 48.4861 40.1914ZM48.2312 41.4219C47.5632 41.4219 47.0242 41.5508 46.614 41.8086C46.2097 42.0664 45.9138 42.4531 45.7263 42.9688C45.5388 43.4785 45.4392 44.1201 45.4275 44.8936V45.1748C45.4275 45.9893 45.5154 46.6777 45.6912 47.2402C45.8728 47.8027 46.1687 48.2305 46.5789 48.5234C46.9949 48.8164 47.5515 48.9629 48.2488 48.9629C48.8464 48.9629 49.3445 48.8018 49.7429 48.4795C50.1414 48.1572 50.4373 47.709 50.6306 47.1348C50.8298 46.5547 50.9295 45.8896 50.9295 45.1396C50.9295 44.0029 50.7068 43.1006 50.2615 42.4326C49.822 41.7588 49.1453 41.4219 48.2312 41.4219ZM59.5002 40.1914C60.3205 40.1914 61.0236 40.373 61.6096 40.7363C62.1955 41.0996 62.6437 41.6094 62.9543 42.2656C63.2648 42.916 63.4201 43.6777 63.4201 44.5508V45.4561H56.7668C56.7844 46.5869 57.0656 47.4482 57.6105 48.04C58.1555 48.6318 58.923 48.9277 59.9133 48.9277C60.5227 48.9277 61.0617 48.8721 61.5305 48.7607C61.9992 48.6494 62.4855 48.4854 62.9895 48.2686V49.5518C62.5031 49.7686 62.0197 49.9268 61.5393 50.0264C61.0646 50.126 60.5021 50.1758 59.8518 50.1758C58.926 50.1758 58.1174 49.9883 57.426 49.6133C56.7404 49.2324 56.2072 48.6758 55.8264 47.9434C55.4455 47.2109 55.2551 46.3145 55.2551 45.2539C55.2551 44.2168 55.4279 43.3203 55.7736 42.5645C56.1252 41.8027 56.6174 41.2168 57.2502 40.8066C57.8889 40.3965 58.6389 40.1914 59.5002 40.1914ZM59.4826 41.3867C58.7033 41.3867 58.0822 41.6416 57.6193 42.1514C57.1564 42.6611 56.8811 43.373 56.7932 44.2871H61.8908C61.885 43.7129 61.7941 43.209 61.6184 42.7754C61.4484 42.3359 61.1877 41.9961 60.8361 41.7559C60.4846 41.5098 60.0334 41.3867 59.4826 41.3867ZM70.567 50.1758C69.6998 50.1758 68.9352 49.9971 68.2731 49.6396C67.611 49.2822 67.0954 48.7373 66.7262 48.0049C66.3571 47.2725 66.1725 46.3496 66.1725 45.2363C66.1725 44.0703 66.3659 43.1182 66.7526 42.3799C67.1452 41.6357 67.6842 41.085 68.3698 40.7275C69.0553 40.3701 69.8346 40.1914 70.7077 40.1914C71.1881 40.1914 71.651 40.2412 72.0963 40.3408C72.5475 40.4346 72.9166 40.5547 73.2038 40.7012L72.7643 41.9229C72.4713 41.8057 72.1315 41.7002 71.7448 41.6064C71.3639 41.5127 71.0065 41.4658 70.6725 41.4658C70.0045 41.4658 69.4479 41.6094 69.0026 41.8965C68.5631 42.1836 68.2321 42.6055 68.0094 43.1621C67.7926 43.7188 67.6842 44.4043 67.6842 45.2188C67.6842 45.998 67.7897 46.6631 68.0006 47.2139C68.2174 47.7646 68.5368 48.1865 68.9586 48.4795C69.3864 48.7666 69.9196 48.9102 70.5582 48.9102C71.068 48.9102 71.528 48.8574 71.9381 48.752C72.3483 48.6406 72.7204 48.5117 73.0543 48.3652V49.666C72.7321 49.8301 72.3717 49.9561 71.9733 50.0439C71.5807 50.1318 71.112 50.1758 70.567 50.1758ZM80.0079 50.1758C79.1407 50.1758 78.3761 49.9971 77.7139 49.6396C77.0518 49.2822 76.5362 48.7373 76.1671 48.0049C75.7979 47.2725 75.6134 46.3496 75.6134 45.2363C75.6134 44.0703 75.8067 43.1182 76.1934 42.3799C76.586 41.6357 77.1251 41.085 77.8106 40.7275C78.4962 40.3701 79.2755 40.1914 80.1485 40.1914C80.629 40.1914 81.0919 40.2412 81.5372 40.3408C81.9884 40.4346 82.3575 40.5547 82.6446 40.7012L82.2052 41.9229C81.9122 41.8057 81.5723 41.7002 81.1856 41.6064C80.8048 41.5127 80.4473 41.4658 80.1134 41.4658C79.4454 41.4658 78.8887 41.6094 78.4434 41.8965C78.004 42.1836 77.6729 42.6055 77.4503 43.1621C77.2335 43.7188 77.1251 44.4043 77.1251 45.2188C77.1251 45.998 77.2305 46.6631 77.4415 47.2139C77.6583 47.7646 77.9776 48.1865 78.3995 48.4795C78.8272 48.7666 79.3604 48.9102 79.9991 48.9102C80.5089 48.9102 80.9688 48.8574 81.379 48.752C81.7891 48.6406 82.1612 48.5117 82.4952 48.3652V49.666C82.1729 49.8301 81.8126 49.9561 81.4141 50.0439C81.0216 50.1318 80.5528 50.1758 80.0079 50.1758ZM86.979 40.3672V46.4229C86.979 46.54 86.9761 46.6924 86.9702 46.8799C86.9644 47.0615 86.9556 47.2578 86.9439 47.4688C86.9322 47.6738 86.9204 47.873 86.9087 48.0664C86.9029 48.2539 86.8941 48.4092 86.8823 48.5322L92.1382 40.3672H93.9312V50H92.5689V44.0938C92.5689 43.9062 92.5718 43.666 92.5777 43.373C92.5835 43.0801 92.5923 42.793 92.604 42.5117C92.6157 42.2246 92.6245 42.002 92.6304 41.8438L87.3921 50H85.5904V40.3672H86.979ZM98.3095 50H96.6045L99.3818 45.9395C98.9775 45.8516 98.6025 45.7021 98.2568 45.4912C97.9111 45.2744 97.6298 44.9785 97.413 44.6035C97.2021 44.2285 97.0966 43.7627 97.0966 43.2061C97.0966 42.2803 97.4043 41.5771 98.0195 41.0967C98.6406 40.6104 99.458 40.3672 100.472 40.3672H104.734V50H103.275V46.1328H100.832L98.3095 50ZM98.5117 43.2148C98.5117 43.7891 98.7168 44.2168 99.1269 44.498C99.5371 44.7734 100.123 44.9111 100.885 44.9111H103.275V41.5889H100.63C99.8798 41.5889 99.3379 41.7412 99.0039 42.0459C98.6757 42.3447 98.5117 42.7344 98.5117 43.2148ZM115.495 40.3672V46.4229C115.495 46.54 115.492 46.6924 115.486 46.8799C115.48 47.0615 115.472 47.2578 115.46 47.4688C115.448 47.6738 115.436 47.873 115.425 48.0664C115.419 48.2539 115.41 48.4092 115.398 48.5322L120.654 40.3672H122.447V50H121.085V44.0938C121.085 43.9062 121.088 43.666 121.094 43.373C121.099 43.0801 121.108 42.793 121.12 42.5117C121.132 42.2246 121.14 42.002 121.146 41.8438L115.908 50H114.106V40.3672H115.495ZM138.903 40.3672V48.7607H140.283V53.3311H138.868V50H132.048V53.3311H130.65V48.7607H131.406C131.957 47.999 132.414 47.1641 132.777 46.2559C133.14 45.3477 133.416 44.3955 133.603 43.3994C133.791 42.3975 133.89 41.3867 133.902 40.3672H138.903ZM137.488 41.5273H135.203C135.15 42.3828 135.024 43.2529 134.825 44.1377C134.632 45.0225 134.374 45.8662 134.051 46.6689C133.729 47.4658 133.354 48.1631 132.926 48.7607H137.488V41.5273ZM147.535 40.1914C148.736 40.1914 149.694 40.6045 150.409 41.4307C151.124 42.2568 151.482 43.499 151.482 45.1572C151.482 46.2529 151.318 47.1729 150.989 47.917C150.661 48.6611 150.198 49.2236 149.601 49.6045C149.009 49.9854 148.309 50.1758 147.5 50.1758C146.99 50.1758 146.542 50.1084 146.155 49.9736C145.769 49.8389 145.438 49.6572 145.162 49.4287C144.887 49.2002 144.658 48.9512 144.477 48.6816H144.371C144.389 48.9102 144.409 49.1855 144.433 49.5078C144.462 49.8301 144.477 50.1113 144.477 50.3516V54.3066H143.009V40.3672H144.213L144.406 41.791H144.477C144.664 41.498 144.893 41.2314 145.162 40.9912C145.432 40.7451 145.76 40.5518 146.147 40.4111C146.539 40.2646 147.002 40.1914 147.535 40.1914ZM147.28 41.4219C146.612 41.4219 146.073 41.5508 145.663 41.8086C145.259 42.0664 144.963 42.4531 144.776 42.9688C144.588 43.4785 144.488 44.1201 144.477 44.8936V45.1748C144.477 45.9893 144.565 46.6777 144.74 47.2402C144.922 47.8027 145.218 48.2305 145.628 48.5234C146.044 48.8164 146.601 48.9629 147.298 48.9629C147.896 48.9629 148.394 48.8018 148.792 48.4795C149.191 48.1572 149.486 47.709 149.68 47.1348C149.879 46.5547 149.979 45.8896 149.979 45.1396C149.979 44.0029 149.756 43.1006 149.311 42.4326C148.871 41.7588 148.194 41.4219 147.28 41.4219ZM153.32 40.3672H154.884L157.011 45.957C157.134 46.2852 157.249 46.6016 157.354 46.9062C157.46 47.2051 157.553 47.4922 157.635 47.7676C157.717 48.043 157.782 48.3096 157.829 48.5674H157.89C157.972 48.2744 158.089 47.8906 158.242 47.416C158.394 46.9355 158.558 46.4463 158.734 45.9482L160.747 40.3672H162.32L158.128 51.415C157.905 52.0068 157.644 52.5225 157.345 52.9619C157.052 53.4014 156.695 53.7383 156.273 53.9727C155.851 54.2129 155.341 54.333 154.744 54.333C154.468 54.333 154.225 54.3154 154.014 54.2803C153.803 54.251 153.622 54.2158 153.469 54.1748V53.0059C153.598 53.0352 153.754 53.0615 153.935 53.085C154.123 53.1084 154.316 53.1201 154.515 53.1201C154.879 53.1201 155.192 53.0498 155.456 52.9092C155.725 52.7744 155.957 52.5752 156.15 52.3115C156.343 52.0479 156.51 51.7344 156.651 51.3711L157.178 50.0176L153.32 40.3672ZM170.513 40.3672V41.6064H166.136V50H164.668V40.3672H170.513ZM174.636 40.3672V46.4229C174.636 46.54 174.633 46.6924 174.627 46.8799C174.622 47.0615 174.613 47.2578 174.601 47.4688C174.589 47.6738 174.578 47.873 174.566 48.0664C174.56 48.2539 174.551 48.4092 174.54 48.5322L179.795 40.3672H181.588V50H180.226V44.0938C180.226 43.9062 180.229 43.666 180.235 43.373C180.241 43.0801 180.249 42.793 180.261 42.5117C180.273 42.2246 180.282 42.002 180.288 41.8438L175.049 50H173.248V40.3672H174.636ZM189.21 40.1914C190.03 40.1914 190.733 40.373 191.319 40.7363C191.905 41.0996 192.353 41.6094 192.664 42.2656C192.975 42.916 193.13 43.6777 193.13 44.5508V45.4561H186.476C186.494 46.5869 186.775 47.4482 187.32 48.04C187.865 48.6318 188.633 48.9277 189.623 48.9277C190.232 48.9277 190.771 48.8721 191.24 48.7607C191.709 48.6494 192.195 48.4854 192.699 48.2686V49.5518C192.213 49.7686 191.729 49.9268 191.249 50.0264C190.774 50.126 190.212 50.1758 189.561 50.1758C188.636 50.1758 187.827 49.9883 187.136 49.6133C186.45 49.2324 185.917 48.6758 185.536 47.9434C185.155 47.2109 184.965 46.3145 184.965 45.2539C184.965 44.2168 185.138 43.3203 185.483 42.5645C185.835 41.8027 186.327 41.2168 186.96 40.8066C187.599 40.3965 188.349 40.1914 189.21 40.1914ZM189.192 41.3867C188.413 41.3867 187.792 41.6416 187.329 42.1514C186.866 42.6611 186.591 43.373 186.503 44.2871H191.601C191.595 43.7129 191.504 43.209 191.328 42.7754C191.158 42.3359 190.897 41.9961 190.546 41.7559C190.194 41.5098 189.743 41.3867 189.192 41.3867ZM209.972 40.3672V50H208.505V41.624H203.372V50H201.904V40.3672H209.972ZM218.403 40.1914C219.604 40.1914 220.562 40.6045 221.277 41.4307C221.991 42.2568 222.349 43.499 222.349 45.1572C222.349 46.2529 222.185 47.1729 221.857 47.917C221.529 48.6611 221.066 49.2236 220.468 49.6045C219.876 49.9854 219.176 50.1758 218.367 50.1758C217.858 50.1758 217.409 50.1084 217.023 49.9736C216.636 49.8389 216.305 49.6572 216.03 49.4287C215.754 49.2002 215.526 48.9512 215.344 48.6816H215.239C215.256 48.9102 215.277 49.1855 215.3 49.5078C215.329 49.8301 215.344 50.1113 215.344 50.3516V54.3066H213.876V40.3672H215.08L215.274 41.791H215.344C215.531 41.498 215.76 41.2314 216.03 40.9912C216.299 40.7451 216.627 40.5518 217.014 40.4111C217.406 40.2646 217.869 40.1914 218.403 40.1914ZM218.148 41.4219C217.48 41.4219 216.941 41.5508 216.531 41.8086C216.126 42.0664 215.83 42.4531 215.643 42.9688C215.455 43.4785 215.356 44.1201 215.344 44.8936V45.1748C215.344 45.9893 215.432 46.6777 215.608 47.2402C215.789 47.8027 216.085 48.2305 216.495 48.5234C216.911 48.8164 217.468 48.9629 218.165 48.9629C218.763 48.9629 219.261 48.8018 219.659 48.4795C220.058 48.1572 220.354 47.709 220.547 47.1348C220.746 46.5547 220.846 45.8896 220.846 45.1396C220.846 44.0029 220.623 43.1006 220.178 42.4326C219.739 41.7588 219.062 41.4219 218.148 41.4219ZM234.013 45.166C234.013 45.957 233.911 46.6631 233.706 47.2842C233.501 47.9053 233.205 48.4297 232.818 48.8574C232.431 49.2852 231.963 49.6133 231.412 49.8418C230.867 50.0645 230.249 50.1758 229.557 50.1758C228.913 50.1758 228.321 50.0645 227.782 49.8418C227.249 49.6133 226.786 49.2852 226.393 48.8574C226.007 48.4297 225.705 47.9053 225.488 47.2842C225.277 46.6631 225.172 45.957 225.172 45.166C225.172 44.1113 225.35 43.2148 225.708 42.4766C226.065 41.7324 226.575 41.167 227.237 40.7803C227.905 40.3877 228.699 40.1914 229.619 40.1914C230.498 40.1914 231.265 40.3877 231.922 40.7803C232.584 41.1729 233.096 41.7412 233.46 42.4854C233.829 43.2236 234.013 44.1172 234.013 45.166ZM226.683 45.166C226.683 45.9395 226.786 46.6104 226.991 47.1787C227.196 47.7471 227.512 48.1865 227.94 48.4971C228.368 48.8076 228.919 48.9629 229.592 48.9629C230.26 48.9629 230.808 48.8076 231.236 48.4971C231.67 48.1865 231.989 47.7471 232.194 47.1787C232.399 46.6104 232.502 45.9395 232.502 45.166C232.502 44.3984 232.399 43.7363 232.194 43.1797C231.989 42.6172 231.673 42.1836 231.245 41.8789C230.817 41.5742 230.263 41.4219 229.584 41.4219C228.582 41.4219 227.846 41.7529 227.378 42.415C226.915 43.0771 226.683 43.9941 226.683 45.166ZM236.845 44.2168C236.845 42.8457 236.977 41.6768 237.24 40.71C237.504 39.7373 237.911 38.958 238.462 38.3721C239.019 37.7803 239.734 37.376 240.607 37.1592C241.357 36.9541 242.118 36.7783 242.892 36.6318C243.665 36.4795 244.418 36.3477 245.151 36.2363L245.405 37.5195C245.036 37.5723 244.65 37.6338 244.245 37.7041C243.841 37.7686 243.437 37.8389 243.032 37.915C242.628 37.9854 242.247 38.0615 241.89 38.1436C241.532 38.2197 241.216 38.2988 240.941 38.3809C240.443 38.5156 240.012 38.75 239.649 39.084C239.291 39.418 239.007 39.8779 238.796 40.4639C238.591 41.0498 238.468 41.7881 238.427 42.6787H238.532C238.708 42.4209 238.948 42.166 239.253 41.9141C239.558 41.6621 239.921 41.4541 240.343 41.29C240.765 41.1201 241.239 41.0352 241.767 41.0352C242.599 41.0352 243.293 41.2168 243.85 41.5801C244.406 41.9375 244.825 42.4414 245.107 43.0918C245.388 43.7422 245.528 44.5039 245.528 45.377C245.528 46.4258 245.347 47.3076 244.984 48.0225C244.626 48.7373 244.122 49.2764 243.472 49.6396C242.821 49.9971 242.057 50.1758 241.178 50.1758C240.498 50.1758 239.889 50.0439 239.35 49.7803C238.817 49.5166 238.362 49.1299 237.987 48.6201C237.618 48.1104 237.334 47.4863 237.135 46.748C236.942 46.0098 236.845 45.166 236.845 44.2168ZM241.292 48.9629C241.849 48.9629 242.326 48.8457 242.725 48.6113C243.129 48.377 243.44 48.0078 243.656 47.5039C243.879 46.9941 243.99 46.332 243.99 45.5176C243.99 44.498 243.794 43.7012 243.401 43.127C243.015 42.5469 242.394 42.2568 241.538 42.2568C241.005 42.2568 240.522 42.3711 240.088 42.5996C239.654 42.8223 239.288 43.0889 238.989 43.3994C238.691 43.71 238.474 43.9883 238.339 44.2344C238.339 44.832 238.383 45.4121 238.471 45.9746C238.559 46.5371 238.711 47.0439 238.928 47.4951C239.145 47.9463 239.443 48.3037 239.824 48.5674C240.211 48.8311 240.7 48.9629 241.292 48.9629ZM256.086 50H254.6V41.5889H251.673C251.556 43.1064 251.407 44.4072 251.225 45.4912C251.049 46.5693 250.827 47.4512 250.557 48.1367C250.294 48.8164 249.971 49.3174 249.59 49.6396C249.215 49.9561 248.767 50.1143 248.246 50.1143C248.087 50.1143 247.938 50.1055 247.797 50.0879C247.657 50.0703 247.537 50.041 247.437 50V48.8926C247.513 48.916 247.592 48.9336 247.674 48.9453C247.762 48.957 247.853 48.9629 247.947 48.9629C248.211 48.9629 248.451 48.8545 248.668 48.6377C248.89 48.415 249.089 48.0811 249.265 47.6357C249.447 47.1904 249.608 46.6279 249.749 45.9482C249.889 45.2627 250.012 44.457 250.118 43.5312C250.229 42.5996 250.326 41.5449 250.408 40.3672H256.086V50ZM263.681 40.1914C264.501 40.1914 265.204 40.373 265.79 40.7363C266.376 41.0996 266.824 41.6094 267.135 42.2656C267.445 42.916 267.601 43.6777 267.601 44.5508V45.4561H260.947C260.965 46.5869 261.246 47.4482 261.791 48.04C262.336 48.6318 263.104 48.9277 264.094 48.9277C264.703 48.9277 265.242 48.8721 265.711 48.7607C266.18 48.6494 266.666 48.4854 267.17 48.2686V49.5518C266.684 49.7686 266.2 49.9268 265.72 50.0264C265.245 50.126 264.683 50.1758 264.032 50.1758C263.106 50.1758 262.298 49.9883 261.606 49.6133C260.921 49.2324 260.388 48.6758 260.007 47.9434C259.626 47.2109 259.436 46.3145 259.436 45.2539C259.436 44.2168 259.608 43.3203 259.954 42.5645C260.306 41.8027 260.798 41.2168 261.431 40.8066C262.069 40.3965 262.819 40.1914 263.681 40.1914ZM263.663 41.3867C262.884 41.3867 262.263 41.6416 261.8 42.1514C261.337 42.6611 261.062 43.373 260.974 44.2871H266.071C266.065 43.7129 265.975 43.209 265.799 42.7754C265.629 42.3359 265.368 41.9961 265.017 41.7559C264.665 41.5098 264.214 41.3867 263.663 41.3867ZM281.058 40.3672V50H279.74V43.7246C279.74 43.4668 279.746 43.2061 279.757 42.9424C279.775 42.6729 279.795 42.4033 279.819 42.1338H279.766L276.567 50H275.328L272.207 42.1338H272.155C272.172 42.4033 272.184 42.6729 272.19 42.9424C272.202 43.2061 272.207 43.4844 272.207 43.7773V50H270.88V40.3672H272.84L275.952 48.2422L279.107 40.3672H281.058ZM284.9 50V40.3672H286.368V44.3398H289.005C289.825 44.3398 290.499 44.4424 291.026 44.6475C291.559 44.8525 291.955 45.1572 292.213 45.5615C292.471 45.9658 292.599 46.4668 292.599 47.0645C292.599 47.6621 292.471 48.1807 292.213 48.6201C291.961 49.0596 291.562 49.3994 291.017 49.6396C290.478 49.8799 289.775 50 288.908 50H284.9ZM286.368 48.8135H288.767C289.494 48.8135 290.074 48.6846 290.508 48.4268C290.941 48.1689 291.158 47.7383 291.158 47.1348C291.158 46.543 290.956 46.1328 290.552 45.9043C290.147 45.6699 289.567 45.5527 288.811 45.5527H286.368V48.8135ZM294.19 50V40.3672H295.649V50H294.19ZM313.098 40.3672V50H311.631V41.624H306.498V50H305.03V40.3672H313.098ZM325.308 45.166C325.308 45.957 325.205 46.6631 325 47.2842C324.795 47.9053 324.499 48.4297 324.112 48.8574C323.726 49.2852 323.257 49.6133 322.706 49.8418C322.161 50.0645 321.543 50.1758 320.852 50.1758C320.207 50.1758 319.615 50.0645 319.076 49.8418C318.543 49.6133 318.08 49.2852 317.688 48.8574C317.301 48.4297 316.999 47.9053 316.782 47.2842C316.571 46.6631 316.466 45.957 316.466 45.166C316.466 44.1113 316.645 43.2148 317.002 42.4766C317.36 41.7324 317.869 41.167 318.531 40.7803C319.199 40.3877 319.993 40.1914 320.913 40.1914C321.792 40.1914 322.56 40.3877 323.216 40.7803C323.878 41.1729 324.391 41.7412 324.754 42.4854C325.123 43.2236 325.308 44.1172 325.308 45.166ZM317.978 45.166C317.978 45.9395 318.08 46.6104 318.285 47.1787C318.49 47.7471 318.807 48.1865 319.235 48.4971C319.662 48.8076 320.213 48.9629 320.887 48.9629C321.555 48.9629 322.103 48.8076 322.53 48.4971C322.964 48.1865 323.283 47.7471 323.488 47.1787C323.694 46.6104 323.796 45.9395 323.796 45.166C323.796 44.3984 323.694 43.7363 323.488 43.1797C323.283 42.6172 322.967 42.1836 322.539 41.8789C322.112 41.5742 321.558 41.4219 320.878 41.4219C319.876 41.4219 319.141 41.7529 318.672 42.415C318.209 43.0771 317.978 43.9941 317.978 45.166ZM336.296 42.7842C336.296 43.3877 336.12 43.8594 335.768 44.1992C335.417 44.5332 334.963 44.7588 334.406 44.876V44.9463C335.009 45.0283 335.528 45.2451 335.962 45.5967C336.401 45.9424 336.621 46.4727 336.621 47.1875C336.621 47.7383 336.489 48.2246 336.225 48.6465C335.962 49.0684 335.548 49.3994 334.986 49.6396C334.423 49.8799 333.691 50 332.789 50H328.64V40.3672H332.754C333.445 40.3672 334.054 40.4463 334.582 40.6045C335.115 40.7568 335.534 41.0088 335.839 41.3604C336.143 41.7119 336.296 42.1865 336.296 42.7842ZM335.1 47.1875C335.1 46.6191 334.883 46.209 334.45 45.957C334.022 45.7051 333.398 45.5791 332.578 45.5791H330.108V48.8135H332.613C333.422 48.8135 334.037 48.6904 334.459 48.4443C334.886 48.1924 335.1 47.7734 335.1 47.1875ZM334.81 42.9512C334.81 42.4941 334.643 42.1543 334.309 41.9316C333.975 41.7031 333.427 41.5889 332.666 41.5889H330.108V44.3574H332.411C333.202 44.3574 333.799 44.2432 334.204 44.0146C334.608 43.7861 334.81 43.4316 334.81 42.9512ZM343.495 40.1914C344.316 40.1914 345.019 40.373 345.605 40.7363C346.191 41.0996 346.639 41.6094 346.949 42.2656C347.26 42.916 347.415 43.6777 347.415 44.5508V45.4561H340.762C340.779 46.5869 341.061 47.4482 341.606 48.04C342.15 48.6318 342.918 48.9277 343.908 48.9277C344.518 48.9277 345.057 48.8721 345.525 48.7607C345.994 48.6494 346.481 48.4854 346.984 48.2686V49.5518C346.498 49.7686 346.015 49.9268 345.534 50.0264C345.06 50.126 344.497 50.1758 343.847 50.1758C342.921 50.1758 342.112 49.9883 341.421 49.6133C340.735 49.2324 340.202 48.6758 339.821 47.9434C339.441 47.2109 339.25 46.3145 339.25 45.2539C339.25 44.2168 339.423 43.3203 339.769 42.5645C340.12 41.8027 340.612 41.2168 341.245 40.8066C341.884 40.3965 342.634 40.1914 343.495 40.1914ZM343.478 41.3867C342.698 41.3867 342.077 41.6416 341.614 42.1514C341.151 42.6611 340.876 43.373 340.788 44.2871H345.886C345.88 43.7129 345.789 43.209 345.613 42.7754C345.443 42.3359 345.183 41.9961 344.831 41.7559C344.48 41.5098 344.028 41.3867 343.478 41.3867ZM357.761 40.3672V48.7607H359.141V53.3311H357.726V50H350.906V53.3311H349.508V48.7607H350.264C350.815 47.999 351.272 47.1641 351.635 46.2559C351.999 45.3477 352.274 44.3955 352.461 43.3994C352.649 42.3975 352.749 41.3867 352.76 40.3672H357.761ZM356.346 41.5273H354.061C354.008 42.3828 353.882 43.2529 353.683 44.1377C353.49 45.0225 353.232 45.8662 352.91 46.6689C352.587 47.4658 352.212 48.1631 351.785 48.7607H356.346V41.5273ZM365.576 40.1914C366.396 40.1914 367.1 40.373 367.686 40.7363C368.271 41.0996 368.72 41.6094 369.03 42.2656C369.341 42.916 369.496 43.6777 369.496 44.5508V45.4561H362.843C362.86 46.5869 363.142 47.4482 363.686 48.04C364.231 48.6318 364.999 48.9277 365.989 48.9277C366.599 48.9277 367.138 48.8721 367.606 48.7607C368.075 48.6494 368.561 48.4854 369.065 48.2686V49.5518C368.579 49.7686 368.096 49.9268 367.615 50.0264C367.141 50.126 366.578 50.1758 365.928 50.1758C365.002 50.1758 364.193 49.9883 363.502 49.6133C362.816 49.2324 362.283 48.6758 361.902 47.9434C361.521 47.2109 361.331 46.3145 361.331 45.2539C361.331 44.2168 361.504 43.3203 361.85 42.5645C362.201 41.8027 362.693 41.2168 363.326 40.8066C363.965 40.3965 364.715 40.1914 365.576 40.1914ZM365.559 41.3867C364.779 41.3867 364.158 41.6416 363.695 42.1514C363.232 42.6611 362.957 43.373 362.869 44.2871H367.967C367.961 43.7129 367.87 43.209 367.694 42.7754C367.524 42.3359 367.264 41.9961 366.912 41.7559C366.561 41.5098 366.109 41.3867 365.559 41.3867ZM374.252 40.3672V44.4102H379.622V40.3672H381.081V50H379.622V45.6494H374.252V50H372.785V40.3672H374.252ZM386.374 40.3672V46.4229C386.374 46.54 386.371 46.6924 386.365 46.8799C386.359 47.0615 386.35 47.2578 386.339 47.4688C386.327 47.6738 386.315 47.873 386.304 48.0664C386.298 48.2539 386.289 48.4092 386.277 48.5322L391.533 40.3672H393.326V50H391.964V44.0938C391.964 43.9062 391.967 43.666 391.973 43.373C391.978 43.0801 391.987 42.793 391.999 42.5117C392.011 42.2246 392.019 42.002 392.025 41.8438L386.787 50H384.985V40.3672H386.374ZM397.704 50H395.999L398.777 45.9395C398.372 45.8516 397.997 45.7021 397.652 45.4912C397.306 45.2744 397.025 44.9785 396.808 44.6035C396.597 44.2285 396.491 43.7627 396.491 43.2061C396.491 42.2803 396.799 41.5771 397.414 41.0967C398.035 40.6104 398.853 40.3672 399.866 40.3672H404.129V50H402.67V46.1328H400.227L397.704 50ZM397.907 43.2148C397.907 43.7891 398.112 44.2168 398.522 44.498C398.932 44.7734 399.518 44.9111 400.28 44.9111H402.67V41.5889H400.025C399.275 41.5889 398.733 41.7412 398.399 42.0459C398.071 42.3447 397.907 42.7344 397.907 43.2148ZM23.3993 86V73.1504H32.9706V86H31.494V74.4688H24.8934V86H23.3993ZM40.8118 76.1914C41.6321 76.1914 42.3353 76.373 42.9212 76.7363C43.5071 77.0996 43.9554 77.6094 44.2659 78.2656C44.5765 78.916 44.7318 79.6777 44.7318 80.5508V81.4561H38.0784C38.096 82.5869 38.3773 83.4482 38.9222 84.04C39.4671 84.6318 40.2347 84.9277 41.2249 84.9277C41.8343 84.9277 42.3734 84.8721 42.8421 84.7607C43.3109 84.6494 43.7972 84.4854 44.3011 84.2686V85.5518C43.8148 85.7686 43.3314 85.9268 42.8509 86.0264C42.3763 86.126 41.8138 86.1758 41.1634 86.1758C40.2376 86.1758 39.429 85.9883 38.7376 85.6133C38.0521 85.2324 37.5189 84.6758 37.138 83.9434C36.7571 83.2109 36.5667 82.3145 36.5667 81.2539C36.5667 80.2168 36.7396 79.3203 37.0853 78.5645C37.4368 77.8027 37.929 77.2168 38.5618 76.8066C39.2005 76.3965 39.9505 76.1914 40.8118 76.1914ZM40.7943 77.3867C40.015 77.3867 39.3939 77.6416 38.931 78.1514C38.4681 78.6611 38.1927 79.373 38.1048 80.2871H43.2025C43.1966 79.7129 43.1058 79.209 42.93 78.7754C42.7601 78.3359 42.4993 77.9961 42.1478 77.7559C41.7962 77.5098 41.345 77.3867 40.7943 77.3867ZM52.5466 76.1914C53.7478 76.1914 54.7058 76.6045 55.4207 77.4307C56.1355 78.2568 56.4929 79.499 56.4929 81.1572C56.4929 82.2529 56.3289 83.1729 56.0007 83.917C55.6726 84.6611 55.2097 85.2236 54.6121 85.6045C54.0203 85.9854 53.3201 86.1758 52.5115 86.1758C52.0017 86.1758 51.5535 86.1084 51.1668 85.9736C50.78 85.8389 50.449 85.6572 50.1736 85.4287C49.8982 85.2002 49.6697 84.9512 49.488 84.6816H49.3826C49.4002 84.9102 49.4207 85.1855 49.4441 85.5078C49.4734 85.8301 49.488 86.1113 49.488 86.3516V90.3066H48.0203V76.3672H49.2244L49.4177 77.791H49.488C49.6755 77.498 49.9041 77.2314 50.1736 76.9912C50.4431 76.7451 50.7713 76.5518 51.158 76.4111C51.5505 76.2646 52.0134 76.1914 52.5466 76.1914ZM52.2918 77.4219C51.6238 77.4219 51.0847 77.5508 50.6746 77.8086C50.2703 78.0664 49.9744 78.4531 49.7869 78.9688C49.5994 79.4785 49.4998 80.1201 49.488 80.8936V81.1748C49.488 81.9893 49.5759 82.6777 49.7517 83.2402C49.9334 83.8027 50.2293 84.2305 50.6394 84.5234C51.0554 84.8164 51.6121 84.9629 52.3093 84.9629C52.907 84.9629 53.405 84.8018 53.8035 84.4795C54.2019 84.1572 54.4978 83.709 54.6912 83.1348C54.8904 82.5547 54.99 81.8896 54.99 81.1396C54.99 80.0029 54.7673 79.1006 54.322 78.4326C53.8826 77.7588 53.2058 77.4219 52.2918 77.4219ZM63.5607 76.1914C64.3811 76.1914 65.0842 76.373 65.6701 76.7363C66.2561 77.0996 66.7043 77.6094 67.0148 78.2656C67.3254 78.916 67.4807 79.6777 67.4807 80.5508V81.4561H60.8273C60.8449 82.5869 61.1262 83.4482 61.6711 84.04C62.216 84.6318 62.9836 84.9277 63.9738 84.9277C64.5832 84.9277 65.1223 84.8721 65.591 84.7607C66.0598 84.6494 66.5461 84.4854 67.05 84.2686V85.5518C66.5637 85.7686 66.0803 85.9268 65.5998 86.0264C65.1252 86.126 64.5627 86.1758 63.9123 86.1758C62.9865 86.1758 62.1779 85.9883 61.4865 85.6133C60.801 85.2324 60.2678 84.6758 59.8869 83.9434C59.5061 83.2109 59.3156 82.3145 59.3156 81.2539C59.3156 80.2168 59.4885 79.3203 59.8342 78.5645C60.1857 77.8027 60.6779 77.2168 61.3107 76.8066C61.9494 76.3965 62.6994 76.1914 63.5607 76.1914ZM63.5432 77.3867C62.7639 77.3867 62.1428 77.6416 61.6799 78.1514C61.217 78.6611 60.9416 79.373 60.8537 80.2871H65.9514C65.9455 79.7129 65.8547 79.209 65.6789 78.7754C65.509 78.3359 65.2482 77.9961 64.8967 77.7559C64.5451 77.5098 64.0939 77.3867 63.5432 77.3867ZM82.0543 76.3672L78.0465 81.0518L82.3971 86H80.7272L76.5084 81.1133V86H75.1461V81.1133L70.9362 86H69.2663L73.6168 81.0518L69.6002 76.3672H71.2086L75.1461 81.043V76.3672H76.5084V81.043L80.4635 76.3672H82.0543ZM86.2042 76.3672V82.4229C86.2042 82.54 86.2012 82.6924 86.1954 82.8799C86.1895 83.0615 86.1807 83.2578 86.169 83.4688C86.1573 83.6738 86.1456 83.873 86.1339 84.0664C86.128 84.2539 86.1192 84.4092 86.1075 84.5322L91.3634 76.3672H93.1563V86H91.794V80.0938C91.794 79.9062 91.797 79.666 91.8028 79.373C91.8087 79.0801 91.8175 78.793 91.8292 78.5117C91.8409 78.2246 91.8497 78.002 91.8555 77.8438L86.6173 86H84.8155V76.3672H86.2042ZM103.634 77.6064H100.461V86H99.02V77.6064H95.8911V76.3672H103.634V77.6064ZM106.352 86V76.3672H107.819V80.3398H110.456C111.276 80.3398 111.95 80.4424 112.478 80.6475C113.011 80.8525 113.406 81.1572 113.664 81.5615C113.922 81.9658 114.051 82.4668 114.051 83.0645C114.051 83.6621 113.922 84.1807 113.664 84.6201C113.412 85.0596 113.014 85.3994 112.469 85.6396C111.93 85.8799 111.227 86 110.359 86H106.352ZM107.819 84.8135H110.219C110.945 84.8135 111.525 84.6846 111.959 84.4268C112.393 84.1689 112.609 83.7383 112.609 83.1348C112.609 82.543 112.407 82.1328 112.003 81.9043C111.599 81.6699 111.019 81.5527 110.263 81.5527H107.819V84.8135ZM115.642 86V76.3672H117.101V86H115.642ZM124.704 76.1914C125.525 76.1914 126.228 76.373 126.814 76.7363C127.4 77.0996 127.848 77.6094 128.159 78.2656C128.469 78.916 128.624 79.6777 128.624 80.5508V81.4561H121.971C121.989 82.5869 122.27 83.4482 122.815 84.04C123.36 84.6318 124.127 84.9277 125.118 84.9277C125.727 84.9277 126.266 84.8721 126.735 84.7607C127.204 84.6494 127.69 84.4854 128.194 84.2686V85.5518C127.707 85.7686 127.224 85.9268 126.744 86.0264C126.269 86.126 125.706 86.1758 125.056 86.1758C124.13 86.1758 123.322 85.9883 122.63 85.6133C121.945 85.2324 121.412 84.6758 121.031 83.9434C120.65 83.2109 120.459 82.3145 120.459 81.2539C120.459 80.2168 120.632 79.3203 120.978 78.5645C121.329 77.8027 121.822 77.2168 122.454 76.8066C123.093 76.3965 123.843 76.1914 124.704 76.1914ZM124.687 77.3867C123.908 77.3867 123.287 77.6416 122.824 78.1514C122.361 78.6611 122.085 79.373 121.997 80.2871H127.095C127.089 79.7129 126.998 79.209 126.823 78.7754C126.653 78.3359 126.392 77.9961 126.04 77.7559C125.689 77.5098 125.238 77.3867 124.687 77.3867ZM145.467 76.3672V86H143.999V77.624H138.866V86H137.399V76.3672H145.467ZM153.229 86.1758C152.362 86.1758 151.597 85.9971 150.935 85.6396C150.273 85.2822 149.758 84.7373 149.388 84.0049C149.019 83.2725 148.835 82.3496 148.835 81.2363C148.835 80.0703 149.028 79.1182 149.415 78.3799C149.807 77.6357 150.346 77.085 151.032 76.7275C151.717 76.3701 152.497 76.1914 153.37 76.1914C153.85 76.1914 154.313 76.2412 154.759 76.3408C155.21 76.4346 155.579 76.5547 155.866 76.7012L155.426 77.9229C155.134 77.8057 154.794 77.7002 154.407 77.6064C154.026 77.5127 153.669 77.4658 153.335 77.4658C152.667 77.4658 152.11 77.6094 151.665 77.8965C151.225 78.1836 150.894 78.6055 150.672 79.1621C150.455 79.7188 150.346 80.4043 150.346 81.2188C150.346 81.998 150.452 82.6631 150.663 83.2139C150.88 83.7646 151.199 84.1865 151.621 84.4795C152.049 84.7666 152.582 84.9102 153.22 84.9102C153.73 84.9102 154.19 84.8574 154.6 84.752C155.01 84.6406 155.383 84.5117 155.717 84.3652V85.666C155.394 85.8301 155.034 85.9561 154.635 86.0439C154.243 86.1318 153.774 86.1758 153.229 86.1758ZM160.2 76.3672V82.4229C160.2 82.54 160.197 82.6924 160.192 82.8799C160.186 83.0615 160.177 83.2578 160.165 83.4688C160.153 83.6738 160.142 83.873 160.13 84.0664C160.124 84.2539 160.115 84.4092 160.104 84.5322L165.36 76.3672H167.152V86H165.79V80.0938C165.79 79.9062 165.793 79.666 165.799 79.373C165.805 79.0801 165.814 78.793 165.825 78.5117C165.837 78.2246 165.846 78.002 165.852 77.8438L160.613 86H158.812V76.3672H160.2ZM173.359 81.0693L170.028 76.3672H171.698L174.238 80.0762L176.769 76.3672H178.421L175.09 81.0693L178.606 86H176.936L174.238 82.0713L171.522 86H169.87L173.359 81.0693ZM189.603 81.166C189.603 81.957 189.5 82.6631 189.295 83.2842C189.09 83.9053 188.794 84.4297 188.407 84.8574C188.021 85.2852 187.552 85.6133 187.001 85.8418C186.456 86.0645 185.838 86.1758 185.147 86.1758C184.502 86.1758 183.91 86.0645 183.371 85.8418C182.838 85.6133 182.375 85.2852 181.982 84.8574C181.596 84.4297 181.294 83.9053 181.077 83.2842C180.866 82.6631 180.761 81.957 180.761 81.166C180.761 80.1113 180.939 79.2148 181.297 78.4766C181.654 77.7324 182.164 77.167 182.826 76.7803C183.494 76.3877 184.288 76.1914 185.208 76.1914C186.087 76.1914 186.855 76.3877 187.511 76.7803C188.173 77.1729 188.686 77.7412 189.049 78.4854C189.418 79.2236 189.603 80.1172 189.603 81.166ZM182.273 81.166C182.273 81.9395 182.375 82.6104 182.58 83.1787C182.785 83.7471 183.102 84.1865 183.529 84.4971C183.957 84.8076 184.508 84.9629 185.182 84.9629C185.85 84.9629 186.398 84.8076 186.825 84.4971C187.259 84.1865 187.578 83.7471 187.783 83.1787C187.988 82.6104 188.091 81.9395 188.091 81.166C188.091 80.3984 187.988 79.7363 187.783 79.1797C187.578 78.6172 187.262 78.1836 186.834 77.8789C186.406 77.5742 185.853 77.4219 185.173 77.4219C184.171 77.4219 183.436 77.7529 182.967 78.415C182.504 79.0771 182.273 79.9941 182.273 81.166ZM199.5 77.6064H196.328V86H194.886V77.6064H191.757V76.3672H199.5V77.6064ZM206.744 76.1914C207.945 76.1914 208.903 76.6045 209.618 77.4307C210.333 78.2568 210.69 79.499 210.69 81.1572C210.69 82.2529 210.526 83.1729 210.198 83.917C209.87 84.6611 209.407 85.2236 208.809 85.6045C208.218 85.9854 207.518 86.1758 206.709 86.1758C206.199 86.1758 205.751 86.1084 205.364 85.9736C204.977 85.8389 204.646 85.6572 204.371 85.4287C204.096 85.2002 203.867 84.9512 203.685 84.6816H203.58C203.598 84.9102 203.618 85.1855 203.642 85.5078C203.671 85.8301 203.685 86.1113 203.685 86.3516V90.3066H202.218V76.3672H203.422L203.615 77.791H203.685C203.873 77.498 204.101 77.2314 204.371 76.9912C204.641 76.7451 204.969 76.5518 205.355 76.4111C205.748 76.2646 206.211 76.1914 206.744 76.1914ZM206.489 77.4219C205.821 77.4219 205.282 77.5508 204.872 77.8086C204.468 78.0664 204.172 78.4531 203.984 78.9688C203.797 79.4785 203.697 80.1201 203.685 80.8936V81.1748C203.685 81.9893 203.773 82.6777 203.949 83.2402C204.131 83.8027 204.427 84.2305 204.837 84.5234C205.253 84.8164 205.809 84.9629 206.507 84.9629C207.104 84.9629 207.602 84.8018 208.001 84.4795C208.399 84.1572 208.695 83.709 208.889 83.1348C209.088 82.5547 209.187 81.8896 209.187 81.1396C209.187 80.0029 208.965 79.1006 208.519 78.4326C208.08 77.7588 207.403 77.4219 206.489 77.4219ZM217.653 76.209C218.801 76.209 219.654 76.4668 220.21 76.9824C220.767 77.498 221.045 78.3213 221.045 79.4521V86H219.982L219.701 84.5762H219.63C219.361 84.9277 219.079 85.2236 218.786 85.4639C218.494 85.6982 218.154 85.877 217.767 86C217.386 86.1172 216.917 86.1758 216.361 86.1758C215.775 86.1758 215.253 86.0732 214.796 85.8682C214.345 85.6631 213.988 85.3525 213.724 84.9365C213.466 84.5205 213.337 83.9932 213.337 83.3545C213.337 82.3936 213.718 81.6553 214.48 81.1396C215.242 80.624 216.402 80.3428 217.96 80.2959L219.621 80.2256V79.6367C219.621 78.8047 219.443 78.2217 219.085 77.8877C218.728 77.5537 218.224 77.3867 217.574 77.3867C217.07 77.3867 216.589 77.46 216.132 77.6064C215.675 77.7529 215.242 77.9258 214.831 78.125L214.383 77.0176C214.817 76.7949 215.315 76.6045 215.877 76.4463C216.44 76.2881 217.032 76.209 217.653 76.209ZM219.604 81.2539L218.136 81.3154C216.935 81.3623 216.088 81.5586 215.596 81.9043C215.104 82.25 214.858 82.7393 214.858 83.3721C214.858 83.9229 215.025 84.3301 215.359 84.5938C215.693 84.8574 216.135 84.9893 216.686 84.9893C217.541 84.9893 218.242 84.752 218.786 84.2773C219.331 83.8027 219.604 83.0908 219.604 82.1416V81.2539ZM232.516 78.7842C232.516 79.3877 232.341 79.8594 231.989 80.1992C231.637 80.5332 231.183 80.7588 230.627 80.876V80.9463C231.23 81.0283 231.749 81.2451 232.182 81.5967C232.622 81.9424 232.842 82.4727 232.842 83.1875C232.842 83.7383 232.71 84.2246 232.446 84.6465C232.182 85.0684 231.769 85.3994 231.207 85.6396C230.644 85.8799 229.912 86 229.01 86H224.861V76.3672H228.974C229.666 76.3672 230.275 76.4463 230.803 76.6045C231.336 76.7568 231.755 77.0088 232.059 77.3604C232.364 77.7119 232.516 78.1865 232.516 78.7842ZM231.321 83.1875C231.321 82.6191 231.104 82.209 230.671 81.957C230.243 81.7051 229.619 81.5791 228.799 81.5791H226.329V84.8135H228.834C229.642 84.8135 230.258 84.6904 230.679 84.4443C231.107 84.1924 231.321 83.7734 231.321 83.1875ZM231.031 78.9512C231.031 78.4941 230.864 78.1543 230.53 77.9316C230.196 77.7031 229.648 77.5889 228.887 77.5889H226.329V80.3574H228.632C229.423 80.3574 230.02 80.2432 230.425 80.0146C230.829 79.7861 231.031 79.4316 231.031 78.9512ZM246.176 76.3672V86H244.858V79.7246C244.858 79.4668 244.864 79.2061 244.875 78.9424C244.893 78.6729 244.913 78.4033 244.937 78.1338H244.884L241.685 86H240.446L237.325 78.1338H237.273C237.29 78.4033 237.302 78.6729 237.308 78.9424C237.32 79.2061 237.325 79.4844 237.325 79.7773V86H235.998V76.3672H237.958L241.07 84.2422L244.225 76.3672H246.176ZM251.407 76.3672V82.4229C251.407 82.54 251.404 82.6924 251.398 82.8799C251.392 83.0615 251.383 83.2578 251.372 83.4688C251.36 83.6738 251.348 83.873 251.337 84.0664C251.331 84.2539 251.322 84.4092 251.31 84.5322L256.566 76.3672H258.359V86H256.997V80.0938C256.997 79.9062 257 79.666 257.006 79.373C257.011 79.0801 257.02 78.793 257.032 78.5117C257.044 78.2246 257.052 78.002 257.058 77.8438L251.82 86H250.018V76.3672H251.407ZM266.798 76.1914C267.999 76.1914 268.957 76.6045 269.672 77.4307C270.387 78.2568 270.744 79.499 270.744 81.1572C270.744 82.2529 270.58 83.1729 270.252 83.917C269.924 84.6611 269.461 85.2236 268.863 85.6045C268.272 85.9854 267.571 86.1758 266.763 86.1758C266.253 86.1758 265.805 86.1084 265.418 85.9736C265.031 85.8389 264.7 85.6572 264.425 85.4287C264.15 85.2002 263.921 84.9512 263.739 84.6816H263.634C263.651 84.9102 263.672 85.1855 263.695 85.5078C263.725 85.8301 263.739 86.1113 263.739 86.3516V90.3066H262.272V76.3672H263.476L263.669 77.791H263.739C263.927 77.498 264.155 77.2314 264.425 76.9912C264.694 76.7451 265.023 76.5518 265.409 76.4111C265.802 76.2646 266.265 76.1914 266.798 76.1914ZM266.543 77.4219C265.875 77.4219 265.336 77.5508 264.926 77.8086C264.522 78.0664 264.226 78.4531 264.038 78.9688C263.851 79.4785 263.751 80.1201 263.739 80.8936V81.1748C263.739 81.9893 263.827 82.6777 264.003 83.2402C264.185 83.8027 264.481 84.2305 264.891 84.5234C265.307 84.8164 265.863 84.9629 266.561 84.9629C267.158 84.9629 267.656 84.8018 268.055 84.4795C268.453 84.1572 268.749 83.709 268.943 83.1348C269.142 82.5547 269.241 81.8896 269.241 81.1396C269.241 80.0029 269.019 79.1006 268.573 78.4326C268.134 77.7588 267.457 77.4219 266.543 77.4219ZM272.583 76.3672H274.147L276.274 81.957C276.397 82.2852 276.511 82.6016 276.617 82.9062C276.722 83.2051 276.816 83.4922 276.898 83.7676C276.98 84.043 277.044 84.3096 277.091 84.5674H277.153C277.235 84.2744 277.352 83.8906 277.504 83.416C277.657 82.9355 277.821 82.4463 277.997 81.9482L280.009 76.3672H281.583L277.39 87.415C277.168 88.0068 276.907 88.5225 276.608 88.9619C276.315 89.4014 275.958 89.7383 275.536 89.9727C275.114 90.2129 274.604 90.333 274.006 90.333C273.731 90.333 273.488 90.3154 273.277 90.2803C273.066 90.251 272.884 90.2158 272.732 90.1748V89.0059C272.861 89.0352 273.016 89.0615 273.198 89.085C273.385 89.1084 273.579 89.1201 273.778 89.1201C274.141 89.1201 274.455 89.0498 274.718 88.9092C274.988 88.7744 275.219 88.5752 275.413 88.3115C275.606 88.0479 275.773 87.7344 275.914 87.3711L276.441 86.0176L272.583 76.3672ZM296.314 81.166C296.314 82.2148 296.145 83.1143 295.805 83.8643C295.471 84.6143 294.99 85.1885 294.363 85.5869C293.736 85.9795 292.986 86.1758 292.113 86.1758C291.299 86.1758 290.587 86 289.978 85.6484C289.374 85.2969 288.896 84.7842 288.545 84.1104C288.199 83.4365 288 82.6162 287.947 81.6494H285.39V86H283.931V76.3672H285.39V80.4102H287.965C288.047 79.5195 288.264 78.7607 288.615 78.1338C288.967 77.5068 289.441 77.0264 290.039 76.6924C290.637 76.3584 291.34 76.1914 292.148 76.1914C292.992 76.1914 293.725 76.3906 294.346 76.7891C294.973 77.1816 295.456 77.75 295.796 78.4941C296.142 79.2324 296.314 80.123 296.314 81.166ZM289.441 81.166C289.441 81.9746 289.532 82.6631 289.714 83.2314C289.901 83.7939 290.191 84.2246 290.584 84.5234C290.982 84.8164 291.498 84.9629 292.131 84.9629C292.758 84.9629 293.268 84.8164 293.66 84.5234C294.059 84.2305 294.349 83.8027 294.53 83.2402C294.718 82.6719 294.812 81.9805 294.812 81.166C294.812 80.3633 294.718 79.6836 294.53 79.127C294.343 78.5703 294.053 78.1484 293.66 77.8613C293.268 77.5684 292.758 77.4219 292.131 77.4219C291.504 77.4219 290.991 77.5684 290.593 77.8613C290.2 78.1484 289.91 78.5703 289.723 79.127C289.535 79.6836 289.441 80.3633 289.441 81.166ZM312.576 76.3672V84.7783H313.956V89.3135H312.488V86H299.664V76.3672H301.123V84.7607H305.386V76.3672H306.854V84.7607H311.125V76.3672H312.576ZM318.017 76.3672V82.4229C318.017 82.54 318.015 82.6924 318.009 82.8799C318.003 83.0615 317.994 83.2578 317.982 83.4688C317.971 83.6738 317.959 83.873 317.947 84.0664C317.941 84.2539 317.932 84.4092 317.921 84.5322L323.177 76.3672H324.97V86H323.607V80.0938C323.607 79.9062 323.61 79.666 323.616 79.373C323.622 79.0801 323.631 78.793 323.642 78.5117C323.654 78.2246 323.663 78.002 323.669 77.8438L318.431 86H316.629V76.3672H318.017ZM332.591 76.1914C333.411 76.1914 334.115 76.373 334.701 76.7363C335.286 77.0996 335.735 77.6094 336.045 78.2656C336.356 78.916 336.511 79.6777 336.511 80.5508V81.4561H329.858C329.875 82.5869 330.157 83.4482 330.701 84.04C331.246 84.6318 332.014 84.9277 333.004 84.9277C333.614 84.9277 334.153 84.8721 334.621 84.7607C335.09 84.6494 335.576 84.4854 336.08 84.2686V85.5518C335.594 85.7686 335.111 85.9268 334.63 86.0264C334.156 86.126 333.593 86.1758 332.943 86.1758C332.017 86.1758 331.208 85.9883 330.517 85.6133C329.831 85.2324 329.298 84.6758 328.917 83.9434C328.536 83.2109 328.346 82.3145 328.346 81.2539C328.346 80.2168 328.519 79.3203 328.865 78.5645C329.216 77.8027 329.708 77.2168 330.341 76.8066C330.98 76.3965 331.73 76.1914 332.591 76.1914ZM332.574 77.3867C331.794 77.3867 331.173 77.6416 330.71 78.1514C330.247 78.6611 329.972 79.373 329.884 80.2871H334.982C334.976 79.7129 334.885 79.209 334.709 78.7754C334.539 78.3359 334.279 77.9961 333.927 77.7559C333.576 77.5098 333.124 77.3867 332.574 77.3867ZM349.144 86.1758C348.277 86.1758 347.512 85.9971 346.85 85.6396C346.188 85.2822 345.672 84.7373 345.303 84.0049C344.934 83.2725 344.749 82.3496 344.749 81.2363C344.749 80.0703 344.943 79.1182 345.329 78.3799C345.722 77.6357 346.261 77.085 346.946 76.7275C347.632 76.3701 348.411 76.1914 349.284 76.1914C349.765 76.1914 350.228 76.2412 350.673 76.3408C351.124 76.4346 351.493 76.5547 351.78 76.7012L351.341 77.9229C351.048 77.8057 350.708 77.7002 350.321 77.6064C349.941 77.5127 349.583 77.4658 349.249 77.4658C348.581 77.4658 348.025 77.6094 347.579 77.8965C347.14 78.1836 346.809 78.6055 346.586 79.1621C346.369 79.7188 346.261 80.4043 346.261 81.2188C346.261 81.998 346.366 82.6631 346.577 83.2139C346.794 83.7646 347.113 84.1865 347.535 84.4795C347.963 84.7666 348.496 84.9102 349.135 84.9102C349.645 84.9102 350.105 84.8574 350.515 84.752C350.925 84.6406 351.297 84.5117 351.631 84.3652V85.666C351.309 85.8301 350.948 85.9561 350.55 86.0439C350.157 86.1318 349.689 86.1758 349.144 86.1758ZM356.115 76.3672V82.4229C356.115 82.54 356.112 82.6924 356.106 82.8799C356.1 83.0615 356.091 83.2578 356.08 83.4688C356.068 83.6738 356.056 83.873 356.045 84.0664C356.039 84.2539 356.03 84.4092 356.018 84.5322L361.274 76.3672H363.067V86H361.705V80.0938C361.705 79.9062 361.708 79.666 361.714 79.373C361.719 79.0801 361.728 78.793 361.74 78.5117C361.752 78.2246 361.76 78.002 361.766 77.8438L356.528 86H354.726V76.3672H356.115ZM373.545 77.6064H370.372V86H368.931V77.6064H365.802V76.3672H373.545V77.6064ZM374.742 76.3672H376.306L378.433 81.957C378.556 82.2852 378.67 82.6016 378.776 82.9062C378.881 83.2051 378.975 83.4922 379.057 83.7676C379.139 84.043 379.204 84.3096 379.251 84.5674H379.312C379.394 84.2744 379.511 83.8906 379.664 83.416C379.816 82.9355 379.98 82.4463 380.156 81.9482L382.168 76.3672H383.742L379.549 87.415C379.327 88.0068 379.066 88.5225 378.767 88.9619C378.474 89.4014 378.117 89.7383 377.695 89.9727C377.273 90.2129 376.763 90.333 376.166 90.333C375.89 90.333 375.647 90.3154 375.436 90.2803C375.225 90.251 375.043 90.2158 374.891 90.1748V89.0059C375.02 89.0352 375.175 89.0615 375.357 89.085C375.544 89.1084 375.738 89.1201 375.937 89.1201C376.3 89.1201 376.614 89.0498 376.877 88.9092C377.147 88.7744 377.378 88.5752 377.572 88.3115C377.765 88.0479 377.932 87.7344 378.073 87.3711L378.6 86.0176L374.742 76.3672ZM389.693 76.209C390.842 76.209 391.694 76.4668 392.251 76.9824C392.808 77.498 393.086 78.3213 393.086 79.4521V86H392.022L391.741 84.5762H391.671C391.401 84.9277 391.12 85.2236 390.827 85.4639C390.534 85.6982 390.194 85.877 389.808 86C389.427 86.1172 388.958 86.1758 388.401 86.1758C387.815 86.1758 387.294 86.0732 386.837 85.8682C386.386 85.6631 386.028 85.3525 385.765 84.9365C385.507 84.5205 385.378 83.9932 385.378 83.3545C385.378 82.3936 385.759 81.6553 386.52 81.1396C387.282 80.624 388.442 80.3428 390.001 80.2959L391.662 80.2256V79.6367C391.662 78.8047 391.483 78.2217 391.126 77.8877C390.769 77.5537 390.265 77.3867 389.614 77.3867C389.11 77.3867 388.63 77.46 388.173 77.6064C387.716 77.7529 387.282 77.9258 386.872 78.125L386.424 77.0176C386.857 76.7949 387.355 76.6045 387.918 76.4463C388.48 76.2881 389.072 76.209 389.693 76.209ZM391.645 81.2539L390.177 81.3154C388.976 81.3623 388.129 81.5586 387.637 81.9043C387.145 82.25 386.898 82.7393 386.898 83.3721C386.898 83.9229 387.065 84.3301 387.399 84.5938C387.733 84.8574 388.176 84.9893 388.727 84.9893C389.582 84.9893 390.282 84.752 390.827 84.2773C391.372 83.8027 391.645 83.0908 391.645 82.1416V81.2539ZM406.28 89.3311H404.856V86H396.902V76.3672H398.37V84.7607H403.476V76.3672H404.935V84.7783H406.28V89.3311ZM410.368 76.3672V82.4229C410.368 82.54 410.365 82.6924 410.359 82.8799C410.353 83.0615 410.345 83.2578 410.333 83.4688C410.321 83.6738 410.309 83.873 410.298 84.0664C410.292 84.2539 410.283 84.4092 410.271 84.5322L415.527 76.3672H417.32V86H415.958V80.0938C415.958 79.9062 415.961 79.666 415.967 79.373C415.973 79.0801 415.981 78.793 415.993 78.5117C416.005 78.2246 416.014 78.002 416.019 77.8438L410.781 86H408.979V76.3672H410.368ZM422.621 76.3672V82.4229C422.621 82.54 422.618 82.6924 422.613 82.8799C422.607 83.0615 422.598 83.2578 422.586 83.4688C422.574 83.6738 422.563 83.873 422.551 84.0664C422.545 84.2539 422.536 84.4092 422.525 84.5322L427.781 76.3672H429.574V86H428.211V80.0938C428.211 79.9062 428.214 79.666 428.22 79.373C428.226 79.0801 428.235 78.793 428.246 78.5117C428.258 78.2246 428.267 78.002 428.273 77.8438L423.034 86H421.233V76.3672H422.621Z" fill="white"/>
</svg>
