<svg width="37" height="37" viewBox="0 0 37 37" fill="none" xmlns="http://www.w3.org/2000/svg">
<path d="M32.6641 0C29.6755 0 27.2441 2.43134 27.2441 5.41992V10.8398C27.2441 14.0969 24.8642 16.8083 21.752 17.3268V5.41992C21.752 3.62683 23.2108 2.16797 25.0039 2.16797V0H18.5L16.332 18.5L18.5 37H25.0039V34.832C23.2108 34.832 21.752 33.3732 21.752 31.5801V23.8756C28.4591 23.3226 33.748 17.6873 33.748 10.8398V5.41992C33.748 3.62683 35.2069 2.16797 37 2.16797V0L32.6641 0Z" fill="#4DC26B"/>
<path d="M11.9961 0V2.16797C13.7892 2.16797 15.248 3.62683 15.248 5.41992V17.3268C12.1358 16.8083 9.75586 14.0969 9.75586 10.8398V5.41992C9.75586 2.43134 7.32452 0 4.33594 0H0V2.16797C1.79309 2.16797 3.25195 3.62683 3.25195 5.41992V10.8398C3.25195 17.6873 8.54089 23.3226 15.248 23.8756V31.5801C15.248 33.3732 13.7892 34.832 11.9961 34.832V37H18.5V0H11.9961Z" fill="#4DC26B"/>
</svg>
